<svg version="1.1" viewBox="0 0 548.67 180.27" xml:space="preserve" xmlns="http://www.w3.org/2000/svg"><defs><clipPath id="a"><path d="m0 0.028h595.28v841.86h-595.28z" clip-rule="evenodd"/></clipPath></defs><g transform="matrix(1.3333 0 0 -1.3333 -129.67 1046.9)"><g clip-path="url(#a)"><path d="m172.25 744.74h94.3v-16.4h-94.3z" fill="#f60" fill-rule="evenodd"/><path d="m349.35 744.74h95.5v-16.4h-95.5z" fill="#f33" fill-rule="evenodd"/><g fill="#0c0" fill-rule="evenodd"><path d="m172.25 720.34h94.3v-16.3h-94.3z"/><path d="m349.35 720.34h95.5v-16.3h-95.5z"/><path d="m172.25 696.04h94.3v-16.4h-94.3z"/><path d="m349.35 696.04h95.5v-16.4h-95.5z"/></g><path d="m172.25 671.64h94.3v-16.3h-94.3z" fill-rule="evenodd"/><path d="m349.35 671.64h95.5v-16.3h-95.5z" fill-rule="evenodd"/><path d="m97.25 783.94h411.5" fill="none" stroke="#000" stroke-linejoin="round" stroke-miterlimit="10" stroke-width="2.5"/><path d="m97.25 748.64h411.5" fill="none" stroke="#000" stroke-linejoin="round" stroke-miterlimit="10" stroke-width="2.5"/><path d="m97.25 724.34h411.5" fill="none" stroke="#000" stroke-linejoin="round" stroke-miterlimit="10" stroke-width="2.5"/><path d="m97.25 699.94h411.5" fill="none" stroke="#000" stroke-linejoin="round" stroke-miterlimit="10" stroke-width="2.5"/><path d="m97.25 675.64h411.5" fill="none" stroke="#000" stroke-linejoin="round" stroke-miterlimit="10" stroke-width="2.5"/><path d="m97.25 651.24h411.5" fill="none" stroke="#000" stroke-linejoin="round" stroke-miterlimit="10" stroke-width="2.5"/><path d="m98.5 785.19v-135.2" fill="none" stroke="#000" stroke-linejoin="round" stroke-miterlimit="10" stroke-width="2.5"/><path d="m169.6 785.19v-135.2" fill="none" stroke="#000" stroke-linejoin="round" stroke-miterlimit="10" stroke-width="2.5"/><path d="m269.3 785.19v-135.2" fill="none" stroke="#000" stroke-linejoin="round" stroke-miterlimit="10" stroke-width="2.5"/><path d="m309.2 785.19v-135.2" fill="none" stroke="#000" stroke-linejoin="round" stroke-miterlimit="10" stroke-width="2.5"/><path d="m346.6 785.19v-135.2" fill="none" stroke="#000" stroke-linejoin="round" stroke-miterlimit="10" stroke-width="2.5"/><path d="m447.6 785.19v-135.2" fill="none" stroke="#000" stroke-linejoin="round" stroke-miterlimit="10" stroke-width="2.5"/><path d="m507.5 785.19v-135.2" fill="none" stroke="#000" stroke-linejoin="round" stroke-miterlimit="10" stroke-width="2.5"/><text transform="matrix(1 0 0 -1 101.4 758.49)" fill="#000000" font-family="'Noto Sans'" font-size="20px" font-weight="bold"><tspan x="0 12.5 18.6" y="0">Pin</tspan></text>
<text transform="matrix(1 0 0 -1 189.7 758.49)" fill="#000000" font-family="'Noto Sans'" font-size="20px" font-weight="bold"><tspan x="0 16.200001 28.280001 47.880001" y="0">Name</tspan></text>
<text transform="matrix(1 0 0 -1 367.3 758.49)" fill="#000000" font-family="'Noto Sans'" font-size="20px" font-weight="bold"><tspan x="0 16.280001 28.360001 47.959999" y="0">Name</tspan></text>
<text transform="matrix(1 0 0 -1 473.1 758.49)" fill="#000000" font-family="'Noto Sans'" font-size="20px" font-weight="bold"><tspan x="0 12.5 18.6" y="0">Pin</tspan></text>
<text transform="matrix(1 0 0 -1 101.4 731.79)" fill="#000000" font-family="'Noto Sans'" font-size="12px"><tspan x="0 6.8039999" y="0">01</tspan></text>
<text transform="matrix(1 0 0 -1 205.9 731.79)" fill="#000000" font-family="'Noto Sans'" font-size="12px"><tspan x="0 6.888 10.092 16.98 20.076" y="0">3.3 V</tspan></text>
<text transform="matrix(1 0 0 -1 388.6 731.79)" fill="#000000" font-family="'Noto Sans'" font-size="12px"><tspan x="0 6.888 9.9840002" y="0">5 V</tspan></text>
<text transform="matrix(1 0 0 -1 491.1 731.79)" fill="#000000" font-family="'Noto Sans'" font-size="12px"><tspan x="0 6.888" y="0">02</tspan></text>
<text transform="matrix(1 0 0 -1 101.4 707.49)" fill="#000000" font-family="'Noto Sans'" font-size="12px"><tspan x="0 6.8039999" y="0">03</tspan></text>
<text transform="matrix(1 0 0 -1 196.4 707.49)" fill="#000000" font-family="'Noto Sans'" font-size="12px"><tspan x="0 8.6999998 15.984 20.076 29.459999 32.556 39.360001" y="0">GPIO 18</tspan></text>
<text transform="matrix(1 0 0 -1 374.1 707.49)" fill="#000000" font-family="'Noto Sans'" font-size="12px"><tspan x="0 8.6999998 15.9 19.992001 29.375999 32.472 39.360001" y="0">GPIO 17</tspan></text>
<text transform="matrix(1 0 0 -1 491.1 707.49)" fill="#000000" font-family="'Noto Sans'" font-size="12px"><tspan x="0 6.888" y="0">04</tspan></text>
<text transform="matrix(1 0 0 -1 101.4 683.09)" fill="#000000" font-family="'Noto Sans'" font-size="12px"><tspan x="0 6.8039999" y="0">05</tspan></text>
<text transform="matrix(1 0 0 -1 196.4 683.09)" fill="#000000" font-family="'Noto Sans'" font-size="12px"><tspan x="0 8.6999998 15.984 20.076 29.459999 32.556 39.360001" y="0">GPIO 20</tspan></text>
<text transform="matrix(1 0 0 -1 374.1 683.09)" fill="#000000" font-family="'Noto Sans'" font-size="12px"><tspan x="0 8.6999998 15.9 19.992001 29.375999 32.472 39.360001" y="0">GPIO 19</tspan></text>
<text transform="matrix(1 0 0 -1 491.1 683.09)" fill="#000000" font-family="'Noto Sans'" font-size="12px"><tspan x="0 6.888" y="0">06</tspan></text>
<text transform="matrix(1 0 0 -1 101.4 658.79)" fill="#000000" font-family="'Noto Sans'" font-size="12px"><tspan x="0 6.8039999" y="0">07</tspan></text>
<text transform="matrix(1 0 0 -1 206.3 658.79)" fill="#ffffff" font-family="'Noto Sans'" font-size="12px"><tspan x="0 8.6999998 17.796" y="0">GND</tspan></text>
<text transform="matrix(1 0 0 -1 383.9 658.79)" fill="#ffffff" font-family="'Noto Sans'" font-size="12px"><tspan x="0 8.6999998 17.796" y="0">GND</tspan></text>
<text transform="matrix(1 0 0 -1 491.1 658.79)" fill="#000000" font-family="'Noto Sans'" font-size="12px"><tspan x="0 6.888" y="0">08</tspan></text>
<path d="m295.6 712.84c0-1.3-0.35-2.55-1-3.65-0.6-1.1-1.55-2.05-2.65-2.65-1.1-0.65-2.35-1-3.65-1s-2.55 0.35-3.65 1c-1.1 0.6-2.05 1.55-2.65 2.65-0.65 1.1-1 2.35-1 3.65s0.35 2.55 1 3.65c0.6 1.1 1.55 2.05 2.65 2.65 1.1 0.65 2.35 1 3.65 1s2.55-0.35 3.65-1c1.1-0.6 2.05-1.55 2.65-2.65 0.65-1.1 1-2.35 1-3.65z" fill="#0c0" fill-rule="evenodd"/><path d="m295.6 712.84c0-1.3-0.35-2.55-1-3.65-0.6-1.1-1.55-2.05-2.65-2.65-1.1-0.65-2.35-1-3.65-1s-2.55 0.35-3.65 1c-1.1 0.6-2.05 1.55-2.65 2.65-0.65 1.1-1 2.35-1 3.65s0.35 2.55 1 3.65c0.6 1.1 1.55 2.05 2.65 2.65 1.1 0.65 2.35 1 3.65 1s2.55-0.35 3.65-1c1.1-0.6 2.05-1.55 2.65-2.65 0.65-1.1 1-2.35 1-3.65z" fill="none" stroke="#000" stroke-linejoin="round" stroke-miterlimit="10" stroke-width="2.85"/><path d="m335.5 688.49c0-1.3-0.35-2.55-1-3.65-0.6-1.1-1.55-2.05-2.65-2.65-1.1-0.65-2.35-1-3.65-1s-2.55 0.35-3.65 1c-1.1 0.6-2.05 1.55-2.65 2.65-0.65 1.1-1 2.35-1 3.65s0.35 2.55 1 3.65c0.6 1.1 1.55 2.05 2.65 2.65 1.1 0.65 2.35 1 3.65 1s2.55-0.35 3.65-1c1.1-0.6 2.05-1.55 2.65-2.65 0.65-1.1 1-2.35 1-3.65z" fill="#0c0" fill-rule="evenodd"/><path d="m335.5 688.49c0-1.3-0.35-2.55-1-3.65-0.6-1.1-1.55-2.05-2.65-2.65-1.1-0.65-2.35-1-3.65-1s-2.55 0.35-3.65 1c-1.1 0.6-2.05 1.55-2.65 2.65-0.65 1.1-1 2.35-1 3.65s0.35 2.55 1 3.65c0.6 1.1 1.55 2.05 2.65 2.65 1.1 0.65 2.35 1 3.65 1s2.55-0.35 3.65-1c1.1-0.6 2.05-1.55 2.65-2.65 0.65-1.1 1-2.35 1-3.65z" fill="none" stroke="#000" stroke-linejoin="round" stroke-miterlimit="10" stroke-width="2.85"/><path d="m335.5 712.84c0-1.3-0.35-2.55-1-3.65-0.6-1.1-1.55-2.05-2.65-2.65-1.1-0.65-2.35-1-3.65-1s-2.55 0.35-3.65 1c-1.1 0.6-2.05 1.55-2.65 2.65-0.65 1.1-1 2.35-1 3.65s0.35 2.55 1 3.65c0.6 1.1 1.55 2.05 2.65 2.65 1.1 0.65 2.35 1 3.65 1s2.55-0.35 3.65-1c1.1-0.6 2.05-1.55 2.65-2.65 0.65-1.1 1-2.35 1-3.65z" fill="#0c0" fill-rule="evenodd"/><path d="m335.5 712.84c0-1.3-0.35-2.55-1-3.65-0.6-1.1-1.55-2.05-2.65-2.65-1.1-0.65-2.35-1-3.65-1s-2.55 0.35-3.65 1c-1.1 0.6-2.05 1.55-2.65 2.65-0.65 1.1-1 2.35-1 3.65s0.35 2.55 1 3.65c0.6 1.1 1.55 2.05 2.65 2.65 1.1 0.65 2.35 1 3.65 1s2.55-0.35 3.65-1c1.1-0.6 2.05-1.55 2.65-2.65 0.65-1.1 1-2.35 1-3.65z" fill="none" stroke="#000" stroke-linejoin="round" stroke-miterlimit="10" stroke-width="2.85"/><path d="m295.6 688.49c0-1.3-0.35-2.55-1-3.65-0.6-1.1-1.55-2.05-2.65-2.65-1.1-0.65-2.35-1-3.65-1s-2.55 0.35-3.65 1c-1.1 0.6-2.05 1.55-2.65 2.65-0.65 1.1-1 2.35-1 3.65s0.35 2.55 1 3.65c0.6 1.1 1.55 2.05 2.65 2.65 1.1 0.65 2.35 1 3.65 1s2.55-0.35 3.65-1c1.1-0.6 2.05-1.55 2.65-2.65 0.65-1.1 1-2.35 1-3.65z" fill="#0c0" fill-rule="evenodd"/><path d="m295.6 688.49c0-1.3-0.35-2.55-1-3.65-0.6-1.1-1.55-2.05-2.65-2.65-1.1-0.65-2.35-1-3.65-1s-2.55 0.35-3.65 1c-1.1 0.6-2.05 1.55-2.65 2.65-0.65 1.1-1 2.35-1 3.65s0.35 2.55 1 3.65c0.6 1.1 1.55 2.05 2.65 2.65 1.1 0.65 2.35 1 3.65 1s2.55-0.35 3.65-1c1.1-0.6 2.05-1.55 2.65-2.65 0.65-1.1 1-2.35 1-3.65z" fill="none" stroke="#000" stroke-linejoin="round" stroke-miterlimit="10" stroke-width="2.85"/><path d="m295.6 664.14c0-1.3-0.35-2.55-1-3.65-0.6-1.1-1.55-2.05-2.65-2.65-1.1-0.65-2.35-1-3.65-1s-2.55 0.35-3.65 1c-1.1 0.6-2.05 1.55-2.65 2.65-0.65 1.1-1 2.35-1 3.65s0.35 2.55 1 3.65c0.6 1.1 1.55 2.05 2.65 2.65 1.1 0.65 2.35 1 3.65 1s2.55-0.35 3.65-1c1.1-0.6 2.05-1.55 2.65-2.65 0.65-1.1 1-2.35 1-3.65z" fill="#fff" fill-rule="evenodd"/><path d="m295.6 664.14c0-1.3-0.35-2.55-1-3.65-0.6-1.1-1.55-2.05-2.65-2.65-1.1-0.65-2.35-1-3.65-1s-2.55 0.35-3.65 1c-1.1 0.6-2.05 1.55-2.65 2.65-0.65 1.1-1 2.35-1 3.65s0.35 2.55 1 3.65c0.6 1.1 1.55 2.05 2.65 2.65 1.1 0.65 2.35 1 3.65 1s2.55-0.35 3.65-1c1.1-0.6 2.05-1.55 2.65-2.65 0.65-1.1 1-2.35 1-3.65z" fill="none" stroke="#000" stroke-linejoin="round" stroke-miterlimit="10" stroke-width="2.85"/><path d="m335.5 664.14c0-1.3-0.35-2.55-1-3.65-0.6-1.1-1.55-2.05-2.65-2.65-1.1-0.65-2.35-1-3.65-1s-2.55 0.35-3.65 1c-1.1 0.6-2.05 1.55-2.65 2.65-0.65 1.1-1 2.35-1 3.65s0.35 2.55 1 3.65c0.6 1.1 1.55 2.05 2.65 2.65 1.1 0.65 2.35 1 3.65 1s2.55-0.35 3.65-1c1.1-0.6 2.05-1.55 2.65-2.65 0.65-1.1 1-2.35 1-3.65z" fill="#fff" fill-rule="evenodd"/><path d="m335.5 664.14c0-1.3-0.35-2.55-1-3.65-0.6-1.1-1.55-2.05-2.65-2.65-1.1-0.65-2.35-1-3.65-1s-2.55 0.35-3.65 1c-1.1 0.6-2.05 1.55-2.65 2.65-0.65 1.1-1 2.35-1 3.65s0.35 2.55 1 3.65c0.6 1.1 1.55 2.05 2.65 2.65 1.1 0.65 2.35 1 3.65 1s2.55-0.35 3.65-1c1.1-0.6 2.05-1.55 2.65-2.65 0.65-1.1 1-2.35 1-3.65z" fill="none" stroke="#000" stroke-linejoin="round" stroke-miterlimit="10" stroke-width="2.85"/><path d="m296.5 737.44c0-1.3-0.35-2.55-1-3.65-0.6-1.1-1.55-2.05-2.65-2.65-1.1-0.65-2.35-1-3.65-1s-2.55 0.35-3.65 1c-1.1 0.6-2.05 1.55-2.65 2.65-0.65 1.1-1 2.35-1 3.65s0.35 2.55 1 3.65c0.6 1.1 1.55 2.05 2.65 2.65 1.1 0.65 2.35 1 3.65 1s2.55-0.35 3.65-1c1.1-0.6 2.05-1.55 2.65-2.65 0.65-1.1 1-2.35 1-3.65z" fill="#f60" fill-rule="evenodd"/><path d="m296.5 737.44c0-1.3-0.35-2.55-1-3.65-0.6-1.1-1.55-2.05-2.65-2.65-1.1-0.65-2.35-1-3.65-1s-2.55 0.35-3.65 1c-1.1 0.6-2.05 1.55-2.65 2.65-0.65 1.1-1 2.35-1 3.65s0.35 2.55 1 3.65c0.6 1.1 1.55 2.05 2.65 2.65 1.1 0.65 2.35 1 3.65 1s2.55-0.35 3.65-1c1.1-0.6 2.05-1.55 2.65-2.65 0.65-1.1 1-2.35 1-3.65z" fill="none" stroke="#000" stroke-linejoin="round" stroke-miterlimit="10" stroke-width="2.85"/><path d="m323.25 744.74c-0.4 0-0.8-0.1-1.15-0.3s-0.65-0.5-0.85-0.85-0.3-0.75-0.3-1.15v-9.2c0-0.4 0.1-0.8 0.3-1.15s0.5-0.65 0.85-0.85 0.75-0.3 1.15-0.3h9.2c0.4 0 0.8 0.1 1.15 0.3s0.65 0.5 0.85 0.85 0.3 0.75 0.3 1.15v9.2c0 0.4-0.1 0.8-0.3 1.15s-0.5 0.65-0.85 0.85-0.75 0.3-1.15 0.3z" fill="#f33" fill-rule="evenodd"/><path d="m323.25 744.74c-0.4 0-0.8-0.1-1.15-0.3s-0.65-0.5-0.85-0.85-0.3-0.75-0.3-1.15v-9.2c0-0.4 0.1-0.8 0.3-1.15s0.5-0.65 0.85-0.85 0.75-0.3 1.15-0.3h9.2c0.4 0 0.8 0.1 1.15 0.3s0.65 0.5 0.85 0.85 0.3 0.75 0.3 1.15v9.2c0 0.4-0.1 0.8-0.3 1.15s-0.5 0.65-0.85 0.85-0.75 0.3-1.15 0.3z" fill="none" stroke="#000" stroke-linejoin="round" stroke-miterlimit="10" stroke-width="2.85"/></g></g></svg>
