<svg version="1.1" viewBox="0 0 548.67 467.33" xml:space="preserve" xmlns="http://www.w3.org/2000/svg"><defs><clipPath id="a"><path d="m0 0.028h595.28v841.86h-595.28z" clip-rule="evenodd"/></clipPath></defs><g transform="matrix(1.3333 0 0 -1.3333 -129.67 1046.9)"><g clip-path="url(#a)"><g fill-rule="evenodd"><path d="m172.25 748.54h94.3v-16.3h-94.3z" fill="#f60"/><path d="m349.35 748.54h95.5v-16.3h-95.5z" fill="#f33"/><path d="m172.25 724.24h94.3v-16.4h-94.3z" fill="#0c0"/><path d="m349.35 724.24h95.5v-16.4h-95.5z" fill="#f33"/><path d="m172.25 699.84h94.3v-16.3h-94.3z" fill="#0c0"/><path d="m349.35 699.84h95.5v-16.3h-95.5z"/><path d="m172.25 675.54h94.3v-16.4h-94.3z" fill="#0c0"/><path d="m349.35 675.54h95.5v-16.4h-95.5z" fill="#0c0"/><path d="m172.25 651.14h94.3v-16.3h-94.3z"/></g><g fill="#0c0" fill-rule="evenodd"><path d="m349.35 651.14h95.5v-16.3h-95.5z"/><path d="m172.25 626.84h94.3v-16.4h-94.3z"/><path d="m349.35 626.84h95.5v-16.4h-95.5z"/><path d="m172.25 602.44h94.3v-16.3h-94.3z"/></g><g fill-rule="evenodd"><path d="m349.35 602.44h95.5v-16.3h-95.5z"/><path d="m172.25 578.14h94.3v-16.4h-94.3z" fill="#0c0"/><path d="m349.35 578.14h95.5v-16.4h-95.5z" fill="#0c0"/><path d="m172.25 553.74h94.3v-16.3h-94.3z" fill="#f60"/><path d="m349.35 553.74h95.5v-16.3h-95.5z" fill="#0c0"/><path d="m172.25 529.44h94.3v-16.4h-94.3z" fill="#0c0"/><path d="m349.35 529.44h95.5v-16.4h-95.5z"/></g><g fill="#0c0" fill-rule="evenodd"><path d="m172.25 505.04h94.3v-16.3h-94.3z"/><path d="m349.35 505.04h95.5v-16.3h-95.5z"/><path d="m172.25 480.74h94.3v-16.4h-94.3z"/><path d="m349.35 480.74h95.5v-16.4h-95.5z"/></g><path d="m172.25 456.34h94.3v-16.3h-94.3z" fill-rule="evenodd"/><path d="m349.35 456.34h95.5v-16.3h-95.5z" fill="#0c0" fill-rule="evenodd"/><path d="m97.25 783.94h411.5" fill="none" stroke="#000" stroke-linejoin="round" stroke-miterlimit="10" stroke-width="2.5"/><path d="m97.25 752.54h411.5" fill="none" stroke="#000" stroke-linejoin="round" stroke-miterlimit="10" stroke-width="2.5"/><path d="m97.25 728.14h411.5" fill="none" stroke="#000" stroke-linejoin="round" stroke-miterlimit="10" stroke-width="2.5"/><path d="m97.25 703.84h411.5" fill="none" stroke="#000" stroke-linejoin="round" stroke-miterlimit="10" stroke-width="2.5"/><path d="m97.25 679.44h411.5" fill="none" stroke="#000" stroke-linejoin="round" stroke-miterlimit="10" stroke-width="2.5"/><path d="m97.25 655.14h411.5" fill="none" stroke="#000" stroke-linejoin="round" stroke-miterlimit="10" stroke-width="2.5"/><path d="m97.25 630.74h411.5" fill="none" stroke="#000" stroke-linejoin="round" stroke-miterlimit="10" stroke-width="2.5"/><path d="m97.25 606.44h411.5" fill="none" stroke="#000" stroke-linejoin="round" stroke-miterlimit="10" stroke-width="2.5"/><path d="m97.25 582.04h411.5" fill="none" stroke="#000" stroke-linejoin="round" stroke-miterlimit="10" stroke-width="2.5"/><path d="m97.25 557.74h411.5" fill="none" stroke="#000" stroke-linejoin="round" stroke-miterlimit="10" stroke-width="2.5"/><path d="m97.25 533.34h411.5" fill="none" stroke="#000" stroke-linejoin="round" stroke-miterlimit="10" stroke-width="2.5"/><path d="m97.25 509.04h411.5" fill="none" stroke="#000" stroke-linejoin="round" stroke-miterlimit="10" stroke-width="2.5"/><path d="m97.25 484.64h411.5" fill="none" stroke="#000" stroke-linejoin="round" stroke-miterlimit="10" stroke-width="2.5"/><path d="m97.25 460.34h411.5" fill="none" stroke="#000" stroke-linejoin="round" stroke-miterlimit="10" stroke-width="2.5"/><path d="m97.25 435.94h411.5" fill="none" stroke="#000" stroke-linejoin="round" stroke-miterlimit="10" stroke-width="2.5"/><path d="m98.5 785.19v-350.5" fill="none" stroke="#000" stroke-linejoin="round" stroke-miterlimit="10" stroke-width="2.5"/><path d="m169.6 785.19v-350.5" fill="none" stroke="#000" stroke-linejoin="round" stroke-miterlimit="10" stroke-width="2.5"/><path d="m269.3 785.19v-350.5" fill="none" stroke="#000" stroke-linejoin="round" stroke-miterlimit="10" stroke-width="2.5"/><path d="m309.2 785.19v-350.5" fill="none" stroke="#000" stroke-linejoin="round" stroke-miterlimit="10" stroke-width="2.5"/><path d="m346.6 785.19v-350.5" fill="none" stroke="#000" stroke-linejoin="round" stroke-miterlimit="10" stroke-width="2.5"/><path d="m447.6 785.19v-350.5" fill="none" stroke="#000" stroke-linejoin="round" stroke-miterlimit="10" stroke-width="2.5"/><path d="m507.5 785.19v-350.5" fill="none" stroke="#000" stroke-linejoin="round" stroke-miterlimit="10" stroke-width="2.5"/><text transform="matrix(1 0 0 -1 101.4 761.69)" fill="#000000" font-family="Consolas" font-size="20px" font-weight="bold"><tspan x="0 10.98 21.959999" y="0">Pin</tspan></text>
<text transform="matrix(1 0 0 -1 197.6 761.69)" fill="#000000" font-family="Consolas" font-size="20px" font-weight="bold"><tspan x="0 10.98 21.959999 32.939999" y="0">Name</tspan></text>
<text transform="matrix(1 0 0 -1 375.2 761.69)" fill="#000000" font-family="Consolas" font-size="20px" font-weight="bold"><tspan x="0 10.98 21.959999 32.939999" y="0">Name</tspan></text>
<text transform="matrix(1 0 0 -1 471.9 761.69)" fill="#000000" font-family="Consolas" font-size="20px" font-weight="bold"><tspan x="0 10.98 21.959999" y="0">Pin</tspan></text>
<text transform="matrix(1 0 0 -1 101.4 735.69)" fill="#000000" font-family="'Noto Sans'" font-size="12px"><tspan x="0 6.8039999" y="0">01</tspan></text>
<text transform="matrix(1 0 0 -1 205.9 735.69)" fill="#000000" font-family="'Noto Sans'" font-size="12px"><tspan x="0 6.888 10.092 16.98 20.076" y="0">3.3 V</tspan></text>
<text transform="matrix(1 0 0 -1 388.6 735.69)" fill="#000000" font-family="'Noto Sans'" font-size="12px"><tspan x="0 6.888 9.9840002" y="0">5 V</tspan></text>
<text transform="matrix(1 0 0 -1 491.1 735.69)" fill="#000000" font-family="'Noto Sans'" font-size="12px"><tspan x="0 6.888" y="0">02</tspan></text>
<text transform="matrix(1 0 0 -1 101.4 711.29)" fill="#000000" font-family="'Noto Sans'" font-size="12px"><tspan x="0 6.8039999" y="0">03</tspan></text>
<text transform="matrix(1 0 0 -1 196.4 711.29)" fill="#000000" font-family="'Noto Sans'" font-size="12px"><tspan x="0 8.6999998 15.984 20.076 29.459999 32.556 39.360001" y="0">GPIO 02</tspan></text>
<text transform="matrix(1 0 0 -1 388.6 711.29)" fill="#000000" font-family="'Noto Sans'" font-size="12px"><tspan x="0 6.888 9.9840002" y="0">5 V</tspan></text>
<text transform="matrix(1 0 0 -1 491.1 711.29)" fill="#000000" font-family="'Noto Sans'" font-size="12px"><tspan x="0 6.888" y="0">04</tspan></text>
<text transform="matrix(1 0 0 -1 101.4 686.99)" fill="#000000" font-family="'Noto Sans'" font-size="12px"><tspan x="0 6.8039999" y="0">05</tspan></text>
<text transform="matrix(1 0 0 -1 196.4 686.99)" fill="#000000" font-family="'Noto Sans'" font-size="12px"><tspan x="0 8.6999998 15.984 20.076 29.459999 32.556 39.360001" y="0">GPIO 03</tspan></text>
<text transform="matrix(1 0 0 -1 383.9 686.99)" fill="#ffffff" font-family="'Noto Sans'" font-size="12px"><tspan x="0 8.6999998 17.796" y="0">GND</tspan></text>
<text transform="matrix(1 0 0 -1 491.1 686.99)" fill="#000000" font-family="'Noto Sans'" font-size="12px"><tspan x="0 6.888" y="0">06</tspan></text>
<text transform="matrix(1 0 0 -1 101.4 662.59)" fill="#000000" font-family="'Noto Sans'" font-size="12px"><tspan x="0 6.8039999" y="0">07</tspan></text>
<text transform="matrix(1 0 0 -1 196.4 662.59)" fill="#000000" font-family="'Noto Sans'" font-size="12px"><tspan x="0 8.6999998 15.984 20.076 29.459999 32.556 39.360001" y="0">GPIO 04</tspan></text>
<text transform="matrix(1 0 0 -1 374.1 662.59)" fill="#000000" font-family="'Noto Sans'" font-size="12px"><tspan x="0 8.6999998 15.9 19.992001 29.375999 32.472 39.360001" y="0">GPIO 14</tspan></text>
<text transform="matrix(1 0 0 -1 491.1 662.59)" fill="#000000" font-family="'Noto Sans'" font-size="12px"><tspan x="0 6.888" y="0">08</tspan></text>
<text transform="matrix(1 0 0 -1 101.4 638.29)" fill="#000000" font-family="'Noto Sans'" font-size="12px"><tspan x="0 6.8039999" y="0">09</tspan></text>
<text transform="matrix(1 0 0 -1 206.3 638.29)" fill="#ffffff" font-family="'Noto Sans'" font-size="12px"><tspan x="0 8.6999998 17.796" y="0">GND</tspan></text>
<text transform="matrix(1 0 0 -1 374.1 638.29)" fill="#000000" font-family="'Noto Sans'" font-size="12px"><tspan x="0 8.6999998 15.9 19.992001 29.375999 32.472 39.360001" y="0">GPIO 15</tspan></text>
<text transform="matrix(1 0 0 -1 491.1 638.29)" fill="#000000" font-family="'Noto Sans'" font-size="12px"><tspan x="0 6.888" y="0">10</tspan></text>
<text transform="matrix(1 0 0 -1 101.4 613.89)" fill="#000000" font-family="'Noto Sans'" font-size="12px"><tspan x="0 6.8039999" y="0">11</tspan></text>
<text transform="matrix(1 0 0 -1 196.4 613.89)" fill="#000000" font-family="'Noto Sans'" font-size="12px"><tspan x="0 8.6999998 15.984 20.076 29.459999 32.556 39.360001" y="0">GPIO 17</tspan></text>
<text transform="matrix(1 0 0 -1 374.1 613.89)" fill="#000000" font-family="'Noto Sans'" font-size="12px"><tspan x="0 8.6999998 15.9 19.992001 29.375999 32.472 39.360001" y="0">GPIO 18</tspan></text>
<text transform="matrix(1 0 0 -1 491.1 613.89)" fill="#000000" font-family="'Noto Sans'" font-size="12px"><tspan x="0 6.888" y="0">12</tspan></text>
<text transform="matrix(1 0 0 -1 101.4 589.59)" fill="#000000" font-family="'Noto Sans'" font-size="12px"><tspan x="0 6.8039999" y="0">13</tspan></text>
<text transform="matrix(1 0 0 -1 196.4 589.59)" fill="#000000" font-family="'Noto Sans'" font-size="12px"><tspan x="0 8.6999998 15.984 20.076 29.459999 32.556 39.360001" y="0">GPIO 27</tspan></text>
<text transform="matrix(1 0 0 -1 383.9 589.59)" fill="#ffffff" font-family="'Noto Sans'" font-size="12px"><tspan x="0 8.6999998 17.796" y="0">GND</tspan></text>
<text transform="matrix(1 0 0 -1 491.1 589.59)" fill="#000000" font-family="'Noto Sans'" font-size="12px"><tspan x="0 6.888" y="0">14</tspan></text>
<text transform="matrix(1 0 0 -1 101.4 565.19)" fill="#000000" font-family="'Noto Sans'" font-size="12px"><tspan x="0 6.8039999" y="0">15</tspan></text>
<text transform="matrix(1 0 0 -1 196.4 565.19)" fill="#000000" font-family="'Noto Sans'" font-size="12px"><tspan x="0 8.6999998 15.984 20.076 29.459999 32.556 39.360001" y="0">GPIO 22</tspan></text>
<text transform="matrix(1 0 0 -1 374.1 565.19)" fill="#000000" font-family="'Noto Sans'" font-size="12px"><tspan x="0 8.6999998 15.9 19.992001 29.375999 32.472 39.360001" y="0">GPIO 23</tspan></text>
<text transform="matrix(1 0 0 -1 491.1 565.19)" fill="#000000" font-family="'Noto Sans'" font-size="12px"><tspan x="0 6.888" y="0">16</tspan></text>
<text transform="matrix(1 0 0 -1 101.4 540.89)" fill="#000000" font-family="'Noto Sans'" font-size="12px"><tspan x="0 6.8039999" y="0">17</tspan></text>
<text transform="matrix(1 0 0 -1 205.9 540.89)" fill="#000000" font-family="'Noto Sans'" font-size="12px"><tspan x="0 6.888 10.092 16.98 20.076" y="0">3.3 V</tspan></text>
<text transform="matrix(1 0 0 -1 374.1 540.89)" fill="#000000" font-family="'Noto Sans'" font-size="12px"><tspan x="0 8.6999998 15.9 19.992001 29.375999 32.472 39.360001" y="0">GPIO 24</tspan></text>
<text transform="matrix(1 0 0 -1 491.1 540.89)" fill="#000000" font-family="'Noto Sans'" font-size="12px"><tspan x="0 6.888" y="0">18</tspan></text>
<text transform="matrix(1 0 0 -1 101.4 516.49)" fill="#000000" font-family="'Noto Sans'" font-size="12px"><tspan x="0 6.8039999" y="0">19</tspan></text>
<text transform="matrix(1 0 0 -1 196.4 516.49)" fill="#000000" font-family="'Noto Sans'" font-size="12px"><tspan x="0 8.6999998 15.984 20.076 29.459999 32.556 39.360001" y="0">GPIO 10</tspan></text>
<text transform="matrix(1 0 0 -1 382.4 516.49)" fill="#ffffff" font-family="'Noto Sans'" font-size="12px"><tspan x="0 8.6999998 17.796 26.58" y="0">GND </tspan></text>
<text transform="matrix(1 0 0 -1 491.1 516.49)" fill="#000000" font-family="'Noto Sans'" font-size="12px"><tspan x="0 6.888" y="0">20</tspan></text>
<text transform="matrix(1 0 0 -1 101.4 492.19)" fill="#000000" font-family="'Noto Sans'" font-size="12px"><tspan x="0 6.8039999" y="0">21</tspan></text>
<text transform="matrix(1 0 0 -1 196.4 492.19)" fill="#000000" font-family="'Noto Sans'" font-size="12px"><tspan x="0 8.6999998 15.984 20.076 29.459999 32.556 39.360001" y="0">GPIO 09</tspan></text>
<text transform="matrix(1 0 0 -1 374.1 492.19)" fill="#000000" font-family="'Noto Sans'" font-size="12px"><tspan x="0 8.6999998 15.9 19.992001 29.375999 32.472 39.360001" y="0">GPIO 25</tspan></text>
<text transform="matrix(1 0 0 -1 491.1 492.19)" fill="#000000" font-family="'Noto Sans'" font-size="12px"><tspan x="0 6.888" y="0">22</tspan></text>
<text transform="matrix(1 0 0 -1 101.4 467.79)" fill="#000000" font-family="'Noto Sans'" font-size="12px"><tspan x="0 6.8039999" y="0">23</tspan></text>
<text transform="matrix(1 0 0 -1 196.4 467.79)" fill="#000000" font-family="'Noto Sans'" font-size="12px"><tspan x="0 8.6999998 15.984 20.076 29.459999 32.556 39.360001" y="0">GPIO 11</tspan></text>
<text transform="matrix(1 0 0 -1 374.1 467.79)" fill="#000000" font-family="'Noto Sans'" font-size="12px"><tspan x="0 8.6999998 15.9 19.992001 29.375999 32.472 39.360001" y="0">GPIO 08</tspan></text>
<text transform="matrix(1 0 0 -1 491.1 467.79)" fill="#000000" font-family="'Noto Sans'" font-size="12px"><tspan x="0 6.888" y="0">24</tspan></text>
<text transform="matrix(1 0 0 -1 101.4 443.49)" fill="#000000" font-family="'Noto Sans'" font-size="12px"><tspan x="0 6.8039999" y="0">25</tspan></text>
<text transform="matrix(1 0 0 -1 206.3 443.49)" fill="#ffffff" font-family="'Noto Sans'" font-size="12px"><tspan x="0 8.6999998 17.796" y="0">GND</tspan></text>
<text transform="matrix(1 0 0 -1 374.1 443.49)" fill="#000000" font-family="'Noto Sans'" font-size="12px"><tspan x="0 8.6999998 15.9 19.992001 29.375999 32.472 39.360001" y="0">GPIO 07</tspan></text>
<text transform="matrix(1 0 0 -1 491.1 443.49)" fill="#000000" font-family="'Noto Sans'" font-size="12px"><tspan x="0 6.888" y="0">26</tspan></text>
<path d="m284.95 747.94c-0.4 0-0.8-0.1-1.15-0.3s-0.65-0.5-0.85-0.85-0.3-0.75-0.3-1.15v-9.2c0-0.4 0.1-0.8 0.3-1.15s0.5-0.65 0.85-0.85 0.75-0.3 1.15-0.3h9.2c0.4 0 0.8 0.1 1.15 0.3s0.65 0.5 0.85 0.85 0.3 0.75 0.3 1.15v9.2c0 0.4-0.1 0.8-0.3 1.15s-0.5 0.65-0.85 0.85-0.75 0.3-1.15 0.3z" fill="#f60" fill-rule="evenodd"/><path d="m284.95 747.94c-0.4 0-0.8-0.1-1.15-0.3s-0.65-0.5-0.85-0.85-0.3-0.75-0.3-1.15v-9.2c0-0.4 0.1-0.8 0.3-1.15s0.5-0.65 0.85-0.85 0.75-0.3 1.15-0.3h9.2c0.4 0 0.8 0.1 1.15 0.3s0.65 0.5 0.85 0.85 0.3 0.75 0.3 1.15v9.2c0 0.4-0.1 0.8-0.3 1.15s-0.5 0.65-0.85 0.85-0.75 0.3-1.15 0.3z" fill="none" stroke="#000" stroke-linejoin="round" stroke-miterlimit="10" stroke-width="2.85"/><path d="m335.5 741.04c0-1.3-0.35-2.55-1-3.65-0.6-1.1-1.55-2.05-2.65-2.65-1.1-0.65-2.35-1-3.65-1s-2.55 0.35-3.65 1c-1.1 0.6-2.05 1.55-2.65 2.65-0.65 1.1-1 2.35-1 3.65s0.35 2.55 1 3.65c0.6 1.1 1.55 2.05 2.65 2.65 1.1 0.65 2.35 1 3.65 1s2.55-0.35 3.65-1c1.1-0.6 2.05-1.55 2.65-2.65 0.65-1.1 1-2.35 1-3.65z" fill="#f33" fill-rule="evenodd"/><path d="m335.5 741.04c0-1.3-0.35-2.55-1-3.65-0.6-1.1-1.55-2.05-2.65-2.65-1.1-0.65-2.35-1-3.65-1s-2.55 0.35-3.65 1c-1.1 0.6-2.05 1.55-2.65 2.65-0.65 1.1-1 2.35-1 3.65s0.35 2.55 1 3.65c0.6 1.1 1.55 2.05 2.65 2.65 1.1 0.65 2.35 1 3.65 1s2.55-0.35 3.65-1c1.1-0.6 2.05-1.55 2.65-2.65 0.65-1.1 1-2.35 1-3.65z" fill="none" stroke="#000" stroke-linejoin="round" stroke-miterlimit="10" stroke-width="2.85"/><path d="m295.6 716.69c0-1.3-0.35-2.55-1-3.65-0.6-1.1-1.55-2.05-2.65-2.65-1.1-0.65-2.35-1-3.65-1s-2.55 0.35-3.65 1c-1.1 0.6-2.05 1.55-2.65 2.65-0.65 1.1-1 2.35-1 3.65s0.35 2.55 1 3.65c0.6 1.1 1.55 2.05 2.65 2.65 1.1 0.65 2.35 1 3.65 1s2.55-0.35 3.65-1c1.1-0.6 2.05-1.55 2.65-2.65 0.65-1.1 1-2.35 1-3.65z" fill="#0c0" fill-rule="evenodd"/><path d="m295.6 716.69c0-1.3-0.35-2.55-1-3.65-0.6-1.1-1.55-2.05-2.65-2.65-1.1-0.65-2.35-1-3.65-1s-2.55 0.35-3.65 1c-1.1 0.6-2.05 1.55-2.65 2.65-0.65 1.1-1 2.35-1 3.65s0.35 2.55 1 3.65c0.6 1.1 1.55 2.05 2.65 2.65 1.1 0.65 2.35 1 3.65 1s2.55-0.35 3.65-1c1.1-0.6 2.05-1.55 2.65-2.65 0.65-1.1 1-2.35 1-3.65z" fill="none" stroke="#000" stroke-linejoin="round" stroke-miterlimit="10" stroke-width="2.85"/><path d="m335.5 692.34c0-1.3-0.35-2.55-1-3.65-0.6-1.1-1.55-2.05-2.65-2.65-1.1-0.65-2.35-1-3.65-1s-2.55 0.35-3.65 1c-1.1 0.6-2.05 1.55-2.65 2.65-0.65 1.1-1 2.35-1 3.65s0.35 2.55 1 3.65c0.6 1.1 1.55 2.05 2.65 2.65 1.1 0.65 2.35 1 3.65 1s2.55-0.35 3.65-1c1.1-0.6 2.05-1.55 2.65-2.65 0.65-1.1 1-2.35 1-3.65z" fill="#fff" fill-rule="evenodd"/><path d="m335.5 692.34c0-1.3-0.35-2.55-1-3.65-0.6-1.1-1.55-2.05-2.65-2.65-1.1-0.65-2.35-1-3.65-1s-2.55 0.35-3.65 1c-1.1 0.6-2.05 1.55-2.65 2.65-0.65 1.1-1 2.35-1 3.65s0.35 2.55 1 3.65c0.6 1.1 1.55 2.05 2.65 2.65 1.1 0.65 2.35 1 3.65 1s2.55-0.35 3.65-1c1.1-0.6 2.05-1.55 2.65-2.65 0.65-1.1 1-2.35 1-3.65z" fill="none" stroke="#000" stroke-linejoin="round" stroke-miterlimit="10" stroke-width="2.85"/><path d="m295.6 546.24c0-1.3-0.35-2.55-1-3.65-0.6-1.1-1.55-2.05-2.65-2.65-1.1-0.65-2.35-1-3.65-1s-2.55 0.35-3.65 1c-1.1 0.6-2.05 1.55-2.65 2.65-0.65 1.1-1 2.35-1 3.65s0.35 2.55 1 3.65c0.6 1.1 1.55 2.05 2.65 2.65 1.1 0.65 2.35 1 3.65 1s2.55-0.35 3.65-1c1.1-0.6 2.05-1.55 2.65-2.65 0.65-1.1 1-2.35 1-3.65z" fill="#f60" fill-rule="evenodd"/><path d="m295.6 546.24c0-1.3-0.35-2.55-1-3.65-0.6-1.1-1.55-2.05-2.65-2.65-1.1-0.65-2.35-1-3.65-1s-2.55 0.35-3.65 1c-1.1 0.6-2.05 1.55-2.65 2.65-0.65 1.1-1 2.35-1 3.65s0.35 2.55 1 3.65c0.6 1.1 1.55 2.05 2.65 2.65 1.1 0.65 2.35 1 3.65 1s2.55-0.35 3.65-1c1.1-0.6 2.05-1.55 2.65-2.65 0.65-1.1 1-2.35 1-3.65z" fill="none" stroke="#000" stroke-linejoin="round" stroke-miterlimit="10" stroke-width="2.85"/><path d="m335.5 716.69c0-1.3-0.35-2.55-1-3.65-0.6-1.1-1.55-2.05-2.65-2.65-1.1-0.65-2.35-1-3.65-1s-2.55 0.35-3.65 1c-1.1 0.6-2.05 1.55-2.65 2.65-0.65 1.1-1 2.35-1 3.65s0.35 2.55 1 3.65c0.6 1.1 1.55 2.05 2.65 2.65 1.1 0.65 2.35 1 3.65 1s2.55-0.35 3.65-1c1.1-0.6 2.05-1.55 2.65-2.65 0.65-1.1 1-2.35 1-3.65z" fill="#f33" fill-rule="evenodd"/><path d="m335.5 716.69c0-1.3-0.35-2.55-1-3.65-0.6-1.1-1.55-2.05-2.65-2.65-1.1-0.65-2.35-1-3.65-1s-2.55 0.35-3.65 1c-1.1 0.6-2.05 1.55-2.65 2.65-0.65 1.1-1 2.35-1 3.65s0.35 2.55 1 3.65c0.6 1.1 1.55 2.05 2.65 2.65 1.1 0.65 2.35 1 3.65 1s2.55-0.35 3.65-1c1.1-0.6 2.05-1.55 2.65-2.65 0.65-1.1 1-2.35 1-3.65z" fill="none" stroke="#000" stroke-linejoin="round" stroke-miterlimit="10" stroke-width="2.85"/><path d="m295.6 643.64c0-1.3-0.35-2.55-1-3.65-0.6-1.1-1.55-2.05-2.65-2.65-1.1-0.65-2.35-1-3.65-1s-2.55 0.35-3.65 1c-1.1 0.6-2.05 1.55-2.65 2.65-0.65 1.1-1 2.35-1 3.65s0.35 2.55 1 3.65c0.6 1.1 1.55 2.05 2.65 2.65 1.1 0.65 2.35 1 3.65 1s2.55-0.35 3.65-1c1.1-0.6 2.05-1.55 2.65-2.65 0.65-1.1 1-2.35 1-3.65z" fill="#fff" fill-rule="evenodd"/><path d="m295.6 643.64c0-1.3-0.35-2.55-1-3.65-0.6-1.1-1.55-2.05-2.65-2.65-1.1-0.65-2.35-1-3.65-1s-2.55 0.35-3.65 1c-1.1 0.6-2.05 1.55-2.65 2.65-0.65 1.1-1 2.35-1 3.65s0.35 2.55 1 3.65c0.6 1.1 1.55 2.05 2.65 2.65 1.1 0.65 2.35 1 3.65 1s2.55-0.35 3.65-1c1.1-0.6 2.05-1.55 2.65-2.65 0.65-1.1 1-2.35 1-3.65z" fill="none" stroke="#000" stroke-linejoin="round" stroke-miterlimit="10" stroke-width="2.85"/><path d="m335.5 594.94c0-1.3-0.35-2.55-1-3.65-0.6-1.1-1.55-2.05-2.65-2.65-1.1-0.65-2.35-1-3.65-1s-2.55 0.35-3.65 1c-1.1 0.6-2.05 1.55-2.65 2.65-0.65 1.1-1 2.35-1 3.65s0.35 2.55 1 3.65c0.6 1.1 1.55 2.05 2.65 2.65 1.1 0.65 2.35 1 3.65 1s2.55-0.35 3.65-1c1.1-0.6 2.05-1.55 2.65-2.65 0.65-1.1 1-2.35 1-3.65z" fill="#fff" fill-rule="evenodd"/><path d="m335.5 594.94c0-1.3-0.35-2.55-1-3.65-0.6-1.1-1.55-2.05-2.65-2.65-1.1-0.65-2.35-1-3.65-1s-2.55 0.35-3.65 1c-1.1 0.6-2.05 1.55-2.65 2.65-0.65 1.1-1 2.35-1 3.65s0.35 2.55 1 3.65c0.6 1.1 1.55 2.05 2.65 2.65 1.1 0.65 2.35 1 3.65 1s2.55-0.35 3.65-1c1.1-0.6 2.05-1.55 2.65-2.65 0.65-1.1 1-2.35 1-3.65z" fill="none" stroke="#000" stroke-linejoin="round" stroke-miterlimit="10" stroke-width="2.85"/><path d="m335.5 521.89c0-1.3-0.35-2.55-1-3.65-0.6-1.1-1.55-2.05-2.65-2.65-1.1-0.65-2.35-1-3.65-1s-2.55 0.35-3.65 1c-1.1 0.6-2.05 1.55-2.65 2.65-0.65 1.1-1 2.35-1 3.65s0.35 2.55 1 3.65c0.6 1.1 1.55 2.05 2.65 2.65 1.1 0.65 2.35 1 3.65 1s2.55-0.35 3.65-1c1.1-0.6 2.05-1.55 2.65-2.65 0.65-1.1 1-2.35 1-3.65z" fill="#fff" fill-rule="evenodd"/><path d="m335.5 521.89c0-1.3-0.35-2.55-1-3.65-0.6-1.1-1.55-2.05-2.65-2.65-1.1-0.65-2.35-1-3.65-1s-2.55 0.35-3.65 1c-1.1 0.6-2.05 1.55-2.65 2.65-0.65 1.1-1 2.35-1 3.65s0.35 2.55 1 3.65c0.6 1.1 1.55 2.05 2.65 2.65 1.1 0.65 2.35 1 3.65 1s2.55-0.35 3.65-1c1.1-0.6 2.05-1.55 2.65-2.65 0.65-1.1 1-2.35 1-3.65z" fill="none" stroke="#000" stroke-linejoin="round" stroke-miterlimit="10" stroke-width="2.85"/><path d="m295.6 448.84c0-1.3-0.35-2.55-1-3.65-0.6-1.1-1.55-2.05-2.65-2.65-1.1-0.65-2.35-1-3.65-1s-2.55 0.35-3.65 1c-1.1 0.6-2.05 1.55-2.65 2.65-0.65 1.1-1 2.35-1 3.65s0.35 2.55 1 3.65c0.6 1.1 1.55 2.05 2.65 2.65 1.1 0.65 2.35 1 3.65 1s2.55-0.35 3.65-1c1.1-0.6 2.05-1.55 2.65-2.65 0.65-1.1 1-2.35 1-3.65z" fill="#fff" fill-rule="evenodd"/><path d="m295.6 448.84c0-1.3-0.35-2.55-1-3.65-0.6-1.1-1.55-2.05-2.65-2.65-1.1-0.65-2.35-1-3.65-1s-2.55 0.35-3.65 1c-1.1 0.6-2.05 1.55-2.65 2.65-0.65 1.1-1 2.35-1 3.65s0.35 2.55 1 3.65c0.6 1.1 1.55 2.05 2.65 2.65 1.1 0.65 2.35 1 3.65 1s2.55-0.35 3.65-1c1.1-0.6 2.05-1.55 2.65-2.65 0.65-1.1 1-2.35 1-3.65z" fill="none" stroke="#000" stroke-linejoin="round" stroke-miterlimit="10" stroke-width="2.85"/><path d="m295.6 692.34c0-1.3-0.35-2.55-1-3.65-0.6-1.1-1.55-2.05-2.65-2.65-1.1-0.65-2.35-1-3.65-1s-2.55 0.35-3.65 1c-1.1 0.6-2.05 1.55-2.65 2.65-0.65 1.1-1 2.35-1 3.65s0.35 2.55 1 3.65c0.6 1.1 1.55 2.05 2.65 2.65 1.1 0.65 2.35 1 3.65 1s2.55-0.35 3.65-1c1.1-0.6 2.05-1.55 2.65-2.65 0.65-1.1 1-2.35 1-3.65z" fill="#0c0" fill-rule="evenodd"/><path d="m295.6 692.34c0-1.3-0.35-2.55-1-3.65-0.6-1.1-1.55-2.05-2.65-2.65-1.1-0.65-2.35-1-3.65-1s-2.55 0.35-3.65 1c-1.1 0.6-2.05 1.55-2.65 2.65-0.65 1.1-1 2.35-1 3.65s0.35 2.55 1 3.65c0.6 1.1 1.55 2.05 2.65 2.65 1.1 0.65 2.35 1 3.65 1s2.55-0.35 3.65-1c1.1-0.6 2.05-1.55 2.65-2.65 0.65-1.1 1-2.35 1-3.65z" fill="none" stroke="#000" stroke-linejoin="round" stroke-miterlimit="10" stroke-width="2.85"/><path d="m295.6 667.99c0-1.3-0.35-2.55-1-3.65-0.6-1.1-1.55-2.05-2.65-2.65-1.1-0.65-2.35-1-3.65-1s-2.55 0.35-3.65 1c-1.1 0.6-2.05 1.55-2.65 2.65-0.65 1.1-1 2.35-1 3.65s0.35 2.55 1 3.65c0.6 1.1 1.55 2.05 2.65 2.65 1.1 0.65 2.35 1 3.65 1s2.55-0.35 3.65-1c1.1-0.6 2.05-1.55 2.65-2.65 0.65-1.1 1-2.35 1-3.65z" fill="#0c0" fill-rule="evenodd"/><path d="m295.6 667.99c0-1.3-0.35-2.55-1-3.65-0.6-1.1-1.55-2.05-2.65-2.65-1.1-0.65-2.35-1-3.65-1s-2.55 0.35-3.65 1c-1.1 0.6-2.05 1.55-2.65 2.65-0.65 1.1-1 2.35-1 3.65s0.35 2.55 1 3.65c0.6 1.1 1.55 2.05 2.65 2.65 1.1 0.65 2.35 1 3.65 1s2.55-0.35 3.65-1c1.1-0.6 2.05-1.55 2.65-2.65 0.65-1.1 1-2.35 1-3.65z" fill="none" stroke="#000" stroke-linejoin="round" stroke-miterlimit="10" stroke-width="2.85"/><path d="m335.5 667.99c0-1.3-0.35-2.55-1-3.65-0.6-1.1-1.55-2.05-2.65-2.65-1.1-0.65-2.35-1-3.65-1s-2.55 0.35-3.65 1c-1.1 0.6-2.05 1.55-2.65 2.65-0.65 1.1-1 2.35-1 3.65s0.35 2.55 1 3.65c0.6 1.1 1.55 2.05 2.65 2.65 1.1 0.65 2.35 1 3.65 1s2.55-0.35 3.65-1c1.1-0.6 2.05-1.55 2.65-2.65 0.65-1.1 1-2.35 1-3.65z" fill="#0c0" fill-rule="evenodd"/><path d="m335.5 667.99c0-1.3-0.35-2.55-1-3.65-0.6-1.1-1.55-2.05-2.65-2.65-1.1-0.65-2.35-1-3.65-1s-2.55 0.35-3.65 1c-1.1 0.6-2.05 1.55-2.65 2.65-0.65 1.1-1 2.35-1 3.65s0.35 2.55 1 3.65c0.6 1.1 1.55 2.05 2.65 2.65 1.1 0.65 2.35 1 3.65 1s2.55-0.35 3.65-1c1.1-0.6 2.05-1.55 2.65-2.65 0.65-1.1 1-2.35 1-3.65z" fill="none" stroke="#000" stroke-linejoin="round" stroke-miterlimit="10" stroke-width="2.85"/><path d="m335.5 643.64c0-1.3-0.35-2.55-1-3.65-0.6-1.1-1.55-2.05-2.65-2.65-1.1-0.65-2.35-1-3.65-1s-2.55 0.35-3.65 1c-1.1 0.6-2.05 1.55-2.65 2.65-0.65 1.1-1 2.35-1 3.65s0.35 2.55 1 3.65c0.6 1.1 1.55 2.05 2.65 2.65 1.1 0.65 2.35 1 3.65 1s2.55-0.35 3.65-1c1.1-0.6 2.05-1.55 2.65-2.65 0.65-1.1 1-2.35 1-3.65z" fill="#0c0" fill-rule="evenodd"/><path d="m335.5 643.64c0-1.3-0.35-2.55-1-3.65-0.6-1.1-1.55-2.05-2.65-2.65-1.1-0.65-2.35-1-3.65-1s-2.55 0.35-3.65 1c-1.1 0.6-2.05 1.55-2.65 2.65-0.65 1.1-1 2.35-1 3.65s0.35 2.55 1 3.65c0.6 1.1 1.55 2.05 2.65 2.65 1.1 0.65 2.35 1 3.65 1s2.55-0.35 3.65-1c1.1-0.6 2.05-1.55 2.65-2.65 0.65-1.1 1-2.35 1-3.65z" fill="none" stroke="#000" stroke-linejoin="round" stroke-miterlimit="10" stroke-width="2.85"/><path d="m335.5 619.29c0-1.3-0.35-2.55-1-3.65-0.6-1.1-1.55-2.05-2.65-2.65-1.1-0.65-2.35-1-3.65-1s-2.55 0.35-3.65 1c-1.1 0.6-2.05 1.55-2.65 2.65-0.65 1.1-1 2.35-1 3.65s0.35 2.55 1 3.65c0.6 1.1 1.55 2.05 2.65 2.65 1.1 0.65 2.35 1 3.65 1s2.55-0.35 3.65-1c1.1-0.6 2.05-1.55 2.65-2.65 0.65-1.1 1-2.35 1-3.65z" fill="#0c0" fill-rule="evenodd"/><path d="m335.5 619.29c0-1.3-0.35-2.55-1-3.65-0.6-1.1-1.55-2.05-2.65-2.65-1.1-0.65-2.35-1-3.65-1s-2.55 0.35-3.65 1c-1.1 0.6-2.05 1.55-2.65 2.65-0.65 1.1-1 2.35-1 3.65s0.35 2.55 1 3.65c0.6 1.1 1.55 2.05 2.65 2.65 1.1 0.65 2.35 1 3.65 1s2.55-0.35 3.65-1c1.1-0.6 2.05-1.55 2.65-2.65 0.65-1.1 1-2.35 1-3.65z" fill="none" stroke="#000" stroke-linejoin="round" stroke-miterlimit="10" stroke-width="2.85"/><path d="m295.6 619.29c0-1.3-0.35-2.55-1-3.65-0.6-1.1-1.55-2.05-2.65-2.65-1.1-0.65-2.35-1-3.65-1s-2.55 0.35-3.65 1c-1.1 0.6-2.05 1.55-2.65 2.65-0.65 1.1-1 2.35-1 3.65s0.35 2.55 1 3.65c0.6 1.1 1.55 2.05 2.65 2.65 1.1 0.65 2.35 1 3.65 1s2.55-0.35 3.65-1c1.1-0.6 2.05-1.55 2.65-2.65 0.65-1.1 1-2.35 1-3.65z" fill="#0c0" fill-rule="evenodd"/><path d="m295.6 619.29c0-1.3-0.35-2.55-1-3.65-0.6-1.1-1.55-2.05-2.65-2.65-1.1-0.65-2.35-1-3.65-1s-2.55 0.35-3.65 1c-1.1 0.6-2.05 1.55-2.65 2.65-0.65 1.1-1 2.35-1 3.65s0.35 2.55 1 3.65c0.6 1.1 1.55 2.05 2.65 2.65 1.1 0.65 2.35 1 3.65 1s2.55-0.35 3.65-1c1.1-0.6 2.05-1.55 2.65-2.65 0.65-1.1 1-2.35 1-3.65z" fill="none" stroke="#000" stroke-linejoin="round" stroke-miterlimit="10" stroke-width="2.85"/><path d="m295.6 594.94c0-1.3-0.35-2.55-1-3.65-0.6-1.1-1.55-2.05-2.65-2.65-1.1-0.65-2.35-1-3.65-1s-2.55 0.35-3.65 1c-1.1 0.6-2.05 1.55-2.65 2.65-0.65 1.1-1 2.35-1 3.65s0.35 2.55 1 3.65c0.6 1.1 1.55 2.05 2.65 2.65 1.1 0.65 2.35 1 3.65 1s2.55-0.35 3.65-1c1.1-0.6 2.05-1.55 2.65-2.65 0.65-1.1 1-2.35 1-3.65z" fill="#0c0" fill-rule="evenodd"/><path d="m295.6 594.94c0-1.3-0.35-2.55-1-3.65-0.6-1.1-1.55-2.05-2.65-2.65-1.1-0.65-2.35-1-3.65-1s-2.55 0.35-3.65 1c-1.1 0.6-2.05 1.55-2.65 2.65-0.65 1.1-1 2.35-1 3.65s0.35 2.55 1 3.65c0.6 1.1 1.55 2.05 2.65 2.65 1.1 0.65 2.35 1 3.65 1s2.55-0.35 3.65-1c1.1-0.6 2.05-1.55 2.65-2.65 0.65-1.1 1-2.35 1-3.65z" fill="none" stroke="#000" stroke-linejoin="round" stroke-miterlimit="10" stroke-width="2.85"/><path d="m295.6 570.59c0-1.3-0.35-2.55-1-3.65-0.6-1.1-1.55-2.05-2.65-2.65-1.1-0.65-2.35-1-3.65-1s-2.55 0.35-3.65 1c-1.1 0.6-2.05 1.55-2.65 2.65-0.65 1.1-1 2.35-1 3.65s0.35 2.55 1 3.65c0.6 1.1 1.55 2.05 2.65 2.65 1.1 0.65 2.35 1 3.65 1s2.55-0.35 3.65-1c1.1-0.6 2.05-1.55 2.65-2.65 0.65-1.1 1-2.35 1-3.65z" fill="#0c0" fill-rule="evenodd"/><path d="m295.6 570.59c0-1.3-0.35-2.55-1-3.65-0.6-1.1-1.55-2.05-2.65-2.65-1.1-0.65-2.35-1-3.65-1s-2.55 0.35-3.65 1c-1.1 0.6-2.05 1.55-2.65 2.65-0.65 1.1-1 2.35-1 3.65s0.35 2.55 1 3.65c0.6 1.1 1.55 2.05 2.65 2.65 1.1 0.65 2.35 1 3.65 1s2.55-0.35 3.65-1c1.1-0.6 2.05-1.55 2.65-2.65 0.65-1.1 1-2.35 1-3.65z" fill="none" stroke="#000" stroke-linejoin="round" stroke-miterlimit="10" stroke-width="2.85"/><path d="m335.5 570.59c0-1.3-0.35-2.55-1-3.65-0.6-1.1-1.55-2.05-2.65-2.65-1.1-0.65-2.35-1-3.65-1s-2.55 0.35-3.65 1c-1.1 0.6-2.05 1.55-2.65 2.65-0.65 1.1-1 2.35-1 3.65s0.35 2.55 1 3.65c0.6 1.1 1.55 2.05 2.65 2.65 1.1 0.65 2.35 1 3.65 1s2.55-0.35 3.65-1c1.1-0.6 2.05-1.55 2.65-2.65 0.65-1.1 1-2.35 1-3.65z" fill="#0c0" fill-rule="evenodd"/><path d="m335.5 570.59c0-1.3-0.35-2.55-1-3.65-0.6-1.1-1.55-2.05-2.65-2.65-1.1-0.65-2.35-1-3.65-1s-2.55 0.35-3.65 1c-1.1 0.6-2.05 1.55-2.65 2.65-0.65 1.1-1 2.35-1 3.65s0.35 2.55 1 3.65c0.6 1.1 1.55 2.05 2.65 2.65 1.1 0.65 2.35 1 3.65 1s2.55-0.35 3.65-1c1.1-0.6 2.05-1.55 2.65-2.65 0.65-1.1 1-2.35 1-3.65z" fill="none" stroke="#000" stroke-linejoin="round" stroke-miterlimit="10" stroke-width="2.85"/><path d="m335.5 546.24c0-1.3-0.35-2.55-1-3.65-0.6-1.1-1.55-2.05-2.65-2.65-1.1-0.65-2.35-1-3.65-1s-2.55 0.35-3.65 1c-1.1 0.6-2.05 1.55-2.65 2.65-0.65 1.1-1 2.35-1 3.65s0.35 2.55 1 3.65c0.6 1.1 1.55 2.05 2.65 2.65 1.1 0.65 2.35 1 3.65 1s2.55-0.35 3.65-1c1.1-0.6 2.05-1.55 2.65-2.65 0.65-1.1 1-2.35 1-3.65z" fill="#0c0" fill-rule="evenodd"/><path d="m335.5 546.24c0-1.3-0.35-2.55-1-3.65-0.6-1.1-1.55-2.05-2.65-2.65-1.1-0.65-2.35-1-3.65-1s-2.55 0.35-3.65 1c-1.1 0.6-2.05 1.55-2.65 2.65-0.65 1.1-1 2.35-1 3.65s0.35 2.55 1 3.65c0.6 1.1 1.55 2.05 2.65 2.65 1.1 0.65 2.35 1 3.65 1s2.55-0.35 3.65-1c1.1-0.6 2.05-1.55 2.65-2.65 0.65-1.1 1-2.35 1-3.65z" fill="none" stroke="#000" stroke-linejoin="round" stroke-miterlimit="10" stroke-width="2.85"/><path d="m295.6 521.89c0-1.3-0.35-2.55-1-3.65-0.6-1.1-1.55-2.05-2.65-2.65-1.1-0.65-2.35-1-3.65-1s-2.55 0.35-3.65 1c-1.1 0.6-2.05 1.55-2.65 2.65-0.65 1.1-1 2.35-1 3.65s0.35 2.55 1 3.65c0.6 1.1 1.55 2.05 2.65 2.65 1.1 0.65 2.35 1 3.65 1s2.55-0.35 3.65-1c1.1-0.6 2.05-1.55 2.65-2.65 0.65-1.1 1-2.35 1-3.65z" fill="#0c0" fill-rule="evenodd"/><path d="m295.6 521.89c0-1.3-0.35-2.55-1-3.65-0.6-1.1-1.55-2.05-2.65-2.65-1.1-0.65-2.35-1-3.65-1s-2.55 0.35-3.65 1c-1.1 0.6-2.05 1.55-2.65 2.65-0.65 1.1-1 2.35-1 3.65s0.35 2.55 1 3.65c0.6 1.1 1.55 2.05 2.65 2.65 1.1 0.65 2.35 1 3.65 1s2.55-0.35 3.65-1c1.1-0.6 2.05-1.55 2.65-2.65 0.65-1.1 1-2.35 1-3.65z" fill="none" stroke="#000" stroke-linejoin="round" stroke-miterlimit="10" stroke-width="2.85"/><path d="m295.6 497.54c0-1.3-0.35-2.55-1-3.65-0.6-1.1-1.55-2.05-2.65-2.65-1.1-0.65-2.35-1-3.65-1s-2.55 0.35-3.65 1c-1.1 0.6-2.05 1.55-2.65 2.65-0.65 1.1-1 2.35-1 3.65s0.35 2.55 1 3.65c0.6 1.1 1.55 2.05 2.65 2.65 1.1 0.65 2.35 1 3.65 1s2.55-0.35 3.65-1c1.1-0.6 2.05-1.55 2.65-2.65 0.65-1.1 1-2.35 1-3.65z" fill="#0c0" fill-rule="evenodd"/><path d="m295.6 497.54c0-1.3-0.35-2.55-1-3.65-0.6-1.1-1.55-2.05-2.65-2.65-1.1-0.65-2.35-1-3.65-1s-2.55 0.35-3.65 1c-1.1 0.6-2.05 1.55-2.65 2.65-0.65 1.1-1 2.35-1 3.65s0.35 2.55 1 3.65c0.6 1.1 1.55 2.05 2.65 2.65 1.1 0.65 2.35 1 3.65 1s2.55-0.35 3.65-1c1.1-0.6 2.05-1.55 2.65-2.65 0.65-1.1 1-2.35 1-3.65z" fill="none" stroke="#000" stroke-linejoin="round" stroke-miterlimit="10" stroke-width="2.85"/><path d="m295.6 473.19c0-1.3-0.35-2.55-1-3.65-0.6-1.1-1.55-2.05-2.65-2.65-1.1-0.65-2.35-1-3.65-1s-2.55 0.35-3.65 1c-1.1 0.6-2.05 1.55-2.65 2.65-0.65 1.1-1 2.35-1 3.65s0.35 2.55 1 3.65c0.6 1.1 1.55 2.05 2.65 2.65 1.1 0.65 2.35 1 3.65 1s2.55-0.35 3.65-1c1.1-0.6 2.05-1.55 2.65-2.65 0.65-1.1 1-2.35 1-3.65z" fill="#0c0" fill-rule="evenodd"/><path d="m295.6 473.19c0-1.3-0.35-2.55-1-3.65-0.6-1.1-1.55-2.05-2.65-2.65-1.1-0.65-2.35-1-3.65-1s-2.55 0.35-3.65 1c-1.1 0.6-2.05 1.55-2.65 2.65-0.65 1.1-1 2.35-1 3.65s0.35 2.55 1 3.65c0.6 1.1 1.55 2.05 2.65 2.65 1.1 0.65 2.35 1 3.65 1s2.55-0.35 3.65-1c1.1-0.6 2.05-1.55 2.65-2.65 0.65-1.1 1-2.35 1-3.65z" fill="none" stroke="#000" stroke-linejoin="round" stroke-miterlimit="10" stroke-width="2.85"/><path d="m335.5 497.54c0-1.3-0.35-2.55-1-3.65-0.6-1.1-1.55-2.05-2.65-2.65-1.1-0.65-2.35-1-3.65-1s-2.55 0.35-3.65 1c-1.1 0.6-2.05 1.55-2.65 2.65-0.65 1.1-1 2.35-1 3.65s0.35 2.55 1 3.65c0.6 1.1 1.55 2.05 2.65 2.65 1.1 0.65 2.35 1 3.65 1s2.55-0.35 3.65-1c1.1-0.6 2.05-1.55 2.65-2.65 0.65-1.1 1-2.35 1-3.65z" fill="#0c0" fill-rule="evenodd"/><path d="m335.5 497.54c0-1.3-0.35-2.55-1-3.65-0.6-1.1-1.55-2.05-2.65-2.65-1.1-0.65-2.35-1-3.65-1s-2.55 0.35-3.65 1c-1.1 0.6-2.05 1.55-2.65 2.65-0.65 1.1-1 2.35-1 3.65s0.35 2.55 1 3.65c0.6 1.1 1.55 2.05 2.65 2.65 1.1 0.65 2.35 1 3.65 1s2.55-0.35 3.65-1c1.1-0.6 2.05-1.55 2.65-2.65 0.65-1.1 1-2.35 1-3.65z" fill="none" stroke="#000" stroke-linejoin="round" stroke-miterlimit="10" stroke-width="2.85"/><path d="m335.5 473.19c0-1.3-0.35-2.55-1-3.65-0.6-1.1-1.55-2.05-2.65-2.65-1.1-0.65-2.35-1-3.65-1s-2.55 0.35-3.65 1c-1.1 0.6-2.05 1.55-2.65 2.65-0.65 1.1-1 2.35-1 3.65s0.35 2.55 1 3.65c0.6 1.1 1.55 2.05 2.65 2.65 1.1 0.65 2.35 1 3.65 1s2.55-0.35 3.65-1c1.1-0.6 2.05-1.55 2.65-2.65 0.65-1.1 1-2.35 1-3.65z" fill="#0c0" fill-rule="evenodd"/><path d="m335.5 473.19c0-1.3-0.35-2.55-1-3.65-0.6-1.1-1.55-2.05-2.65-2.65-1.1-0.65-2.35-1-3.65-1s-2.55 0.35-3.65 1c-1.1 0.6-2.05 1.55-2.65 2.65-0.65 1.1-1 2.35-1 3.65s0.35 2.55 1 3.65c0.6 1.1 1.55 2.05 2.65 2.65 1.1 0.65 2.35 1 3.65 1s2.55-0.35 3.65-1c1.1-0.6 2.05-1.55 2.65-2.65 0.65-1.1 1-2.35 1-3.65z" fill="none" stroke="#000" stroke-linejoin="round" stroke-miterlimit="10" stroke-width="2.85"/><path d="m335.5 448.84c0-1.3-0.35-2.55-1-3.65-0.6-1.1-1.55-2.05-2.65-2.65-1.1-0.65-2.35-1-3.65-1s-2.55 0.35-3.65 1c-1.1 0.6-2.05 1.55-2.65 2.65-0.65 1.1-1 2.35-1 3.65s0.35 2.55 1 3.65c0.6 1.1 1.55 2.05 2.65 2.65 1.1 0.65 2.35 1 3.65 1s2.55-0.35 3.65-1c1.1-0.6 2.05-1.55 2.65-2.65 0.65-1.1 1-2.35 1-3.65z" fill="#0c0" fill-rule="evenodd"/><path d="m335.5 448.84c0-1.3-0.35-2.55-1-3.65-0.6-1.1-1.55-2.05-2.65-2.65-1.1-0.65-2.35-1-3.65-1s-2.55 0.35-3.65 1c-1.1 0.6-2.05 1.55-2.65 2.65-0.65 1.1-1 2.35-1 3.65s0.35 2.55 1 3.65c0.6 1.1 1.55 2.05 2.65 2.65 1.1 0.65 2.35 1 3.65 1s2.55-0.35 3.65-1c1.1-0.6 2.05-1.55 2.65-2.65 0.65-1.1 1-2.35 1-3.65z" fill="none" stroke="#000" stroke-linejoin="round" stroke-miterlimit="10" stroke-width="2.85"/></g></g></svg>
