<?xml version="1.0" encoding="UTF-8" standalone="no"?>
<!-- Created with Inkscape (http://www.inkscape.org/) -->

<svg
   xmlns:dc="http://purl.org/dc/elements/1.1/"
   xmlns:cc="http://creativecommons.org/ns#"
   xmlns:rdf="http://www.w3.org/1999/02/22-rdf-syntax-ns#"
   xmlns:svg="http://www.w3.org/2000/svg"
   xmlns="http://www.w3.org/2000/svg"
   xmlns:sodipodi="http://sodipodi.sourceforge.net/DTD/sodipodi-0.dtd"
   xmlns:inkscape="http://www.inkscape.org/namespaces/inkscape"
   width="671.07819mm"
   height="250mm"
   viewBox="0 0 671.07819 250"
   version="1.1"
   id="svg8"
   inkscape:version="0.92.3 (2405546, 2018-03-11)"
   sodipodi:docname="adc_schrittweite.svg">
  <sodipodi:namedview
     id="base"
     pagecolor="#ffffff"
     bordercolor="#666666"
     borderopacity="1.0"
     inkscape:pageopacity="0.0"
     inkscape:pageshadow="2"
     inkscape:zoom="0.12374369"
     inkscape:cx="688.07774"
     inkscape:cy="538.59972"
     inkscape:document-units="mm"
     inkscape:current-layer="layer1"
     showgrid="false"
     inkscape:window-width="1280"
     inkscape:window-height="987"
     inkscape:window-x="0"
     inkscape:window-y="0"
     inkscape:window-maximized="1"
     fit-margin-top="0"
     fit-margin-left="40"
     fit-margin-right="100"
     fit-margin-bottom="0"
     inkscape:snap-bbox="true"
     inkscape:bbox-nodes="true"
     showguides="true"
     inkscape:guide-bbox="true" />
  <defs
     id="defs2" />
  <metadata
     id="metadata5">
    <rdf:RDF>
      <cc:Work
         rdf:about="">
        <dc:format>image/svg+xml</dc:format>
        <dc:type
           rdf:resource="http://purl.org/dc/dcmitype/StillImage" />
        <dc:title></dc:title>
      </cc:Work>
    </rdf:RDF>
  </metadata>
  <g
     id="layer1"
     inkscape:groupmode="layer"
     inkscape:label="Ebene 1"
     transform="translate(-63.824114,-231.92167)">
    <g
       id="g618"
       transform="translate(40.000001,155.58356)">
      <g
         id="g616"
         transform="matrix(0.30285714,0,0,-0.30285714,-53,222.75)"
         xml:space="preserve"
         stroke-miterlimit="10.433"
         font-style="normal"
         font-variant="normal"
         font-weight="normal"
         font-stretch="normal"
         font-size-adjust="none"
         letter-spacing="normal"
         word-spacing="normal"
         style="font-style:normal;font-variant:normal;font-weight:normal;font-stretch:normal;letter-spacing:normal;word-spacing:normal;text-anchor:start;fill:none;fill-opacity:1;fill-rule:evenodd;stroke:#000000;stroke-linecap:butt;stroke-linejoin:miter;stroke-miterlimit:10.43299961;stroke-dasharray:none;stroke-dashoffset:0;stroke-opacity:1"><path
           d="m 433.25,245.96 1.2,0.28 1.17,0.31 1.16,0.34 1.13,0.37 1.12,0.4 1.09,0.42 1.06,0.45 1.05,0.48 1.01,0.5 0.99,0.53 0.95,0.55 0.93,0.57 0.89,0.6 0.86,0.61 0.82,0.63 0.79,0.65 0.75,0.67 0.72,0.69 0.67,0.7 0.63,0.72 0.58,0.73 0.55,0.75 0.5,0.76 0.45,0.77 0.4,0.78 0.35,0.79 0.31,0.8 0.25,0.8 0.19,0.82 0.15,0.82 0.08,0.82 0.03,0.83 c 0,8.06 -8.15,15.5 -22.51,15.5 h -28 c -2.07,0 -3,0 -3,-1.97 0,-1.03 0.73,-1.03 2.68,-1.03 6.21,0 6.21,-0.83 6.21,-1.95 0,-0.22 0,-0.83 -0.41,-2.39 L 397.1,218.48 c -0.92,-3.61 -1.14,-4.64 -8.27,-4.64 -2.37,0 -3.09,0 -3.09,-1.97 0,-1.03 1.12,-1.03 1.44,-1.03 1.86,0 4.03,0.2 6,0.2 h 12.18 c 1.86,0 4.03,-0.2 5.89,-0.2 0.83,0 1.97,0 1.97,1.97 0,1.03 -0.93,1.03 -2.48,1.03 -6.3,0 -6.3,0.83 -6.3,1.86 0,0.09 0,0.83 0.2,1.65 l 6.93,27.79 h 12.39 l -0.21,2.06 h -11.67 l 6.81,27.17 c 0.94,3.83 1.35,4.03 5.38,4.03 h 7.44 c 8.89,0 15.5,-2.69 15.5,-10.73 0,-5.28 -2.69,-20.47 -23.46,-20.47 l 0.21,-2.06 c 9.81,0 11.67,-6.21 11.67,-9.61 0,-1.55 -1.03,-5.58 -1.75,-8.27 -1.14,-4.75 -1.45,-5.89 -1.45,-7.84 0,-7.35 6,-10.75 12.92,-10.75 8.36,0 11.98,10.23 11.98,11.67 0,0.73 -0.51,1.03 -1.14,1.03 -0.83,0 -1.03,-0.61 -1.23,-1.44 -2.49,-7.34 -6.72,-9.2 -9.3,-9.2 -2.59,0 -4.23,1.14 -4.23,5.8 0,2.47 1.23,11.87 1.34,12.39 0.52,3.83 0.52,4.23 0.52,5.06 0,7.55 -6.11,10.75 -10.04,11.98 z"
           id="path486"
           inkscape:connector-curvature="0"
           style="fill:#000000;stroke-width:0" /><path
           d="m 470.11,203.31 -0.24,-0.38 -0.23,-0.38 -0.24,-0.35 -0.23,-0.34 -0.24,-0.33 -0.23,-0.31 -0.24,-0.29 -0.24,-0.28 -0.24,-0.27 -0.24,-0.26 -0.24,-0.24 -0.24,-0.22 -0.25,-0.22 -0.25,-0.2 -0.25,-0.19 -0.25,-0.17 -0.26,-0.17 -0.25,-0.15 -0.26,-0.15 -0.27,-0.13 -0.27,-0.12 -0.27,-0.11 -0.27,-0.1 -0.28,-0.1 -0.29,-0.08 -0.29,-0.07 -0.29,-0.06 -0.3,-0.06 -0.3,-0.05 -0.31,-0.04 -0.31,-0.03 -0.32,-0.02 c -0.78,-0.08 -1.36,-0.08 -1.36,-1.36 0,-0.44 0.36,-0.72 0.86,-0.72 1.3,0 4.51,0.14 5.81,0.14 2.08,0 4.36,-0.14 6.38,-0.14 0.42,0 1.28,0 1.28,1.36 0,0.64 -0.57,0.72 -1,0.72 -1.64,0.14 -3,0.72 -3,2.44 0,1 0.42,1.79 1.36,3.37 l 5.43,9.03 h 18.29 l -0.22,2.08 H 478.7 l 14.41,24.08 2.44,-24.08 0.22,-2.08 c 0.07,-0.66 0.07,-1.22 0.14,-1.87 0.21,-1.86 1.07,-9.32 1.07,-10.68 0,-2.15 -3.65,-2.29 -4.79,-2.29 -0.8,0 -1.58,0 -1.58,-1.3 0,-0.78 0.64,-0.78 1.08,-0.78 1.22,0 2.64,0.14 3.86,0.14 h 4.09 c 4.38,0 7.52,-0.14 7.59,-0.14 0.5,0 1.3,0 1.3,1.36 0,0.72 -0.65,0.72 -1.73,0.72 -3.94,0 -4,0.64 -4.22,2.79 l -4.38,44.72 c -0.14,1.44 -0.42,1.58 -1.22,1.58 -0.71,0 -1.14,-0.14 -1.79,-1.22 z"
           id="path488"
           inkscape:connector-curvature="0"
           style="fill:#000000;stroke-width:0" /><path
           d="m 521.85,200.66 -0.06,-0.23 -0.05,-0.22 -0.06,-0.21 -0.06,-0.2 -0.05,-0.19 -0.06,-0.18 -0.06,-0.17 -0.07,-0.16 -0.07,-0.15 -0.08,-0.15 -0.08,-0.13 -0.09,-0.13 -0.1,-0.12 -0.11,-0.11 -0.12,-0.1 -0.14,-0.1 -0.14,-0.09 -0.16,-0.08 -0.18,-0.08 -0.19,-0.06 -0.2,-0.06 -0.23,-0.06 -0.12,-0.02 -0.12,-0.03 -0.13,-0.02 -0.13,-0.02 -0.14,-0.02 -0.15,-0.02 -0.15,-0.01 -0.15,-0.02 -0.16,-0.01 -0.17,-0.02 -0.17,-0.01 -0.18,-0.01 h -0.19 l -0.19,-0.01 -0.2,-0.01 h -0.2 l -0.21,-0.01 h -0.22 -0.22 -0.24 c -1.37,0 -2.07,0 -2.07,-1.3 0,-0.78 0.42,-0.78 1.86,-0.78 h 22.71 l -1.14,2.08 h -8.17 c -1.01,0 -1.15,0 -1.58,0.08 -0.79,0.06 -0.86,0.2 -0.86,0.78 0,0.5 0.15,0.93 0.29,1.58 l 9.89,39.56 c 0.64,2.65 0.93,2.79 3.73,2.79 h 7.88 c 6.73,0 12.9,-3.65 12.9,-13.54 0,-3.58 -1.44,-16.05 -8.39,-23.94 -2,-2.36 -7.45,-7.31 -15.69,-7.31 l 1.14,-2.08 c 14.49,0 28.6,14.98 28.6,30.97 0,10.31 -6.16,17.98 -16.41,17.98 h -23.01 c -1.36,0 -2,0 -2,-1.36 0,-0.72 0.64,-0.72 1.72,-0.72 4.37,0 4.37,-0.57 4.37,-1.35 0,-0.15 0,-0.58 -0.3,-1.66 z"
           id="path490"
           inkscape:connector-curvature="0"
           style="fill:#000000;stroke-width:0" /><path
           d="m 624.38,245.17 v 0.03 0.03 0.03 0.02 l -0.01,0.03 v 0.03 0.02 l -0.01,0.02 v 0.03 l -0.01,0.02 -0.01,0.02 v 0.02 l -0.01,0.02 -0.01,0.02 -0.01,0.02 -0.01,0.01 -0.01,0.02 -0.01,0.01 -0.01,0.02 -0.01,0.01 -0.01,0.02 -0.01,0.01 -0.01,0.01 -0.01,0.02 -0.03,0.02 -0.02,0.02 -0.03,0.02 -0.03,0.01 -0.02,0.02 -0.03,0.01 -0.03,0.01 -0.03,0.01 -0.02,0.01 h -0.03 l -0.03,0.01 h -0.02 l -0.03,0.01 h -0.02 -0.03 -0.02 -0.02 -0.02 -0.02 -0.01 c -0.14,0 -0.43,0 -1,-0.7 l -4.94,-6.03 c -2.52,4.3 -6.45,6.73 -11.83,6.73 -15.48,0 -31.55,-15.69 -31.55,-32.53 0,-11.97 8.39,-19.42 18.86,-19.42 5.74,0 10.75,2.44 14.91,5.94 6.23,5.23 8.09,12.18 8.09,12.76 0,0.64 -0.56,0.64 -0.78,0.64 -0.64,0 -0.72,-0.42 -0.86,-0.72 -3.29,-11.17 -12.97,-16.54 -20.14,-16.54 -7.59,0 -14.19,4.87 -14.19,15.04 0,2.3 0.71,14.77 8.82,24.16 3.93,4.58 10.67,8.59 17.48,8.59 7.89,0 11.39,-6.51 11.39,-13.82 0,-1.86 -0.2,-3.44 -0.2,-3.72 0,-0.66 0.72,-0.66 0.92,-0.66 0.8,0 0.86,0.08 1.16,1.36 z"
           id="path492"
           inkscape:connector-curvature="0"
           style="fill:#000000;stroke-width:0" /><path
           d="m 723.78,244 h 0.29 0.29 l 0.29,0.01 h 0.14 l 0.14,0.01 0.13,0.02 0.13,0.01 0.13,0.02 0.13,0.02 0.13,0.02 0.12,0.03 0.11,0.04 0.11,0.04 0.11,0.04 0.1,0.05 0.1,0.06 0.09,0.06 0.08,0.07 0.08,0.07 0.08,0.08 0.06,0.09 0.04,0.05 0.02,0.05 0.03,0.05 0.03,0.05 0.02,0.06 0.02,0.06 0.02,0.06 0.02,0.06 0.02,0.06 0.01,0.07 0.01,0.07 0.01,0.07 0.01,0.08 0.01,0.07 v 0.08 0.08 c 0,1.86 -1.77,1.86 -3.51,1.86 h -57.76 c -1.74,0 -3.51,0 -3.51,-1.86 0,-1.76 1.55,-1.76 3.11,-1.76 z"
           id="path494"
           inkscape:connector-curvature="0"
           style="fill:#000000;stroke-width:0" /><path
           d="m 723.38,225.6 0.32,0.01 h 0.33 l 0.32,0.01 h 0.16 l 0.15,0.01 0.16,0.02 0.15,0.01 0.14,0.02 0.15,0.02 0.14,0.03 0.13,0.03 0.13,0.04 0.13,0.04 0.12,0.05 0.12,0.05 0.11,0.06 0.1,0.06 0.1,0.07 0.09,0.08 0.08,0.09 0.08,0.1 0.07,0.1 0.03,0.05 0.03,0.06 0.02,0.06 0.03,0.06 0.02,0.07 0.02,0.06 0.02,0.07 0.02,0.07 0.01,0.07 0.01,0.08 0.01,0.08 0.01,0.08 v 0.08 0.09 c 0,1.75 -1.55,1.75 -3.11,1.75 h -58.56 c -1.56,0 -3.11,0 -3.11,-1.75 0,-1.88 1.77,-1.88 3.51,-1.88 z"
           id="path496"
           inkscape:connector-curvature="0"
           style="fill:#000000;stroke-width:0" /><path
           d="m 818.72,304.57 -0.36,-1.34 -0.41,-1.31 -0.46,-1.26 -0.5,-1.23 -0.54,-1.2 -0.58,-1.15 -0.61,-1.12 -0.66,-1.08 -0.68,-1.04 -0.72,-1 -0.75,-0.97 -0.77,-0.92 -0.8,-0.88 -0.82,-0.84 -0.85,-0.8 -0.86,-0.76 -0.89,-0.71 -0.9,-0.67 -0.91,-0.63 -0.92,-0.59 -0.94,-0.54 -0.94,-0.5 -0.95,-0.45 -0.95,-0.4 -0.96,-0.36 -0.95,-0.31 -0.96,-0.27 -0.95,-0.22 -0.94,-0.17 -0.94,-0.12 -0.92,-0.08 -0.92,-0.02 c -7.44,0 -12.5,4.95 -12.5,13.53 0,0.41 0,3.52 1.12,8.06 l 10.13,40.6 c 0.94,3.51 1.14,4.54 8.49,4.54 1.85,0 2.88,0 2.88,1.86 0,1.14 -0.93,1.14 -1.56,1.14 -1.86,0 -4.01,-0.2 -5.98,-0.2 H 783.8 c -1.97,0 -4.14,0.2 -6.09,0.2 -0.74,0 -1.97,0 -1.97,-1.97 0,-1.03 0.72,-1.03 2.69,-1.03 6.2,0 6.2,-0.82 6.2,-1.95 0,-0.62 -0.73,-3.62 -1.25,-5.37 l -8.98,-36.16 c -0.32,-1.14 -0.93,-3.94 -0.93,-6.72 0,-11.37 8.16,-19.53 19.43,-19.53 10.42,0 22,8.26 27.26,21.39 0.72,1.75 1.66,5.37 2.28,8.16 1.03,3.71 3.21,12.81 3.92,15.5 l 3.92,15.5 c 1.35,5.37 2.18,8.78 11.27,9.18 0.83,0.11 1.23,0.94 1.23,1.86 0,1.14 -0.92,1.14 -1.34,1.14 -1.44,0 -3.29,-0.2 -4.75,-0.2 h -4.86 c -6.4,0 -9.7,0.2 -9.81,0.2 -0.61,0 -1.86,0 -1.86,-1.97 0,-1.03 0.83,-1.03 1.55,-1.03 6.2,-0.2 6.62,-2.57 6.62,-4.43 0,-0.94 0,-1.24 -0.42,-2.69 z"
           id="path498"
           inkscape:connector-curvature="0"
           style="fill:#000000;stroke-width:0" /><path
           d="m 900.28,309.04 0.06,0.22 0.05,0.22 0.06,0.2 0.06,0.19 0.05,0.19 0.06,0.18 0.06,0.16 0.07,0.16 0.07,0.15 0.08,0.14 0.09,0.13 0.09,0.13 0.1,0.12 0.11,0.11 0.13,0.1 0.13,0.09 0.15,0.09 0.16,0.08 0.18,0.07 0.19,0.07 0.21,0.06 0.23,0.05 0.12,0.03 0.13,0.02 0.13,0.02 0.13,0.02 0.14,0.02 0.15,0.02 0.15,0.02 0.16,0.01 0.16,0.02 0.17,0.01 0.18,0.01 0.18,0.01 0.19,0.01 0.19,0.01 h 0.2 l 0.21,0.01 h 0.21 0.22 0.23 l 0.23,0.01 c 1.38,0 2.02,0 2.02,1.35 0,0.72 -0.5,0.72 -1.86,0.72 h -8.61 c -1.8,0 -1.86,-0.07 -2.66,-1.22 l -26.15,-41.35 -5.38,41 c -0.22,1.57 -0.28,1.57 -2.16,1.57 h -8.87 c -1.38,0 -2.01,0 -2.01,-1.36 0,-0.71 0.63,-0.71 1.71,-0.71 4.38,0 4.38,-0.58 4.38,-1.36 0,-0.14 0,-0.58 -0.28,-1.66 l -9.19,-36.55 c -0.86,-3.43 -2.5,-5.01 -7.3,-5.23 -0.22,0 -1.07,-0.08 -1.07,-1.3 0,-0.78 0.63,-0.78 0.92,-0.78 1.43,0 5.09,0.14 6.53,0.14 h 3.43 c 1,0 2.22,-0.14 3.22,-0.14 0.52,0 1.3,0 1.3,1.36 0,0.64 -0.72,0.72 -1,0.72 -2.37,0.08 -4.65,0.5 -4.65,3.08 0,0.72 0,0.79 0.28,1.79 l 9.89,39.5 h 0.08 l 5.93,-44.51 c 0.22,-1.72 0.3,-1.94 0.94,-1.94 0.78,0 1.14,0.58 1.5,1.22 l 28.81,45.58 h 0.08 l -10.39,-41.5 c -0.64,-2.5 -0.8,-3.22 -5.81,-3.22 -1.36,0 -2.08,0 -2.08,-1.3 0,-0.78 0.65,-0.78 1.08,-0.78 1.22,0 2.65,0.14 3.87,0.14 h 8.45 c 1.22,0 2.72,-0.14 3.94,-0.14 0.58,0 1.36,0 1.36,1.36 0,0.72 -0.64,0.72 -1.72,0.72 -4.36,0 -4.36,0.58 -4.36,1.3 0,0.06 0,0.56 0.15,1.14 z"
           id="path500"
           inkscape:connector-curvature="0"
           style="fill:#000000;stroke-width:0" /><path
           d="m 936.72,292.2 -0.08,0.17 -0.09,0.18 -0.09,0.19 -0.09,0.19 -0.11,0.2 -0.11,0.19 -0.12,0.2 -0.13,0.2 -0.13,0.2 -0.15,0.2 -0.15,0.19 -0.16,0.2 -0.16,0.19 -0.18,0.19 -0.18,0.19 -0.19,0.18 -0.21,0.18 -0.2,0.16 -0.22,0.17 -0.23,0.15 -0.24,0.15 -0.24,0.14 -0.26,0.12 -0.26,0.12 -0.28,0.11 -0.28,0.09 -0.3,0.08 -0.3,0.07 -0.31,0.06 -0.33,0.04 -0.33,0.02 -0.35,0.01 v -1.44 c 4.74,0 5.67,-5.87 5.67,-6.45 0,-0.06 -0.21,-1 -0.28,-1.14 l -3.51,-14.05 c -0.36,-1.22 -0.36,-1.36 -1.36,-2.72 -1.58,-2.01 -4.74,-5.09 -8.11,-5.09 -2.94,0 -4.58,2.66 -4.58,6.87 0,3.96 2.22,11.97 3.58,14.99 2.43,5.01 5.81,7.59 8.59,7.59 v 1.44 c -8.09,0 -16.84,-10.47 -16.84,-21.08 0,-7.09 4.17,-11.25 9.03,-11.25 3.95,0 7.31,3.08 9.33,5.45 0.72,-4.23 4.07,-5.45 6.23,-5.45 2.16,0 3.88,1.3 5.16,3.88 1.15,2.43 2.15,6.81 2.15,7.09 0,0.36 -0.29,0.64 -0.72,0.64 -0.63,0 -0.71,-0.36 -1,-1.42 -1.07,-4.24 -2.43,-8.75 -5.37,-8.75 -2.08,0 -2.23,1.86 -2.23,3.3 0,1.64 0.22,2.43 0.87,5.23 0.5,1.78 0.86,3.36 1.42,5.44 2.66,10.75 3.3,13.34 3.3,13.76 0,1 -0.78,1.8 -1.86,1.8 -2.3,0 -2.86,-2.52 -3.01,-3.37 z"
           id="path502"
           inkscape:connector-curvature="0"
           style="fill:#000000;stroke-width:0" /><path
           d="m 981.37,294.57 -0.21,-0.04 -0.2,-0.06 -0.2,-0.06 -0.18,-0.06 -0.18,-0.07 -0.17,-0.08 -0.16,-0.08 -0.16,-0.09 -0.14,-0.1 -0.14,-0.1 -0.13,-0.1 -0.13,-0.11 -0.12,-0.11 -0.11,-0.11 -0.1,-0.12 -0.1,-0.12 -0.09,-0.13 -0.08,-0.12 -0.08,-0.13 -0.07,-0.13 -0.07,-0.13 -0.05,-0.14 -0.06,-0.13 -0.04,-0.13 -0.04,-0.14 -0.04,-0.13 -0.03,-0.14 -0.02,-0.13 -0.02,-0.13 -0.01,-0.14 -0.01,-0.13 v -0.13 c 0,-1.71 1.36,-2.29 2.36,-2.29 2.15,0 3.65,1.86 3.65,3.79 0,3.02 -3.44,4.38 -6.45,4.38 -4.38,0 -6.81,-4.3 -7.45,-5.66 -1.66,5.38 -6.1,5.66 -7.39,5.66 -7.3,0 -11.18,-9.39 -11.18,-10.97 0,-0.28 0.28,-0.64 0.78,-0.64 0.58,0 0.72,0.42 0.86,0.72 2.44,7.95 7.25,9.45 9.33,9.45 3.22,0 3.86,-3 3.86,-4.73 0,-1.56 -0.42,-3.22 -1.28,-6.66 l -2.44,-9.83 c -1.08,-4.29 -3.15,-8.23 -6.95,-8.23 -0.36,0 -2.16,0 -3.66,0.94 2.58,0.5 3.16,2.64 3.16,3.5 0,1.43 -1.08,2.29 -2.44,2.29 -1.72,0 -3.59,-1.5 -3.59,-3.79 0,-3.02 3.37,-4.38 6.45,-4.38 3.44,0 5.88,2.72 7.39,5.67 1.14,-4.23 4.74,-5.67 7.38,-5.67 7.31,0 11.18,9.39 11.18,10.97 0,0.36 -0.28,0.64 -0.71,0.64 -0.64,0 -0.72,-0.36 -0.94,-0.92 -1.92,-6.31 -6.1,-9.25 -9.31,-9.25 -2.52,0 -3.88,1.86 -3.88,4.8 0,1.57 0.3,2.73 1.44,7.45 l 2.51,9.75 c 1.07,4.3 3.5,7.45 6.8,7.45 0.16,0 2.16,0 3.66,-0.92 z"
           id="path504"
           inkscape:connector-curvature="0"
           style="fill:#000000;stroke-width:0" /><path
           d="m 1080.9,304.57 h 0.3 0.3 l 0.4,0.01 0.1,0.01 0.2,0.01 0.1,0.01 0.2,0.02 0.2,0.02 0.1,0.02 0.1,0.03 0.2,0.04 0.1,0.04 0.2,0.04 0.1,0.06 0.1,0.05 0.1,0.07 0.1,0.07 0.1,0.08 0.1,0.09 0.1,0.09 0.1,0.11 v 0.05 l 0.1,0.06 v 0.06 0.06 0.07 l 0.1,0.07 v 0.07 0.07 0.07 l 0.1,0.08 v 0.08 0.09 0.08 0.09 0.09 0.1 c 0,2.06 -1.9,2.06 -3.6,2.06 H 1025 c -1.8,0 -3.6,0 -3.6,-2.06 0,-2.06 1.8,-2.06 3.6,-2.06 z"
           id="path506"
           inkscape:connector-curvature="0"
           style="fill:#000000;stroke-width:0" /><path
           d="m 1168.4,304.57 -0.4,-1.34 -0.4,-1.31 -0.4,-1.26 -0.5,-1.23 -0.6,-1.2 -0.6,-1.15 -0.6,-1.12 -0.6,-1.08 -0.7,-1.04 -0.7,-1 -0.8,-0.97 -0.7,-0.92 -0.8,-0.88 -0.9,-0.84 -0.8,-0.8 -0.9,-0.76 -0.9,-0.71 -0.9,-0.67 -0.9,-0.63 -0.9,-0.59 -0.9,-0.54 -1,-0.5 -0.9,-0.45 -1,-0.4 -0.9,-0.36 -1,-0.31 -0.9,-0.27 -1,-0.22 -0.9,-0.17 -1,-0.12 -0.9,-0.08 -0.9,-0.02 c -7.4,0 -12.5,4.95 -12.5,13.53 0,0.41 0,3.52 1.1,8.06 l 10.1,40.6 c 1,3.51 1.2,4.54 8.5,4.54 1.9,0 2.9,0 2.9,1.86 0,1.14 -0.9,1.14 -1.5,1.14 -1.9,0 -4.1,-0.2 -6,-0.2 h -12.2 c -2,0 -4.2,0.2 -6.1,0.2 -0.7,0 -2,0 -2,-1.97 0,-1.03 0.7,-1.03 2.7,-1.03 6.2,0 6.2,-0.82 6.2,-1.95 0,-0.62 -0.7,-3.62 -1.2,-5.37 l -9,-36.16 c -0.3,-1.14 -0.9,-3.94 -0.9,-6.72 0,-11.37 8.1,-19.53 19.4,-19.53 10.4,0 22,8.26 27.2,21.39 0.8,1.75 1.7,5.37 2.3,8.16 1.1,3.71 3.2,12.81 3.9,15.5 l 4,15.5 c 1.3,5.37 2.1,8.78 11.2,9.18 0.9,0.11 1.3,0.94 1.3,1.86 0,1.14 -1,1.14 -1.4,1.14 -1.4,0 -3.3,-0.2 -4.7,-0.2 h -4.9 c -6.4,0 -9.7,0.2 -9.8,0.2 -0.6,0 -1.9,0 -1.9,-1.97 0,-1.03 0.9,-1.03 1.6,-1.03 6.2,-0.2 6.6,-2.57 6.6,-4.43 0,-0.94 0,-1.24 -0.4,-2.69 z"
           id="path508"
           inkscape:connector-curvature="0"
           style="fill:#000000;stroke-width:0" /><path
           d="m 1250,309.04 v 0.22 l 0.1,0.22 v 0.2 l 0.1,0.19 v 0.19 l 0.1,0.18 0.1,0.16 v 0.16 l 0.1,0.15 0.1,0.14 0.1,0.13 0.1,0.13 0.1,0.12 0.1,0.11 0.1,0.1 0.1,0.09 0.2,0.09 0.1,0.08 0.2,0.07 0.2,0.07 0.2,0.06 0.2,0.05 0.2,0.03 0.1,0.02 0.1,0.02 0.2,0.02 0.1,0.02 0.1,0.02 0.2,0.02 0.2,0.01 0.1,0.02 0.2,0.01 0.2,0.01 0.1,0.01 0.2,0.01 0.2,0.01 h 0.2 l 0.2,0.01 h 0.2 0.3 0.2 l 0.2,0.01 c 1.4,0 2,0 2,1.35 0,0.72 -0.5,0.72 -1.8,0.72 h -8.6 c -1.8,0 -1.9,-0.07 -2.7,-1.22 l -26.1,-41.35 -5.4,41 c -0.2,1.57 -0.3,1.57 -2.2,1.57 h -8.8 c -1.4,0 -2.1,0 -2.1,-1.36 0,-0.71 0.7,-0.71 1.8,-0.71 4.3,0 4.3,-0.58 4.3,-1.36 0,-0.14 0,-0.58 -0.2,-1.66 l -9.2,-36.55 c -0.9,-3.43 -2.5,-5.01 -7.3,-5.23 -0.3,0 -1.1,-0.08 -1.1,-1.3 0,-0.78 0.6,-0.78 0.9,-0.78 1.5,0 5.1,0.14 6.5,0.14 h 3.5 c 1,0 2.2,-0.14 3.2,-0.14 0.5,0 1.3,0 1.3,1.36 0,0.64 -0.7,0.72 -1,0.72 -2.4,0.08 -4.7,0.5 -4.7,3.08 0,0.72 0,0.79 0.3,1.79 l 9.9,39.5 h 0.1 l 5.9,-44.51 c 0.3,-1.72 0.3,-1.94 1,-1.94 0.8,0 1.1,0.58 1.5,1.22 l 28.8,45.58 h 0.1 l -10.4,-41.5 c -0.7,-2.5 -0.8,-3.22 -5.8,-3.22 -1.4,0 -2.1,0 -2.1,-1.3 0,-0.78 0.6,-0.78 1.1,-0.78 1.2,0 2.6,0.14 3.8,0.14 h 8.5 c 1.2,0 2.7,-0.14 3.9,-0.14 0.6,0 1.4,0 1.4,1.36 0,0.72 -0.7,0.72 -1.7,0.72 -4.4,0 -4.4,0.58 -4.4,1.3 0,0.06 0,0.56 0.1,1.14 z"
           id="path510"
           inkscape:connector-curvature="0"
           style="fill:#000000;stroke-width:0" /><path
           d="m 1280.5,275.57 v 0.03 0.04 0.03 0.03 0.03 0.03 0.03 0.03 0.03 l -0.1,0.03 v 0.03 0.02 0.03 0.02 l -0.1,0.02 v 0.03 0.02 0.02 l -0.1,0.02 v 0.01 0.02 0.01 l -0.1,0.02 v 0.01 0.01 l -0.1,0.01 v 0.01 0.01 h -0.1 v 0.01 h -0.1 v 0 c -0.6,0 -0.7,-0.22 -1.1,-1.42 -1.8,-6.53 -4.8,-8.75 -7.1,-8.75 -0.9,0 -1.9,0.22 -1.9,2.36 0,1.94 0.9,4.09 1.6,6.23 l 5.1,13.35 c 0.2,0.56 0.7,1.86 0.7,3.22 0,3.01 -2.2,5.73 -5.7,5.73 -6.6,0 -9.2,-10.39 -9.2,-10.97 0,-0.28 0.3,-0.64 0.8,-0.64 0.6,0 0.7,0.28 1,1.28 1.7,6.03 4.4,8.89 7.2,8.89 0.6,0 1.9,-0.06 1.9,-2.36 0,-1.86 -1,-4.23 -1.5,-5.81 l -5,-13.33 c -0.5,-1.14 -0.9,-2.29 -0.9,-3.58 0,-3.23 2.2,-5.81 5.6,-5.81 6.6,0 9.2,10.47 9.2,10.97 z"
           id="path512"
           inkscape:connector-curvature="0"
           style="fill:#000000;stroke-width:0" /><path
           d="m 1279.9,310.04 v 0.1 0.1 0.11 0.1 0.1 0.11 l -0.1,0.1 v 0.1 l -0.1,0.11 v 0.1 l -0.1,0.1 v 0.09 l -0.1,0.1 v 0.09 l -0.1,0.09 -0.1,0.09 -0.1,0.09 v 0.08 l -0.1,0.07 -0.1,0.08 -0.1,0.07 -0.1,0.06 -0.1,0.06 -0.1,0.05 -0.2,0.05 -0.1,0.05 -0.1,0.03 -0.1,0.04 -0.2,0.02 -0.1,0.02 -0.1,0.01 h -0.2 c -1.6,0 -3.5,-1.57 -3.5,-3.43 0,-1.8 1.5,-2.38 2.4,-2.38 1.9,0 3.5,1.88 3.5,3.44 z"
           id="path514"
           inkscape:connector-curvature="0"
           style="fill:#000000;stroke-width:0" /><path
           d="m 1299,286.32 v 0.05 0.07 l 0.1,0.08 v 0.1 l 0.1,0.12 v 0.13 l 0.1,0.14 0.1,0.16 0.1,0.17 0.1,0.18 0.1,0.19 0.1,0.19 0.1,0.21 0.2,0.22 0.1,0.22 0.2,0.23 0.1,0.23 0.2,0.24 0.1,0.25 0.2,0.24 0.2,0.25 0.2,0.25 0.2,0.25 0.2,0.25 0.2,0.25 0.2,0.24 0.2,0.25 0.2,0.24 0.3,0.24 0.2,0.23 0.2,0.22 0.3,0.22 c 1.8,1.72 4.3,2.86 7.1,2.86 2.9,0 3.9,-2.14 3.9,-5.01 0,-4.08 -3,-12.25 -4.4,-16.13 -0.7,-1.72 -1,-2.65 -1,-3.94 0,-3.23 2.2,-5.81 5.6,-5.81 6.7,0 9.2,10.53 9.2,10.97 0,0.36 -0.3,0.64 -0.7,0.64 -0.6,0 -0.7,-0.22 -1.1,-1.42 -1.6,-5.89 -4.4,-8.75 -7.1,-8.75 -0.8,0 -1.9,0.06 -1.9,2.36 0,1.8 0.8,3.95 1.2,4.95 1.4,3.94 4.5,11.97 4.5,16.05 0,4.31 -2.6,7.53 -8,7.53 -6.4,0 -9.7,-4.52 -11,-6.31 -0.3,4.09 -3.2,6.31 -6.3,6.31 -2.3,0 -3.9,-1.36 -5.1,-3.8 -1.3,-2.58 -2.3,-6.89 -2.3,-7.17 0,-0.28 0.2,-0.64 0.7,-0.64 0.6,0 0.7,0.06 1.1,1.72 1.2,4.37 2.5,8.45 5.3,8.45 1.7,0 2.3,-1.14 2.3,-3.29 0,-1.58 -0.8,-4.38 -1.3,-6.6 l -2,-7.73 c -0.2,-1.36 -1,-4.6 -1.4,-5.88 -0.5,-1.87 -1.3,-5.23 -1.3,-5.59 0,-1 0.8,-1.8 1.9,-1.8 0.8,0 1.8,0.44 2.4,1.5 0.2,0.36 0.8,2.88 1.2,4.31 l 1.5,6.46 z"
           id="path516"
           inkscape:connector-curvature="0"
           style="fill:#000000;stroke-width:0" /><polyline
           points="766,235 1328.3,235 1328.3,239.2 766,239.2 "
           id="polyline518"
           style="fill:#000000;fill-rule:nonzero;stroke-width:0" /><path
           d="m 1030.6,156.05 h -1.9 c -1,-7.34 -1.9,-8.57 -2.3,-9.2 -0.5,-0.83 -7.9,-0.83 -9.4,-0.83 h -19.8 c 3.7,4.03 10.9,11.38 19.7,19.85 6.3,5.98 13.7,13.01 13.7,23.25 0,12.18 -9.7,19.2 -20.6,19.2 -11.36,0 -18.28,-10.02 -18.28,-19.31 0,-4.03 3,-4.55 4.23,-4.55 1.03,0 4.15,0.63 4.15,4.24 0,3.2 -2.7,4.14 -4.15,4.14 -0.61,0 -1.23,-0.11 -1.66,-0.32 1.97,8.78 7.91,13.13 14.31,13.13 8.9,0 14.8,-7.14 14.8,-16.53 0,-9 -5.2,-16.74 -11.1,-23.46 l -20.58,-23.25 v -2.37 h 36.38 z"
           id="path520"
           inkscape:connector-curvature="0"
           style="fill:#000000;stroke-width:0" /><path
           d="m 1055.5,215.86 v 0.08 0.07 0.07 0.07 0.07 0.06 0.07 0.06 0.06 0.06 0.05 0.05 0.06 0.05 0.04 0.05 0.04 0.05 0.04 0.04 0.03 0.04 0.03 l -0.1,0.04 v 0.06 0.05 0.05 l -0.1,0.05 v 0.04 0.03 l -0.1,0.03 v 0.03 l -0.1,0.03 v 0.02 l -0.1,0.01 -0.1,0.01 v 0.01 0 l -0.1,0.01 v 0 l -0.1,0.01 v 0 0 l -0.1,0.01 v 0 h -0.1 -0.1 v 0 h -0.1 v 0 h -0.1 -0.1 v 0 c -1.7,-1.93 -5.3,-4.59 -12.7,-4.59 v -2.08 c 1.7,0 5.2,0 9.2,1.86 v -37.34 c 0,-2.58 -0.2,-3.44 -6.5,-3.44 h -2.3 v -2.08 c 2,0.14 8.9,0.14 11.3,0.14 2.4,0 9.2,0 11.2,-0.14 V 172 h -2.2 c -6.4,0 -6.6,0.86 -6.6,3.44 z"
           id="path522"
           inkscape:connector-curvature="0"
           style="fill:#000000;stroke-width:0" /><path
           d="m 1078.8,194.86 0.1,0.84 v 0.82 0.79 0.77 l 0.1,0.76 0.1,0.73 v 0.71 l 0.1,0.69 0.1,0.67 0.1,0.65 0.2,0.63 0.1,0.61 0.1,0.6 0.2,0.57 0.1,0.56 0.2,0.53 0.2,0.52 0.1,0.51 0.2,0.48 0.2,0.47 0.4,0.88 0.4,0.83 0.5,0.75 0.5,0.7 0.4,0.65 0.5,0.58 0.5,0.53 0.6,0.49 0.5,0.43 0.5,0.39 0.5,0.34 0.6,0.3 0.5,0.26 0.5,0.23 0.5,0.19 0.5,0.16 0.5,0.12 0.5,0.1 0.4,0.07 0.5,0.05 0.4,0.03 0.3,0.01 c 2.6,0 5.2,-0.78 6.6,-2.94 -0.9,0 -3.6,0 -3.6,-2.94 0,-1.57 1.1,-2.93 2.9,-2.93 1.8,0 3,1.07 3,3.15 0,3.74 -2.7,7.39 -8.9,7.39 -9.1,0 -18.5,-9.25 -18.5,-25.01 0,-19.72 8.6,-24.16 14.7,-24.16 7.8,0 14.4,6.8 14.4,16.13 0,9.53 -6.6,15.9 -13.8,15.9 l -0.3,-1.43 c 4,0 6.1,-2.64 7.1,-5.08 1.2,-2.66 1.2,-6.24 1.2,-9.33 0,-3.66 0,-6.88 -1.4,-9.59 -1.8,-3.44 -4.4,-4.66 -7.2,-4.66 v 0 c -4.6,0 -6.7,4 -7.3,5.52 -0.7,1.85 -1.4,5.37 -1.4,10.39 0,5.65 2.6,12.75 9,12.75 l 0.3,1.43 c -6.4,0 -8.7,-5.51 -9.5,-7.51 z"
           id="path524"
           inkscape:connector-curvature="0"
           style="fill:#000000;stroke-width:0" /><path
           d="m 723.78,5.918 0.29,4e-4 0.29,0.003 0.29,0.0082 0.14,0.0069 0.14,0.0091 0.13,0.0117 0.13,0.0146 0.13,0.0178 0.13,0.0214 0.13,0.0252 0.12,0.0295 0.11,0.034 0.11,0.0389 0.11,0.044 0.1,0.0495 0.1,0.0553 0.09,0.0615 0.08,0.068 0.08,0.0747 0.08,0.0819 0.06,0.0892 0.04,0.0476 0.02,0.0495 0.03,0.0515 0.03,0.0536 0.02,0.0557 0.02,0.0578 0.02,0.0601 0.02,0.0622 0.02,0.0645 0.01,0.0668 0.01,0.0692 0.01,0.0715 0.01,0.074 0.01,0.0764 v 0.0789 0.0815 c 0,1.8594 -1.77,1.8594 -3.51,1.8594 h -57.76 c -1.74,0 -3.51,0 -3.51,-1.8594 0,-1.7656 1.55,-1.7656 3.11,-1.7656 z"
           id="path526"
           inkscape:connector-curvature="0"
           style="fill:#000000;stroke-width:0" /><path
           d="m 723.38,-12.473 0.32,0.001 0.33,0.003 0.32,0.009 0.16,0.007 0.15,0.01 0.16,0.012 0.15,0.016 0.14,0.018 0.15,0.023 0.14,0.027 0.13,0.031 0.13,0.036 0.13,0.042 0.12,0.046 0.12,0.053 0.11,0.059 0.1,0.065 0.1,0.072 0.09,0.08 0.08,0.087 0.08,0.094 0.07,0.103 0.03,0.055 0.03,0.057 0.02,0.059 0.03,0.062 0.02,0.063 0.02,0.066 0.02,0.069 0.02,0.071 0.01,0.073 0.01,0.076 0.01,0.079 0.01,0.081 v 0.084 0.086 c 0,1.7503 -1.55,1.7503 -3.11,1.7503 h -58.56 c -1.56,0 -3.11,0 -3.11,-1.7503 0,-1.875 1.77,-1.875 3.51,-1.875 z"
           id="path528"
           inkscape:connector-curvature="0"
           style="fill:#000000;stroke-width:0" /><path
           d="m 801.16,109.56 v 0.1 0.1 0.09 0.1 0.08 0.09 l -0.01,0.08 v 0.08 0.08 0.08 l -0.01,0.07 v 0.07 l -0.01,0.07 v 0.06 l -0.01,0.06 -0.01,0.06 v 0.06 l -0.01,0.06 -0.01,0.05 -0.01,0.05 -0.01,0.05 -0.02,0.05 -0.01,0.04 -0.01,0.04 -0.03,0.08 -0.04,0.08 -0.04,0.06 -0.05,0.06 -0.05,0.05 -0.06,0.05 -0.06,0.04 -0.07,0.03 -0.07,0.03 -0.09,0.03 -0.09,0.02 -0.1,0.02 -0.1,0.01 -0.12,0.02 H 800 799.94 l -0.06,0.01 h -0.07 -0.07 -0.07 l -0.07,0.01 h -0.08 -0.08 -0.08 -0.08 -0.09 L 768.5,62.969 h 2.07 l 24.9,39.781 V 62.969 h -24.9 -2.07 v -2.688 h 26.66 V 50.156 c 0,-3.718 -0.2,-4.75 -7.44,-4.75 h -1.97 v -2.687 c 3.32,0.203 8.9,0.203 12.41,0.203 3.52,0 9.09,0 12.39,-0.203 v 2.687 h -1.95 c -7.24,0 -7.44,1.032 -7.44,4.75 v 10.125 h 10.53 v 2.688 h -10.53 z"
           id="path530"
           inkscape:connector-curvature="0"
           style="fill:#000000;stroke-width:0" /><path
           d="m 833.98,42.312 -0.01,0.557 -0.01,0.547 -0.03,0.536 -0.04,0.526 -0.05,0.515 -0.07,0.504 -0.07,0.49 -0.09,0.479 -0.1,0.464 -0.11,0.451 -0.13,0.437 -0.13,0.422 -0.15,0.406 -0.16,0.391 -0.17,0.374 -0.19,0.357 -0.19,0.339 -0.21,0.321 -0.22,0.303 -0.24,0.284 -0.25,0.264 -0.26,0.244 -0.27,0.223 -0.28,0.202 -0.3,0.18 -0.31,0.157 -0.33,0.135 -0.34,0.112 -0.35,0.088 -0.36,0.063 -0.38,0.038 -0.39,0.013 c -3.31,0 -4.97,-2.687 -4.97,-4.953 0,-2.265 1.55,-5.062 5.07,-5.062 1.34,0 2.48,0.406 3.4,1.343 0.22,0.204 0.31,0.204 0.43,0.204 0.2,0 0.2,-1.438 0.2,-1.954 0,-3.421 -0.63,-10.124 -6.61,-16.843 -1.14,-1.25 -1.14,-1.453 -1.14,-1.657 0,-0.515 0.51,-1.031 1.03,-1.031 0.83,0 8.78,7.641 8.78,19.531 z"
           id="path532"
           inkscape:connector-curvature="0"
           style="fill:#000000;stroke-width:0" /><path
           d="m 902.47,75.875 v 0.605 0.629 l -0.01,0.652 v 0.675 l -0.01,0.696 -0.02,0.715 -0.05,1.484 -0.07,1.547 -0.1,1.601 -0.15,1.643 -0.19,1.677 -0.24,1.699 -0.29,1.713 -0.36,1.715 -0.43,1.707 -0.24,0.848 -0.26,0.842 -0.28,0.836 -0.31,0.827 -0.32,0.818 -0.35,0.807 -0.37,0.799 -0.39,0.78 c -3.83,7.23 -9.92,9.81 -15.3,9.81 v -1.64 c 4.24,0 9.72,-2.8 11.68,-11.266 1.34,-5.891 1.45,-12.813 1.45,-21.078 0,-6.719 0,-14.985 -1.25,-21.078 -2.16,-11.25 -8.25,-13.219 -11.88,-13.219 v 0 c -6.61,0 -10.53,5.687 -11.98,13.531 -1.14,6.094 -1.14,14.984 -1.14,20.766 0,7.953 0,14.562 1.34,20.875 1.97,8.779 7.75,11.469 11.78,11.469 V 111 c -4.95,0 -11.26,-2.27 -15.18,-9.7 C 863.42,93.547 863,83.938 863,75.875 863,70 863.11,61 866.31,53.156 c 4.44,-10.64 12.39,-12.094 16.42,-12.094 4.75,0 11.99,1.969 16.22,11.782 3.11,7.125 3.52,15.5 3.52,23.031 z"
           id="path534"
           inkscape:connector-curvature="0"
           style="fill:#000000;stroke-width:0" /><path
           d="m 942.84,73.297 -0.01,-1.054 -0.02,-1.03 -0.03,-1.008 -0.05,-0.986 -0.13,-1.905 -0.18,-1.818 -0.23,-1.733 -0.27,-1.648 -0.32,-1.566 -0.35,-1.485 -0.4,-1.406 -0.43,-1.328 -0.46,-1.252 -0.5,-1.178 -0.53,-1.105 -0.56,-1.033 -0.59,-0.964 -0.61,-0.896 -0.63,-0.829 -0.65,-0.764 -0.68,-0.7 -0.69,-0.639 -0.7,-0.579 -0.72,-0.52 -0.72,-0.463 -0.74,-0.407 -0.74,-0.354 -0.75,-0.301 -0.74,-0.251 -0.75,-0.202 -0.75,-0.154 -0.75,-0.108 -0.73,-0.063 -0.73,-0.021 c -2.38,0 -8.18,0.312 -10.55,4.344 2.69,-0.422 4.65,1.031 4.65,3.609 0,2.797 -2.28,3.719 -3.71,3.719 -0.94,0 -3.72,-0.407 -3.72,-3.922 0,-7.031 6.09,-10.235 13.53,-10.235 11.87,0 23.97,13.016 23.97,35.75 0,28.308 -11.58,34.188 -19.42,34.188 -10.24,0 -20.05,-8.98 -20.05,-22.828 0,-12.813 8.37,-22.313 18.9,-22.313 l 0.21,1.657 c -2.78,0 -6.71,0.515 -9.91,6.718 -2.17,4.016 -2.17,8.782 -2.17,13.844 0,6.094 0,10.328 2.89,14.872 1.45,2.17 4.13,5.67 10.13,5.67 12.18,0 12.18,-18.682 12.18,-22.823 0,-7.328 -3.29,-18.281 -13.12,-18.281 v 0 l -0.21,-1.657 c 8.69,0 12.5,8.063 13.54,11.469 z"
           id="path536"
           inkscape:connector-curvature="0"
           style="fill:#000000;stroke-width:0" /><path
           d="m 964.83,78.359 0.01,1.144 0.02,1.115 0.04,1.089 0.06,1.061 0.07,1.034 0.09,1.008 0.1,0.982 0.12,0.956 0.13,0.93 0.14,0.906 0.16,0.88 0.17,0.856 0.18,0.831 0.2,0.808 0.42,1.544 0.47,1.453 0.5,1.362 0.55,1.276 0.58,1.191 0.61,1.108 0.64,1.027 0.67,0.95 0.69,0.88 0.71,0.8 0.72,0.74 0.74,0.67 0.75,0.6 0.76,0.54 0.76,0.48 0.77,0.42 0.76,0.37 0.76,0.31 0.75,0.27 0.74,0.21 0.72,0.18 0.72,0.13 0.69,0.09 0.67,0.05 0.64,0.01 c 2.17,0 7.44,-0.4 9.5,-4.43 -1.64,0 -4.75,0 -4.75,-3.61 0,-2.799 2.28,-3.721 3.72,-3.721 0.94,0 3.72,0.407 3.72,3.921 0,6.5 -5.16,10.22 -12.28,10.22 -12.3,0 -25.22,-12.797 -25.22,-35.641 0,-28.093 11.67,-34.297 19.93,-34.297 10.04,0 19.54,8.985 19.54,22.829 0,12.921 -8.38,22.328 -18.91,22.328 l -0.2,-1.657 c 1.75,0 6.81,0 10.22,-7.124 1.85,-4.032 1.85,-8.266 1.85,-13.438 0,-5.578 0,-9.703 -2.15,-13.844 -2.28,-4.234 -5.6,-6.609 -10.35,-6.609 v 0 c -12.7,0 -12.7,19 -12.7,22.828 0,7.437 3.52,18.187 13.13,18.187 l 0.2,1.657 c -6.3,0 -10.95,-4.141 -13.53,-11.375 z"
           id="path538"
           inkscape:connector-curvature="0"
           style="fill:#000000;stroke-width:0" /><path
           d="m 1065.2,101.81 0.4,0.52 0.3,0.49 0.3,0.48 0.3,0.46 0.4,0.44 0.3,0.43 0.3,0.41 0.3,0.39 0.4,0.38 0.3,0.36 0.3,0.34 0.4,0.33 0.3,0.31 0.4,0.29 0.3,0.28 0.4,0.27 0.3,0.25 0.4,0.23 0.4,0.22 0.3,0.2 0.4,0.19 0.4,0.18 0.4,0.16 0.4,0.15 0.4,0.14 0.5,0.12 0.4,0.1 0.4,0.1 0.5,0.08 0.4,0.07 0.5,0.06 0.5,0.04 c 1,0.11 1.9,0.11 1.9,1.97 0,0.41 -0.2,1.03 -1.2,1.03 -1.8,0 -6.3,-0.2 -8.1,-0.2 -3,0 -6.1,0.2 -9,0.2 -0.8,0 -1.9,0 -1.9,-1.97 0,-0.92 0.9,-1.03 1.4,-1.03 3.8,-0.31 4.2,-2.17 4.2,-3.4 0,-1.55 -1.4,-3.93 -1.6,-4.04 l -32.4,-51.449 -7.2,55.689 c 0,3 5.4,3.2 6.5,3.2 1.5,0 2.5,0 2.5,1.97 0,1.03 -1.2,1.03 -1.5,1.03 -1.7,0 -3.8,-0.2 -5.6,-0.2 h -5.7 c -7.6,0 -10.7,0.2 -10.8,0.2 -0.6,0 -1.9,0 -1.9,-1.86 0,-1.14 0.8,-1.14 2.4,-1.14 5.3,0 5.6,-0.92 5.9,-3.51 l 8.3,-63.739 c 0.3,-2.172 0.3,-2.484 1.7,-2.484 1.3,0 1.8,0.312 2.8,1.969 z"
           id="path540"
           inkscape:connector-curvature="0"
           style="fill:#000000;stroke-width:0" /><path
           d="m 1173.8,66.484 0.3,0.001 0.3,0.003 0.3,0.01 0.2,0.008 0.2,0.011 0.1,0.013 0.2,0.017 0.1,0.021 0.2,0.025 0.1,0.03 0.2,0.034 0.1,0.04 0.1,0.045 0.2,0.052 0.1,0.057 0.1,0.065 0.1,0.072 0.1,0.079 0.1,0.088 0.1,0.095 0.1,0.105 v 0.055 0.058 l 0.1,0.06 v 0.063 0.065 l 0.1,0.067 v 0.07 0.073 0.075 0.079 0.08 l 0.1,0.084 v 0.086 0.09 0.092 0.095 c 0,2.062 -1.9,2.062 -3.6,2.062 h -55.9 c -1.8,0 -3.7,0 -3.7,-2.062 0,-2.063 1.9,-2.063 3.7,-2.063 z"
           id="path542"
           inkscape:connector-curvature="0"
           style="fill:#000000;stroke-width:0" /><path
           d="m 1240.6,17.516 v 0.009 0.01 0.01 0.012 0.012 0.012 0.014 0.014 0.014 0.016 0.016 0.016 0.018 0.018 0.018 0.019 0.02 l -0.1,0.02 v 0.021 0.021 0.022 0.023 0.023 0.024 0.024 l -0.1,0.025 v 0.025 0.025 0.027 l -0.1,0.026 v 0.027 0.028 c -4.8,4.859 -17.5,18.078 -17.5,50.313 0,32.232 12.5,45.362 17.6,50.532 0,0.09 0.2,0.3 0.2,0.61 0,0.31 -0.3,0.51 -0.7,0.51 -1.2,0 -9.9,-7.64 -15,-19 -5.2,-11.465 -6.6,-22.621 -6.6,-32.543 0,-7.438 0.7,-20.047 6.9,-33.375 5,-10.734 13.4,-18.281 14.7,-18.281 0.5,0 0.7,0.203 0.7,0.625 z"
           id="path544"
           inkscape:connector-curvature="0"
           style="fill:#000000;stroke-width:0" /><path
           d="m 1313.7,66.484 0.3,0.001 0.3,0.003 0.4,0.01 0.1,0.008 0.2,0.011 0.1,0.013 0.2,0.017 0.1,0.021 0.2,0.025 0.1,0.03 0.2,0.034 0.1,0.04 0.1,0.045 0.2,0.052 0.1,0.057 0.1,0.065 0.1,0.072 0.1,0.079 0.1,0.088 0.1,0.095 0.1,0.105 v 0.055 0.058 l 0.1,0.06 v 0.063 0.065 l 0.1,0.067 v 0.07 0.073 0.075 0.079 l 0.1,0.08 v 0.084 0.086 0.09 0.092 0.095 c 0,2.062 -1.9,2.062 -3.6,2.062 h -55.9 c -1.8,0 -3.6,0 -3.6,-2.062 0,-2.063 1.8,-2.063 3.6,-2.063 z"
           id="path546"
           inkscape:connector-curvature="0"
           style="fill:#000000;stroke-width:0" /><path
           d="m 1360.7,109.56 v 0.1 0.1 0.09 0.1 0.08 0.09 0.08 0.08 0.08 0.08 0.07 0.07 0.07 0.06 0.06 0.06 l -0.1,0.06 v 0.06 0.05 0.05 0.05 0.05 0.04 0.04 l -0.1,0.08 v 0.08 0.06 l -0.1,0.06 v 0.05 l -0.1,0.05 -0.1,0.04 v 0.03 l -0.1,0.03 -0.1,0.03 -0.1,0.02 -0.1,0.02 -0.1,0.01 -0.1,0.02 h -0.1 v 0 l -0.1,0.01 h -0.1 v 0 h -0.1 l -0.1,0.01 v 0 h -0.1 -0.1 -0.1 -0.1 l -30.6,-48.861 h 2 L 1355,102.75 V 62.969 h -24.9 -2 v -2.688 h 26.6 V 50.156 c 0,-3.718 -0.2,-4.75 -7.4,-4.75 h -2 v -2.687 c 3.3,0.203 8.9,0.203 12.4,0.203 3.5,0 9.1,0 12.4,-0.203 v 2.687 h -2 c -7.2,0 -7.4,1.032 -7.4,4.75 v 10.125 h 10.5 v 2.688 h -10.5 z"
           id="path548"
           inkscape:connector-curvature="0"
           style="fill:#000000;stroke-width:0" /><path
           d="m 1393.5,42.312 v 0.557 0.547 0.536 l -0.1,0.526 v 0.515 l -0.1,0.504 -0.1,0.49 -0.1,0.479 -0.1,0.464 -0.1,0.451 -0.1,0.437 -0.1,0.422 -0.2,0.406 -0.1,0.391 -0.2,0.374 -0.2,0.357 -0.2,0.339 -0.2,0.321 -0.2,0.303 -0.2,0.284 -0.3,0.264 -0.3,0.244 -0.2,0.223 -0.3,0.202 -0.3,0.18 -0.3,0.157 -0.3,0.135 -0.4,0.112 -0.3,0.088 -0.4,0.063 -0.4,0.038 -0.4,0.013 c -3.3,0 -4.9,-2.687 -4.9,-4.953 0,-2.265 1.5,-5.062 5,-5.062 1.4,0 2.5,0.406 3.4,1.343 0.3,0.204 0.4,0.204 0.5,0.204 0.2,0 0.2,-1.438 0.2,-1.954 0,-3.421 -0.7,-10.124 -6.7,-16.843 -1.1,-1.25 -1.1,-1.453 -1.1,-1.657 0,-0.515 0.5,-1.031 1,-1.031 0.9,0 8.8,7.641 8.8,19.531 z"
           id="path550"
           inkscape:connector-curvature="0"
           style="fill:#000000;stroke-width:0" /><path
           d="m 1462,75.875 v 0.605 0.629 0.652 0.675 0.696 0.715 l -0.1,1.484 v 1.547 l -0.2,1.601 -0.1,1.643 -0.2,1.677 -0.2,1.699 -0.3,1.713 -0.4,1.715 -0.4,1.707 -0.3,0.848 -0.2,0.842 -0.3,0.836 -0.3,0.827 -0.3,0.818 -0.4,0.807 -0.3,0.799 -0.4,0.78 c -3.8,7.23 -9.9,9.81 -15.3,9.81 v -1.64 c 4.2,0 9.7,-2.8 11.6,-11.266 1.4,-5.891 1.5,-12.813 1.5,-21.078 0,-6.719 0,-14.985 -1.2,-21.078 -2.2,-11.25 -8.3,-13.219 -11.9,-13.219 v 0 c -6.6,0 -10.5,5.687 -12,13.531 -1.1,6.094 -1.1,14.984 -1.1,20.766 0,7.953 0,14.562 1.3,20.875 2,8.779 7.7,11.469 11.8,11.469 V 111 c -5,0 -11.3,-2.27 -15.2,-9.7 -4.1,-7.753 -4.6,-17.362 -4.6,-25.425 0,-5.875 0.2,-14.875 3.4,-22.719 4.4,-10.64 12.3,-12.094 16.4,-12.094 4.7,0 12,1.969 16.2,11.782 3.1,7.125 3.5,15.5 3.5,23.031 z"
           id="path552"
           inkscape:connector-curvature="0"
           style="fill:#000000;stroke-width:0" /><path
           d="m 1502.4,73.297 v -1.054 -1.03 l -0.1,-1.008 v -0.986 l -0.2,-1.905 -0.1,-1.818 -0.3,-1.733 -0.2,-1.648 -0.4,-1.566 -0.3,-1.485 -0.4,-1.406 -0.4,-1.328 -0.5,-1.252 -0.5,-1.178 -0.5,-1.105 -0.6,-1.033 -0.6,-0.964 -0.6,-0.896 -0.6,-0.829 -0.7,-0.764 -0.6,-0.7 -0.7,-0.639 -0.7,-0.579 -0.8,-0.52 -0.7,-0.463 -0.7,-0.407 -0.8,-0.354 -0.7,-0.301 -0.7,-0.251 -0.8,-0.202 -0.7,-0.154 -0.8,-0.108 -0.7,-0.063 -0.8,-0.021 c -2.3,0 -8.1,0.312 -10.5,4.344 2.7,-0.422 4.6,1.031 4.6,3.609 0,2.797 -2.2,3.719 -3.7,3.719 -0.9,0 -3.7,-0.407 -3.7,-3.922 0,-7.031 6.1,-10.235 13.5,-10.235 11.9,0 24,13.016 24,35.75 0,28.308 -11.6,34.188 -19.4,34.188 -10.2,0 -20.1,-8.98 -20.1,-22.828 0,-12.813 8.4,-22.313 18.9,-22.313 l 0.3,1.657 c -2.8,0 -6.8,0.515 -10,6.718 -2.1,4.016 -2.1,8.782 -2.1,13.844 0,6.094 0,10.328 2.9,14.872 1.4,2.17 4.1,5.67 10.1,5.67 12.2,0 12.2,-18.682 12.2,-22.823 0,-7.328 -3.3,-18.281 -13.1,-18.281 v 0 l -0.3,-1.657 c 8.7,0 12.5,8.063 13.6,11.469 z"
           id="path554"
           inkscape:connector-curvature="0"
           style="fill:#000000;stroke-width:0" /><path
           d="m 1524.4,78.359 v 1.144 1.115 1.089 l 0.1,1.061 0.1,1.034 0.1,1.008 0.1,0.982 0.1,0.956 0.1,0.93 0.2,0.906 0.1,0.88 0.2,0.856 0.2,0.831 0.2,0.808 0.4,1.544 0.4,1.453 0.6,1.362 0.5,1.276 0.6,1.191 0.6,1.108 0.6,1.027 0.7,0.95 0.7,0.88 0.7,0.8 0.7,0.74 0.8,0.67 0.7,0.6 0.8,0.54 0.7,0.48 0.8,0.42 0.8,0.37 0.7,0.31 0.8,0.27 0.7,0.21 0.7,0.18 0.7,0.13 0.7,0.09 0.7,0.05 0.7,0.01 c 2.1,0 7.4,-0.4 9.5,-4.43 -1.7,0 -4.8,0 -4.8,-3.61 0,-2.799 2.3,-3.721 3.7,-3.721 1,0 3.7,0.407 3.7,3.921 0,6.5 -5.1,10.22 -12.2,10.22 -12.3,0 -25.3,-12.797 -25.3,-35.641 0,-28.093 11.7,-34.297 20,-34.297 10,0 19.5,8.985 19.5,22.829 0,12.921 -8.4,22.328 -18.9,22.328 l -0.2,-1.657 c 1.7,0 6.8,0 10.2,-7.124 1.9,-4.032 1.9,-8.266 1.9,-13.438 0,-5.578 0,-9.703 -2.2,-13.844 -2.3,-4.234 -5.6,-6.609 -10.3,-6.609 v 0 c -12.7,0 -12.7,19 -12.7,22.828 0,7.437 3.5,18.187 13.1,18.187 l 0.2,1.657 c -6.3,0 -11,-4.141 -13.5,-11.375 z"
           id="path556"
           inkscape:connector-curvature="0"
           style="fill:#000000;stroke-width:0" /><path
           d="m 1624.8,101.81 0.3,0.52 0.3,0.49 0.4,0.48 0.3,0.46 0.3,0.44 0.3,0.43 0.4,0.41 0.3,0.39 0.3,0.38 0.3,0.36 0.4,0.34 0.3,0.33 0.4,0.31 0.3,0.29 0.4,0.28 0.3,0.27 0.4,0.25 0.3,0.23 0.4,0.22 0.4,0.2 0.4,0.19 0.3,0.18 0.4,0.16 0.5,0.15 0.4,0.14 0.4,0.12 0.4,0.1 0.5,0.1 0.4,0.08 0.5,0.07 0.5,0.06 0.5,0.04 c 1,0.11 1.8,0.11 1.8,1.97 0,0.41 -0.2,1.03 -1.1,1.03 -1.9,0 -6.3,-0.2 -8.2,-0.2 -3,0 -6.1,0.2 -9,0.2 -0.8,0 -1.8,0 -1.8,-1.97 0,-0.92 0.9,-1.03 1.3,-1.03 3.8,-0.31 4.2,-2.17 4.2,-3.4 0,-1.55 -1.4,-3.93 -1.5,-4.04 l -32.4,-51.449 -7.3,55.689 c 0,3 5.4,3.2 6.5,3.2 1.6,0 2.5,0 2.5,1.97 0,1.03 -1.1,1.03 -1.4,1.03 -1.8,0 -3.9,-0.2 -5.6,-0.2 h -5.8 c -7.5,0 -10.6,0.2 -10.8,0.2 -0.6,0 -1.8,0 -1.8,-1.86 0,-1.14 0.7,-1.14 2.4,-1.14 5.2,0 5.5,-0.92 5.9,-3.51 l 8.2,-63.739 c 0.3,-2.172 0.3,-2.484 1.8,-2.484 1.2,0 1.7,0.312 2.8,1.969 z"
           id="path558"
           inkscape:connector-curvature="0"
           style="fill:#000000;stroke-width:0" /><path
           d="m 1669.3,68.438 v 0.712 0.742 0.77 0.798 0.826 l -0.1,0.851 v 0.877 l -0.1,0.902 v 0.925 l -0.1,0.948 -0.1,0.971 -0.1,0.992 -0.3,2.044 -0.3,2.12 -0.4,2.189 -0.2,1.118 -0.3,1.134 -0.2,1.147 -0.3,1.16 -0.3,1.173 -0.4,1.184 -0.3,1.195 -0.4,1.205 -0.4,1.214 -0.5,1.222 -0.5,1.23 -0.5,1.236 -0.5,1.247 -0.6,1.24 c -4.9,10.75 -13.4,18.28 -14.6,18.28 -0.4,0 -0.8,-0.09 -0.8,-0.61 0,-0.21 0.1,-0.31 0.2,-0.51 5,-5.17 17.6,-18.3 17.6,-50.423 0,-32.235 -12.5,-45.359 -17.6,-50.516 -0.1,-0.203 -0.2,-0.312 -0.2,-0.515 0,-0.516 0.4,-0.625 0.8,-0.625 1.1,0 9.9,7.64 14.9,19.015 5.2,11.469 6.6,22.625 6.6,32.532 z"
           id="path560"
           inkscape:connector-curvature="0"
           style="fill:#000000;stroke-width:0" /><polyline
           points="766,-3 1678.5,-3 1678.5,1.1992 766,1.1992 "
           id="polyline562"
           style="fill:#000000;fill-rule:nonzero;stroke-width:0" /><path
           d="m 1205.6,-82.023 h -1.8 c -1,-7.344 -1.9,-8.579 -2.3,-9.204 -0.5,-0.828 -7.9,-0.828 -9.4,-0.828 h -19.8 c 3.7,4.032 10.9,11.375 19.7,19.844 6.3,5.984 13.6,13.016 13.6,23.25 0,12.188 -9.7,19.203 -20.5,19.203 -11.4,0 -18.3,-10.015 -18.3,-19.312 0,-4.032 3,-4.547 4.2,-4.547 1.1,0 4.2,0.625 4.2,4.234 0,3.203 -2.7,4.141 -4.2,4.141 -0.6,0 -1.2,-0.11 -1.6,-0.313 1.9,8.782 7.9,13.125 14.2,13.125 9,0 14.9,-7.14 14.9,-16.531 0,-9 -5.3,-16.734 -11.1,-23.453 l -20.6,-23.25 v -2.375 h 36.4 z"
           id="path564"
           inkscape:connector-curvature="0"
           style="fill:#000000;stroke-width:0" /><path
           d="m 1230.6,-22.223 v 0.077 0.074 0.072 0.07 0.067 0.066 0.063 0.061 0.06 0.057 0.055 0.053 0.052 0.049 0.048 0.046 0.044 0.043 0.04 0.039 l -0.1,0.038 v 0.036 0.034 0.033 0.061 0.056 0.05 l -0.1,0.045 v 0.04 l -0.1,0.035 v 0.031 l -0.1,0.028 v 0.023 l -0.1,0.02 v 0.017 l -0.1,0.007 v 0.007 0.006 l -0.1,0.005 v 0.004 l -0.1,0.005 v 0.003 l -0.1,0.003 v 0.003 l -0.1,0.002 v 0.002 l -0.1,10e-4 v 0.002 h -0.1 v 10e-4 h -0.1 l -0.1,0.001 v 0 c -1.8,-1.938 -5.3,-4.594 -12.7,-4.594 v -2.078 c 1.6,0 5.2,0 9.2,1.859 v -37.344 c 0,-2.578 -0.3,-3.437 -6.6,-3.437 h -2.2 v -2.078 c 1.9,0.14 8.9,0.14 11.3,0.14 2.3,0 9.2,0 11.1,-0.14 v 2.078 h -2.2 c -6.3,0 -6.5,0.859 -6.5,3.437 z"
           id="path566"
           inkscape:connector-curvature="0"
           style="fill:#000000;stroke-width:0" /><path
           d="m 1253.9,-43.223 v 0.84 l 0.1,0.817 v 0.795 0.774 l 0.1,0.752 0.1,0.732 v 0.711 l 0.1,0.69 0.1,0.67 0.1,0.651 0.1,0.631 0.2,0.612 0.1,0.592 0.2,0.574 0.1,0.556 0.2,0.538 0.1,0.519 0.2,0.503 0.2,0.484 0.2,0.468 0.4,0.886 0.4,0.822 0.5,0.759 0.4,0.699 0.5,0.642 0.5,0.586 0.5,0.533 0.5,0.482 0.6,0.434 0.5,0.387 0.5,0.343 0.6,0.302 0.5,0.261 0.5,0.225 0.5,0.19 0.5,0.157 0.5,0.126 0.5,0.099 0.4,0.073 0.4,0.049 0.4,0.028 0.4,0.008 c 2.6,0 5.2,-0.781 6.6,-2.937 -0.9,0 -3.6,0 -3.6,-2.938 0,-1.578 1,-2.937 2.9,-2.937 1.8,0 3,1.078 3,3.156 0,3.734 -2.7,7.391 -8.9,7.391 -9.1,0 -18.5,-9.25 -18.5,-25.016 0,-19.719 8.6,-24.156 14.6,-24.156 7.9,0 14.5,6.797 14.5,16.125 0,9.531 -6.6,15.906 -13.8,15.906 l -0.3,-1.437 c 4,0 6,-2.641 7.1,-5.079 1.1,-2.656 1.1,-6.234 1.1,-9.328 0,-3.656 0,-6.875 -1.3,-9.593 -1.8,-3.438 -4.4,-4.657 -7.3,-4.657 v 0 c -4.5,0 -6.6,4 -7.3,5.516 -0.6,1.859 -1.3,5.375 -1.3,10.391 0,5.656 2.6,12.75 9,12.75 l 0.3,1.437 c -6.4,0 -8.7,-5.516 -9.5,-7.516 z"
           id="path568"
           inkscape:connector-curvature="0"
           style="fill:#000000;stroke-width:0" /><path
           d="m 1779.9,5.918 0.3,4e-4 0.3,0.003 0.3,0.0082 0.1,0.0069 0.1,0.0091 0.2,0.0117 0.1,0.0146 0.1,0.0178 0.2,0.0214 0.1,0.0252 0.1,0.0295 0.1,0.034 0.1,0.0389 0.1,0.044 0.1,0.0495 0.1,0.0553 0.1,0.0615 0.1,0.068 0.1,0.0747 0.1,0.0819 v 0.0892 l 0.1,0.0476 v 0.0495 0.0515 l 0.1,0.0536 v 0.0557 0.0578 0.0601 0.0622 l 0.1,0.0645 v 0.0668 0.0692 0.0715 0.074 0.0764 0.0789 0.0815 c 0,1.8594 -1.8,1.8594 -3.5,1.8594 h -57.7 c -1.8,0 -3.6,0 -3.6,-1.8594 0,-1.7656 1.6,-1.7656 3.1,-1.7656 z"
           id="path570"
           inkscape:connector-curvature="0"
           style="fill:#000000;stroke-width:0" /><path
           d="m 1779.5,-12.473 0.3,0.001 0.4,0.003 0.3,0.009 0.1,0.007 0.2,0.01 0.1,0.012 0.2,0.016 0.1,0.018 0.2,0.023 0.1,0.027 0.2,0.031 0.1,0.036 0.1,0.042 0.1,0.046 0.1,0.053 0.2,0.059 0.1,0.065 0.1,0.072 v 0.08 l 0.1,0.087 0.1,0.094 0.1,0.103 v 0.055 0.057 l 0.1,0.059 v 0.062 0.063 0.066 0.069 l 0.1,0.071 v 0.073 0.076 0.079 0.081 0.084 0.086 c 0,1.7503 -1.5,1.7503 -3.1,1.7503 h -58.6 c -1.5,0 -3.1,0 -3.1,-1.7503 0,-1.875 1.8,-1.875 3.6,-1.875 z"
           id="path572"
           inkscape:connector-curvature="0"
           style="fill:#000000;stroke-width:0" /><path
           d="m 1850.7,79.906 -1.7,1.141 c -0.1,0 -0.2,0 -1,0.625 L 1837.1,89 c -0.8,0.516 -4.9,3.719 -4.9,8.578 0,6.302 6.5,11.042 13.9,11.042 8.2,0 14.2,-5.78 14.2,-12.495 0,-9.609 -10.8,-15.078 -11.3,-15.078 l 1.7,-1.141 c 6.5,3.313 13.1,8.266 13.1,16.219 0,9.405 -9.1,14.875 -17.5,14.875 -9.4,0 -17.6,-6.81 -17.6,-16.219 0,-2.578 0.6,-7.015 4.6,-10.937 1,-1.047 5.4,-4.141 8.2,-6.11 l 1.7,-1.125 12.9,-8.781 c 1.6,-1.14 6.5,-4.547 6.5,-10.859 0,-7.641 -7.6,-13.422 -16.3,-13.422 -9.4,0 -16.5,6.719 -16.5,14.875 0,8.156 6.3,14.984 13.4,18.187 l -1.7,1.125 c -4.7,-2.375 -15.5,-8.046 -15.5,-19.422 0,-10.64 10.1,-17.25 20.1,-17.25 11.1,0 20.4,7.954 20.4,18.5 0,9.391 -6.3,13.735 -10.5,16.532 z"
           id="path574"
           inkscape:connector-curvature="0"
           style="fill:#000000;stroke-width:0" /><path
           d="m 1890.1,42.312 v 0.557 0.547 l -0.1,0.536 v 0.526 0.515 l -0.1,0.504 -0.1,0.49 -0.1,0.479 -0.1,0.464 -0.1,0.451 -0.1,0.437 -0.1,0.422 -0.2,0.406 -0.2,0.391 -0.1,0.374 -0.2,0.357 -0.2,0.339 -0.2,0.321 -0.2,0.303 -0.3,0.284 -0.2,0.264 -0.3,0.244 -0.3,0.223 -0.2,0.202 -0.3,0.18 -0.3,0.157 -0.4,0.135 -0.3,0.112 -0.4,0.088 -0.3,0.063 -0.4,0.038 -0.4,0.013 c -3.3,0 -5,-2.687 -5,-4.953 0,-2.265 1.6,-5.062 5.1,-5.062 1.3,0 2.5,0.406 3.4,1.343 0.2,0.204 0.3,0.204 0.4,0.204 0.2,0 0.2,-1.438 0.2,-1.954 0,-3.421 -0.6,-10.124 -6.6,-16.843 -1.1,-1.25 -1.1,-1.453 -1.1,-1.657 0,-0.515 0.5,-1.031 1,-1.031 0.8,0 8.8,7.641 8.8,19.531 z"
           id="path576"
           inkscape:connector-curvature="0"
           style="fill:#000000;stroke-width:0" /><path
           d="m 1942.7,108.73 v 0.1 0.1 0.1 0.09 0.09 0.08 0.08 0.08 0.08 0.08 0.07 0.07 0.07 0.06 l -0.1,0.06 v 0.06 0.06 0.06 0.05 0.05 0.05 0.05 0.04 0.05 0.04 l -0.1,0.04 v 0.03 0.04 0.06 l -0.1,0.06 v 0.05 0.05 l -0.1,0.04 v 0.04 l -0.1,0.03 -0.1,0.02 v 0.02 l -0.1,0.02 -0.1,0.02 -0.1,0.01 -0.1,0.01 h -0.1 l -0.1,0.01 h -0.1 -0.1 -0.2 c -4,-4.84 -10.1,-6.39 -15.9,-6.61 -0.3,0 -0.8,0 -0.9,-0.2 -0.1,-0.21 -0.1,-0.41 -0.1,-2.58 3.2,0 8.6,0.61 12.7,3.09 V 50.266 c 0,-3.625 -0.2,-4.86 -9.1,-4.86 h -3.1 v -2.687 c 5,0.109 10.1,0.203 15.1,0.203 4.9,0 10.1,-0.094 15.1,-0.203 v 2.687 h -3.1 c -8.9,0 -9.1,1.141 -9.1,4.86 z"
           id="path578"
           inkscape:connector-curvature="0"
           style="fill:#000000;stroke-width:0" /><path
           d="m 1998.9,73.297 v -1.054 -1.03 -1.008 l -0.1,-0.986 -0.1,-1.905 -0.2,-1.818 -0.2,-1.733 -0.3,-1.648 -0.3,-1.566 -0.3,-1.485 -0.4,-1.406 -0.5,-1.328 -0.4,-1.252 -0.5,-1.178 -0.6,-1.105 -0.5,-1.033 -0.6,-0.964 -0.6,-0.896 -0.6,-0.829 -0.7,-0.764 -0.7,-0.7 -0.7,-0.639 -0.7,-0.579 -0.7,-0.52 -0.7,-0.463 -0.7,-0.407 -0.8,-0.354 -0.7,-0.301 -0.8,-0.251 -0.7,-0.202 -0.8,-0.154 -0.7,-0.108 -0.8,-0.063 -0.7,-0.021 c -2.4,0 -8.2,0.312 -10.5,4.344 2.6,-0.422 4.6,1.031 4.6,3.609 0,2.797 -2.3,3.719 -3.7,3.719 -0.9,0 -3.7,-0.407 -3.7,-3.922 0,-7.031 6.1,-10.235 13.5,-10.235 11.9,0 24,13.016 24,35.75 0,28.308 -11.6,34.188 -19.4,34.188 -10.3,0 -20.1,-8.98 -20.1,-22.828 0,-12.813 8.4,-22.313 18.9,-22.313 l 0.2,1.657 c -2.8,0 -6.7,0.515 -9.9,6.718 -2.1,4.016 -2.1,8.782 -2.1,13.844 0,6.094 0,10.328 2.8,14.872 1.5,2.17 4.2,5.67 10.2,5.67 12.2,0 12.2,-18.682 12.2,-22.823 0,-7.328 -3.4,-18.281 -13.2,-18.281 v 0 l -0.2,-1.657 c 8.7,0 12.5,8.063 13.5,11.469 z"
           id="path580"
           inkscape:connector-curvature="0"
           style="fill:#000000;stroke-width:0" /><path
           d="m 2053.1,58.734 h -1.9 c -1,-7.343 -1.8,-8.578 -2.3,-9.203 -0.5,-0.828 -7.9,-0.828 -9.4,-0.828 h -19.8 c 3.7,4.031 11,11.375 19.7,19.844 6.3,5.984 13.7,13.015 13.7,23.25 0,12.183 -9.7,19.203 -20.6,19.203 -11.3,0 -18.3,-10.02 -18.3,-19.312 0,-4.032 3,-4.547 4.3,-4.547 1,0 4.1,0.625 4.1,4.234 0,3.203 -2.7,4.141 -4.1,4.141 -0.7,0 -1.3,-0.11 -1.7,-0.313 2,8.777 8,13.127 14.3,13.127 9,0 14.8,-7.14 14.8,-16.533 0,-9 -5.2,-16.735 -11.1,-23.453 l -20.6,-23.25 v -2.375 h 36.4 z"
           id="path582"
           inkscape:connector-curvature="0"
           style="fill:#000000;stroke-width:0" /><path
           d="m 2121.3,101.81 0.4,0.52 0.3,0.49 0.3,0.48 0.3,0.46 0.4,0.44 0.3,0.43 0.3,0.41 0.4,0.39 0.3,0.38 0.3,0.36 0.4,0.34 0.3,0.33 0.3,0.31 0.4,0.29 0.3,0.28 0.4,0.27 0.3,0.25 0.4,0.23 0.4,0.22 0.3,0.2 0.4,0.19 0.4,0.18 0.4,0.16 0.4,0.15 0.4,0.14 0.5,0.12 0.4,0.1 0.4,0.1 0.5,0.08 0.5,0.07 0.4,0.06 0.5,0.04 c 1.1,0.11 1.9,0.11 1.9,1.97 0,0.41 -0.2,1.03 -1.1,1.03 -1.9,0 -6.3,-0.2 -8.2,-0.2 -3,0 -6.1,0.2 -9,0.2 -0.8,0 -1.9,0 -1.9,-1.97 0,-0.92 1,-1.03 1.4,-1.03 3.8,-0.31 4.2,-2.17 4.2,-3.4 0,-1.55 -1.4,-3.93 -1.5,-4.04 l -32.5,-51.449 -7.2,55.689 c 0,3 5.4,3.2 6.5,3.2 1.5,0 2.5,0 2.5,1.97 0,1.03 -1.2,1.03 -1.5,1.03 -1.7,0 -3.8,-0.2 -5.5,-0.2 h -5.8 c -7.6,0 -10.7,0.2 -10.8,0.2 -0.6,0 -1.8,0 -1.8,-1.86 0,-1.14 0.7,-1.14 2.3,-1.14 5.3,0 5.6,-0.92 5.9,-3.51 l 8.3,-63.739 c 0.3,-2.172 0.3,-2.484 1.7,-2.484 1.3,0 1.8,0.312 2.9,1.969 z"
           id="path584"
           inkscape:connector-curvature="0"
           style="fill:#000000;stroke-width:0" /><polyline
           points="1823,-3 2139.3,-3 2139.3,1.1992 1823,1.1992 "
           id="polyline586"
           style="fill:#000000;fill-rule:nonzero;stroke-width:0" /><path
           d="m 1963.7,-82.023 h -1.9 c -1,-7.344 -1.8,-8.579 -2.2,-9.204 -0.6,-0.828 -8,-0.828 -9.4,-0.828 h -19.9 c 3.7,4.032 11,11.375 19.7,19.844 6.3,5.984 13.7,13.016 13.7,23.25 0,12.188 -9.7,19.203 -20.6,19.203 -11.3,0 -18.3,-10.015 -18.3,-19.312 0,-4.032 3,-4.547 4.3,-4.547 1,0 4.1,0.625 4.1,4.234 0,3.203 -2.7,4.141 -4.1,4.141 -0.6,0 -1.3,-0.11 -1.7,-0.313 2,8.782 8,13.125 14.3,13.125 9,0 14.9,-7.14 14.9,-16.531 0,-9 -5.3,-16.734 -11.2,-23.453 l -20.6,-23.25 v -2.375 h 36.4 z"
           id="path588"
           inkscape:connector-curvature="0"
           style="fill:#000000;stroke-width:0" /><path
           d="m 1988.6,-22.223 v 0.077 0.074 0.072 0.07 0.067 0.066 0.063 0.061 0.06 0.057 0.055 0.053 0.052 0.049 0.048 0.046 0.044 0.043 0.04 0.039 0.038 0.036 0.034 0.033 l -0.1,0.061 v 0.056 0.05 0.045 l -0.1,0.04 v 0.035 l -0.1,0.031 v 0.028 l -0.1,0.023 v 0.02 l -0.1,0.017 v 0.007 l -0.1,0.007 v 0.006 0.005 l -0.1,0.004 v 0.005 l -0.1,0.003 v 0.003 l -0.1,0.003 v 0.002 l -0.1,0.002 v 10e-4 l -0.1,0.002 v 0 l -0.1,10e-4 h -0.1 v 0.001 h -0.1 c -1.7,-1.938 -5.3,-4.594 -12.7,-4.594 v -2.078 c 1.7,0 5.3,0 9.2,1.859 v -37.344 c 0,-2.578 -0.2,-3.437 -6.5,-3.437 h -2.3 v -2.078 c 2,0.14 8.9,0.14 11.3,0.14 2.4,0 9.2,0 11.2,-0.14 v 2.078 h -2.2 c -6.3,0 -6.6,0.859 -6.6,3.437 z"
           id="path590"
           inkscape:connector-curvature="0"
           style="fill:#000000;stroke-width:0" /><path
           d="m 2012,-43.223 v 0.84 0.817 0.795 l 0.1,0.774 v 0.752 l 0.1,0.732 0.1,0.711 0.1,0.69 0.1,0.67 0.1,0.651 0.1,0.631 0.1,0.612 0.1,0.592 0.2,0.574 0.1,0.556 0.2,0.538 0.2,0.519 0.2,0.503 0.1,0.484 0.2,0.468 0.4,0.886 0.5,0.822 0.4,0.759 0.5,0.699 0.5,0.642 0.5,0.586 0.5,0.533 0.5,0.482 0.5,0.434 0.5,0.387 0.6,0.343 0.5,0.302 0.5,0.261 0.5,0.225 0.5,0.19 0.5,0.157 0.5,0.126 0.5,0.099 0.5,0.073 0.4,0.049 0.4,0.028 0.4,0.008 c 2.5,0 5.1,-0.781 6.5,-2.937 -0.9,0 -3.6,0 -3.6,-2.938 0,-1.578 1.1,-2.937 2.9,-2.937 1.8,0 3.1,1.078 3.1,3.156 0,3.734 -2.8,7.391 -9,7.391 -9,0 -18.5,-9.25 -18.5,-25.016 0,-19.719 8.6,-24.156 14.7,-24.156 7.8,0 14.5,6.797 14.5,16.125 0,9.531 -6.7,15.906 -13.9,15.906 l -0.3,-1.437 c 4,0 6.1,-2.641 7.1,-5.079 1.2,-2.656 1.2,-6.234 1.2,-9.328 0,-3.656 0,-6.875 -1.4,-9.593 -1.8,-3.438 -4.3,-4.657 -7.2,-4.657 v 0 c -4.5,0 -6.7,4 -7.3,5.516 -0.7,1.859 -1.4,5.375 -1.4,10.391 0,5.656 2.6,12.75 9,12.75 l 0.3,1.437 c -6.3,0 -8.7,-5.516 -9.4,-7.516 z"
           id="path592"
           inkscape:connector-curvature="0"
           style="fill:#000000;stroke-width:0" /><path
           d="m 433.25,-170.07 1.2,0.27 1.17,0.31 1.16,0.34 1.13,0.37 1.12,0.4 1.09,0.42 1.06,0.46 1.05,0.47 1.01,0.51 0.99,0.52 0.95,0.55 0.93,0.57 0.89,0.6 0.86,0.61 0.82,0.63 0.79,0.66 0.75,0.66 0.72,0.69 0.67,0.7 0.63,0.72 0.58,0.73 0.55,0.75 0.5,0.76 0.45,0.77 0.4,0.78 0.35,0.79 0.31,0.8 0.25,0.8 0.19,0.82 0.15,0.82 0.08,0.82 0.03,0.83 c 0,8.07 -8.15,15.5 -22.51,15.5 h -28 c -2.07,0 -3,0 -3,-1.96 0,-1.04 0.73,-1.04 2.68,-1.04 6.21,0 6.21,-0.82 6.21,-1.95 0,-0.22 0,-0.83 -0.41,-2.39 l -13.95,-55.58 c -0.92,-3.61 -1.14,-4.64 -8.27,-4.64 -2.37,0 -3.09,0 -3.09,-1.97 0,-1.03 1.12,-1.03 1.44,-1.03 1.86,0 4.03,0.2 6,0.2 h 12.18 c 1.86,0 4.03,-0.2 5.89,-0.2 0.83,0 1.97,0 1.97,1.97 0,1.03 -0.93,1.03 -2.48,1.03 -6.3,0 -6.3,0.83 -6.3,1.86 0,0.09 0,0.83 0.2,1.66 l 6.93,27.78 h 12.39 l -0.21,2.06 h -11.67 l 6.81,27.17 c 0.94,3.83 1.35,4.03 5.38,4.03 h 7.44 c 8.89,0 15.5,-2.68 15.5,-10.73 0,-5.28 -2.69,-20.47 -23.46,-20.47 l 0.21,-2.06 c 9.81,0 11.67,-6.2 11.67,-9.61 0,-1.55 -1.03,-5.58 -1.75,-8.27 -1.14,-4.75 -1.45,-5.89 -1.45,-7.84 0,-7.34 6,-10.75 12.92,-10.75 8.36,0 11.98,10.23 11.98,11.67 0,0.74 -0.51,1.03 -1.14,1.03 -0.83,0 -1.03,-0.61 -1.23,-1.43 -2.49,-7.35 -6.72,-9.21 -9.3,-9.21 -2.59,0 -4.23,1.14 -4.23,5.8 0,2.47 1.23,11.87 1.34,12.39 0.52,3.83 0.52,4.23 0.52,5.06 0,7.55 -6.11,10.75 -10.04,11.99 z"
           id="path594"
           inkscape:connector-curvature="0"
           style="fill:#000000;stroke-width:0" /><path
           d="m 470.11,-212.73 -0.24,-0.38 -0.23,-0.38 -0.24,-0.35 -0.23,-0.34 -0.24,-0.33 -0.23,-0.31 -0.24,-0.29 -0.24,-0.28 -0.24,-0.27 -0.24,-0.25 -0.24,-0.24 -0.24,-0.23 -0.25,-0.22 -0.25,-0.2 -0.25,-0.19 -0.25,-0.17 -0.26,-0.17 -0.25,-0.15 -0.26,-0.15 -0.27,-0.13 -0.27,-0.12 -0.27,-0.11 -0.27,-0.1 -0.28,-0.09 -0.29,-0.09 -0.29,-0.07 -0.29,-0.06 -0.3,-0.06 -0.3,-0.05 -0.31,-0.04 -0.31,-0.03 -0.32,-0.02 c -0.78,-0.08 -1.36,-0.08 -1.36,-1.36 0,-0.44 0.36,-0.72 0.86,-0.72 1.3,0 4.51,0.14 5.81,0.14 2.08,0 4.36,-0.14 6.38,-0.14 0.42,0 1.28,0 1.28,1.36 0,0.64 -0.57,0.72 -1,0.72 -1.64,0.14 -3,0.72 -3,2.44 0,1 0.42,1.79 1.36,3.37 l 5.43,9.03 h 18.29 l -0.22,2.08 H 478.7 l 14.41,24.08 2.44,-24.08 0.22,-2.08 c 0.07,-0.65 0.07,-1.22 0.14,-1.87 0.21,-1.86 1.07,-9.32 1.07,-10.67 0,-2.16 -3.65,-2.3 -4.79,-2.3 -0.8,0 -1.58,0 -1.58,-1.3 0,-0.78 0.64,-0.78 1.08,-0.78 1.22,0 2.64,0.14 3.86,0.14 h 4.09 c 4.38,0 7.52,-0.14 7.59,-0.14 0.5,0 1.3,0 1.3,1.36 0,0.72 -0.65,0.72 -1.73,0.72 -3.94,0 -4,0.64 -4.22,2.8 l -4.38,44.71 c -0.14,1.44 -0.42,1.58 -1.22,1.58 -0.71,0 -1.14,-0.14 -1.79,-1.22 z"
           id="path596"
           inkscape:connector-curvature="0"
           style="fill:#000000;stroke-width:0" /><path
           d="m 521.85,-215.38 -0.06,-0.23 -0.05,-0.22 -0.06,-0.21 -0.06,-0.2 -0.05,-0.19 -0.06,-0.18 -0.06,-0.17 -0.07,-0.16 -0.07,-0.15 -0.08,-0.15 -0.08,-0.13 -0.09,-0.13 -0.1,-0.12 -0.11,-0.11 -0.12,-0.1 -0.14,-0.1 -0.14,-0.09 -0.16,-0.08 -0.18,-0.07 -0.19,-0.07 -0.2,-0.06 -0.23,-0.06 -0.12,-0.02 -0.12,-0.03 -0.13,-0.02 -0.13,-0.02 -0.14,-0.02 -0.15,-0.02 -0.15,-0.01 -0.15,-0.02 -0.16,-0.01 -0.17,-0.02 -0.17,-0.01 -0.18,-0.01 h -0.19 l -0.19,-0.01 -0.2,-0.01 h -0.2 l -0.21,-0.01 h -0.22 -0.22 -0.24 c -1.37,0 -2.07,0 -2.07,-1.3 0,-0.78 0.42,-0.78 1.86,-0.78 h 22.71 l -1.14,2.08 h -8.17 c -1.01,0 -1.15,0 -1.58,0.08 -0.79,0.06 -0.86,0.2 -0.86,0.78 0,0.5 0.15,0.94 0.29,1.58 l 9.89,39.56 c 0.64,2.65 0.93,2.8 3.73,2.8 h 7.88 c 6.73,0 12.9,-3.66 12.9,-13.55 0,-3.58 -1.44,-16.05 -8.39,-23.94 -2,-2.36 -7.45,-7.31 -15.69,-7.31 l 1.14,-2.08 c 14.49,0 28.6,14.98 28.6,30.97 0,10.31 -6.16,17.98 -16.41,17.98 h -23.01 c -1.36,0 -2,0 -2,-1.36 0,-0.71 0.64,-0.71 1.72,-0.71 4.37,0 4.37,-0.58 4.37,-1.36 0,-0.14 0,-0.58 -0.3,-1.66 z"
           id="path598"
           inkscape:connector-curvature="0"
           style="fill:#000000;stroke-width:0" /><path
           d="m 624.38,-170.87 v 0.03 0.03 0.03 0.03 l -0.01,0.02 v 0.03 0.02 l -0.01,0.02 v 0.03 l -0.01,0.02 -0.01,0.02 v 0.02 l -0.01,0.02 -0.01,0.02 -0.01,0.02 -0.01,0.01 -0.01,0.02 -0.01,0.02 -0.01,0.01 -0.01,0.02 -0.01,0.01 -0.01,0.01 -0.01,0.01 -0.01,0.02 -0.03,0.02 -0.02,0.02 -0.03,0.02 -0.03,0.01 -0.02,0.02 -0.03,0.01 -0.03,0.01 -0.03,0.01 -0.02,0.01 h -0.03 l -0.03,0.01 h -0.02 l -0.03,0.01 h -0.02 -0.03 -0.02 -0.02 -0.02 -0.02 -0.01 c -0.14,0 -0.43,0 -1,-0.7 l -4.94,-6.03 c -2.52,4.3 -6.45,6.73 -11.83,6.73 -15.48,0 -31.55,-15.68 -31.55,-32.53 0,-11.97 8.39,-19.42 18.86,-19.42 5.74,0 10.75,2.44 14.91,5.94 6.23,5.23 8.09,12.19 8.09,12.76 0,0.64 -0.56,0.64 -0.78,0.64 -0.64,0 -0.72,-0.42 -0.86,-0.71 -3.29,-11.18 -12.97,-16.55 -20.14,-16.55 -7.59,0 -14.19,4.87 -14.19,15.05 0,2.29 0.71,14.76 8.82,24.15 3.93,4.58 10.67,8.6 17.48,8.6 7.89,0 11.39,-6.52 11.39,-13.83 0,-1.86 -0.2,-3.44 -0.2,-3.72 0,-0.66 0.72,-0.66 0.92,-0.66 0.8,0 0.86,0.08 1.16,1.36 z"
           id="path600"
           inkscape:connector-curvature="0"
           style="fill:#000000;stroke-width:0" /><path
           d="m 731.95,-158.5 v 0.2 l -0.01,0.19 -0.01,0.19 -0.01,0.18 -0.02,0.17 -0.02,0.16 -0.02,0.16 -0.03,0.15 -0.03,0.14 -0.04,0.14 -0.04,0.13 -0.04,0.12 -0.04,0.12 -0.05,0.11 -0.04,0.1 -0.05,0.1 -0.06,0.09 -0.05,0.09 -0.06,0.07 -0.05,0.08 -0.06,0.06 -0.06,0.06 -0.07,0.06 -0.06,0.05 -0.06,0.04 -0.07,0.04 -0.06,0.03 -0.07,0.02 -0.07,0.02 -0.07,0.02 -0.06,0.01 h -0.07 c -0.41,0 -1.34,-0.42 -1.44,-2.8 -0.42,-7.12 -7.65,-11.36 -14.36,-11.36 -6,0 -11.15,3.21 -16.53,6.81 -5.58,3.74 -11.15,7.46 -17.87,7.46 -9.61,0 -17.25,-7.35 -17.25,-16.85 0,-2.28 0.83,-3.11 1.43,-3.11 1.04,0 1.46,1.97 1.46,2.4 0.51,8.67 8.98,11.76 14.36,11.76 5.98,0 11.15,-3.2 16.53,-6.81 5.58,-3.72 11.15,-7.44 17.87,-7.44 9.6,0 17.25,7.33 17.25,16.84 z"
           id="path602"
           inkscape:connector-curvature="0"
           style="fill:#000000;stroke-width:0" /><path
           d="m 731.95,-182.68 v 0.13 0.14 l -0.01,0.13 v 0.13 l -0.01,0.12 -0.01,0.12 -0.01,0.11 -0.01,0.11 -0.01,0.11 -0.02,0.11 -0.02,0.1 -0.01,0.1 -0.02,0.09 -0.02,0.09 -0.02,0.09 -0.03,0.08 -0.02,0.08 -0.02,0.08 -0.03,0.08 -0.02,0.07 -0.03,0.07 -0.03,0.06 -0.02,0.07 -0.03,0.06 -0.03,0.06 -0.03,0.05 -0.06,0.11 -0.06,0.09 -0.07,0.08 -0.06,0.08 -0.06,0.07 -0.07,0.06 -0.06,0.05 -0.06,0.04 -0.06,0.04 -0.06,0.03 -0.06,0.03 -0.05,0.02 -0.05,0.02 -0.05,0.02 -0.04,0.01 h -0.04 l -0.03,0.01 h -0.03 -0.02 c -0.41,0 -1.34,-0.52 -1.44,-2.78 -0.42,-7.13 -7.65,-11.36 -14.36,-11.36 -6,0 -11.15,3.19 -16.53,6.81 -5.58,3.72 -11.15,7.44 -17.87,7.44 -9.61,0 -17.25,-7.33 -17.25,-16.84 0,-2.27 0.83,-3.1 1.43,-3.1 1.04,0 1.46,1.97 1.46,2.38 0.51,8.67 8.98,11.78 14.36,11.78 5.98,0 11.15,-3.2 16.53,-6.83 5.58,-3.72 11.15,-7.44 17.87,-7.44 9.82,0 17.25,7.66 17.25,16.74 z"
           id="path604"
           inkscape:connector-curvature="0"
           style="fill:#000000;stroke-width:0" /><path
           d="m 793.92,-139.18 v 0.1 0.09 0.1 0.09 0.09 0.08 0.09 l -0.01,0.08 v 0.07 0.08 0.07 l -0.01,0.07 v 0.07 l -0.01,0.06 v 0.07 l -0.01,0.06 v 0.05 l -0.01,0.06 -0.01,0.05 -0.01,0.05 -0.01,0.05 -0.01,0.05 -0.01,0.04 -0.01,0.05 -0.01,0.04 -0.01,0.04 -0.02,0.03 -0.01,0.04 -0.04,0.06 -0.03,0.06 -0.04,0.06 -0.05,0.04 -0.05,0.04 -0.05,0.04 -0.06,0.03 -0.07,0.02 -0.07,0.03 -0.08,0.01 -0.08,0.02 -0.09,0.01 -0.09,0.01 h -0.11 l -0.1,0.01 h -0.12 -0.12 -0.13 c -4.04,-4.84 -10.13,-6.39 -15.93,-6.61 -0.29,0 -0.83,0 -0.92,-0.2 -0.11,-0.2 -0.11,-0.41 -0.11,-2.58 3.2,0 8.58,0.61 12.7,3.1 v -54.44 c 0,-3.63 -0.2,-4.86 -9.07,-4.86 h -3.11 v -2.69 c 4.97,0.11 10.12,0.2 15.09,0.2 4.95,0 10.13,-0.09 15.08,-0.2 v 2.69 h -3.09 c -8.9,0 -9.1,1.14 -9.1,4.86 z"
           id="path606"
           inkscape:connector-curvature="0"
           style="fill:#000000;stroke-width:0" /><path
           d="m 856.91,-189.18 h -1.86 c -1.03,-7.35 -1.85,-8.58 -2.26,-9.21 -0.52,-0.82 -7.95,-0.82 -9.41,-0.82 h -19.83 c 3.72,4.03 10.94,11.37 19.72,19.84 6.32,5.98 13.64,13.02 13.64,23.25 0,12.19 -9.7,19.2 -20.56,19.2 -11.36,0 -18.28,-10.01 -18.28,-19.31 0,-4.03 3,-4.55 4.23,-4.55 1.04,0 4.15,0.63 4.15,4.24 0,3.2 -2.69,4.14 -4.15,4.14 -0.6,0 -1.23,-0.11 -1.65,-0.31 1.97,8.78 7.95,13.12 14.26,13.12 8.99,0 14.88,-7.14 14.88,-16.53 0,-9 -5.27,-16.73 -11.16,-23.45 l -20.56,-23.25 v -2.38 h 36.36 z"
           id="path608"
           inkscape:connector-curvature="0"
           style="fill:#000000;stroke-width:0" /><path
           d="m 904.62,-172.04 v 0.6 0.63 0.65 l -0.01,0.68 -0.01,0.69 -0.01,0.72 -0.05,1.48 -0.07,1.55 -0.11,1.6 -0.14,1.64 -0.19,1.68 -0.24,1.7 -0.3,1.71 -0.36,1.72 -0.42,1.71 -0.24,0.84 -0.27,0.85 -0.28,0.83 -0.3,0.83 -0.32,0.82 -0.35,0.8 -0.37,0.8 -0.39,0.78 c -3.83,7.23 -9.92,9.81 -15.3,9.81 v -1.64 c 4.23,0 9.72,-2.79 11.67,-11.26 1.35,-5.89 1.46,-12.82 1.46,-21.08 0,-6.72 0,-14.99 -1.25,-21.08 -2.16,-11.25 -8.25,-13.22 -11.88,-13.22 v 0 c -6.61,0 -10.53,5.69 -11.98,13.53 -1.14,6.1 -1.14,14.99 -1.14,20.77 0,7.95 0,14.56 1.34,20.87 1.97,8.78 7.75,11.47 11.78,11.47 v 1.64 c -4.95,0 -11.27,-2.26 -15.19,-9.7 -4.12,-7.75 -4.54,-17.36 -4.54,-25.42 0,-5.88 0.11,-14.88 3.31,-22.72 4.44,-10.64 12.39,-12.09 16.42,-12.09 4.75,0 11.99,1.96 16.22,11.78 3.11,7.12 3.51,15.5 3.51,23.03 z"
           id="path610"
           inkscape:connector-curvature="0"
           style="fill:#000000;stroke-width:0" /><path
           d="m 923.51,-202.93 0.24,-0.22 0.26,-0.21 0.25,-0.2 0.27,-0.2 0.27,-0.18 0.28,-0.18 0.28,-0.17 0.29,-0.16 0.3,-0.15 0.29,-0.15 0.31,-0.14 0.3,-0.13 0.31,-0.12 0.32,-0.12 0.32,-0.11 0.32,-0.1 0.65,-0.19 0.66,-0.15 0.66,-0.13 0.67,-0.11 0.67,-0.08 0.67,-0.06 0.67,-0.03 0.66,-0.01 c 6.61,0 11.16,4.44 13.53,7.64 1.03,-5.47 5.38,-7.64 8.99,-7.64 3.1,0 5.57,1.86 7.43,5.58 1.66,3.51 3.11,9.81 3.11,10.22 0,0.53 -0.42,0.93 -1.03,0.93 -0.94,0 -1.05,-0.51 -1.45,-2.06 -1.55,-6.09 -3.52,-12.61 -7.75,-12.61 -3,0 -3.21,2.69 -3.21,4.75 0,2.38 0.94,6.1 1.66,9.21 l 2.89,11.15 c 0.41,1.96 1.55,6.61 2.06,8.47 0.63,2.49 1.77,6.92 1.77,7.33 0,1.56 -1.25,2.59 -2.8,2.59 -0.92,0 -3.09,-0.42 -3.92,-3.51 l -7.23,-28.72 c -0.52,-2.06 -0.52,-2.28 -1.86,-3.92 -1.24,-1.77 -5.27,-7.35 -11.78,-7.35 -5.79,0 -7.64,4.24 -7.64,9.1 0,3 0.93,6.61 1.34,8.37 l 4.66,18.6 c 0.51,1.95 1.32,5.26 1.32,5.89 0,1.64 -1.32,2.57 -2.67,2.57 -0.94,0 -3.2,-0.31 -4.03,-3.62 l -14.98,-59.81 c -0.11,-0.52 -0.32,-1.14 -0.32,-1.75 0,-1.55 1.24,-2.6 2.8,-2.6 2.98,0 3.61,2.39 4.33,5.28 z"
           id="path612"
           inkscape:connector-curvature="0"
           style="fill:#000000;stroke-width:0" /><path
           d="m 1033.4,-146.1 0.4,0.51 0.3,0.49 0.3,0.48 0.3,0.46 0.4,0.45 0.3,0.42 0.3,0.41 0.3,0.39 0.4,0.38 0.3,0.36 0.3,0.34 0.4,0.33 0.3,0.31 0.4,0.29 0.3,0.28 0.4,0.27 0.3,0.25 0.4,0.23 0.4,0.22 0.3,0.21 0.4,0.19 0.4,0.17 0.4,0.16 0.4,0.15 0.4,0.14 0.4,0.12 0.5,0.11 0.4,0.09 0.5,0.08 0.4,0.07 0.5,0.06 0.5,0.04 c 1,0.11 1.9,0.11 1.9,1.97 0,0.41 -0.2,1.03 -1.2,1.03 -1.8,0 -6.3,-0.2 -8.1,-0.2 -3,0 -6.1,0.2 -9,0.2 -0.8,0 -1.9,0 -1.9,-1.96 0,-0.93 1,-1.04 1.4,-1.04 3.8,-0.31 4.2,-2.17 4.2,-3.4 0,-1.55 -1.5,-3.92 -1.6,-4.03 l -32.39,-51.46 -7.24,55.69 c 0,3 5.38,3.2 6.52,3.2 1.54,0 2.51,0 2.51,1.97 0,1.03 -1.17,1.03 -1.48,1.03 -1.75,0 -3.83,-0.2 -5.58,-0.2 h -5.78 c -7.55,0 -10.64,0.2 -10.75,0.2 -0.63,0 -1.86,0 -1.86,-1.86 0,-1.14 0.72,-1.14 2.38,-1.14 5.26,0 5.57,-0.92 5.89,-3.51 l 8.26,-63.74 c 0.32,-2.17 0.32,-2.48 1.75,-2.48 1.25,0 1.77,0.31 2.8,1.97 z"
           id="path614"
           inkscape:connector-curvature="0"
           style="fill:#000000;stroke-width:0" /></g>    </g>
  </g>
</svg>
