<?xml version="1.0" encoding="UTF-8" standalone="no"?>
<!-- Created with Inkscape (http://www.inkscape.org/) -->

<svg
   xmlns:dc="http://purl.org/dc/elements/1.1/"
   xmlns:cc="http://creativecommons.org/ns#"
   xmlns:rdf="http://www.w3.org/1999/02/22-rdf-syntax-ns#"
   xmlns:svg="http://www.w3.org/2000/svg"
   xmlns="http://www.w3.org/2000/svg"
   xmlns:sodipodi="http://sodipodi.sourceforge.net/DTD/sodipodi-0.dtd"
   xmlns:inkscape="http://www.inkscape.org/namespaces/inkscape"
   width="671.07819mm"
   height="280mm"
   viewBox="0 0 671.07819 280"
   version="1.1"
   id="svg8"
   inkscape:version="0.92.3 (2405546, 2018-03-11)"
   sodipodi:docname="ux_formel.svg">
  <sodipodi:namedview
     id="base"
     pagecolor="#ffffff"
     bordercolor="#666666"
     borderopacity="1.0"
     inkscape:pageopacity="0.0"
     inkscape:pageshadow="2"
     inkscape:zoom="0.12374369"
     inkscape:cx="1407.3063"
     inkscape:cy="-75.573013"
     inkscape:document-units="mm"
     inkscape:current-layer="layer1"
     showgrid="false"
     inkscape:window-width="1280"
     inkscape:window-height="987"
     inkscape:window-x="0"
     inkscape:window-y="0"
     inkscape:window-maximized="1"
     fit-margin-top="0"
     fit-margin-left="40"
     fit-margin-right="100"
     fit-margin-bottom="0"
     inkscape:snap-bbox="true"
     inkscape:bbox-nodes="true"
     showguides="true"
     inkscape:guide-bbox="true" />
  <defs
     id="defs2" />
  <metadata
     id="metadata5">
    <rdf:RDF>
      <cc:Work
         rdf:about="">
        <dc:format>image/svg+xml</dc:format>
        <dc:type
           rdf:resource="http://purl.org/dc/dcmitype/StillImage" />
        <dc:title></dc:title>
      </cc:Work>
    </rdf:RDF>
  </metadata>
  <g
     id="layer1"
     inkscape:groupmode="layer"
     inkscape:label="Ebene 1"
     transform="translate(-63.824114,-201.92167)">
    <g
       id="g972"
       transform="translate(-5.3225702,126.09235)">
      <g
         word-spacing="normal"
         letter-spacing="normal"
         font-size-adjust="none"
         font-stretch="normal"
         font-weight="normal"
         font-variant="normal"
         font-style="normal"
         stroke-miterlimit="10.433"
         xml:space="preserve"
         transform="matrix(0.30285714,0,0,-0.30285714,-53,222.75)"
         id="g970"
         style="font-style:normal;font-variant:normal;font-weight:normal;font-stretch:normal;letter-spacing:normal;word-spacing:normal;text-anchor:start;fill:none;fill-opacity:1;fill-rule:evenodd;stroke:#000000;stroke-linecap:butt;stroke-linejoin:miter;stroke-miterlimit:10.43299961;stroke-dasharray:none;stroke-dashoffset:0;stroke-opacity:1"><path
           id="path838"
           d="m 580.64,238.69 -0.36,-1.34 -0.41,-1.3 -0.46,-1.27 -0.5,-1.23 -0.54,-1.2 -0.58,-1.15 -0.62,-1.12 -0.65,-1.08 -0.68,-1.04 -0.72,-1 -0.75,-0.97 -0.77,-0.92 -0.8,-0.88 -0.83,-0.84 -0.84,-0.8 -0.87,-0.76 -0.88,-0.71 -0.9,-0.67 -0.91,-0.63 -0.92,-0.59 -0.94,-0.54 -0.94,-0.49 -0.95,-0.46 -0.95,-0.4 -0.96,-0.36 -0.95,-0.31 -0.96,-0.27 -0.95,-0.22 -0.94,-0.17 -0.94,-0.12 -0.93,-0.08 -0.91,-0.02 c -7.44,0 -12.5,4.95 -12.5,13.53 0,0.41 0,3.52 1.12,8.06 l 10.13,40.6 c 0.94,3.51 1.14,4.54 8.48,4.54 1.86,0 2.89,0 2.89,1.86 0,1.14 -0.93,1.14 -1.56,1.14 -1.86,0 -4.01,-0.2 -5.98,-0.2 h -12.19 c -1.97,0 -4.14,0.2 -6.1,0.2 -0.73,0 -1.96,0 -1.96,-1.96 0,-1.04 0.72,-1.04 2.68,-1.04 6.21,0 6.21,-0.82 6.21,-1.95 0,-0.62 -0.74,-3.62 -1.25,-5.37 L 536.31,239 c -0.31,-1.14 -0.92,-3.94 -0.92,-6.72 0,-11.37 8.16,-19.53 19.42,-19.53 10.42,0 22,8.27 27.27,21.39 0.72,1.75 1.65,5.38 2.28,8.16 1.03,3.72 3.2,12.81 3.92,15.5 l 3.92,15.5 c 1.35,5.37 2.18,8.78 11.27,9.18 0.83,0.11 1.23,0.94 1.23,1.86 0,1.14 -0.92,1.14 -1.34,1.14 -1.44,0 -3.3,-0.2 -4.75,-0.2 h -4.86 c -6.41,0 -9.7,0.2 -9.81,0.2 -0.61,0 -1.86,0 -1.86,-1.96 0,-1.04 0.83,-1.04 1.54,-1.04 6.21,-0.2 6.63,-2.57 6.63,-4.43 0,-0.94 0,-1.24 -0.42,-2.69 z"
           inkscape:connector-curvature="0"
           style="fill:#000000;stroke-width:0" /><path
           id="path840"
           d="m 631.09,228.69 -0.21,-0.04 -0.2,-0.06 -0.19,-0.05 -0.19,-0.07 -0.18,-0.07 -0.17,-0.08 -0.16,-0.08 -0.15,-0.09 -0.15,-0.1 -0.14,-0.09 -0.13,-0.11 -0.13,-0.1 -0.11,-0.12 -0.11,-0.11 -0.11,-0.12 -0.1,-0.12 -0.09,-0.12 -0.08,-0.13 -0.08,-0.13 -0.07,-0.13 -0.06,-0.13 -0.06,-0.13 -0.05,-0.14 -0.05,-0.13 -0.04,-0.14 -0.04,-0.13 -0.03,-0.14 -0.02,-0.13 -0.02,-0.13 -0.01,-0.14 -0.01,-0.13 v -0.12 c 0,-1.72 1.36,-2.3 2.36,-2.3 2.16,0 3.66,1.86 3.66,3.8 0,3.01 -3.44,4.37 -6.46,4.37 -4.37,0 -6.81,-4.3 -7.45,-5.65 -1.66,5.37 -6.09,5.65 -7.39,5.65 -7.3,0 -11.17,-9.39 -11.17,-10.97 0,-0.28 0.28,-0.64 0.78,-0.64 0.57,0 0.72,0.42 0.86,0.72 2.43,7.95 7.25,9.45 9.33,9.45 3.21,0 3.85,-3 3.85,-4.73 0,-1.56 -0.42,-3.22 -1.28,-6.66 l -2.44,-9.82 c -1.07,-4.3 -3.15,-8.24 -6.95,-8.24 -0.36,0 -2.15,0 -3.65,0.94 2.57,0.5 3.15,2.64 3.15,3.5 0,1.44 -1.08,2.3 -2.43,2.3 -1.72,0 -3.6,-1.5 -3.6,-3.8 0,-3.02 3.38,-4.38 6.45,-4.38 3.44,0 5.88,2.72 7.4,5.68 1.13,-4.24 4.73,-5.68 7.37,-5.68 7.31,0 11.19,9.39 11.19,10.97 0,0.36 -0.28,0.64 -0.72,0.64 -0.64,0 -0.72,-0.36 -0.94,-0.92 -1.92,-6.31 -6.09,-9.25 -9.31,-9.25 -2.52,0 -3.88,1.86 -3.88,4.8 0,1.58 0.3,2.73 1.44,7.45 l 2.52,9.75 c 1.06,4.3 3.5,7.45 6.79,7.45 0.16,0 2.16,0 3.66,-0.92 z"
           inkscape:connector-curvature="0"
           style="fill:#000000;stroke-width:0" /><path
           id="path842"
           d="m 734.58,248.08 h 0.29 0.29 l 0.29,0.01 0.14,0.01 0.14,0.01 0.13,0.01 0.14,0.01 0.13,0.02 0.12,0.02 0.13,0.03 0.12,0.03 0.11,0.03 0.11,0.04 0.11,0.04 0.1,0.05 0.1,0.06 0.09,0.06 0.09,0.07 0.07,0.07 0.08,0.08 0.07,0.09 0.03,0.05 0.03,0.05 0.02,0.05 0.03,0.06 0.02,0.05 0.02,0.06 0.02,0.06 0.02,0.06 0.02,0.07 0.01,0.06 0.01,0.07 0.01,0.07 0.01,0.08 0.01,0.07 v 0.08 0.08 c 0,1.86 -1.76,1.86 -3.51,1.86 h -57.75 c -1.75,0 -3.52,0 -3.52,-1.86 0,-1.76 1.55,-1.76 3.11,-1.76 z"
           inkscape:connector-curvature="0"
           style="fill:#000000;stroke-width:0" /><path
           id="path844"
           d="m 734.18,229.69 h 0.32 0.33 l 0.32,0.01 0.16,0.01 0.15,0.01 0.16,0.01 0.15,0.02 0.14,0.01 0.15,0.03 0.14,0.02 0.13,0.04 0.13,0.03 0.13,0.04 0.12,0.05 0.12,0.05 0.11,0.06 0.1,0.07 0.1,0.07 0.09,0.08 0.08,0.08 0.08,0.1 0.07,0.1 0.03,0.06 0.03,0.05 0.02,0.06 0.03,0.06 0.02,0.07 0.02,0.06 0.02,0.07 0.02,0.07 0.01,0.08 0.01,0.07 0.01,0.08 0.01,0.08 v 0.09 0.08 c 0,1.75 -1.54,1.75 -3.11,1.75 h -58.56 c -1.56,0 -3.11,0 -3.11,-1.75 0,-1.87 1.77,-1.87 3.52,-1.87 z"
           inkscape:connector-curvature="0"
           style="fill:#000000;stroke-width:0" /><path
           id="path846"
           d="m 865.05,277.94 0.09,0.32 0.08,0.31 0.08,0.29 0.08,0.28 0.08,0.27 0.09,0.25 0.09,0.24 0.09,0.23 0.1,0.22 0.11,0.2 0.13,0.19 0.13,0.18 0.15,0.17 0.16,0.16 0.17,0.14 0.2,0.14 0.21,0.12 0.23,0.12 0.26,0.11 0.28,0.09 0.3,0.09 0.33,0.08 0.17,0.03 0.18,0.04 0.19,0.03 0.2,0.03 0.2,0.03 0.21,0.02 0.22,0.02 0.23,0.03 0.24,0.02 0.24,0.01 0.25,0.02 0.27,0.01 0.27,0.02 0.28,0.01 h 0.29 l 0.29,0.01 0.31,0.01 h 0.32 0.33 0.34 c 1.95,0 2.89,0 2.89,1.97 0,1.03 -0.72,1.03 -2.69,1.03 h -12.39 c -2.59,0 -2.68,-0.1 -3.83,-1.75 l -37.7,-59.62 -7.75,59.09 c -0.31,2.28 -0.42,2.28 -3.11,2.28 h -12.81 c -1.95,0 -2.89,0 -2.89,-1.96 0,-1.04 0.94,-1.04 2.48,-1.04 6.3,0 6.3,-0.82 6.3,-1.95 0,-0.22 0,-0.83 -0.41,-2.39 L 788.4,225.45 c -1.25,-4.95 -3.63,-7.22 -10.55,-7.53 -0.32,0 -1.55,-0.11 -1.55,-1.86 0,-1.14 0.92,-1.14 1.35,-1.14 2.06,0 7.32,0.2 9.4,0.2 H 792 c 1.46,0 3.21,-0.2 4.66,-0.2 0.72,0 1.86,0 1.86,1.97 0,0.92 -1.05,1.03 -1.45,1.03 -3.41,0.1 -6.72,0.72 -6.72,4.44 0,1.03 0,1.14 0.42,2.58 l 14.25,56.92 h 0.11 l 8.56,-64.14 c 0.31,-2.49 0.42,-2.8 1.34,-2.8 1.15,0 1.66,0.83 2.18,1.75 l 41.53,65.72 h 0.11 l -14.99,-59.83 c -0.92,-3.61 -1.14,-4.64 -8.36,-4.64 -1.97,0 -3,0 -3,-1.86 0,-1.14 0.93,-1.14 1.55,-1.14 1.75,0 3.83,0.2 5.58,0.2 h 12.19 c 1.76,0 3.93,-0.2 5.68,-0.2 0.83,0 1.97,0 1.97,1.97 0,1.03 -0.94,1.03 -2.48,1.03 -6.3,0 -6.3,0.83 -6.3,1.86 0,0.1 0,0.83 0.21,1.66 z"
           inkscape:connector-curvature="0"
           style="fill:#000000;stroke-width:0" /><path
           id="path848"
           d="m 898.46,238.89 h 0.27 0.3 l 0.32,0.01 h 0.34 l 0.36,0.01 0.38,0.01 0.4,0.02 0.41,0.01 0.43,0.02 0.45,0.02 0.45,0.03 0.48,0.03 0.48,0.04 0.49,0.04 1.01,0.09 1.03,0.12 1.05,0.14 1.05,0.17 1.06,0.2 1.04,0.22 0.51,0.13 0.51,0.13 0.5,0.14 0.49,0.15 0.48,0.16 0.47,0.17 c 7.86,3 8.58,8.99 8.58,10.85 0,4.54 -3.92,8.68 -10.75,8.68 v -2.06 c 4.55,0 7.64,-2.69 7.64,-6.62 0,-10.85 -16.51,-10.85 -20.86,-10.85 h -4.34 c 4.44,15.91 14.26,17.47 17.56,17.47 v 2.06 c -10.84,0 -26.44,-9.81 -26.44,-28.2 0,-10.84 6.19,-18.39 15.6,-18.39 14.04,0 22.94,10.95 22.94,12.3 0,0.61 -0.63,1.12 -1.04,1.12 -0.31,0 -0.42,-0.09 -1.34,-1.03 -6.61,-8.78 -16.44,-10.33 -20.36,-10.33 -5.89,0 -8.98,4.66 -8.98,12.3 0,1.44 0,4.03 1.54,10.64 z"
           inkscape:connector-curvature="0"
           style="fill:#000000;stroke-width:0" /><path
           id="path850"
           d="m 950.44,235.58 0.16,-0.03 0.18,-0.03 0.17,-0.03 0.19,-0.04 0.37,-0.07 0.38,-0.07 0.39,-0.08 0.39,-0.08 0.39,-0.08 0.38,-0.08 0.18,-0.04 0.18,-0.03 0.18,-0.04 0.17,-0.04 0.16,-0.03 0.16,-0.04 0.16,-0.03 0.14,-0.03 0.14,-0.03 0.13,-0.02 0.12,-0.03 0.1,-0.02 0.1,-0.02 0.09,-0.02 0.08,-0.01 0.06,-0.01 c 1.35,-0.41 6,-2.07 6,-7.02 0,-3.2 -2.9,-11.58 -14.89,-11.58 -2.15,0 -9.9,0.32 -11.97,6 4.13,-0.51 6.19,2.69 6.19,4.96 0,2.17 -1.44,3.31 -3.51,3.31 -2.27,0 -5.27,-1.77 -5.27,-6.41 0,-6.09 6.2,-9.92 14.47,-9.92 15.7,0 20.34,11.56 20.34,16.94 0,1.55 0,4.45 -3.29,7.75 -2.58,2.48 -5.07,3 -10.64,4.14 -2.8,0.61 -7.24,1.55 -7.24,6.19 0,2.07 1.86,9.51 11.67,9.51 4.35,0 8.58,-1.65 9.61,-5.37 -4.54,0 -4.75,-3.93 -4.75,-4.03 0,-2.18 1.96,-2.8 2.89,-2.8 1.46,0 4.35,1.14 4.35,5.48 0,4.35 -3.94,8.78 -11.99,8.78 -13.53,0 -17.15,-10.64 -17.15,-14.87 0,-7.86 7.64,-9.52 10.03,-10.03 z"
           inkscape:connector-curvature="0"
           style="fill:#000000;stroke-width:0" /><path
           id="path852"
           d="m 998.07,235.58 0.17,-0.03 0.17,-0.03 0.18,-0.03 0.18,-0.04 0.19,-0.03 0.19,-0.04 0.38,-0.07 0.39,-0.08 0.38,-0.08 0.4,-0.08 0.4,-0.08 0.2,-0.04 0.1,-0.03 0.2,-0.04 0.2,-0.04 0.2,-0.03 0.1,-0.04 0.2,-0.03 0.1,-0.03 0.1,-0.03 0.2,-0.02 0.1,-0.03 0.1,-0.02 0.1,-0.02 0.1,-0.02 0.1,-0.01 v -0.01 c 1.4,-0.41 6,-2.07 6,-7.02 0,-3.2 -2.9,-11.58 -14.86,-11.58 -2.16,0 -9.91,0.32 -11.97,6 4.13,-0.51 6.19,2.69 6.19,4.96 0,2.17 -1.44,3.31 -3.52,3.31 -2.26,0 -5.26,-1.77 -5.26,-6.41 0,-6.09 6.2,-9.92 14.47,-9.92 15.75,0 20.35,11.56 20.35,16.94 0,1.55 0,4.45 -3.3,7.75 -2.6,2.48 -5.1,3 -10.6,4.14 -2.85,0.61 -7.28,1.55 -7.28,6.19 0,2.07 1.86,9.51 11.68,9.51 4.3,0 8.6,-1.65 9.6,-5.37 -4.5,0 -4.7,-3.93 -4.7,-4.03 0,-2.18 1.9,-2.8 2.8,-2.8 1.5,0 4.4,1.14 4.4,5.48 0,4.35 -4,8.78 -12,8.78 -13.53,0 -17.16,-10.64 -17.16,-14.87 0,-7.86 7.64,-9.52 10.03,-10.03 z"
           inkscape:connector-curvature="0"
           style="fill:#000000;stroke-width:0" /><path
           id="path854"
           d="m 1057.7,221.22 0.2,-0.57 0.3,-0.53 0.2,-0.51 0.3,-0.48 0.3,-0.46 0.4,-0.43 0.3,-0.4 0.4,-0.38 0.3,-0.35 0.4,-0.33 0.4,-0.31 0.4,-0.29 0.5,-0.27 0.4,-0.24 0.4,-0.23 0.5,-0.21 0.4,-0.19 0.5,-0.17 0.4,-0.15 0.5,-0.14 0.4,-0.13 0.5,-0.11 0.4,-0.09 0.5,-0.08 0.4,-0.07 0.5,-0.06 0.4,-0.05 0.4,-0.04 0.4,-0.03 0.4,-0.01 0.4,-0.02 h 0.4 c 7.9,0 12.5,6.81 15.4,13.94 2.4,6 6.2,19.64 6.2,25.73 0,6.3 -3.2,6.92 -4.1,6.92 -2.5,0 -4.8,-2.48 -4.8,-4.54 0,-1.24 0.7,-1.97 1.2,-2.38 1,-0.94 3.6,-3.72 3.6,-9.09 0,-3.52 -2.8,-13.22 -5,-18.08 -2.9,-6.3 -6.7,-10.44 -12.1,-10.44 -5.8,0 -7.6,4.35 -7.6,9.1 0,3 0.9,6.61 1.3,8.37 l 4.3,17.35 c 0.6,2.07 1.5,5.68 1.5,6.09 0,1.56 -1.3,2.59 -2.8,2.59 -3,0 -3.7,-2.59 -4.3,-5.06 -1.1,-4.03 -5.4,-21.5 -5.8,-23.77 -0.4,-1.74 -0.4,-2.89 -0.4,-5.17 0,-2.47 -3.3,-6.4 -3.5,-6.61 -1.1,-1.12 -2.7,-2.89 -5.9,-2.89 -8.2,0 -8.2,7.75 -8.2,9.5 0,3.32 0.7,7.86 5.4,20.16 1.2,3.2 1.7,4.55 1.7,6.61 0,4.34 -3.1,8.26 -8.1,8.26 -9.5,0 -13.4,-14.98 -13.4,-15.81 0,-0.4 0.4,-0.92 1.2,-0.92 0.9,0 1,0.41 1.4,1.86 2.6,9.09 6.6,12.81 10.5,12.81 1,0 2.7,-0.11 2.7,-3.42 0,-0.52 0,-2.69 -1.8,-7.22 -4.9,-12.92 -5.9,-17.16 -5.9,-21.08 0,-10.84 8.9,-12.81 14.2,-12.81 1.7,0 6.4,0 10.5,7.33 z"
           inkscape:connector-curvature="0"
           style="fill:#000000;stroke-width:0" /><path
           id="path856"
           d="m 1115.8,238.89 h 0.2 0.3 l 0.4,0.01 h 0.3 l 0.4,0.01 0.3,0.01 0.4,0.02 0.5,0.01 0.4,0.02 0.4,0.02 0.5,0.03 0.5,0.03 0.4,0.04 0.5,0.04 1,0.09 1.1,0.12 1,0.14 1.1,0.17 1,0.2 1.1,0.22 0.5,0.13 0.5,0.13 0.5,0.14 0.5,0.15 0.5,0.16 0.4,0.17 c 7.9,3 8.6,8.99 8.6,10.85 0,4.54 -3.9,8.68 -10.7,8.68 v -2.06 c 4.5,0 7.6,-2.69 7.6,-6.62 0,-10.85 -16.5,-10.85 -20.9,-10.85 h -4.3 c 4.4,15.91 14.3,17.47 17.6,17.47 v 2.06 c -10.9,0 -26.5,-9.81 -26.5,-28.2 0,-10.84 6.2,-18.39 15.6,-18.39 14.1,0 22.9,10.95 22.9,12.3 0,0.61 -0.6,1.12 -1,1.12 -0.3,0 -0.4,-0.09 -1.3,-1.03 -6.6,-8.78 -16.5,-10.33 -20.4,-10.33 -5.9,0 -9,4.66 -9,12.3 0,1.44 0,4.03 1.6,10.64 z"
           inkscape:connector-curvature="0"
           style="fill:#000000;stroke-width:0" /><path
           id="path858"
           d="m 1184.4,257.17 -0.3,-0.06 -0.3,-0.07 -0.3,-0.08 -0.3,-0.09 -0.2,-0.1 -0.3,-0.11 -0.2,-0.11 -0.2,-0.12 -0.3,-0.13 -0.2,-0.14 -0.2,-0.14 -0.2,-0.15 -0.2,-0.16 -0.1,-0.16 -0.2,-0.16 -0.2,-0.18 -0.1,-0.17 -0.1,-0.18 -0.2,-0.19 -0.1,-0.19 -0.1,-0.19 -0.1,-0.2 -0.1,-0.2 -0.1,-0.2 -0.1,-0.2 v -0.21 l -0.1,-0.21 v -0.21 -0.21 l -0.1,-0.21 v -0.21 -0.21 c 0,-2.49 2,-3.32 3.4,-3.32 2.9,0 5.3,2.49 5.3,5.58 0,3.31 -3.2,6.2 -8.4,6.2 -4.1,0 -8.9,-1.86 -13.2,-8.17 -0.7,5.49 -4.8,8.17 -9,8.17 -4,0 -6.1,-3.1 -7.3,-5.37 -1.8,-3.72 -3.3,-9.92 -3.3,-10.44 0,-0.4 0.4,-0.92 1.1,-0.92 0.8,0 0.9,0.09 1.6,2.47 1.5,6.2 3.5,12.2 7.6,12.2 2.5,0 3.2,-1.76 3.2,-4.76 0,-2.27 -1,-6.3 -1.7,-9.5 L 1155.9,233 c -0.5,-1.97 -1.6,-6.61 -2.1,-8.47 -0.7,-2.69 -1.9,-7.55 -1.9,-8.06 0,-1.44 1.2,-2.58 2.7,-2.58 1.2,0 3.1,0.72 3.7,2.78 0.4,0.83 4.2,16.44 4.8,18.81 0.5,2.27 1.1,4.44 1.7,6.72 0.4,1.44 0.8,3.1 1.1,4.44 0.3,0.92 3.1,5.98 5.7,8.27 1.2,1.14 3.9,3.51 8.1,3.51 1.7,0 3.3,-0.31 4.7,-1.25 z"
           inkscape:connector-curvature="0"
           style="fill:#000000;stroke-width:0" /><path
           id="path860"
           d="m 1213.3,256.45 h 9.5 c 2,0 3,0 3,1.86 0,1.14 -0.6,1.14 -2.7,1.14 h -9.1 l 3.9,15.08 c 0.4,1.45 0.4,1.66 0.4,2.38 0,1.65 -1.4,2.57 -2.7,2.57 -0.8,0 -3.2,-0.29 -4,-3.6 l -4.1,-16.43 h -9.7 c -2,0 -3,0 -3,-1.97 0,-1.03 0.7,-1.03 2.7,-1.03 h 9.2 l -6.8,-27.28 c -0.8,-3.61 -1.1,-4.64 -1.1,-5.98 0,-4.86 3.4,-9.3 9.1,-9.3 10.5,0 16,15.08 16,15.8 0,0.62 -0.4,0.93 -1,0.93 -0.2,0 -0.6,0 -0.8,-0.4 -0.1,-0.11 -0.2,-0.22 -0.9,-1.86 -2.2,-5.17 -7,-12.41 -13,-12.41 -3,0 -3.3,2.58 -3.3,4.86 0,0.1 0,2.07 0.3,3.3 z"
           inkscape:connector-curvature="0"
           style="fill:#000000;stroke-width:0" /><path
           id="path862"
           d="m 1280.3,259.03 v 0.14 l 0.1,0.14 v 0.15 0.16 0.15 0.16 0.17 0.16 l -0.1,0.16 v 0.17 0.16 0.17 l -0.1,0.16 v 0.16 0.15 l -0.1,0.15 -0.1,0.15 v 0.15 l -0.1,0.13 -0.1,0.14 -0.1,0.12 -0.1,0.12 -0.1,0.05 v 0.06 l -0.1,0.05 -0.1,0.05 -0.1,0.04 v 0.05 l -0.1,0.04 -0.1,0.04 -0.1,0.04 -0.1,0.03 -0.1,0.03 v 0.03 l -0.1,0.02 -0.1,0.03 -0.1,0.02 -0.2,0.01 -0.1,0.01 -0.1,0.01 -0.1,0.01 h -0.1 c -1.7,0 -3,-1.35 -2.7,-2.69 v -1.34 l 1.4,-16.02 -13.2,9.61 c -0.9,0.52 -1.1,0.72 -1.9,0.72 -1.4,0 -2.7,-1.45 -2.7,-2.89 0,-1.66 1,-2.06 2,-2.58 l 14.7,-7.03 -14.3,-6.92 c -1.6,-0.83 -2.4,-1.24 -2.4,-2.8 0,-1.55 1.3,-2.89 2.7,-2.89 0.8,0 1,0 3.5,1.97 l 11.6,8.37 -1.5,-17.36 c 0,-2.17 1.8,-2.68 2.7,-2.68 1.2,0 2.7,0.72 2.7,2.68 l -1.5,17.36 13.2,-9.6 c 1,-0.52 1.2,-0.74 1.9,-0.74 1.4,0 2.8,1.45 2.8,2.89 0,1.56 -1,2.08 -2.2,2.69 -6.2,3.11 -6.4,3.11 -14.6,6.92 l 14.3,6.92 c 1.6,0.83 2.5,1.25 2.5,2.8 0,1.55 -1.4,2.89 -2.8,2.89 -0.7,0 -0.9,0 -3.5,-1.97 l -11.6,-8.36 z"
           inkscape:connector-curvature="0"
           style="fill:#000000;stroke-width:0" /><path
           id="path864"
           d="m 1360.1,350.78 v 0.1 0.09 0.1 0.09 0.09 0.08 0.09 0.08 0.08 0.07 0.07 0.07 0.07 0.06 0.07 0.06 l -0.1,0.06 v 0.05 0.05 0.06 0.04 0.05 0.05 0.04 0.04 0.04 l -0.1,0.04 v 0.03 0.07 0.05 l -0.1,0.06 v 0.04 l -0.1,0.04 v 0.04 l -0.1,0.03 -0.1,0.02 v 0.03 l -0.1,0.01 -0.1,0.02 -0.1,0.01 -0.1,0.01 h -0.1 l -0.1,0.01 h -0.1 -0.1 -0.2 c -4,-4.84 -10.1,-6.39 -15.9,-6.61 -0.3,0 -0.8,0 -0.9,-0.2 -0.1,-0.2 -0.1,-0.41 -0.1,-2.58 3.2,0 8.6,0.61 12.7,3.1 v -54.44 c 0,-3.63 -0.2,-4.86 -9.1,-4.86 h -3.1 v -2.69 c 5,0.11 10.1,0.2 15.1,0.2 5,0 10.1,-0.09 15.1,-0.2 v 2.69 h -3.1 c -8.9,0 -9.1,1.14 -9.1,4.86 z"
           inkscape:connector-curvature="0"
           style="fill:#000000;stroke-width:0" /><polyline
           id="polyline866"
           points="1333,239 1380.4,239 1380.4,243.2 1333,243.2 "
           style="fill:#000000;fill-rule:nonzero;stroke-width:0" /><path
           id="path868"
           d="m 1358.8,185.53 h 9.5 c 1.9,0 3,0 3,1.86 0,1.14 -0.7,1.14 -2.7,1.14 h -9.1 l 3.8,15.08 c 0.4,1.45 0.4,1.66 0.4,2.37 0,1.66 -1.3,2.58 -2.7,2.58 -0.8,0 -3.2,-0.29 -4,-3.61 l -4,-16.42 h -9.7 c -2.1,0 -3,0 -3,-1.97 0,-1.03 0.7,-1.03 2.6,-1.03 h 9.3 l -6.9,-27.28 c -0.8,-3.61 -1.1,-4.64 -1.1,-5.98 0,-4.86 3.4,-9.3 9.2,-9.3 10.4,0 16,15.08 16,15.8 0,0.62 -0.4,0.93 -1,0.93 -0.2,0 -0.6,0 -0.8,-0.4 -0.2,-0.11 -0.3,-0.22 -1,-1.86 -2.2,-5.17 -6.9,-12.41 -12.9,-12.41 -3.1,0 -3.3,2.58 -3.3,4.86 0,0.09 0,2.06 0.3,3.3 z"
           inkscape:connector-curvature="0"
           style="fill:#000000;stroke-width:0" /><path
           id="path870"
           d="m 1437.3,259.03 v 0.14 0.14 l 0.1,0.15 v 0.16 0.15 0.16 0.17 0.16 l -0.1,0.16 v 0.17 0.16 0.17 l -0.1,0.16 v 0.16 l -0.1,0.15 v 0.15 l -0.1,0.15 v 0.15 l -0.1,0.13 -0.1,0.14 -0.1,0.12 -0.1,0.12 -0.1,0.05 -0.1,0.06 v 0.05 l -0.1,0.05 -0.1,0.04 v 0.05 l -0.1,0.04 -0.1,0.04 -0.1,0.04 -0.1,0.03 -0.1,0.03 -0.1,0.03 -0.1,0.02 -0.1,0.03 -0.1,0.02 -0.1,0.01 -0.1,0.01 -0.1,0.01 -0.1,0.01 h -0.1 c -1.7,0 -3,-1.35 -2.7,-2.69 v -1.34 l 1.4,-16.02 -13.2,9.61 c -0.9,0.52 -1.1,0.72 -1.9,0.72 -1.4,0 -2.8,-1.45 -2.8,-2.89 0,-1.66 1.1,-2.06 2.1,-2.58 l 14.7,-7.03 -14.3,-6.92 c -1.6,-0.83 -2.5,-1.24 -2.5,-2.8 0,-1.55 1.4,-2.89 2.8,-2.89 0.8,0 1,0 3.5,1.97 l 11.6,8.37 -1.6,-17.36 c 0,-2.17 1.9,-2.68 2.7,-2.68 1.3,0 2.8,0.72 2.8,2.68 l -1.5,17.36 13.2,-9.6 c 1,-0.52 1.1,-0.74 1.9,-0.74 1.4,0 2.8,1.45 2.8,2.89 0,1.56 -1,2.08 -2.2,2.69 -6.2,3.11 -6.4,3.11 -14.6,6.92 l 14.3,6.92 c 1.6,0.83 2.5,1.25 2.5,2.8 0,1.55 -1.4,2.89 -2.8,2.89 -0.8,0 -0.9,0 -3.6,-1.97 l -11.5,-8.36 z"
           inkscape:connector-curvature="0"
           style="fill:#000000;stroke-width:0" /><path
           id="path872"
           d="m 1535.9,250.05 1.2,0.28 1.2,0.3 1.2,0.34 1.1,0.37 1.1,0.4 1.1,0.42 1.1,0.46 1,0.47 1,0.51 1,0.52 1,0.55 0.9,0.57 0.9,0.6 0.8,0.61 0.9,0.63 0.8,0.66 0.7,0.67 0.7,0.68 0.7,0.71 0.6,0.71 0.6,0.74 0.5,0.74 0.5,0.76 0.5,0.77 0.4,0.78 0.4,0.79 0.3,0.8 0.2,0.8 0.2,0.82 0.1,0.82 0.1,0.82 0.1,0.83 c 0,8.07 -8.2,15.5 -22.6,15.5 h -28 c -2,0 -3,0 -3,-1.96 0,-1.04 0.8,-1.04 2.7,-1.04 6.2,0 6.2,-0.82 6.2,-1.95 0,-0.22 0,-0.83 -0.4,-2.39 l -13.9,-55.58 c -0.9,-3.61 -1.2,-4.64 -8.3,-4.64 -2.4,0 -3.1,0 -3.1,-1.97 0,-1.03 1.1,-1.03 1.5,-1.03 1.8,0 4,0.2 6,0.2 h 12.1 c 1.9,0 4.1,-0.2 5.9,-0.2 0.9,0 2,0 2,1.97 0,1.03 -0.9,1.03 -2.5,1.03 -6.3,0 -6.3,0.83 -6.3,1.86 0,0.1 0,0.83 0.2,1.66 l 6.9,27.78 h 12.4 l -0.2,2.06 h -11.6 l 6.8,27.17 c 0.9,3.83 1.3,4.03 5.3,4.03 h 7.5 c 8.9,0 15.5,-2.68 15.5,-10.73 0,-5.28 -2.7,-20.47 -23.5,-20.47 l 0.2,-2.06 c 9.8,0 11.7,-6.2 11.7,-9.61 0,-1.55 -1,-5.58 -1.7,-8.27 -1.2,-4.75 -1.5,-5.89 -1.5,-7.84 0,-7.34 6,-10.75 12.9,-10.75 8.4,0 12,10.23 12,11.67 0,0.74 -0.5,1.03 -1.1,1.03 -0.9,0 -1.1,-0.61 -1.3,-1.43 -2.4,-7.35 -6.7,-9.21 -9.3,-9.21 -2.5,0 -4.2,1.14 -4.2,5.8 0,2.47 1.2,11.87 1.3,12.39 0.6,3.83 0.6,4.23 0.6,5.06 0,7.55 -6.1,10.75 -10.1,11.99 z"
           inkscape:connector-curvature="0"
           style="fill:#000000;stroke-width:0" /><path
           id="path874"
           d="m 1572.8,207.4 -0.2,-0.39 -0.3,-0.37 -0.2,-0.36 -0.3,-0.34 -0.2,-0.32 -0.2,-0.32 -0.3,-0.29 -0.2,-0.28 -0.2,-0.27 -0.3,-0.25 -0.2,-0.24 -0.3,-0.23 -0.2,-0.21 -0.3,-0.21 -0.2,-0.19 -0.3,-0.17 -0.2,-0.17 -0.3,-0.15 -0.2,-0.15 -0.3,-0.13 -0.3,-0.12 -0.2,-0.11 -0.3,-0.1 -0.3,-0.09 -0.3,-0.09 -0.3,-0.07 -0.3,-0.06 -0.3,-0.06 -0.3,-0.05 -0.3,-0.03 -0.3,-0.04 -0.3,-0.02 c -0.8,-0.08 -1.4,-0.08 -1.4,-1.36 0,-0.44 0.4,-0.72 0.9,-0.72 1.3,0 4.5,0.14 5.8,0.14 2.1,0 4.4,-0.14 6.4,-0.14 0.4,0 1.3,0 1.3,1.36 0,0.64 -0.6,0.72 -1,0.72 -1.7,0.14 -3,0.72 -3,2.44 0,1 0.4,1.79 1.3,3.37 l 5.5,9.03 h 18.2 l -0.2,2.08 h -16.8 l 14.4,24.08 2.4,-24.08 0.2,-2.08 c 0.1,-0.65 0.1,-1.21 0.2,-1.87 0.2,-1.86 1.1,-9.31 1.1,-10.67 0,-2.16 -3.7,-2.3 -4.8,-2.3 -0.8,0 -1.6,0 -1.6,-1.3 0,-0.78 0.6,-0.78 1.1,-0.78 1.2,0 2.6,0.14 3.8,0.14 h 4.1 c 4.4,0 7.5,-0.14 7.6,-0.14 0.5,0 1.3,0 1.3,1.36 0,0.72 -0.6,0.72 -1.7,0.72 -4,0 -4,0.64 -4.2,2.8 l -4.4,44.72 c -0.2,1.43 -0.4,1.57 -1.2,1.57 -0.8,0 -1.2,-0.14 -1.8,-1.21 z"
           inkscape:connector-curvature="0"
           style="fill:#000000;stroke-width:0" /><path
           id="path876"
           d="m 1624.5,204.74 v -0.23 l -0.1,-0.22 v -0.21 l -0.1,-0.2 -0.1,-0.19 v -0.18 l -0.1,-0.17 v -0.16 l -0.1,-0.15 -0.1,-0.15 -0.1,-0.13 -0.1,-0.13 -0.1,-0.12 -0.1,-0.11 -0.1,-0.1 -0.1,-0.1 -0.2,-0.09 -0.1,-0.08 -0.2,-0.07 -0.2,-0.07 -0.2,-0.06 -0.2,-0.06 -0.1,-0.02 -0.2,-0.03 -0.1,-0.02 -0.1,-0.02 -0.2,-0.02 -0.1,-0.02 -0.2,-0.01 -0.1,-0.02 -0.2,-0.01 -0.2,-0.01 -0.1,-0.01 -0.2,-0.01 -0.2,-0.01 -0.2,-0.01 -0.2,-0.01 h -0.2 l -0.2,-0.01 h -0.2 -0.2 -0.3 c -1.3,0 -2,0 -2,-1.3 0,-0.78 0.4,-0.78 1.8,-0.78 h 22.7 l -1.1,2.08 h -8.2 c -1,0 -1.1,0 -1.6,0.08 -0.7,0.06 -0.8,0.2 -0.8,0.78 0,0.5 0.1,0.94 0.3,1.58 l 9.9,39.56 c 0.6,2.66 0.9,2.8 3.7,2.8 h 7.9 c 6.7,0 12.9,-3.66 12.9,-13.55 0,-3.58 -1.5,-16.05 -8.4,-23.94 -2,-2.36 -7.5,-7.31 -15.7,-7.31 l 1.1,-2.08 c 14.5,0 28.6,14.99 28.6,30.97 0,10.31 -6.1,17.99 -16.4,17.99 h -23 c -1.3,0 -2,0 -2,-1.36 0,-0.72 0.7,-0.72 1.7,-0.72 4.4,0 4.4,-0.58 4.4,-1.36 0,-0.14 0,-0.58 -0.3,-1.66 z"
           inkscape:connector-curvature="0"
           style="fill:#000000;stroke-width:0" /><path
           id="path878"
           d="m 1727.1,249.25 v 0.03 0.03 0.03 0.03 0.02 l -0.1,0.03 v 0.02 0.03 0.02 0.02 0.02 0.02 0.02 0.02 0.02 0.01 0.02 0.02 0.01 l -0.1,0.02 v 0.01 0.01 0.02 0.01 0.02 l -0.1,0.02 v 0.02 0.01 0.02 l -0.1,0.01 v 0.01 0.01 0.01 l -0.1,0.01 v 0 0 l -0.1,0.01 v 0 0 0 0 h -0.1 v 0 0.01 c -0.1,0 -0.4,0 -1,-0.71 l -4.9,-6.03 c -2.6,4.3 -6.5,6.74 -11.9,6.74 -15.4,0 -31.5,-15.69 -31.5,-32.54 0,-11.96 8.4,-19.42 18.8,-19.42 5.8,0 10.8,2.44 15,5.94 6.2,5.23 8,12.19 8,12.77 0,0.64 -0.5,0.64 -0.7,0.64 -0.7,0 -0.8,-0.43 -0.9,-0.72 -3.3,-11.17 -13,-16.55 -20.1,-16.55 -7.6,0 -14.2,4.88 -14.2,15.05 0,2.29 0.7,14.76 8.8,24.15 3.9,4.58 10.7,8.6 17.5,8.6 7.9,0 11.4,-6.52 11.4,-13.83 0,-1.86 -0.2,-3.44 -0.2,-3.72 0,-0.66 0.7,-0.66 0.9,-0.66 0.8,0 0.8,0.08 1.2,1.36 z"
           inkscape:connector-curvature="0"
           style="fill:#000000;stroke-width:0" /><path
           id="path880"
           d="m 734.58,16.715 h 0.29 l 0.29,0.003 0.29,0.008 0.14,0.007 0.14,0.009 0.13,0.012 0.14,0.015 0.13,0.018 0.12,0.021 0.13,0.025 0.12,0.03 0.11,0.034 0.11,0.039 0.11,0.044 0.1,0.049 0.1,0.055 0.09,0.062 0.09,0.068 0.07,0.075 0.08,0.081 0.07,0.09 0.03,0.047 0.03,0.05 0.02,0.051 0.03,0.054 0.02,0.056 0.02,0.057 0.02,0.06 0.02,0.063 0.02,0.064 0.01,0.067 0.01,0.069 0.01,0.072 0.01,0.074 0.01,0.076 v 0.079 0.081 c 0,1.86 -1.76,1.86 -3.51,1.86 h -57.75 c -1.75,0 -3.52,0 -3.52,-1.86 0,-1.765 1.55,-1.765 3.11,-1.765 z"
           inkscape:connector-curvature="0"
           style="fill:#000000;stroke-width:0" /><path
           id="path882"
           d="m 734.18,-1.6758 0.32,5e-4 0.33,0.0032 0.32,0.0087 0.16,0.0072 0.15,0.0097 0.16,0.0124 0.15,0.0155 0.14,0.019 0.15,0.0227 0.14,0.0268 0.13,0.0313 0.13,0.0361 0.13,0.0413 0.12,0.0467 0.12,0.0526 0.11,0.0588 0.1,0.0653 0.1,0.0721 0.09,0.0794 0.08,0.08692 0.08,0.09482 0.07,0.10305 0.03,0.05472 0.03,0.05692 0.02,0.05914 0.03,0.06142 0.02,0.06374 0.02,0.06609 0.02,0.0685 0.02,0.07095 0.01,0.07343 0.01,0.07597 0.01,0.078544 0.01,0.08116 V 0.11269 0.19922 c 0,1.74998 -1.54,1.74998 -3.11,1.74998 h -58.56 c -1.56,0 -3.11,0 -3.11,-1.74998 0,-1.87502 1.77,-1.87502 3.52,-1.87502 z"
           inkscape:connector-curvature="0"
           style="fill:#000000;stroke-width:0" /><path
           id="path884"
           d="m 865.05,46.574 0.09,0.323 0.08,0.308 0.08,0.294 0.08,0.28 0.08,0.267 0.09,0.253 0.09,0.241 0.09,0.228 0.1,0.215 0.11,0.204 0.13,0.191 0.13,0.18 0.15,0.168 0.16,0.158 0.17,0.146 0.2,0.136 0.21,0.126 0.23,0.115 0.26,0.106 0.28,0.096 0.3,0.087 0.33,0.079 0.17,0.035 0.18,0.034 0.19,0.032 0.2,0.029 0.2,0.027 0.21,0.026 0.22,0.023 0.23,0.022 0.24,0.019 0.24,0.018 0.25,0.016 0.27,0.014 0.27,0.012 0.28,0.011 0.29,0.009 0.29,0.007 0.31,0.005 0.32,0.004 0.33,0.002 0.34,0.001 c 1.95,0 2.89,0 2.89,1.969 0,1.031 -0.72,1.031 -2.69,1.031 h -12.39 c -2.59,0 -2.68,-0.109 -3.83,-1.75 L 819.8,-7.2539 812.05,51.84 c -0.31,2.281 -0.42,2.281 -3.11,2.281 h -12.81 c -1.95,0 -2.89,0 -2.89,-1.969 0,-1.031 0.94,-1.031 2.48,-1.031 6.3,0 6.3,-0.828 6.3,-1.953 0,-0.219 0,-0.828 -0.41,-2.391 L 788.4,-5.9102 c -1.25,-4.9528 -3.63,-7.2188 -10.55,-7.5308 -0.32,0 -1.55,-0.11 -1.55,-1.86 0,-1.14 0.92,-1.14 1.35,-1.14 2.06,0 7.32,0.203 9.4,0.203 H 792 c 1.46,0 3.21,-0.203 4.66,-0.203 0.72,0 1.86,0 1.86,1.968 0,0.922 -1.05,1.032 -1.45,1.032 -3.41,0.093 -6.72,0.718 -6.72,4.4371 0,1.0312 0,1.1406 0.42,2.5781 l 14.25,56.9218 h 0.11 l 8.56,-64.14 c 0.31,-2.485 0.42,-2.797 1.34,-2.797 1.15,0 1.66,0.828 2.18,1.75 l 41.53,65.718 h 0.11 L 843.86,-8.8008 c -0.92,-3.6092 -1.14,-4.6402 -8.36,-4.6402 -1.97,0 -3,0 -3,-1.86 0,-1.14 0.93,-1.14 1.55,-1.14 1.75,0 3.83,0.203 5.58,0.203 h 12.19 c 1.76,0 3.93,-0.203 5.68,-0.203 0.83,0 1.97,0 1.97,1.968 0,1.032 -0.94,1.032 -2.48,1.032 -6.3,0 -6.3,0.828 -6.3,1.859 0,0.094 0,0.828 0.21,1.6562 z"
           inkscape:connector-curvature="0"
           style="fill:#000000;stroke-width:0" /><path
           id="path886"
           d="m 898.46,7.5273 0.27,7e-4 0.3,0.0021 0.32,0.0038 0.34,0.0058 0.36,0.0081 0.38,0.0105 0.4,0.0134 0.41,0.0164 0.43,0.0198 0.45,0.0233 0.45,0.0272 0.48,0.0313 0.48,0.0356 0.49,0.0404 1.01,0.0956 1.03,0.1175 1.05,0.1413 1.05,0.1675 1.06,0.1956 1.04,0.2258 0.51,0.125 0.51,0.1334 0.5,0.142 0.49,0.1509 0.48,0.16 0.47,0.1695 c 7.86,3.0002 8.58,8.9842 8.58,10.8442 0,4.546 -3.92,8.687 -10.75,8.687 v -2.062 c 4.55,0 7.64,-2.688 7.64,-6.625 0,-10.8442 -16.51,-10.8442 -20.86,-10.8442 h -4.34 c 4.44,15.9062 14.26,17.4692 17.56,17.4692 v 2.062 c -10.84,0 -26.44,-9.812 -26.44,-28.20303 0,-10.84377 6.19,-18.39097 15.6,-18.39097 14.04,0 22.94,10.9535 22.94,12.2972 0,0.6094 -0.63,1.125 -1.04,1.125 -0.31,0 -0.42,-0.0937 -1.34,-1.0312 -6.61,-8.781 -16.44,-10.328 -20.36,-10.328 -5.89,0 -8.98,4.656 -8.98,12.2967 0,1.4375 0,4.03127 1.54,10.6406 z"
           inkscape:connector-curvature="0"
           style="fill:#000000;stroke-width:0" /><path
           id="path888"
           d="m 950.44,4.2148 0.16,-0.0287 0.18,-0.0306 0.17,-0.0321 0.19,-0.0336 0.37,-0.071 0.38,-0.075 0.39,-0.0777 0.39,-0.0792 0.39,-0.0795 0.38,-0.0785 0.18,-0.0385 0.18,-0.0378 0.18,-0.037 0.17,-0.0359 0.16,-0.0348 0.16,-0.0335 0.16,-0.0319 0.14,-0.0304 0.14,-0.0285 0.13,-0.0267 0.12,-0.0245 0.1,-0.0223 0.1,-0.0198 0.09,-0.0174 0.08,-0.0146 0.06,-0.0117 c 1.35,-0.4063 6,-2.0625 6,-7.0156 0,-3.2032 -2.9,-11.578 -14.89,-11.578 -2.15,0 -9.9,0.312 -11.97,5.9998 4.13,-0.5156 6.19,2.6875 6.19,4.9532 0,2.1718 -1.44,3.3125 -3.51,3.3125 -2.27,0 -5.27,-1.7657 -5.27,-6.4063 0,-6.0932 6.2,-9.9222 14.47,-9.9222 15.7,0 20.34,11.5628 20.34,16.93784 0,1.54686 0,4.45316 -3.29,7.74996 -2.58,2.4844 -5.07,3.0002 -10.64,4.1412 -2.8,0.609 -7.24,1.546 -7.24,6.187 0,2.078 1.86,9.516 11.67,9.516 4.35,0 8.58,-1.657 9.61,-5.375 -4.54,0 -4.75,-3.922 -4.75,-4.032 0,-2.171 1.96,-2.796 2.89,-2.796 1.46,0 4.35,1.14 4.35,5.484 0,4.344 -3.94,8.781 -11.99,8.781 -13.53,0 -17.15,-10.641 -17.15,-14.875 0,-7.8593 7.64,-9.5155 10.03,-10.0312 z"
           inkscape:connector-curvature="0"
           style="fill:#000000;stroke-width:0" /><path
           id="path890"
           d="m 998.07,4.2148 0.17,-0.0287 0.17,-0.0306 0.18,-0.0321 0.18,-0.0336 0.19,-0.0349 0.19,-0.0361 0.38,-0.075 0.39,-0.0777 0.38,-0.0792 0.4,-0.0795 0.4,-0.0785 0.2,-0.0385 0.1,-0.0378 0.2,-0.037 0.2,-0.0359 0.2,-0.0348 0.1,-0.0335 0.2,-0.0319 0.1,-0.0304 0.1,-0.0285 0.2,-0.0267 0.1,-0.0245 0.1,-0.0223 0.1,-0.0198 0.1,-0.0174 0.1,-0.0146 V 3.1836 c 1.4,-0.4063 6,-2.0625 6,-7.0156 0,-3.2032 -2.9,-11.578 -14.86,-11.578 -2.16,0 -9.91,0.312 -11.97,5.9998 4.13,-0.5156 6.19,2.6875 6.19,4.9532 0,2.1718 -1.44,3.3125 -3.52,3.3125 -2.26,0 -5.26,-1.7657 -5.26,-6.4063 0,-6.0932 6.2,-9.9222 14.47,-9.9222 15.75,0 20.35,11.5628 20.35,16.93784 0,1.54686 0,4.45316 -3.3,7.74996 -2.6,2.4844 -5.1,3.0002 -10.6,4.1412 -2.85,0.609 -7.28,1.546 -7.28,6.187 0,2.078 1.86,9.516 11.68,9.516 4.3,0 8.6,-1.657 9.6,-5.375 -4.5,0 -4.7,-3.922 -4.7,-4.032 0,-2.171 1.9,-2.796 2.8,-2.796 1.5,0 4.4,1.14 4.4,5.484 0,4.344 -4,8.781 -12,8.781 -13.53,0 -17.16,-10.641 -17.16,-14.875 0,-7.8593 7.64,-9.5155 10.03,-10.0312 z"
           inkscape:connector-curvature="0"
           style="fill:#000000;stroke-width:0" /><path
           id="path892"
           d="m 1057.7,-10.144 0.2,-0.566 0.3,-0.536 0.2,-0.509 0.3,-0.481 0.3,-0.454 0.4,-0.428 0.3,-0.403 0.4,-0.379 0.3,-0.354 0.4,-0.332 0.4,-0.309 0.4,-0.287 0.5,-0.267 0.4,-0.246 0.4,-0.226 0.5,-0.208 0.4,-0.189 0.5,-0.173 0.4,-0.155 0.5,-0.139 0.4,-0.125 0.5,-0.109 0.4,-0.096 0.5,-0.083 0.4,-0.07 0.5,-0.059 0.4,-0.047 0.4,-0.038 0.4,-0.027 0.4,-0.019 0.4,-0.011 0.4,-0.004 c 7.9,0 12.5,6.813 15.4,13.9378 2.4,6 6.2,19.6402 6.2,25.7342 0,6.297 -3.2,6.922 -4.1,6.922 -2.5,0 -4.8,-2.484 -4.8,-4.547 0,-1.234 0.7,-1.969 1.2,-2.375 1,-0.937 3.6,-3.719 3.6,-9.093 0,-3.5162 -2.8,-13.21928 -5,-18.0787 -2.9,-6.2963 -6.7,-10.4373 -12.1,-10.4373 -5.8,0 -7.6,4.344 -7.6,9.0936 0,3 0.9,6.60937 1.3,8.375 l 4.3,17.3434 c 0.6,2.078 1.5,5.688 1.5,6.094 0,1.563 -1.3,2.594 -2.8,2.594 -3,0 -3.7,-2.594 -4.3,-5.063 -1.1,-4.031 -5.4,-21.4997 -5.8,-23.76528 -0.4,-1.75002 -0.4,-2.89062 -0.4,-5.17192 0,-2.4687 -3.3,-6.4058 -3.5,-6.6088 -1.1,-1.125 -2.7,-2.891 -5.9,-2.891 -8.2,0 -8.2,7.7498 -8.2,9.4998 0,3.3125 0.7,7.8594 5.4,20.1562 1.2,3.203 1.7,4.547 1.7,6.609 0,4.344 -3.1,8.266 -8.1,8.266 -9.5,0 -13.4,-14.984 -13.4,-15.812 0,-0.407 0.4,-0.922 1.2,-0.922 0.9,0 1,0.406 1.4,1.859 2.6,9.094 6.6,12.813 10.5,12.813 1,0 2.7,-0.11 2.7,-3.422 0,-0.516 0,-2.688 -1.8,-7.219 -4.9,-12.9219 -5.9,-17.15628 -5.9,-21.0782 0,-10.8438 8.9,-12.8128 14.2,-12.8128 1.7,0 6.4,0 10.5,7.329 z"
           inkscape:connector-curvature="0"
           style="fill:#000000;stroke-width:0" /><path
           id="path894"
           d="m 1115.8,7.5273 0.2,7e-4 0.3,0.0021 0.4,0.0038 0.3,0.0058 0.4,0.0081 0.3,0.0105 0.4,0.0134 0.5,0.0164 0.4,0.0198 0.4,0.0233 0.5,0.0272 0.5,0.0313 0.4,0.0356 0.5,0.0404 1,0.0956 1.1,0.1175 1,0.1413 1.1,0.1675 1,0.1956 1.1,0.2258 0.5,0.125 0.5,0.1334 0.5,0.142 0.5,0.1509 0.5,0.16 0.4,0.1695 c 7.9,3.0002 8.6,8.9842 8.6,10.8442 0,4.546 -3.9,8.687 -10.7,8.687 v -2.062 c 4.5,0 7.6,-2.688 7.6,-6.625 0,-10.8442 -16.5,-10.8442 -20.9,-10.8442 h -4.3 c 4.4,15.9062 14.3,17.4692 17.6,17.4692 v 2.062 c -10.9,0 -26.5,-9.812 -26.5,-28.20303 0,-10.84377 6.2,-18.39097 15.6,-18.39097 14.1,0 22.9,10.9535 22.9,12.2972 0,0.6094 -0.6,1.125 -1,1.125 -0.3,0 -0.4,-0.0937 -1.3,-1.0312 -6.6,-8.781 -16.5,-10.328 -20.4,-10.328 -5.9,0 -9,4.656 -9,12.2967 0,1.4375 0,4.03127 1.6,10.6406 z"
           inkscape:connector-curvature="0"
           style="fill:#000000;stroke-width:0" /><path
           id="path896"
           d="m 1184.4,25.809 -0.3,-0.062 -0.3,-0.072 -0.3,-0.08 -0.3,-0.09 -0.2,-0.098 -0.3,-0.106 -0.2,-0.115 -0.2,-0.122 -0.3,-0.129 -0.2,-0.136 -0.2,-0.143 -0.2,-0.149 -0.2,-0.156 -0.1,-0.161 -0.2,-0.167 -0.2,-0.171 -0.1,-0.177 -0.1,-0.181 -0.2,-0.186 -0.1,-0.189 -0.1,-0.193 -0.1,-0.197 -0.1,-0.199 -0.1,-0.202 -0.1,-0.204 v -0.207 l -0.1,-0.208 v -0.21 -0.21 l -0.1,-0.212 v -0.212 -0.213 c 0,-2.484 2,-3.312 3.4,-3.312 2.9,0 5.3,2.484 5.3,5.578 0,3.312 -3.2,6.203 -8.4,6.203 -4.1,0 -8.9,-1.859 -13.2,-8.172 -0.7,5.485 -4.8,8.172 -9,8.172 -4,0 -6.1,-3.109 -7.3,-5.375 -1.8,-3.719 -3.3,-9.922 -3.3,-10.437 0,-0.407 0.4,-0.922 1.1,-0.922 0.8,0 0.9,0.094 1.6,2.469 1.5,6.203 3.5,12.203 7.6,12.203 2.5,0 3.2,-1.766 3.2,-4.766 0,-2.266 -1,-6.297 -1.7,-9.5 l -2.9,-11.1563 c -0.5,-1.96873 -1.6,-6.6094 -2.1,-8.4687 -0.7,-2.6875 -1.9,-7.547 -1.9,-8.062 0,-1.438 1.2,-2.579 2.7,-2.579 1.2,0 3.1,0.719 3.7,2.782 0.4,0.828 4.2,16.4371 4.8,18.8121 0.5,2.2656 1.1,4.4375 1.7,6.7189 0.4,1.437 0.8,3.094 1.1,4.437 0.3,0.922 3.1,5.985 5.7,8.266 1.2,1.141 3.9,3.516 8.1,3.516 1.7,0 3.3,-0.313 4.7,-1.25 z"
           inkscape:connector-curvature="0"
           style="fill:#000000;stroke-width:0" /><path
           id="path898"
           d="m 1213.3,25.09 h 9.5 c 2,0 3,0 3,1.859 0,1.141 -0.6,1.141 -2.7,1.141 h -9.1 l 3.9,15.078 c 0.4,1.453 0.4,1.656 0.4,2.375 0,1.656 -1.4,2.578 -2.7,2.578 -0.8,0 -3.2,-0.297 -4,-3.609 l -4.1,-16.422 h -9.7 c -2,0 -3,0 -3,-1.969 0,-1.031 0.7,-1.031 2.7,-1.031 h 9.2 l -6.8,-27.2814 c -0.8,-3.6094 -1.1,-4.6406 -1.1,-5.9844 0,-4.8592 3.4,-9.2972 9.1,-9.2972 10.5,0 16,15.0785 16,15.7972 0,0.625 -0.4,0.93752 -1,0.93752 -0.2,0 -0.6,0 -0.8,-0.40622 -0.1,-0.1094 -0.2,-0.2188 -0.9,-1.8594 -2.2,-5.1719 -7,-12.4061 -13,-12.4061 -3,0 -3.3,2.578 -3.3,4.859 0,0.094 0,2.0627 0.3,3.2971 z"
           inkscape:connector-curvature="0"
           style="fill:#000000;stroke-width:0" /><path
           id="path900"
           d="m 1280.3,27.668 v 0.139 l 0.1,0.145 v 0.149 0.153 0.157 0.16 0.162 0.163 l -0.1,0.165 v 0.164 0.164 0.163 l -0.1,0.162 v 0.159 0.156 l -0.1,0.153 -0.1,0.148 v 0.143 l -0.1,0.138 -0.1,0.132 -0.1,0.125 -0.1,0.117 -0.1,0.056 v 0.053 l -0.1,0.052 -0.1,0.049 -0.1,0.046 v 0.045 l -0.1,0.041 -0.1,0.04 -0.1,0.036 -0.1,0.034 -0.1,0.031 v 0.028 l -0.1,0.025 -0.1,0.022 -0.1,0.019 -0.2,0.015 -0.1,0.012 -0.1,0.009 -0.1,0.006 -0.1,0.001 c -1.7,0 -3,-1.343 -2.7,-2.687 v -1.344 l 1.4,-16.015 -13.2,9.609 c -0.9,0.516 -1.1,0.719 -1.9,0.719 -1.4,0 -2.7,-1.453 -2.7,-2.891 0,-1.656 1,-2.062 2,-2.578 l 14.7,-7.0313 -14.3,-6.9219 c -1.6,-0.8281 -2.4,-1.2343 -2.4,-2.79683 0,-1.54687 1.3,-2.89067 2.7,-2.89067 0.8,0 1,0 3.5,1.9688 l 11.6,8.375 -1.5,-17.3591 c 0,-2.172 1.8,-2.688 2.7,-2.688 1.2,0 2.7,0.719 2.7,2.688 l -1.5,17.3591 13.2,-9.6094 c 1,-0.5156 1.2,-0.7344 1.9,-0.7344 1.4,0 2.8,1.4532 2.8,2.89067 0,1.56253 -1,2.07813 -2.2,2.68753 -6.2,3.1093 -6.4,3.1093 -14.6,6.9218 l 14.3,6.9217 c 1.6,0.828 2.5,1.25 2.5,2.797 0,1.547 -1.4,2.891 -2.8,2.891 -0.7,0 -0.9,0 -3.5,-1.969 l -11.6,-8.359 z"
           inkscape:connector-curvature="0"
           style="fill:#000000;stroke-width:0" /><path
           id="path902"
           d="m 1430,119.54 v 0.1 0.09 0.1 0.09 0.09 0.08 0.09 0.08 0.07 0.08 0.07 0.07 0.07 0.06 0.07 0.06 0.05 0.06 0.05 0.05 0.05 0.05 l -0.1,0.04 v 0.05 0.04 0.04 0.03 0.04 l -0.1,0.06 v 0.06 0.05 l -0.1,0.05 v 0.04 l -0.1,0.04 v 0.03 l -0.1,0.02 -0.1,0.02 -0.1,0.02 v 0.02 l -0.1,0.01 -0.1,0.01 h -0.1 l -0.1,0.01 h -0.1 -0.2 -0.1 c -4,-4.84 -10.1,-6.39 -15.9,-6.61 -0.3,0 -0.8,0 -0.9,-0.2 -0.2,-0.2 -0.2,-0.41 -0.2,-2.58 3.3,0 8.6,0.61 12.7,3.09 V 61.066 c 0,-3.625 -0.2,-4.859 -9,-4.859 h -3.1 V 53.52 c 4.9,0.109 10.1,0.203 15.1,0.203 4.9,0 10.1,-0.094 15,-0.203 v 2.687 h -3.1 c -8.9,0 -9.1,1.141 -9.1,4.859 z"
           inkscape:connector-curvature="0"
           style="fill:#000000;stroke-width:0" /><polyline
           id="polyline904"
           points="1333,7 1520.6,7 1520.6,11.199 1333,11.199 "
           style="fill:#000000;fill-rule:nonzero;stroke-width:0" /><path
           id="path906"
           d="m 1376,-54.082 v 0.605 0.629 0.652 0.675 0.696 0.715 l -0.1,1.484 -0.1,1.547 -0.1,1.601 -0.1,1.643 -0.2,1.677 -0.2,1.699 -0.3,1.713 -0.4,1.714 -0.4,1.708 -0.3,0.848 -0.2,0.842 -0.3,0.835 -0.3,0.828 -0.3,0.817 -0.4,0.807 -0.4,0.796 -0.3,0.781 c -3.9,7.235 -10,9.813 -15.3,9.813 v -1.641 c 4.2,0 9.7,-2.797 11.6,-11.265 1.4,-5.891 1.5,-12.813 1.5,-21.078 0,-6.719 0,-14.985 -1.3,-21.079 -2.1,-11.25 -8.2,-13.218 -11.8,-13.218 v 0 c -6.6,0 -10.6,5.687 -12,13.531 -1.2,6.094 -1.2,14.984 -1.2,20.766 0,7.953 0,14.562 1.4,20.875 1.9,8.781 7.7,11.468 11.8,11.468 v 1.641 c -5,0 -11.3,-2.266 -15.2,-9.703 -4.2,-7.75 -4.6,-17.36 -4.6,-25.422 0,-5.875 0.1,-14.875 3.3,-22.719 4.5,-10.64 12.4,-12.094 16.5,-12.094 4.7,0 11.9,1.969 16.2,11.782 3.1,7.125 3.5,15.5 3.5,23.031 z"
           inkscape:connector-curvature="0"
           style="fill:#000000;stroke-width:0" /><path
           id="path908"
           d="m 1400.1,-87.645 v 0.557 0.547 0.536 l -0.1,0.526 v 0.515 l -0.1,0.503 v 0.491 l -0.1,0.479 -0.1,0.464 -0.1,0.451 -0.2,0.437 -0.1,0.422 -0.1,0.406 -0.2,0.391 -0.2,0.374 -0.2,0.357 -0.2,0.339 -0.2,0.321 -0.2,0.303 -0.2,0.284 -0.3,0.264 -0.2,0.243 -0.3,0.224 -0.3,0.201 -0.3,0.181 -0.3,0.157 -0.3,0.135 -0.4,0.112 -0.3,0.088 -0.4,0.063 -0.4,0.038 -0.4,0.013 c -3.3,0 -4.9,-2.687 -4.9,-4.953 0,-2.265 1.5,-5.062 5.1,-5.062 1.3,0 2.4,0.406 3.3,1.343 0.3,0.204 0.4,0.204 0.5,0.204 0.2,0 0.2,-1.438 0.2,-1.954 0,-3.421 -0.7,-10.125 -6.6,-16.845 -1.2,-1.25 -1.2,-1.45 -1.2,-1.65 0,-0.52 0.5,-1.04 1.1,-1.04 0.8,0 8.7,7.645 8.7,19.535 z"
           inkscape:connector-curvature="0"
           style="fill:#000000;stroke-width:0" /><path
           id="path910"
           d="m 1468.3,-71.223 h -1.8 c -1.1,-7.343 -1.9,-8.578 -2.3,-9.203 -0.5,-0.828 -8,-0.828 -9.4,-0.828 H 1435 c 3.7,4.031 10.9,11.375 19.7,19.844 6.3,5.984 13.6,13.015 13.6,23.25 0,12.187 -9.7,19.203 -20.5,19.203 -11.4,0 -18.3,-10.016 -18.3,-19.313 0,-4.031 3,-4.546 4.2,-4.546 1,0 4.1,0.625 4.1,4.234 0,3.203 -2.6,4.141 -4.1,4.141 -0.6,0 -1.2,-0.11 -1.6,-0.313 1.9,8.781 7.9,13.125 14.2,13.125 9,0 14.9,-7.141 14.9,-16.531 0,-9 -5.3,-16.735 -11.2,-23.453 l -20.5,-23.25 v -2.375 h 36.3 z"
           inkscape:connector-curvature="0"
           style="fill:#000000;stroke-width:0" /><path
           id="path912"
           d="m 1484.4,-26.801 0.1,-0.041 0.1,-0.045 0.2,-0.051 0.2,-0.055 0.1,-0.058 0.2,-0.062 0.2,-0.065 0.2,-0.068 0.3,-0.069 0.2,-0.072 0.3,-0.072 0.3,-0.074 0.3,-0.074 0.3,-0.074 0.3,-0.074 0.3,-0.073 0.3,-0.072 0.3,-0.07 0.4,-0.068 0.3,-0.066 0.4,-0.063 0.4,-0.06 0.4,-0.056 0.3,-0.051 0.8,-0.09 0.8,-0.068 0.8,-0.044 0.4,-0.011 0.4,-0.004 c 9.6,0 14.9,5.156 17.9,8.156 0,0.829 0,1.344 -0.6,1.344 -0.1,0 -0.3,0 -1.2,-0.422 -3.6,-1.547 -7.8,-2.781 -13,-2.781 -3.1,0 -7.7,0.406 -12.8,2.688 -1.1,0.515 -1.3,0.515 -1.4,0.515 -0.5,0 -0.7,-0.109 -0.7,-2.172 v -29.953 c 0,-1.859 0,-2.39 1.1,-2.39 0.5,0 0.7,0.218 1.2,0.937 3.3,4.656 7.9,6.609 13,6.609 3.7,0 11.4,-2.265 11.4,-19.937 0,-3.313 0,-9.297 -3.1,-14.047 -2.6,-4.234 -6.6,-6.406 -11,-6.406 -6.9,0 -13.8,4.75 -15.6,12.703 0.4,-0.094 1.2,-0.313 1.6,-0.313 1.3,0 3.9,0.735 3.9,3.938 0,2.781 -1.9,3.922 -3.9,3.922 -2.4,0 -3.9,-1.453 -3.9,-4.344 0,-8.984 7.1,-18.391 18,-18.391 10.7,0 20.8,9.204 20.8,22.532 0,12.39 -8,22 -18.1,22 -5.2,0 -9.7,-1.969 -13.2,-5.688 z"
           inkscape:connector-curvature="0"
           style="fill:#000000;stroke-width:0" /><path
           id="path914"
           d="m 1577.4,27.668 v 0.139 0.145 0.149 0.153 0.157 0.16 0.162 0.163 0.165 0.164 l -0.1,0.164 v 0.163 0.162 l -0.1,0.159 v 0.156 l -0.1,0.153 v 0.148 l -0.1,0.143 -0.1,0.138 -0.1,0.132 -0.1,0.125 -0.1,0.117 -0.1,0.056 v 0.053 l -0.1,0.052 -0.1,0.049 v 0.046 l -0.1,0.045 -0.1,0.041 -0.1,0.04 v 0.036 l -0.1,0.034 -0.1,0.031 -0.1,0.028 -0.1,0.025 -0.1,0.022 -0.1,0.019 -0.1,0.015 -0.1,0.012 -0.2,0.009 -0.1,0.006 -0.1,0.001 c -1.7,0 -3,-1.343 -2.7,-2.687 v -1.344 l 1.5,-16.015 -13.3,9.609 c -0.9,0.516 -1.1,0.719 -1.8,0.719 -1.5,0 -2.8,-1.453 -2.8,-2.891 0,-1.656 1,-2.062 2,-2.578 l 14.7,-7.0313 -14.2,-6.9219 c -1.7,-0.8281 -2.5,-1.2343 -2.5,-2.79683 0,-1.54687 1.3,-2.89067 2.8,-2.89067 0.7,0 0.9,0 3.5,1.9688 l 11.6,8.375 -1.6,-17.3591 c 0,-2.172 1.8,-2.688 2.7,-2.688 1.2,0 2.8,0.719 2.8,2.688 l -1.6,17.3591 13.3,-9.6094 c 0.9,-0.5156 1.1,-0.7344 1.8,-0.7344 1.5,0 2.8,1.4532 2.8,2.89067 0,1.56253 -0.9,2.07813 -2.2,2.68753 -6.2,3.1093 -6.4,3.1093 -14.5,6.9218 l 14.2,6.9217 c 1.7,0.828 2.5,1.25 2.5,2.797 0,1.547 -1.3,2.891 -2.8,2.891 -0.7,0 -0.9,0 -3.5,-1.969 l -11.6,-8.359 z"
           inkscape:connector-curvature="0"
           style="fill:#000000;stroke-width:0" /><path
           id="path916"
           d="m 1657.7,90.707 -1.6,1.141 c -0.2,0 -0.3,0 -1.1,0.625 l -10.8,7.328 c -0.9,0.519 -5,3.719 -5,8.579 0,6.3 6.5,11.05 14,11.05 8.1,0 14.1,-5.79 14.1,-12.5 0,-9.614 -10.7,-15.082 -11.2,-15.082 l 1.6,-1.141 c 6.5,3.313 13.1,8.266 13.1,16.223 0,9.4 -9.1,14.87 -17.4,14.87 -9.4,0 -17.7,-6.81 -17.7,-16.22 0,-2.58 0.6,-7.014 4.6,-10.935 1.1,-1.047 5.4,-4.141 8.2,-6.11 l 1.8,-1.125 12.9,-8.781 c 1.5,-1.141 6.5,-4.547 6.5,-10.859 0,-7.641 -7.7,-13.422 -16.3,-13.422 -9.4,0 -16.6,6.718 -16.6,14.875 0,8.156 6.3,14.984 13.5,18.187 l -1.8,1.125 c -4.7,-2.375 -15.5,-8.047 -15.5,-19.422 0,-10.64 10.1,-17.25 20.2,-17.25 11,0 20.3,7.953 20.3,18.5 0,9.391 -6.3,13.735 -10.4,16.532 z"
           inkscape:connector-curvature="0"
           style="fill:#000000;stroke-width:0" /><path
           id="path918"
           d="m 1697.1,53.113 v 0.557 0.547 0.536 l -0.1,0.526 v 0.515 l -0.1,0.503 v 0.491 l -0.1,0.478 -0.1,0.465 -0.1,0.451 -0.2,0.437 -0.1,0.422 -0.1,0.406 -0.2,0.391 -0.2,0.373 -0.2,0.357 -0.2,0.34 -0.2,0.321 -0.2,0.303 -0.2,0.284 -0.3,0.264 -0.2,0.243 -0.3,0.223 -0.3,0.202 -0.3,0.18 -0.3,0.158 -0.3,0.135 -0.4,0.112 -0.3,0.088 -0.4,0.063 -0.4,0.038 -0.4,0.013 c -3.3,0 -4.9,-2.687 -4.9,-4.953 0,-2.266 1.5,-5.062 5.1,-5.062 1.3,0 2.4,0.406 3.3,1.343 0.3,0.203 0.4,0.203 0.5,0.203 0.2,0 0.2,-1.437 0.2,-1.953 0,-3.422 -0.7,-10.125 -6.6,-16.843 -1.2,-1.25 -1.2,-1.454 -1.2,-1.657 0,-0.515 0.5,-1.031 1.1,-1.031 0.8,0 8.7,7.641 8.7,19.531 z"
           inkscape:connector-curvature="0"
           style="fill:#000000;stroke-width:0" /><path
           id="path920"
           d="m 1749.7,119.54 v 0.1 0.09 0.1 0.09 0.09 0.08 0.09 0.08 0.07 0.08 0.07 0.07 0.07 0.06 0.07 0.06 0.05 0.06 0.05 0.05 l -0.1,0.05 v 0.05 0.04 0.05 0.04 0.04 0.03 0.04 l -0.1,0.06 v 0.06 l -0.1,0.05 v 0.05 0.04 l -0.1,0.04 -0.1,0.03 v 0.02 l -0.1,0.02 -0.1,0.02 -0.1,0.02 v 0.01 l -0.1,0.01 h -0.1 l -0.2,0.01 h -0.1 -0.1 -0.1 c -4.1,-4.84 -10.1,-6.39 -16,-6.61 -0.2,0 -0.8,0 -0.9,-0.2 -0.1,-0.2 -0.1,-0.41 -0.1,-2.58 3.2,0 8.6,0.61 12.7,3.09 V 61.066 c 0,-3.625 -0.2,-4.859 -9.1,-4.859 h -3.1 V 53.52 c 5,0.109 10.2,0.203 15.1,0.203 5,0 10.2,-0.094 15.1,-0.203 v 2.687 h -3.1 c -8.9,0 -9.1,1.141 -9.1,4.859 z"
           inkscape:connector-curvature="0"
           style="fill:#000000;stroke-width:0" /><path
           id="path922"
           d="m 1806,84.098 v -1.054 -1.03 l -0.1,-1.009 V 80.02 l -0.1,-1.905 -0.2,-1.818 -0.2,-1.733 -0.3,-1.648 -0.3,-1.566 -0.4,-1.485 -0.4,-1.406 -0.4,-1.328 -0.5,-1.253 -0.5,-1.177 -0.5,-1.105 -0.6,-1.034 -0.6,-0.963 -0.6,-0.896 -0.6,-0.829 -0.7,-0.764 -0.6,-0.701 -0.7,-0.639 -0.7,-0.578 -0.7,-0.52 -0.8,-0.463 -0.7,-0.408 -0.7,-0.353 -0.8,-0.302 -0.7,-0.25 -0.8,-0.202 -0.7,-0.154 -0.8,-0.108 -0.7,-0.063 -0.7,-0.021 c -2.4,0 -8.2,0.312 -10.6,4.343 2.7,-0.421 4.7,1.032 4.7,3.61 0,2.797 -2.3,3.719 -3.8,3.719 -0.9,0 -3.7,-0.407 -3.7,-3.922 0,-7.032 6.1,-10.235 13.6,-10.235 11.8,0 23.9,13.016 23.9,35.75 0,28.317 -11.6,34.187 -19.4,34.187 -10.2,0 -20,-8.98 -20,-22.827 0,-12.813 8.3,-22.313 18.9,-22.313 l 0.2,1.656 c -2.8,0 -6.7,0.516 -9.9,6.719 -2.2,4.016 -2.2,8.781 -2.2,13.844 0,6.091 0,10.331 2.9,14.871 1.4,2.18 4.1,5.68 10.1,5.68 12.2,0 12.2,-18.69 12.2,-22.832 0,-7.328 -3.3,-18.282 -13.1,-18.282 v 0 l -0.2,-1.656 c 8.7,0 12.5,8.063 13.5,11.469 z"
           inkscape:connector-curvature="0"
           style="fill:#000000;stroke-width:0" /><path
           id="path924"
           d="m 1860.1,69.535 h -1.9 c -1,-7.344 -1.8,-8.578 -2.2,-9.203 -0.5,-0.828 -8,-0.828 -9.4,-0.828 h -19.8 c 3.7,4.031 10.9,11.375 19.7,19.844 6.3,5.984 13.6,13.015 13.6,23.252 0,12.19 -9.7,19.2 -20.5,19.2 -11.4,0 -18.3,-10.01 -18.3,-19.31 0,-4.033 3,-4.549 4.2,-4.549 1,0 4.1,0.625 4.1,4.239 0,3.2 -2.6,4.14 -4.1,4.14 -0.6,0 -1.2,-0.11 -1.7,-0.32 2,8.79 8,13.13 14.3,13.13 9,0 14.9,-7.14 14.9,-16.53 0,-9.002 -5.3,-16.737 -11.2,-23.455 l -20.5,-23.25 V 53.52 h 36.3 z"
           inkscape:connector-curvature="0"
           style="fill:#000000;stroke-width:0" /><path
           id="path926"
           d="m 1928.4,112.61 0.3,0.52 0.3,0.49 0.4,0.48 0.3,0.46 0.3,0.45 0.3,0.42 0.4,0.41 0.3,0.39 0.3,0.38 0.4,0.36 0.3,0.34 0.3,0.33 0.4,0.31 0.3,0.29 0.4,0.28 0.3,0.27 0.4,0.25 0.3,0.23 0.4,0.22 0.4,0.2 0.4,0.2 0.4,0.17 0.4,0.16 0.4,0.15 0.4,0.14 0.4,0.12 0.4,0.11 0.5,0.09 0.4,0.08 0.5,0.07 0.5,0.06 0.5,0.04 c 1,0.11 1.8,0.11 1.8,1.97 0,0.41 -0.2,1.03 -1.1,1.03 -1.9,0 -6.3,-0.2 -8.2,-0.2 -3,0 -6.1,0.2 -9,0.2 -0.8,0 -1.8,0 -1.8,-1.97 0,-0.92 0.9,-1.03 1.3,-1.03 3.8,-0.31 4.3,-2.17 4.3,-3.4 0,-1.55 -1.5,-3.93 -1.6,-4.04 l -32.4,-51.449 -7.3,55.689 c 0,3 5.4,3.2 6.5,3.2 1.6,0 2.5,0 2.5,1.97 0,1.03 -1.1,1.03 -1.4,1.03 -1.8,0 -3.8,-0.2 -5.6,-0.2 h -5.8 c -7.5,0 -10.6,0.2 -10.7,0.2 -0.7,0 -1.9,0 -1.9,-1.86 0,-1.14 0.7,-1.14 2.4,-1.14 5.3,0 5.6,-0.92 5.9,-3.51 l 8.2,-63.738 c 0.4,-2.172 0.4,-2.484 1.8,-2.484 1.2,0 1.8,0.312 2.8,1.968 z"
           inkscape:connector-curvature="0"
           style="fill:#000000;stroke-width:0" /><polyline
           id="polyline928"
           points="1630,7 1946.3,7 1946.3,11.199 1630,11.199 "
           style="fill:#000000;fill-rule:nonzero;stroke-width:0" /><path
           id="path930"
           d="m 1770.7,-71.223 h -1.8 c -1.1,-7.343 -1.9,-8.578 -2.3,-9.203 -0.5,-0.828 -8,-0.828 -9.4,-0.828 h -19.8 c 3.7,4.031 10.9,11.375 19.7,19.844 6.3,5.984 13.6,13.015 13.6,23.25 0,12.187 -9.7,19.203 -20.5,19.203 -11.4,0 -18.3,-10.016 -18.3,-19.313 0,-4.031 3,-4.546 4.2,-4.546 1,0 4.1,0.625 4.1,4.234 0,3.203 -2.6,4.141 -4.1,4.141 -0.6,0 -1.2,-0.11 -1.7,-0.313 2,8.781 8,13.125 14.3,13.125 9,0 14.9,-7.141 14.9,-16.531 0,-9 -5.3,-16.735 -11.2,-23.453 l -20.5,-23.25 v -2.375 h 36.3 z"
           inkscape:connector-curvature="0"
           style="fill:#000000;stroke-width:0" /><path
           id="path932"
           d="m 1795.7,-11.422 v 0.077 0.074 0.072 0.07 0.067 0.066 0.063 0.061 0.059 0.058 0.055 0.053 0.052 0.049 0.048 0.046 0.044 l -0.1,0.042 v 0.041 0.039 0.038 0.036 0.034 0.033 0.061 0.055 l -0.1,0.0504 v 0.045 0.0401 l -0.1,0.0355 v 0.0312 l -0.1,0.0272 v 0.0235 l -0.1,0.0199 -0.1,0.0168 v 0.0072 0.0066 l -0.1,0.0059 v 0.0053 0.0047 l -0.1,0.0041 v 0.0036 l -0.1,0.0031 v 0.0026 l -0.1,0.0022 v 0.0018 l -0.1,0.0015 v 0.0012 l -0.1,8e-4 -0.1,6e-4 v 4e-4 l -0.1,2e-4 -0.1,10e-5 c -1.7,-1.9375 -5.3,-4.5935 -12.6,-4.5935 v -2.078 c 1.6,0 5.2,0 9.1,1.859 v -37.344 c 0,-2.578 -0.2,-3.437 -6.5,-3.437 h -2.2 v -2.078 c 1.9,0.14 8.9,0.14 11.2,0.14 2.4,0 9.3,0 11.2,-0.14 v 2.078 h -2.2 c -6.3,0 -6.5,0.859 -6.5,3.437 z"
           inkscape:connector-curvature="0"
           style="fill:#000000;stroke-width:0" /><path
           id="path934"
           d="m 1819,-32.422 v 0.839 0.817 l 0.1,0.796 v 0.773 l 0.1,0.753 v 0.731 l 0.1,0.711 0.1,0.691 0.1,0.67 0.1,0.651 0.1,0.631 0.1,0.611 0.2,0.593 0.1,0.574 0.2,0.556 0.1,0.537 0.2,0.52 0.2,0.502 0.2,0.485 0.2,0.468 0.4,0.886 0.4,0.822 0.5,0.759 0.4,0.699 0.5,0.642 0.5,0.586 0.5,0.533 0.5,0.482 0.6,0.434 0.5,0.387 0.5,0.343 0.5,0.301 0.6,0.262 0.5,0.225 0.5,0.19 0.5,0.157 0.5,0.126 0.4,0.099 0.5,0.072 0.4,0.05 0.4,0.027 0.4,0.009 c 2.6,0 5.1,-0.781 6.5,-2.937 -0.8,0 -3.6,0 -3.6,-2.938 0,-1.578 1.1,-2.937 3,-2.937 1.8,0 3,1.078 3,3.156 0,3.734 -2.7,7.3905 -9,7.3905 -9,0 -18.5,-9.2505 -18.5,-25.0155 0,-19.719 8.6,-24.156 14.7,-24.156 7.8,0 14.5,6.797 14.5,16.125 0,9.531 -6.7,15.906 -13.8,15.906 l -0.3,-1.438 c 3.9,0 6,-2.64 7.1,-5.078 1.1,-2.656 1.1,-6.234 1.1,-9.328 0,-3.656 0,-6.875 -1.3,-9.594 -1.8,-3.437 -4.4,-4.656 -7.3,-4.656 v 0 c -4.5,0 -6.6,4 -7.3,5.516 -0.6,1.859 -1.3,5.375 -1.3,10.39 0,5.657 2.5,12.75 9,12.75 l 0.3,1.438 c -6.4,0 -8.8,-5.516 -9.5,-7.516 z"
           inkscape:connector-curvature="0"
           style="fill:#000000;stroke-width:0" /><path
           id="path936"
           d="m 580.64,-243.95 -0.36,-1.34 -0.41,-1.31 -0.46,-1.26 -0.5,-1.23 -0.54,-1.2 -0.58,-1.15 -0.62,-1.12 -0.65,-1.08 -0.68,-1.04 -0.72,-1 -0.75,-0.97 -0.77,-0.92 -0.8,-0.88 -0.83,-0.84 -0.84,-0.8 -0.87,-0.76 -0.88,-0.71 -0.9,-0.67 -0.91,-0.63 -0.92,-0.59 -0.94,-0.54 -0.94,-0.5 -0.95,-0.45 -0.95,-0.4 -0.96,-0.36 -0.95,-0.31 -0.96,-0.27 -0.95,-0.22 -0.94,-0.17 -0.94,-0.12 -0.93,-0.08 -0.91,-0.02 c -7.44,0 -12.5,4.95 -12.5,13.53 0,0.41 0,3.52 1.12,8.06 l 10.13,40.6 c 0.94,3.51 1.14,4.54 8.48,4.54 1.86,0 2.89,0 2.89,1.86 0,1.14 -0.93,1.14 -1.56,1.14 -1.86,0 -4.01,-0.2 -5.98,-0.2 h -12.19 c -1.97,0 -4.14,0.2 -6.1,0.2 -0.73,0 -1.96,0 -1.96,-1.96 0,-1.04 0.72,-1.04 2.68,-1.04 6.21,0 6.21,-0.82 6.21,-1.95 0,-0.62 -0.74,-3.62 -1.25,-5.37 l -8.99,-36.16 c -0.31,-1.14 -0.92,-3.94 -0.92,-6.72 0,-11.37 8.16,-19.53 19.42,-19.53 10.42,0 22,8.27 27.27,21.39 0.72,1.75 1.65,5.38 2.28,8.16 1.03,3.72 3.2,12.81 3.92,15.5 l 3.92,15.5 c 1.35,5.37 2.18,8.78 11.27,9.18 0.83,0.11 1.23,0.94 1.23,1.86 0,1.14 -0.92,1.14 -1.34,1.14 -1.44,0 -3.3,-0.2 -4.75,-0.2 h -4.86 c -6.41,0 -9.7,0.2 -9.81,0.2 -0.61,0 -1.86,0 -1.86,-1.96 0,-1.04 0.83,-1.04 1.54,-1.04 6.21,-0.2 6.63,-2.57 6.63,-4.43 0,-0.94 0,-1.24 -0.42,-2.69 z"
           inkscape:connector-curvature="0"
           style="fill:#000000;stroke-width:0" /><path
           id="path938"
           d="m 631.09,-253.95 -0.21,-0.04 -0.2,-0.06 -0.19,-0.05 -0.19,-0.07 -0.18,-0.07 -0.17,-0.08 -0.16,-0.08 -0.15,-0.09 -0.15,-0.1 -0.14,-0.09 -0.13,-0.11 -0.13,-0.11 -0.11,-0.11 -0.11,-0.11 -0.11,-0.12 -0.1,-0.12 -0.09,-0.13 -0.08,-0.12 -0.08,-0.13 -0.07,-0.13 -0.06,-0.13 -0.06,-0.14 -0.05,-0.13 -0.05,-0.13 -0.04,-0.14 -0.04,-0.13 -0.03,-0.14 -0.02,-0.13 -0.02,-0.13 -0.01,-0.14 -0.01,-0.13 v -0.12 c 0,-1.72 1.36,-2.3 2.36,-2.3 2.16,0 3.66,1.86 3.66,3.8 0,3.01 -3.44,4.37 -6.46,4.37 -4.37,0 -6.81,-4.3 -7.45,-5.66 -1.66,5.38 -6.09,5.66 -7.39,5.66 -7.3,0 -11.17,-9.39 -11.17,-10.97 0,-0.28 0.28,-0.64 0.78,-0.64 0.57,0 0.72,0.42 0.86,0.72 2.43,7.95 7.25,9.45 9.33,9.45 3.21,0 3.85,-3 3.85,-4.73 0,-1.56 -0.42,-3.22 -1.28,-6.66 l -2.44,-9.83 c -1.07,-4.29 -3.15,-8.23 -6.95,-8.23 -0.36,0 -2.15,0 -3.65,0.94 2.57,0.5 3.15,2.64 3.15,3.5 0,1.43 -1.08,2.29 -2.43,2.29 -1.72,0 -3.6,-1.5 -3.6,-3.79 0,-3.02 3.38,-4.38 6.45,-4.38 3.44,0 5.88,2.72 7.4,5.67 1.13,-4.23 4.73,-5.67 7.37,-5.67 7.31,0 11.19,9.39 11.19,10.97 0,0.36 -0.28,0.64 -0.72,0.64 -0.64,0 -0.72,-0.36 -0.94,-0.92 -1.92,-6.31 -6.09,-9.25 -9.31,-9.25 -2.52,0 -3.88,1.86 -3.88,4.8 0,1.57 0.3,2.73 1.44,7.45 l 2.52,9.75 c 1.06,4.3 3.5,7.45 6.79,7.45 0.16,0 2.16,0 3.66,-0.92 z"
           inkscape:connector-curvature="0"
           style="fill:#000000;stroke-width:0" /><path
           id="path940"
           d="m 742.75,-221.02 v 0.2 0.19 l -0.01,0.19 -0.02,0.18 -0.02,0.17 -0.02,0.16 -0.02,0.16 -0.03,0.15 -0.03,0.14 -0.04,0.14 -0.04,0.13 -0.04,0.12 -0.04,0.12 -0.04,0.11 -0.05,0.1 -0.05,0.1 -0.06,0.09 -0.05,0.09 -0.06,0.08 -0.05,0.07 -0.06,0.06 -0.06,0.06 -0.07,0.06 -0.06,0.05 -0.06,0.04 -0.07,0.04 -0.06,0.03 -0.07,0.02 -0.07,0.02 -0.06,0.02 -0.07,0.01 h -0.07 c -0.4,0 -1.34,-0.42 -1.44,-2.8 -0.42,-7.12 -7.65,-11.36 -14.36,-11.36 -6,0 -11.15,3.2 -16.53,6.81 -5.57,3.74 -11.15,7.46 -17.87,7.46 -9.61,0 -17.25,-7.35 -17.25,-16.85 0,-2.28 0.83,-3.11 1.43,-3.11 1.04,0 1.46,1.97 1.46,2.39 0.51,8.68 8.98,11.77 14.36,11.77 5.98,0 11.15,-3.2 16.53,-6.81 5.58,-3.72 11.15,-7.44 17.87,-7.44 9.6,0 17.25,7.33 17.25,16.84 z"
           inkscape:connector-curvature="0"
           style="fill:#000000;stroke-width:0" /><path
           id="path942"
           d="m 742.75,-245.2 v 0.14 0.13 0.13 l -0.01,0.13 -0.01,0.12 -0.01,0.12 -0.01,0.11 -0.01,0.12 -0.01,0.1 -0.02,0.11 -0.02,0.1 -0.01,0.1 -0.02,0.09 -0.02,0.09 -0.02,0.09 -0.02,0.08 -0.03,0.08 -0.02,0.08 -0.03,0.08 -0.02,0.07 -0.03,0.07 -0.03,0.06 -0.02,0.07 -0.03,0.06 -0.03,0.06 -0.03,0.05 -0.06,0.11 -0.06,0.09 -0.07,0.08 -0.06,0.08 -0.06,0.07 -0.07,0.06 -0.06,0.05 -0.06,0.04 -0.06,0.04 -0.06,0.03 -0.06,0.03 -0.05,0.02 -0.05,0.02 -0.05,0.02 -0.04,0.01 h -0.04 l -0.03,0.01 h -0.03 -0.02 c -0.4,0 -1.34,-0.52 -1.44,-2.78 -0.42,-7.13 -7.65,-11.36 -14.36,-11.36 -6,0 -11.15,3.19 -16.53,6.81 -5.57,3.72 -11.15,7.44 -17.87,7.44 -9.61,0 -17.25,-7.33 -17.25,-16.84 0,-2.27 0.83,-3.1 1.43,-3.1 1.04,0 1.46,1.97 1.46,2.38 0.51,8.67 8.98,11.78 14.36,11.78 5.98,0 11.15,-3.21 16.53,-6.83 5.58,-3.72 11.15,-7.44 17.87,-7.44 9.82,0 17.25,7.66 17.25,16.74 z"
           inkscape:connector-curvature="0"
           style="fill:#000000;stroke-width:0" /><path
           id="path944"
           d="m 877.05,-134.86 0.09,0.32 0.08,0.31 0.08,0.29 0.08,0.28 0.08,0.27 0.09,0.25 0.09,0.24 0.09,0.23 0.1,0.22 0.11,0.2 0.13,0.19 0.13,0.18 0.15,0.17 0.16,0.16 0.17,0.14 0.2,0.14 0.21,0.12 0.23,0.12 0.26,0.11 0.28,0.09 0.3,0.09 0.33,0.08 0.17,0.03 0.18,0.04 0.19,0.03 0.2,0.03 0.2,0.03 0.21,0.02 0.22,0.02 0.23,0.03 0.24,0.02 0.24,0.01 0.25,0.02 0.27,0.01 0.27,0.02 0.28,0.01 h 0.29 l 0.29,0.01 0.31,0.01 h 0.32 0.33 0.34 c 1.95,0 2.89,0 2.89,1.97 0,1.03 -0.72,1.03 -2.69,1.03 h -12.39 c -2.59,0 -2.68,-0.11 -3.83,-1.75 l -37.7,-59.62 -7.75,59.09 c -0.31,2.28 -0.42,2.28 -3.11,2.28 h -12.81 c -1.95,0 -2.89,0 -2.89,-1.97 0,-1.03 0.94,-1.03 2.48,-1.03 6.3,0 6.3,-0.83 6.3,-1.95 0,-0.22 0,-0.83 -0.41,-2.39 l -13.21,-52.69 c -1.25,-4.95 -3.63,-7.22 -10.55,-7.53 -0.32,0 -1.55,-0.11 -1.55,-1.86 0,-1.14 0.92,-1.14 1.35,-1.14 2.06,0 7.32,0.2 9.4,0.2 H 804 c 1.46,0 3.21,-0.2 4.66,-0.2 0.72,0 1.86,0 1.86,1.97 0,0.92 -1.05,1.03 -1.45,1.03 -3.41,0.09 -6.72,0.72 -6.72,4.44 0,1.03 0,1.14 0.42,2.58 l 14.25,56.92 h 0.11 l 8.56,-64.14 c 0.31,-2.49 0.42,-2.8 1.34,-2.8 1.15,0 1.66,0.83 2.18,1.75 l 41.53,65.72 h 0.11 l -14.99,-59.83 c -0.92,-3.61 -1.14,-4.64 -8.36,-4.64 -1.97,0 -3,0 -3,-1.86 0,-1.14 0.93,-1.14 1.55,-1.14 1.75,0 3.83,0.2 5.58,0.2 h 12.19 c 1.76,0 3.93,-0.2 5.68,-0.2 0.83,0 1.97,0 1.97,1.97 0,1.03 -0.94,1.03 -2.48,1.03 -6.3,0 -6.3,0.83 -6.3,1.86 0,0.09 0,0.83 0.21,1.66 z"
           inkscape:connector-curvature="0"
           style="fill:#000000;stroke-width:0" /><path
           id="path946"
           d="m 910.46,-173.91 h 0.27 0.3 l 0.32,0.01 h 0.34 l 0.36,0.01 0.38,0.01 0.4,0.01 0.41,0.02 0.43,0.02 0.45,0.02 0.45,0.03 0.48,0.03 0.48,0.04 0.49,0.04 1.01,0.09 1.03,0.12 1.05,0.14 1.05,0.17 1.06,0.2 1.04,0.22 0.51,0.13 0.51,0.13 0.5,0.14 0.49,0.15 0.48,0.16 0.47,0.17 c 7.86,3 8.58,8.99 8.58,10.85 0,4.54 -3.92,8.68 -10.75,8.68 v -2.06 c 4.55,0 7.64,-2.69 7.64,-6.62 0,-10.85 -16.51,-10.85 -20.86,-10.85 h -4.34 c 4.44,15.91 14.26,17.47 17.56,17.47 v 2.06 c -10.84,0 -26.44,-9.81 -26.44,-28.2 0,-10.84 6.19,-18.39 15.6,-18.39 14.04,0 22.94,10.95 22.94,12.3 0,0.61 -0.63,1.12 -1.04,1.12 -0.31,0 -0.42,-0.09 -1.34,-1.03 -6.61,-8.78 -16.44,-10.33 -20.36,-10.33 -5.89,0 -8.98,4.66 -8.98,12.3 0,1.44 0,4.03 1.54,10.64 z"
           inkscape:connector-curvature="0"
           style="fill:#000000;stroke-width:0" /><path
           id="path948"
           d="m 962.44,-177.22 0.16,-0.03 0.18,-0.03 0.17,-0.03 0.19,-0.04 0.37,-0.07 0.38,-0.07 0.39,-0.08 0.39,-0.08 0.39,-0.08 0.38,-0.08 0.18,-0.04 0.18,-0.04 0.18,-0.03 0.17,-0.04 0.16,-0.03 0.16,-0.04 0.16,-0.03 0.14,-0.03 0.14,-0.03 0.13,-0.02 0.12,-0.03 0.1,-0.02 0.1,-0.02 0.09,-0.02 0.08,-0.01 0.06,-0.01 c 1.35,-0.41 6,-2.07 6,-7.02 0,-3.2 -2.9,-11.58 -14.89,-11.58 -2.15,0 -9.9,0.31 -11.97,6 4.13,-0.51 6.19,2.69 6.19,4.95 0,2.18 -1.44,3.32 -3.51,3.32 -2.27,0 -5.27,-1.77 -5.27,-6.41 0,-6.09 6.2,-9.92 14.47,-9.92 15.7,0 20.34,11.56 20.34,16.94 0,1.54 0,4.45 -3.29,7.75 -2.58,2.48 -5.07,3 -10.64,4.14 -2.8,0.61 -7.24,1.54 -7.24,6.18 0,2.08 1.86,9.52 11.67,9.52 4.35,0 8.58,-1.66 9.61,-5.37 -4.54,0 -4.75,-3.93 -4.75,-4.04 0,-2.17 1.96,-2.79 2.89,-2.79 1.46,0 4.35,1.14 4.35,5.48 0,4.35 -3.94,8.78 -11.99,8.78 -13.53,0 -17.15,-10.64 -17.15,-14.87 0,-7.86 7.64,-9.52 10.03,-10.03 z"
           inkscape:connector-curvature="0"
           style="fill:#000000;stroke-width:0" /><path
           id="path950"
           d="m 1010.1,-177.22 0.1,-0.03 0.2,-0.03 0.2,-0.03 0.2,-0.04 0.2,-0.03 0.1,-0.04 0.4,-0.07 0.4,-0.08 0.4,-0.08 0.4,-0.08 0.4,-0.08 0.2,-0.04 0.1,-0.04 0.2,-0.03 0.2,-0.04 0.2,-0.03 0.1,-0.04 0.2,-0.03 0.1,-0.03 0.1,-0.03 0.2,-0.02 0.1,-0.03 0.1,-0.02 0.1,-0.02 0.1,-0.02 0.1,-0.01 v -0.01 c 1.4,-0.41 6,-2.07 6,-7.02 0,-3.2 -2.9,-11.58 -14.9,-11.58 -2.1,0 -9.87,0.31 -11.93,6 4.13,-0.51 6.23,2.69 6.23,4.95 0,2.18 -1.48,3.32 -3.56,3.32 -2.26,0 -5.26,-1.77 -5.26,-6.41 0,-6.09 6.2,-9.92 14.42,-9.92 15.8,0 20.4,11.56 20.4,16.94 0,1.54 0,4.45 -3.3,7.75 -2.6,2.48 -5.1,3 -10.6,4.14 -2.8,0.61 -7.3,1.54 -7.3,6.18 0,2.08 1.9,9.52 11.7,9.52 4.3,0 8.6,-1.66 9.6,-5.37 -4.5,0 -4.7,-3.93 -4.7,-4.04 0,-2.17 1.9,-2.79 2.8,-2.79 1.5,0 4.4,1.14 4.4,5.48 0,4.35 -4,8.78 -12,8.78 -13.5,0 -17.2,-10.64 -17.2,-14.87 0,-7.86 7.7,-9.52 10.1,-10.03 z"
           inkscape:connector-curvature="0"
           style="fill:#000000;stroke-width:0" /><path
           id="path952"
           d="m 1069.7,-191.58 0.2,-0.57 0.3,-0.53 0.2,-0.51 0.3,-0.48 0.3,-0.46 0.4,-0.43 0.3,-0.4 0.4,-0.38 0.3,-0.35 0.4,-0.33 0.4,-0.31 0.4,-0.29 0.5,-0.27 0.4,-0.24 0.4,-0.23 0.5,-0.21 0.4,-0.19 0.5,-0.17 0.4,-0.15 0.5,-0.14 0.4,-0.13 0.5,-0.11 0.4,-0.09 0.5,-0.09 0.4,-0.07 0.5,-0.05 0.4,-0.05 0.4,-0.04 0.4,-0.03 0.4,-0.02 0.4,-0.01 h 0.4 c 7.9,0 12.5,6.81 15.4,13.94 2.4,6 6.2,19.64 6.2,25.73 0,6.3 -3.2,6.92 -4.1,6.92 -2.5,0 -4.8,-2.48 -4.8,-4.54 0,-1.24 0.7,-1.97 1.2,-2.38 1,-0.94 3.6,-3.72 3.6,-9.09 0,-3.52 -2.8,-13.22 -5,-18.08 -2.9,-6.3 -6.7,-10.44 -12.1,-10.44 -5.8,0 -7.6,4.35 -7.6,9.1 0,3 0.9,6.6 1.3,8.37 l 4.3,17.34 c 0.6,2.08 1.5,5.69 1.5,6.1 0,1.56 -1.3,2.59 -2.8,2.59 -3,0 -3.7,-2.59 -4.3,-5.06 -1.1,-4.03 -5.4,-21.5 -5.8,-23.77 -0.4,-1.75 -0.4,-2.89 -0.4,-5.17 0,-2.47 -3.3,-6.4 -3.5,-6.61 -1.1,-1.12 -2.7,-2.89 -5.9,-2.89 -8.2,0 -8.2,7.75 -8.2,9.5 0,3.31 0.7,7.86 5.4,20.16 1.2,3.2 1.7,4.54 1.7,6.61 0,4.34 -3.1,8.26 -8.1,8.26 -9.5,0 -13.4,-14.98 -13.4,-15.81 0,-0.41 0.4,-0.92 1.2,-0.92 0.9,0 1,0.4 1.4,1.86 2.6,9.09 6.6,12.81 10.5,12.81 1,0 2.7,-0.11 2.7,-3.42 0,-0.52 0,-2.69 -1.8,-7.22 -4.9,-12.92 -5.9,-17.16 -5.9,-21.08 0,-10.84 8.9,-12.81 14.2,-12.81 1.7,0 6.4,0 10.5,7.33 z"
           inkscape:connector-curvature="0"
           style="fill:#000000;stroke-width:0" /><path
           id="path954"
           d="m 1127.8,-173.91 h 0.2 0.3 l 0.4,0.01 h 0.3 l 0.4,0.01 0.3,0.01 0.4,0.01 0.5,0.02 0.4,0.02 0.4,0.02 0.5,0.03 0.5,0.03 0.4,0.04 0.5,0.04 1,0.09 1.1,0.12 1,0.14 1.1,0.17 1,0.2 1.1,0.22 0.5,0.13 0.5,0.13 0.5,0.14 0.5,0.15 0.5,0.16 0.4,0.17 c 7.9,3 8.6,8.99 8.6,10.85 0,4.54 -3.9,8.68 -10.7,8.68 v -2.06 c 4.5,0 7.6,-2.69 7.6,-6.62 0,-10.85 -16.5,-10.85 -20.9,-10.85 h -4.3 c 4.4,15.91 14.3,17.47 17.6,17.47 v 2.06 c -10.9,0 -26.5,-9.81 -26.5,-28.2 0,-10.84 6.2,-18.39 15.6,-18.39 14.1,0 23,10.95 23,12.3 0,0.61 -0.7,1.12 -1.1,1.12 -0.3,0 -0.4,-0.09 -1.3,-1.03 -6.6,-8.78 -16.5,-10.33 -20.4,-10.33 -5.9,0 -9,4.66 -9,12.3 0,1.44 0,4.03 1.6,10.64 z"
           inkscape:connector-curvature="0"
           style="fill:#000000;stroke-width:0" /><path
           id="path956"
           d="m 1196.4,-155.63 -0.3,-0.06 -0.3,-0.07 -0.3,-0.08 -0.3,-0.09 -0.2,-0.1 -0.3,-0.11 -0.2,-0.11 -0.2,-0.12 -0.3,-0.13 -0.2,-0.14 -0.2,-0.14 -0.2,-0.15 -0.2,-0.16 -0.1,-0.16 -0.2,-0.16 -0.2,-0.18 -0.1,-0.17 -0.1,-0.18 -0.2,-0.19 -0.1,-0.19 -0.1,-0.19 -0.1,-0.2 -0.1,-0.2 -0.1,-0.2 v -0.2 l -0.1,-0.21 -0.1,-0.21 v -0.21 -0.21 l -0.1,-0.21 v -0.21 -0.22 c 0,-2.48 2,-3.31 3.4,-3.31 2.9,0 5.3,2.49 5.3,5.58 0,3.31 -3.2,6.2 -8.4,6.2 -4.1,0 -8.9,-1.86 -13.2,-8.17 -0.7,5.49 -4.8,8.17 -9,8.17 -4,0 -6.1,-3.11 -7.3,-5.37 -1.8,-3.72 -3.3,-9.92 -3.3,-10.44 0,-0.41 0.4,-0.92 1.1,-0.92 0.8,0 1,0.09 1.6,2.47 1.5,6.2 3.5,12.2 7.6,12.2 2.5,0 3.2,-1.77 3.2,-4.77 0,-2.26 -1,-6.29 -1.7,-9.5 l -2.9,-11.15 c -0.5,-1.97 -1.6,-6.61 -2.1,-8.47 -0.7,-2.69 -1.9,-7.55 -1.9,-8.06 0,-1.44 1.2,-2.58 2.7,-2.58 1.2,0 3.1,0.72 3.7,2.78 0.4,0.83 4.2,16.44 4.8,18.81 0.5,2.27 1.1,4.44 1.7,6.72 0.4,1.44 0.8,3.1 1.1,4.44 0.3,0.92 3.1,5.98 5.7,8.26 1.2,1.15 3.9,3.52 8.1,3.52 1.7,0 3.3,-0.31 4.7,-1.25 z"
           inkscape:connector-curvature="0"
           style="fill:#000000;stroke-width:0" /><path
           id="path958"
           d="m 1225.3,-156.35 h 9.5 c 2,0 3,0 3,1.86 0,1.14 -0.6,1.14 -2.7,1.14 h -9.1 l 3.9,15.08 c 0.4,1.45 0.4,1.66 0.4,2.37 0,1.66 -1.4,2.58 -2.7,2.58 -0.8,0 -3.2,-0.29 -4,-3.61 l -4.1,-16.42 h -9.7 c -2,0 -3,0 -3,-1.97 0,-1.03 0.7,-1.03 2.7,-1.03 h 9.2 l -6.8,-27.28 c -0.8,-3.61 -1.1,-4.64 -1.1,-5.98 0,-4.86 3.4,-9.3 9.1,-9.3 10.5,0 16,15.08 16,15.8 0,0.62 -0.4,0.93 -1,0.93 -0.2,0 -0.6,0 -0.8,-0.4 -0.1,-0.11 -0.2,-0.22 -0.9,-1.86 -2.2,-5.17 -7,-12.41 -13,-12.41 -3,0 -3.3,2.58 -3.3,4.86 0,0.09 0,2.06 0.3,3.3 z"
           inkscape:connector-curvature="0"
           style="fill:#000000;stroke-width:0" /><polyline
           id="polyline960"
           points="783,-244 1240.8,-244 1240.8,-239.8 783,-239.8 "
           style="fill:#000000;fill-rule:nonzero;stroke-width:0" /><path
           id="path962"
           d="m 960.48,-322.62 h -1.86 c -1.03,-7.35 -1.86,-8.58 -2.27,-9.21 -0.51,-0.83 -7.95,-0.83 -9.4,-0.83 h -19.83 c 3.72,4.04 10.93,11.38 19.72,19.85 6.31,5.98 13.64,13.01 13.64,23.25 0,12.18 -9.71,19.2 -20.57,19.2 -11.36,0 -18.28,-10.02 -18.28,-19.31 0,-4.03 3,-4.55 4.24,-4.55 1.03,0 4.14,0.63 4.14,4.24 0,3.2 -2.69,4.14 -4.14,4.14 -0.61,0 -1.24,-0.11 -1.66,-0.32 1.97,8.78 7.95,13.13 14.27,13.13 8.98,0 14.87,-7.14 14.87,-16.53 0,-9 -5.26,-16.74 -11.15,-23.46 l -20.57,-23.25 v -2.37 h 36.36 z"
           inkscape:connector-curvature="0"
           style="fill:#000000;stroke-width:0" /><path
           id="path964"
           d="m 1008.2,-305.48 v 0.6 0.63 0.65 0.68 0.69 0.72 l -0.1,1.48 -0.1,1.55 -0.1,1.6 -0.1,1.64 -0.2,1.68 -0.2,1.7 -0.3,1.71 -0.4,1.72 -0.4,1.7 -0.3,0.85 -0.2,0.84 -0.3,0.84 -0.3,0.83 -0.3,0.81 -0.4,0.81 -0.4,0.8 -0.3,0.78 c -3.88,7.23 -9.97,9.81 -15.35,9.81 V -272 c 4.24,0 9.72,-2.8 11.65,-11.27 1.4,-5.89 1.5,-12.81 1.5,-21.07 0,-6.72 0,-14.99 -1.3,-21.08 -2.13,-11.25 -8.22,-13.22 -11.85,-13.22 v 0 c -6.61,0 -10.53,5.69 -11.98,13.53 -1.14,6.09 -1.14,14.99 -1.14,20.77 0,7.95 0,14.56 1.34,20.87 1.97,8.78 7.75,11.47 11.78,11.47 v 1.64 c -4.95,0 -11.26,-2.26 -15.18,-9.7 -4.13,-7.75 -4.55,-17.36 -4.55,-25.42 0,-5.88 0.11,-14.88 3.31,-22.72 4.44,-10.64 12.39,-12.1 16.42,-12.1 4.75,0 11.95,1.97 16.25,11.78 3.1,7.13 3.5,15.5 3.5,23.04 z"
           inkscape:connector-curvature="0"
           style="fill:#000000;stroke-width:0" /><path
           id="path966"
           d="m 1055.6,-305.48 v 0.6 0.63 0.65 0.68 0.69 0.72 l -0.1,1.48 -0.1,1.55 -0.1,1.6 -0.1,1.64 -0.2,1.68 -0.2,1.7 -0.3,1.71 -0.4,1.72 -0.4,1.7 -0.3,0.85 -0.2,0.84 -0.3,0.84 -0.3,0.83 -0.3,0.81 -0.4,0.81 -0.4,0.8 -0.3,0.78 c -3.9,7.23 -10,9.81 -15.4,9.81 V -272 c 4.3,0 9.8,-2.8 11.7,-11.27 1.4,-5.89 1.5,-12.81 1.5,-21.07 0,-6.72 0,-14.99 -1.3,-21.08 -2.1,-11.25 -8.2,-13.22 -11.9,-13.22 v 0 c -6.6,0 -10.5,5.69 -11.9,13.53 -1.2,6.09 -1.2,14.99 -1.2,20.77 0,7.95 0,14.56 1.4,20.87 1.9,8.78 7.7,11.47 11.7,11.47 v 1.64 c -4.9,0 -11.2,-2.26 -15.1,-9.7 -4.2,-7.75 -4.6,-17.36 -4.6,-25.42 0,-5.88 0.1,-14.88 3.3,-22.72 4.5,-10.64 12.4,-12.1 16.4,-12.1 4.8,0 12,1.97 16.3,11.78 3.1,7.13 3.5,15.5 3.5,23.04 z"
           inkscape:connector-curvature="0"
           style="fill:#000000;stroke-width:0" /><path
           id="path968"
           d="m 1103,-305.48 v 0.6 0.63 0.65 0.68 0.69 l -0.1,0.72 v 1.48 l -0.1,1.55 -0.1,1.6 -0.1,1.64 -0.2,1.68 -0.2,1.7 -0.3,1.71 -0.4,1.72 -0.4,1.7 -0.3,0.85 -0.2,0.84 -0.3,0.84 -0.3,0.83 -0.3,0.81 -0.4,0.81 -0.4,0.8 -0.3,0.78 c -3.9,7.23 -10,9.81 -15.4,9.81 V -272 c 4.3,0 9.8,-2.8 11.7,-11.27 1.4,-5.89 1.5,-12.81 1.5,-21.07 0,-6.72 0,-14.99 -1.3,-21.08 -2.1,-11.25 -8.2,-13.22 -11.9,-13.22 v 0 c -6.6,0 -10.5,5.69 -11.9,13.53 -1.2,6.09 -1.2,14.99 -1.2,20.77 0,7.95 0,14.56 1.4,20.87 1.9,8.78 7.7,11.47 11.7,11.47 v 1.64 c -4.9,0 -11.2,-2.26 -15.1,-9.7 -4.2,-7.75 -4.6,-17.36 -4.6,-25.42 0,-5.88 0.1,-14.88 3.3,-22.72 4.5,-10.64 12.4,-12.1 16.4,-12.1 4.8,0 12,1.97 16.3,11.78 3.1,7.13 3.5,15.5 3.5,23.04 z"
           inkscape:connector-curvature="0"
           style="fill:#000000;stroke-width:0" /></g>    </g>
  </g>
</svg>
