<?xml version="1.0" encoding="UTF-8" standalone="no"?>
<!-- Created with Inkscape (http://www.inkscape.org/) -->

<svg
   xmlns:dc="http://purl.org/dc/elements/1.1/"
   xmlns:cc="http://creativecommons.org/ns#"
   xmlns:rdf="http://www.w3.org/1999/02/22-rdf-syntax-ns#"
   xmlns:svg="http://www.w3.org/2000/svg"
   xmlns="http://www.w3.org/2000/svg"
   xmlns:sodipodi="http://sodipodi.sourceforge.net/DTD/sodipodi-0.dtd"
   xmlns:inkscape="http://www.inkscape.org/namespaces/inkscape"
   width="671.07819mm"
   height="250mm"
   viewBox="0 0 671.07819 250"
   version="1.1"
   id="svg8"
   inkscape:version="0.92.3 (2405546, 2018-03-11)"
   sodipodi:docname="spannungsteiler_verhaeltnis.svg">
  <sodipodi:namedview
     id="base"
     pagecolor="#ffffff"
     bordercolor="#666666"
     borderopacity="1.0"
     inkscape:pageopacity="0.0"
     inkscape:pageshadow="2"
     inkscape:zoom="0.12374369"
     inkscape:cx="-31.150853"
     inkscape:cy="368.89409"
     inkscape:document-units="mm"
     inkscape:current-layer="layer1"
     showgrid="false"
     inkscape:window-width="1280"
     inkscape:window-height="987"
     inkscape:window-x="0"
     inkscape:window-y="0"
     inkscape:window-maximized="1"
     fit-margin-top="0"
     fit-margin-left="40"
     fit-margin-right="100"
     fit-margin-bottom="0"
     inkscape:snap-bbox="true"
     inkscape:bbox-nodes="true"
     showguides="true"
     inkscape:guide-bbox="true" />
  <defs
     id="defs2" />
  <metadata
     id="metadata5">
    <rdf:RDF>
      <cc:Work
         rdf:about="">
        <dc:format>image/svg+xml</dc:format>
        <dc:type
           rdf:resource="http://purl.org/dc/dcmitype/StillImage" />
        <dc:title></dc:title>
      </cc:Work>
    </rdf:RDF>
  </metadata>
  <g
     id="layer1"
     inkscape:groupmode="layer"
     inkscape:label="Ebene 1"
     transform="translate(-63.824114,-231.92167)">
    <g
       id="g400"
       transform="translate(-89.177655,155.58356)">
      <g
         word-spacing="normal"
         letter-spacing="normal"
         font-size-adjust="none"
         font-stretch="normal"
         font-weight="normal"
         font-variant="normal"
         font-style="normal"
         stroke-miterlimit="10.433"
         xml:space="preserve"
         transform="matrix(0.30285714,0,0,-0.30285714,-53,222.75)"
         id="content"
         style="font-style:normal;font-variant:normal;font-weight:normal;font-stretch:normal;letter-spacing:normal;word-spacing:normal;text-anchor:start;fill:none;fill-opacity:1;fill-rule:evenodd;stroke:#000000;stroke-linecap:butt;stroke-linejoin:miter;stroke-miterlimit:10.43299961;stroke-dasharray:none;stroke-dashoffset:0;stroke-opacity:1"><path
           id="path327"
           d="m 830.77,252.37 h 9.5 c 1.96,0 3,0 3,1.86 0,1.14 -0.63,1.14 -2.69,1.14 h -9.1 l 3.83,15.08 c 0.41,1.45 0.41,1.66 0.41,2.37 0,1.66 -1.34,2.58 -2.69,2.58 -0.81,0 -3.2,-0.29 -4.01,-3.61 l -4.04,-16.42 h -9.71 c -2.07,0 -3,0 -3,-1.97 0,-1.03 0.73,-1.03 2.68,-1.03 h 9.21 l -6.83,-27.28 c -0.81,-3.61 -1.13,-4.64 -1.13,-5.99 0,-4.85 3.41,-9.29 9.19,-9.29 10.44,0 16.02,15.08 16.02,15.79 0,0.63 -0.41,0.94 -1.03,0.94 -0.21,0 -0.63,0 -0.83,-0.4 -0.11,-0.11 -0.21,-0.22 -0.94,-1.86 -2.16,-5.18 -6.92,-12.41 -12.91,-12.41 -3.09,0 -3.31,2.58 -3.31,4.86 0,0.09 0,2.06 0.31,3.3 z"
           inkscape:connector-curvature="0"
           style="fill:#000000;stroke-width:0" /><path
           id="path329"
           d="m 941.58,244 h 0.29 0.29 l 0.29,0.01 h 0.14 l 0.13,0.01 0.14,0.02 0.13,0.01 0.13,0.02 0.13,0.02 0.12,0.02 0.12,0.03 0.12,0.04 0.11,0.04 0.11,0.04 0.1,0.05 0.09,0.06 0.1,0.06 0.08,0.07 0.08,0.07 0.07,0.08 0.07,0.09 0.03,0.05 0.03,0.05 0.03,0.05 0.02,0.05 0.03,0.06 0.02,0.06 0.02,0.06 0.02,0.06 0.01,0.06 0.02,0.07 0.01,0.07 0.01,0.07 0.01,0.08 v 0.07 l 0.01,0.08 v 0.08 c 0,1.86 -1.77,1.86 -3.52,1.86 h -57.75 c -1.75,0 -3.51,0 -3.51,-1.86 0,-1.76 1.54,-1.76 3.11,-1.76 z"
           inkscape:connector-curvature="0"
           style="fill:#000000;stroke-width:0" /><path
           id="path331"
           d="m 941.17,225.6 0.33,0.01 h 0.33 l 0.32,0.01 h 0.15 l 0.16,0.01 0.15,0.02 0.15,0.01 0.15,0.02 0.14,0.02 0.14,0.03 0.14,0.03 0.13,0.04 0.13,0.04 0.12,0.05 0.11,0.05 0.11,0.06 0.11,0.06 0.09,0.07 0.09,0.08 0.09,0.09 0.07,0.1 0.07,0.1 0.03,0.05 0.03,0.06 0.03,0.06 0.03,0.06 0.02,0.07 0.02,0.06 0.02,0.07 0.01,0.07 0.02,0.07 0.01,0.08 0.01,0.08 v 0.08 l 0.01,0.08 v 0.09 c 0,1.75 -1.55,1.75 -3.11,1.75 h -58.56 c -1.57,0 -3.11,0 -3.11,-1.75 0,-1.88 1.76,-1.88 3.51,-1.88 z"
           inkscape:connector-curvature="0"
           style="fill:#000000;stroke-width:0" /><path
           id="path333"
           d="m 1154.1,315.93 1.2,0.27 1.2,0.31 1.1,0.34 1.2,0.37 1.1,0.4 1.1,0.42 1,0.46 1.1,0.47 1,0.51 1,0.52 0.9,0.55 0.9,0.57 0.9,0.6 0.9,0.61 0.8,0.63 0.8,0.66 0.8,0.66 0.7,0.69 0.6,0.7 0.7,0.72 0.6,0.73 0.5,0.75 0.5,0.76 0.5,0.77 0.4,0.78 0.3,0.79 0.3,0.8 0.3,0.8 0.2,0.82 0.1,0.82 0.1,0.82 v 0.83 c 0,8.07 -8.1,15.5 -22.5,15.5 h -28 c -2.1,0 -3,0 -3,-1.97 0,-1.03 0.7,-1.03 2.7,-1.03 6.2,0 6.2,-0.82 6.2,-1.95 0,-0.22 0,-0.83 -0.4,-2.39 l -14,-55.58 c -0.9,-3.61 -1.1,-4.64 -8.2,-4.64 -2.4,0 -3.1,0 -3.1,-1.97 0,-1.03 1.1,-1.03 1.4,-1.03 1.9,0 4.1,0.2 6,0.2 h 12.2 c 1.9,0 4,-0.2 5.9,-0.2 0.8,0 2,0 2,1.97 0,1.03 -1,1.03 -2.5,1.03 -6.3,0 -6.3,0.83 -6.3,1.86 0,0.09 0,0.83 0.2,1.66 l 6.9,27.78 h 12.4 l -0.2,2.06 h -11.7 l 6.8,27.17 c 1,3.83 1.4,4.03 5.4,4.03 h 7.5 c 8.8,0 15.5,-2.68 15.5,-10.73 0,-5.28 -2.7,-20.47 -23.5,-20.47 l 0.2,-2.06 c 9.8,0 11.7,-6.21 11.7,-9.61 0,-1.55 -1.1,-5.58 -1.8,-8.27 -1.1,-4.75 -1.4,-5.89 -1.4,-7.84 0,-7.34 6,-10.75 12.9,-10.75 8.4,0 12,10.23 12,11.67 0,0.74 -0.5,1.03 -1.2,1.03 -0.8,0 -1,-0.61 -1.2,-1.44 -2.5,-7.34 -6.7,-9.2 -9.3,-9.2 -2.6,0 -4.2,1.14 -4.2,5.8 0,2.47 1.2,11.87 1.3,12.39 0.5,3.83 0.5,4.23 0.5,5.06 0,7.55 -6.1,10.75 -10,11.99 z"
           inkscape:connector-curvature="0"
           style="fill:#000000;stroke-width:0" /><path
           id="path335"
           d="m 1210.3,277.37 h -1.6 c -0.2,-1.22 -0.8,-5.17 -1.5,-6.32 -0.5,-0.64 -4.6,-0.64 -6.7,-0.64 h -13.3 c 2,1.64 6.3,6.24 8.2,7.96 10.9,10.03 14.9,13.76 14.9,20.86 0,8.23 -6.5,13.76 -14.8,13.76 -8.3,0 -13.2,-7.11 -13.2,-13.26 0,-3.66 3.1,-3.66 3.3,-3.66 1.6,0 3.4,1.08 3.4,3.38 0,2 -1.3,3.35 -3.4,3.35 -0.6,0 -0.7,0 -1,-0.06 1.4,4.86 5.3,8.16 9.9,8.16 6.1,0 9.9,-5.08 9.9,-11.67 0,-6.1 -3.6,-11.41 -7.6,-15.99 l -14.5,-16.2 v -1.72 h 26.1 z"
           inkscape:connector-curvature="0"
           style="fill:#000000;stroke-width:0" /><polyline
           id="polyline337"
           points="984,235 1333.6,235 1333.6,239.2 984,239.2 "
           style="fill:#000000;fill-rule:nonzero;stroke-width:0" /><path
           id="path339"
           d="m 1036.6,175.16 1.2,0.28 1.2,0.31 1.1,0.34 1.2,0.37 1.1,0.4 1.1,0.42 1,0.45 1.1,0.48 1,0.5 1,0.53 0.9,0.55 1,0.57 0.9,0.59 0.8,0.62 0.8,0.63 0.8,0.65 0.8,0.67 0.7,0.69 0.7,0.7 0.6,0.72 0.6,0.73 0.5,0.75 0.5,0.76 0.5,0.77 0.4,0.78 0.3,0.79 0.3,0.79 0.3,0.81 0.2,0.82 0.1,0.82 0.1,0.82 v 0.83 c 0,8.06 -8.1,15.5 -22.5,15.5 h -28 c -2,0 -3,0 -3,-1.97 0,-1.03 0.8,-1.03 2.7,-1.03 6.2,0 6.2,-0.83 6.2,-1.95 0,-0.22 0,-0.83 -0.4,-2.39 l -13.9,-55.58 c -0.97,-3.61 -1.18,-4.64 -8.31,-4.64 -2.37,0 -3.09,0 -3.09,-1.97 0,-1.03 1.12,-1.03 1.43,-1.03 1.87,0 4.04,0.2 6,0.2 h 12.17 c 1.9,0 4.1,-0.2 5.9,-0.2 0.8,0 2,0 2,1.97 0,1.03 -1,1.03 -2.5,1.03 -6.3,0 -6.3,0.83 -6.3,1.86 0,0.09 0,0.83 0.2,1.65 l 6.9,27.79 h 12.4 l -0.2,2.06 h -11.7 l 6.8,27.17 c 1,3.83 1.4,4.03 5.4,4.03 h 7.5 c 8.9,0 15.5,-2.69 15.5,-10.73 0,-5.28 -2.7,-20.47 -23.5,-20.47 l 0.2,-2.06 c 9.8,0 11.7,-6.21 11.7,-9.61 0,-1.55 -1,-5.58 -1.8,-8.27 -1.1,-4.75 -1.4,-5.89 -1.4,-7.84 0,-7.35 6,-10.75 12.9,-10.75 8.4,0 12,10.23 12,11.67 0,0.73 -0.5,1.03 -1.1,1.03 -0.9,0 -1.1,-0.61 -1.3,-1.44 -2.5,-7.34 -6.7,-9.2 -9.3,-9.2 -2.6,0 -4.2,1.14 -4.2,5.8 0,2.47 1.2,11.87 1.3,12.39 0.5,3.83 0.5,4.23 0.5,5.06 0,7.55 -6.1,10.75 -10,11.98 z"
           inkscape:connector-curvature="0"
           style="fill:#000000;stroke-width:0" /><path
           id="path341"
           d="m 1081.9,170.5 v 0.07 0.08 0.07 0.07 0.07 0.06 0.06 0.07 0.06 0.05 0.06 0.05 0.05 0.05 0.05 0.05 0.04 0.04 0.04 0.04 0.04 0.04 0.03 l -0.1,0.03 v 0.06 0.06 0.05 l -0.1,0.04 v 0.04 0.04 l -0.1,0.03 v 0.03 l -0.1,0.02 v 0.02 l -0.1,0.02 -0.1,0.01 v 0 0.01 h -0.1 v 0.01 h -0.1 v 0.01 0 h -0.1 v 0 l -0.1,0.01 h -0.1 v 0 h -0.1 v 0 h -0.1 -0.1 v 0 c -1.7,-1.94 -5.3,-4.59 -12.7,-4.59 v -2.08 c 1.6,0 5.2,0 9.2,1.86 v -37.35 c 0,-2.57 -0.2,-3.43 -6.6,-3.43 h -2.2 v -2.08 c 2,0.14 8.9,0.14 11.3,0.14 2.4,0 9.2,0 11.2,-0.14 v 2.08 h -2.3 c -6.3,0 -6.5,0.86 -6.5,3.43 z"
           inkscape:connector-curvature="0"
           style="fill:#000000;stroke-width:0" /><path
           id="path343"
           d="m 1160.7,164.01 h 27.4 c 1.4,0 3.2,0 3.2,1.75 0,1.86 -1.7,1.86 -3.2,1.86 h -27.4 v 27.39 c 0,1.44 0,3.19 -1.8,3.19 -1.8,0 -1.8,-1.65 -1.8,-3.19 v -27.39 h -27.4 c -1.4,0 -3.2,0 -3.2,-1.75 0,-1.86 1.7,-1.86 3.2,-1.86 h 27.4 v -27.38 c 0,-1.45 0,-3.2 1.8,-3.2 1.8,0 1.8,1.66 1.8,3.2 z"
           inkscape:connector-curvature="0"
           style="fill:#000000;stroke-width:0" /><path
           id="path345"
           d="m 1271.6,175.16 1.2,0.28 1.1,0.31 1.2,0.34 1.1,0.37 1.1,0.4 1.1,0.42 1.1,0.45 1,0.48 1.1,0.5 0.9,0.53 1,0.55 0.9,0.57 0.9,0.59 0.9,0.62 0.8,0.63 0.8,0.65 0.7,0.67 0.8,0.69 0.6,0.7 0.7,0.72 0.5,0.73 0.6,0.75 0.5,0.76 0.4,0.77 0.4,0.78 0.4,0.79 0.3,0.79 0.2,0.81 0.2,0.82 0.2,0.82 0.1,0.82 v 0.83 c 0,8.06 -8.2,15.5 -22.5,15.5 h -28 c -2.1,0 -3,0 -3,-1.97 0,-1.03 0.7,-1.03 2.7,-1.03 6.2,0 6.2,-0.83 6.2,-1.95 0,-0.22 0,-0.83 -0.4,-2.39 l -14,-55.58 c -0.9,-3.61 -1.1,-4.64 -8.2,-4.64 -2.4,0 -3.1,0 -3.1,-1.97 0,-1.03 1.1,-1.03 1.4,-1.03 1.9,0 4,0.2 6,0.2 h 12.2 c 1.8,0 4,-0.2 5.9,-0.2 0.8,0 1.9,0 1.9,1.97 0,1.03 -0.9,1.03 -2.4,1.03 -6.3,0 -6.3,0.83 -6.3,1.86 0,0.09 0,0.83 0.2,1.65 l 6.9,27.79 h 12.4 l -0.2,2.06 h -11.7 l 6.8,27.17 c 1,3.83 1.4,4.03 5.4,4.03 h 7.4 c 8.9,0 15.5,-2.69 15.5,-10.73 0,-5.28 -2.7,-20.47 -23.4,-20.47 l 0.2,-2.06 c 9.8,0 11.6,-6.21 11.6,-9.61 0,-1.55 -1,-5.58 -1.7,-8.27 -1.1,-4.75 -1.4,-5.89 -1.4,-7.84 0,-7.35 6,-10.75 12.9,-10.75 8.3,0 12,10.23 12,11.67 0,0.73 -0.6,1.03 -1.2,1.03 -0.8,0 -1,-0.61 -1.2,-1.44 -2.5,-7.34 -6.7,-9.2 -9.3,-9.2 -2.6,0 -4.2,1.14 -4.2,5.8 0,2.47 1.2,11.87 1.3,12.39 0.5,3.83 0.5,4.23 0.5,5.06 0,7.55 -6.1,10.75 -10,11.98 z"
           inkscape:connector-curvature="0"
           style="fill:#000000;stroke-width:0" /><path
           id="path347"
           d="m 1327.8,136.6 h -1.6 c -0.2,-1.21 -0.8,-5.17 -1.5,-6.31 -0.5,-0.64 -4.6,-0.64 -6.7,-0.64 h -13.3 c 1.9,1.64 6.3,6.24 8.2,7.95 10.9,10.04 14.9,13.77 14.9,20.86 0,8.24 -6.6,13.77 -14.9,13.77 -8.3,0 -13.1,-7.11 -13.1,-13.27 0,-3.65 3.1,-3.65 3.3,-3.65 1.5,0 3.4,1.08 3.4,3.37 0,2 -1.4,3.36 -3.4,3.36 -0.6,0 -0.8,0 -1,-0.06 1.4,4.86 5.2,8.16 9.9,8.16 6.1,0 9.8,-5.08 9.8,-11.68 0,-6.09 -3.5,-11.4 -7.6,-15.98 l -14.4,-16.2 v -1.72 h 26.1 z"
           inkscape:connector-curvature="0"
           style="fill:#000000;stroke-width:0" /><path
           id="path349"
           d="m 941.58,-2.7227 0.29,5e-4 0.29,0.003 0.29,0.0082 0.14,0.0068 0.14,0.0091 0.13,0.0117 0.14,0.0146 0.13,0.0179 0.12,0.0213 0.13,0.0253 0.12,0.0295 0.11,0.034 0.11,0.0388 0.11,0.0441 0.1,0.0495 0.1,0.0553 0.09,0.0615 0.09,0.0679 0.07,0.0748 0.08,0.0818 0.07,0.0893 0.03,0.0475 0.03,0.0496 0.02,0.0515 0.03,0.0536 0.02,0.0557 0.02,0.0578 0.02,0.06 0.02,0.0623 0.02,0.0645 0.01,0.0668 0.01,0.0691 0.01,0.0716 0.01,0.0739 0.01,0.0765 v 0.0789 0.08147 c 0,1.85937 -1.76,1.85937 -3.51,1.85937 h -57.75 c -1.75,0 -3.52,0 -3.52,-1.85937 0,-1.76567 1.55,-1.76567 3.11,-1.76567 z"
           inkscape:connector-curvature="0"
           style="fill:#000000;stroke-width:0" /><path
           id="path351"
           d="m 941.18,-21.113 h 0.32 l 0.33,0.003 0.32,0.009 0.16,0.007 0.15,0.01 0.16,0.012 0.15,0.016 0.14,0.019 0.15,0.023 0.14,0.026 0.13,0.032 0.13,0.036 0.13,0.041 0.12,0.047 0.12,0.052 0.11,0.059 0.1,0.065 0.1,0.073 0.09,0.079 0.08,0.087 0.08,0.095 0.07,0.103 0.03,0.054 0.03,0.057 0.02,0.06 0.03,0.061 0.02,0.064 0.02,0.066 0.02,0.068 0.02,0.071 0.01,0.074 0.01,0.076 0.01,0.078 0.01,0.081 v 0.084 0.087 c 0,1.75 -1.54,1.75 -3.11,1.75 h -58.56 c -1.56,0 -3.11,0 -3.11,-1.75 0,-1.875 1.77,-1.875 3.52,-1.875 z"
           inkscape:connector-curvature="0"
           style="fill:#000000;stroke-width:0" /><path
           id="path353"
           d="m 1195.8,69.086 0.9,-0.023 0.8,-0.069 0.8,-0.112 0.7,-0.156 0.8,-0.197 0.7,-0.238 0.6,-0.277 0.7,-0.315 0.6,-0.351 0.6,-0.388 0.5,-0.421 0.6,-0.455 0.5,-0.486 0.4,-0.518 0.5,-0.546 0.4,-0.575 0.4,-0.602 0.4,-0.627 0.3,-0.652 0.3,-0.676 0.3,-0.697 0.2,-0.718 0.3,-0.738 0.2,-0.756 0.2,-0.773 0.1,-0.79 0.2,-0.803 0.1,-0.818 0.1,-0.829 v -0.841 -0.85 l 0.1,-0.859 c 0,-12.391 -6.7,-17.141 -12.7,-17.141 -5.4,0 -14.3,2.688 -17.1,10.641 0.5,-0.203 1,-0.203 1.6,-0.203 2.4,0 4.3,1.64 4.3,4.328 0,3 -2.3,4.343 -4.3,4.343 -1.8,0 -4.5,-0.828 -4.5,-4.64 0,-9.516 9.3,-16.953 20.3,-16.953 11.4,0 20.2,8.984 20.2,19.531 0,10.016 -8.3,17.25 -18.1,18.391 7.9,1.656 15.4,8.671 15.4,18.078 0,8.062 -8.1,13.935 -17.4,13.935 -9.4,0 -17.7,-5.779 -17.7,-14.045 0,-3.609 2.7,-4.234 4,-4.234 2.2,0 4.1,1.344 4.1,4.031 0,2.688 -1.9,4.031 -4.1,4.031 -0.4,0 -0.9,0 -1.3,-0.203 3,6.813 11.1,8.047 14.8,8.047 3.6,0 10.4,-1.75 10.4,-11.672 0,-2.89 -0.4,-8.047 -3.9,-12.593 -3.1,-4.032 -6.7,-4.25 -10,-4.547 -0.6,0 -2.9,-0.219 -3.4,-0.219 -0.7,-0.094 -1.1,-0.203 -1.1,-0.922 0,-0.719 0.1,-0.828 2.2,-0.828 z"
           inkscape:connector-curvature="0"
           style="fill:#000000;stroke-width:0" /><path
           id="path355"
           d="m 1240.5,33.555 v 0.556 0.547 0.537 l -0.1,0.526 v 0.515 l -0.1,0.503 v 0.491 l -0.1,0.478 -0.1,0.465 -0.1,0.451 -0.2,0.436 -0.1,0.422 -0.1,0.406 -0.2,0.391 -0.2,0.374 -0.2,0.357 -0.2,0.339 -0.2,0.322 -0.2,0.302 -0.2,0.284 -0.3,0.264 -0.2,0.244 -0.3,0.223 -0.3,0.202 -0.3,0.18 -0.3,0.158 -0.3,0.135 -0.4,0.111 -0.3,0.088 -0.4,0.063 -0.4,0.039 -0.4,0.013 c -3.3,0 -4.9,-2.688 -4.9,-4.954 0,-2.265 1.5,-5.062 5,-5.062 1.4,0 2.5,0.406 3.4,1.344 0.3,0.203 0.4,0.203 0.5,0.203 0.2,0 0.2,-1.438 0.2,-1.953 0,-3.422 -0.7,-10.125 -6.6,-16.844 -1.2,-1.25 -1.2,-1.453 -1.2,-1.656 0,-0.516 0.5,-1.032 1.1,-1.032 0.8,0 8.7,7.641 8.7,19.532 z"
           inkscape:connector-curvature="0"
           style="fill:#000000;stroke-width:0" /><path
           id="path357"
           d="m 1288.5,69.086 0.8,-0.023 0.8,-0.069 0.8,-0.112 0.8,-0.156 0.7,-0.197 0.7,-0.238 0.7,-0.277 0.6,-0.315 0.6,-0.351 0.6,-0.388 0.6,-0.421 0.5,-0.455 0.5,-0.486 0.5,-0.518 0.4,-0.546 0.4,-0.575 0.4,-0.602 0.4,-0.627 0.3,-0.652 0.3,-0.676 0.3,-0.697 0.3,-0.718 0.2,-0.738 0.2,-0.756 0.2,-0.773 0.2,-0.79 0.1,-0.803 0.1,-0.818 0.1,-0.829 0.1,-0.841 v -0.85 -0.859 c 0,-12.391 -6.6,-17.141 -12.6,-17.141 -5.5,0 -14.4,2.688 -17.2,10.641 0.5,-0.203 1.1,-0.203 1.6,-0.203 2.5,0 4.3,1.64 4.3,4.328 0,3 -2.2,4.343 -4.3,4.343 -1.8,0 -4.5,-0.828 -4.5,-4.64 0,-9.516 9.3,-16.953 20.3,-16.953 11.5,0 20.2,8.984 20.2,19.531 0,10.016 -8.2,17.25 -18,18.391 7.8,1.656 15.4,8.671 15.4,18.078 0,8.062 -8.2,13.935 -17.5,13.935 -9.4,0 -17.7,-5.779 -17.7,-14.045 0,-3.609 2.7,-4.234 4.1,-4.234 2.1,0 4,1.344 4,4.031 0,2.688 -1.9,4.031 -4,4.031 -0.4,0 -1,0 -1.4,-0.203 3,6.813 11.2,8.047 14.8,8.047 3.6,0 10.4,-1.75 10.4,-11.672 0,-2.89 -0.4,-8.047 -3.9,-12.593 -3.1,-4.032 -6.6,-4.25 -10,-4.547 -0.5,0 -2.9,-0.219 -3.3,-0.219 -0.7,-0.094 -1.2,-0.203 -1.2,-0.922 0,-0.719 0.1,-0.828 2.2,-0.828 z"
           inkscape:connector-curvature="0"
           style="fill:#000000;stroke-width:0" /><path
           id="path359"
           d="m 1364.7,75.695 v 0.031 0.034 0.036 l -0.1,0.039 v 0.041 0.043 0.045 0.046 l -0.1,0.048 v 0.05 0.05 0.052 l -0.1,0.105 v 0.107 0.107 l -0.1,0.105 v 0.051 0.051 0.049 l -0.1,0.048 v 0.047 0.045 0.043 0.041 0.039 0.036 0.034 0.03 c 0,0.094 0.1,0.204 1.8,1.547 l 10.1,7.844 c 13.8,10.75 18.3,14.361 25.5,14.981 0.7,0.11 1.7,0.11 1.7,1.86 0,0.63 -0.3,1.14 -1.1,1.14 -1.1,0 -2.4,-0.2 -3.5,-0.2 h -3.9 c -3.2,0 -6.7,0.2 -9.8,0.2 -0.7,0 -1.9,0 -1.9,-1.86 0,-1.03 0.7,-1.14 1.3,-1.14 1.2,-0.09 2.5,-0.51 2.5,-1.95 0,-2.078 -3.1,-4.547 -3.9,-5.172 l -40.5,-31.515 8.6,34.094 c 0.9,3.513 1.1,4.543 8.4,4.543 2,0 2.9,0 2.9,1.97 0,1.03 -1,1.03 -1.5,1.03 -1.9,0 -4.1,-0.2 -6,-0.2 h -12.2 c -1.9,0 -4.1,0.2 -6,0.2 -0.8,0 -2,0 -2,-1.96 0,-1.04 1,-1.04 2.5,-1.04 6.3,0 6.3,-0.83 6.3,-1.95 0,-0.218 0,-0.828 -0.4,-2.39 l -14,-55.578 c -0.9,-3.61 -1.1,-4.641 -8.3,-4.641 -2,0 -3,0 -3,-1.859 0,-1.141 0.9,-1.141 1.5,-1.141 2,0 4.1,0.203 6,0.203 h 12.1 c 2,0 4.2,-0.203 6.1,-0.203 0.8,0 2,0 2,1.969 0,1.031 -0.9,1.031 -2.5,1.031 -6.3,0 -6.3,0.828 -6.3,1.859 0,0.719 0.6,3.297 1,4.953 l 4.1,16.016 15.7,12.297 c 3,-6.609 8.4,-19.844 12.7,-29.969 0.3,-0.609 0.5,-1.234 0.5,-1.953 0,-3.109 -4.1,-3.203 -5.1,-3.203 -0.9,0 -1.9,0 -1.9,-1.969 0,-1.031 1.1,-1.031 1.4,-1.031 3.6,0 7.4,0.203 11.1,0.203 h 4.9 c 1.6,0 3.3,-0.203 4.9,-0.203 0.6,0 1.7,0 1.7,1.969 0,1.031 -0.9,1.031 -1.9,1.031 -3.9,0.094 -5.2,0.922 -6.7,4.641 z"
           inkscape:connector-curvature="0"
           style="fill:#000000;stroke-width:0" /><path
           id="path361"
           d="m 1471.7,49.039 h -1.9 c -0.9,-4.75 -1.2,-5.984 -1.7,-7.641 -0.5,-1.546 -0.8,-2.375 -6.8,-2.375 h -8.4 c 1.1,5.985 3.6,10.438 8,17.36 5.3,8.781 9.8,15.906 9.8,24.484 0,13.938 -13.3,25.313 -29.7,25.313 -16.8,0 -29.7,-11.469 -29.7,-25.313 0,-8.578 4.5,-15.906 9.6,-24.078 4.5,-7.328 7,-11.781 8.1,-17.766 h -8.3 c -5.9,0 -6.2,0.829 -6.8,2.266 -0.6,1.656 -0.8,3 -1.8,7.75 h -1.9 l 3,-15.078 h 15.6 c 2.2,0 2.3,0.109 2.3,1.656 0,7.328 -3.8,16.938 -5.6,21.375 -3.3,8.063 -6.4,15.922 -6.4,23.969 0,15.406 11.1,23.559 21.8,23.559 11.3,0 21.9,-8.465 21.9,-23.559 0,-7.953 -2.8,-15.078 -6.6,-24.484 -1.6,-4.235 -5.4,-13.625 -5.4,-20.86 0,-1.656 0.1,-1.656 2.3,-1.656 h 15.6 z"
           inkscape:connector-curvature="0"
           style="fill:#000000;stroke-width:0" /><polyline
           id="polyline363"
           points="984,-12 1664,-12 1664,-7.8008 984,-7.8008 "
           style="fill:#000000;fill-rule:nonzero;stroke-width:0" /><path
           id="path365"
           d="m 1011.7,-40.785 v 0.1 0.097 0.095 0.091 0.089 0.085 0.083 0.081 0.077 0.075 0.073 0.069 0.068 0.065 0.062 0.06 0.058 0.055 0.054 0.051 l -0.1,0.049 v 0.047 0.044 0.043 0.041 0.039 0.037 0.035 l -0.1,0.066 v 0.058 l -0.1,0.052 v 0.046 0.041 l -0.1,0.035 -0.1,0.031 v 0.025 l -0.1,0.022 -0.1,0.018 -0.1,0.014 v 0.012 l -0.1,0.008 -0.1,0.006 -0.2,0.004 -0.1,0.003 -0.1,10e-4 h -0.1 c -4.1,-4.843 -10.2,-6.39 -15.95,-6.609 -0.29,0 -0.82,0 -0.92,-0.203 -0.11,-0.203 -0.11,-0.406 -0.11,-2.578 3.21,0 8.58,0.609 12.68,3.094 v -54.438 c 0,-3.626 -0.2,-4.856 -9.05,-4.856 h -3.11 v -2.69 c 4.97,0.11 10.16,0.2 15.06,0.2 5,0 10.2,-0.09 15.1,-0.2 v 2.69 h -3.1 c -8.9,0 -9.1,1.14 -9.1,4.856 z"
           inkscape:connector-curvature="0"
           style="fill:#000000;stroke-width:0" /><path
           id="path367"
           d="m 1075,-73.645 v 0.605 0.629 0.653 0.675 0.695 0.715 l -0.1,1.484 v 1.548 l -0.1,1.6 -0.2,1.644 -0.2,1.676 -0.2,1.7 -0.3,1.712 -0.4,1.715 -0.4,1.708 -0.2,0.847 -0.3,0.843 -0.3,0.835 -0.3,0.827 -0.3,0.818 -0.3,0.807 -0.4,0.795 -0.4,0.782 c -3.8,7.234 -9.9,9.812 -15.3,9.812 v -1.64 c 4.2,0 9.7,-2.797 11.7,-11.266 1.3,-5.89 1.4,-12.812 1.4,-21.078 0,-6.719 0,-14.984 -1.2,-21.078 -2.2,-11.248 -8.3,-13.218 -11.9,-13.218 v 0 c -6.6,0 -10.5,5.69 -12,13.53 -1.1,6.094 -1.1,14.985 -1.1,20.766 0,7.953 0,14.563 1.3,20.875 2,8.781 7.8,11.469 11.8,11.469 v 1.64 c -5,0 -11.3,-2.265 -15.2,-9.703 -4.1,-7.75 -4.5,-17.359 -4.5,-25.422 0,-5.875 0.1,-14.875 3.3,-22.718 4.4,-10.637 12.4,-12.097 16.4,-12.097 4.7,0 12,1.97 16.2,11.784 3.1,7.125 3.5,15.5 3.5,23.031 z"
           inkscape:connector-curvature="0"
           style="fill:#000000;stroke-width:0" /><path
           id="path369"
           d="m 1130.7,-65.066 v 0.03 0.034 0.036 l -0.1,0.039 v 0.041 0.043 0.045 0.047 l -0.1,0.048 v 0.049 0.051 0.051 l -0.1,0.105 v 0.107 0.107 l -0.1,0.105 v 0.052 0.05 0.05 l -0.1,0.048 v 0.046 0.045 0.043 0.041 0.039 0.036 0.034 0.031 c 0,0.093 0.1,0.203 1.8,1.547 l 10.1,7.843 c 13.8,10.75 18.3,14.36 25.5,14.985 0.7,0.109 1.7,0.109 1.7,1.859 0,0.625 -0.3,1.141 -1.1,1.141 -1.1,0 -2.4,-0.203 -3.5,-0.203 h -3.9 c -3.2,0 -6.7,0.203 -9.8,0.203 -0.7,0 -1.9,0 -1.9,-1.86 0,-1.031 0.7,-1.14 1.3,-1.14 1.2,-0.094 2.5,-0.516 2.5,-1.953 0,-2.079 -3.1,-4.547 -3.9,-5.172 l -40.5,-31.516 8.6,34.094 c 0.9,3.515 1.1,4.547 8.4,4.547 2,0 2.9,0 2.9,1.968 0,1.032 -1,1.032 -1.5,1.032 -1.9,0 -4.1,-0.203 -6,-0.203 h -12.2 c -1.9,0 -4.1,0.203 -6,0.203 -0.8,0 -2,0 -2,-1.969 0,-1.031 1,-1.031 2.5,-1.031 6.3,0 6.3,-0.828 6.3,-1.953 0,-0.219 0,-0.829 -0.4,-2.391 l -14,-55.578 c -0.9,-3.61 -1.1,-4.64 -8.3,-4.64 -2,0 -3,0 -3,-1.86 0,-1.14 0.9,-1.14 1.5,-1.14 2,0 4.1,0.2 6,0.2 h 12.1 c 2,0 4.2,-0.2 6.1,-0.2 0.8,0 2,0 2,1.97 0,1.03 -0.9,1.03 -2.5,1.03 -6.3,0 -6.3,0.83 -6.3,1.86 0,0.72 0.6,3.295 1,4.952 l 4.1,16.015 15.7,12.297 c 3,-6.609 8.4,-19.844 12.7,-29.969 0.3,-0.609 0.5,-1.234 0.5,-1.955 0,-3.11 -4.1,-3.2 -5.1,-3.2 -0.9,0 -1.9,0 -1.9,-1.97 0,-1.03 1.1,-1.03 1.4,-1.03 3.6,0 7.4,0.2 11.1,0.2 h 4.9 c 1.6,0 3.3,-0.2 4.9,-0.2 0.6,0 1.7,0 1.7,1.97 0,1.03 -0.9,1.03 -1.9,1.03 -3.9,0.09 -5.2,0.92 -6.7,4.64 z"
           inkscape:connector-curvature="0"
           style="fill:#000000;stroke-width:0" /><path
           id="path371"
           d="m 1237.7,-91.723 h -1.9 c -0.9,-4.75 -1.2,-5.984 -1.7,-7.64 -0.5,-1.547 -0.8,-2.377 -6.8,-2.377 h -8.4 c 1.1,5.986 3.6,10.439 8,17.361 5.3,8.781 9.8,15.906 9.8,24.484 0,13.938 -13.3,25.313 -29.7,25.313 -16.8,0 -29.7,-11.469 -29.7,-25.313 0,-8.578 4.5,-15.906 9.6,-24.078 4.5,-7.328 7,-11.781 8.1,-17.767 h -8.3 c -5.9,0 -6.2,0.83 -6.8,2.267 -0.6,1.657 -0.8,3 -1.8,7.75 h -1.9 l 3,-15.077 h 15.6 c 2.2,0 2.3,0.11 2.3,1.66 0,7.324 -3.8,16.933 -5.6,21.37 -3.3,8.063 -6.4,15.922 -6.4,23.969 0,15.406 11.1,23.563 21.8,23.563 11.3,0 21.9,-8.469 21.9,-23.563 0,-7.953 -2.8,-15.078 -6.6,-24.484 -1.6,-4.235 -5.4,-13.625 -5.4,-20.855 0,-1.66 0.1,-1.66 2.3,-1.66 h 15.6 z"
           inkscape:connector-curvature="0"
           style="fill:#000000;stroke-width:0" /><path
           id="path373"
           d="m 1303.4,-82.832 h 27.4 c 1.4,0 3.2,0 3.2,1.75 0,1.859 -1.7,1.859 -3.2,1.859 h -27.4 v 27.391 c 0,1.437 0,3.187 -1.8,3.187 -1.8,0 -1.8,-1.64 -1.8,-3.187 v -27.391 h -27.4 c -1.5,0 -3.2,0 -3.2,-1.75 0,-1.859 1.6,-1.859 3.2,-1.859 h 27.4 v -27.378 c 0,-1.45 0,-3.2 1.7,-3.2 1.9,0 1.9,1.66 1.9,3.2 z"
           inkscape:connector-curvature="0"
           style="fill:#000000;stroke-width:0" /><path
           id="path375"
           d="m 1384.6,-71.676 0.8,-0.023 0.8,-0.068 0.8,-0.113 0.8,-0.156 0.7,-0.197 0.7,-0.237 0.7,-0.277 0.6,-0.315 0.6,-0.352 0.6,-0.387 0.6,-0.422 0.5,-0.455 0.5,-0.486 0.5,-0.517 0.4,-0.547 0.5,-0.575 0.3,-0.602 0.4,-0.627 0.3,-0.652 0.4,-0.675 0.2,-0.698 0.3,-0.718 0.2,-0.738 0.2,-0.756 0.2,-0.773 0.2,-0.789 0.1,-0.804 0.1,-0.818 0.1,-0.829 0.1,-0.841 v -0.85 -0.859 c 0,-12.388 -6.6,-17.138 -12.6,-17.138 -5.5,0 -14.4,2.68 -17.1,10.638 0.5,-0.203 1,-0.203 1.5,-0.203 2.5,0 4.3,1.64 4.3,4.328 0,3 -2.2,4.344 -4.3,4.344 -1.8,0 -4.4,-0.828 -4.4,-4.641 0,-9.516 9.3,-16.956 20.2,-16.956 11.5,0 20.3,8.987 20.3,19.534 0,10.016 -8.3,17.25 -18.1,18.391 7.8,1.656 15.4,8.672 15.4,18.078 0,8.062 -8.2,13.937 -17.5,13.937 -9.4,0 -17.7,-5.781 -17.7,-14.046 0,-3.61 2.7,-4.235 4.1,-4.235 2.2,0 4,1.344 4,4.031 0,2.688 -1.8,4.032 -4,4.032 -0.4,0 -1,0 -1.4,-0.203 3,6.812 11.2,8.046 14.8,8.046 3.6,0 10.4,-1.75 10.4,-11.671 0,-2.891 -0.4,-8.047 -3.9,-12.594 -3.1,-4.031 -6.6,-4.25 -10,-4.547 -0.5,0 -2.9,-0.219 -3.3,-0.219 -0.7,-0.094 -1.2,-0.203 -1.2,-0.922 0,-0.718 0.2,-0.828 2.2,-0.828 z"
           inkscape:connector-curvature="0"
           style="fill:#000000;stroke-width:0" /><path
           id="path377"
           d="m 1429.3,-107.21 v 0.56 0.55 l -0.1,0.53 v 0.53 l -0.1,0.51 v 0.51 l -0.1,0.49 -0.1,0.48 -0.1,0.46 -0.1,0.45 -0.1,0.44 -0.2,0.42 -0.1,0.41 -0.2,0.39 -0.1,0.37 -0.2,0.358 -0.2,0.339 -0.2,0.322 -0.2,0.302 -0.3,0.284 -0.2,0.264 -0.3,0.244 -0.3,0.223 -0.2,0.202 -0.3,0.18 -0.3,0.158 -0.4,0.135 -0.3,0.111 -0.4,0.088 -0.3,0.063 -0.4,0.039 -0.4,0.013 c -3.3,0 -5,-2.688 -5,-4.955 0,-2.26 1.6,-5.06 5.1,-5.06 1.3,0 2.5,0.41 3.4,1.34 0.2,0.21 0.3,0.21 0.4,0.21 0.2,0 0.2,-1.44 0.2,-1.96 0,-3.42 -0.6,-10.12 -6.6,-16.84 -1.1,-1.25 -1.1,-1.45 -1.1,-1.66 0,-0.51 0.5,-1.03 1,-1.03 0.8,0 8.8,7.64 8.8,19.53 z"
           inkscape:connector-curvature="0"
           style="fill:#000000;stroke-width:0" /><path
           id="path379"
           d="m 1477.2,-71.676 0.9,-0.023 0.8,-0.068 0.8,-0.113 0.7,-0.156 0.8,-0.197 0.7,-0.237 0.6,-0.277 0.7,-0.315 0.6,-0.352 0.6,-0.387 0.5,-0.422 0.5,-0.455 0.5,-0.486 0.5,-0.517 0.5,-0.547 0.4,-0.575 0.4,-0.602 0.3,-0.627 0.4,-0.652 0.3,-0.675 0.3,-0.698 0.2,-0.718 0.3,-0.738 0.2,-0.756 0.2,-0.773 0.1,-0.789 0.2,-0.804 0.1,-0.818 v -0.829 l 0.1,-0.841 v -0.85 -0.859 c 0,-12.388 -6.6,-17.138 -12.6,-17.138 -5.4,0 -14.3,2.68 -17.1,10.638 0.5,-0.203 1,-0.203 1.5,-0.203 2.5,0 4.4,1.64 4.4,4.328 0,3 -2.3,4.344 -4.4,4.344 -1.7,0 -4.4,-0.828 -4.4,-4.641 0,-9.516 9.3,-16.956 20.3,-16.956 11.4,0 20.2,8.987 20.2,19.534 0,10.016 -8.3,17.25 -18.1,18.391 7.9,1.656 15.4,8.672 15.4,18.078 0,8.062 -8.2,13.937 -17.4,13.937 -9.4,0 -17.7,-5.781 -17.7,-14.046 0,-3.61 2.7,-4.235 4,-4.235 2.2,0 4.1,1.344 4.1,4.031 0,2.688 -1.9,4.032 -4.1,4.032 -0.4,0 -0.9,0 -1.3,-0.203 3,6.812 11.1,8.046 14.7,8.046 3.7,0 10.5,-1.75 10.5,-11.671 0,-2.891 -0.4,-8.047 -4,-12.594 -3,-4.031 -6.6,-4.25 -10,-4.547 -0.5,0 -2.8,-0.219 -3.3,-0.219 -0.7,-0.094 -1.1,-0.203 -1.1,-0.922 0,-0.718 0.1,-0.828 2.2,-0.828 z"
           inkscape:connector-curvature="0"
           style="fill:#000000;stroke-width:0" /><path
           id="path381"
           d="m 1553.4,-65.066 v 0.03 0.034 0.036 0.039 0.041 0.043 l -0.1,0.045 v 0.047 0.048 0.049 0.051 l -0.1,0.051 v 0.105 l -0.1,0.107 v 0.107 0.105 l -0.1,0.052 v 0.05 0.05 0.048 0.046 0.045 0.043 l -0.1,0.041 v 0.039 0.036 0.034 0.031 c 0,0.093 0.1,0.203 1.9,1.547 l 10,7.843 c 13.9,10.75 18.4,14.36 25.5,14.985 0.8,0.109 1.8,0.109 1.8,1.859 0,0.625 -0.3,1.141 -1.2,1.141 -1.1,0 -2.3,-0.203 -3.5,-0.203 h -3.9 c -3.2,0 -6.6,0.203 -9.7,0.203 -0.7,0 -2,0 -2,-1.86 0,-1.031 0.8,-1.14 1.4,-1.14 1.1,-0.094 2.5,-0.516 2.5,-1.953 0,-2.079 -3.1,-4.547 -4,-5.172 l -40.5,-31.516 8.6,34.094 c 0.9,3.515 1.1,4.547 8.5,4.547 1.9,0 2.9,0 2.9,1.968 0,1.032 -1.1,1.032 -1.6,1.032 -1.8,0 -4,-0.203 -6,-0.203 h -12.2 c -1.8,0 -4.1,0.203 -6,0.203 -0.8,0 -1.9,0 -1.9,-1.969 0,-1.031 0.9,-1.031 2.5,-1.031 6.3,0 6.3,-0.828 6.3,-1.953 0,-0.219 0,-0.829 -0.5,-2.391 l -13.9,-55.578 c -0.9,-3.61 -1.1,-4.64 -8.4,-4.64 -1.9,0 -3,0 -3,-1.86 0,-1.14 1,-1.14 1.6,-1.14 2,0 4,0.2 6,0.2 h 12.1 c 1.9,0 4.1,-0.2 6.1,-0.2 0.8,0 1.9,0 1.9,1.97 0,1.03 -0.9,1.03 -2.5,1.03 -6.3,0 -6.3,0.83 -6.3,1.86 0,0.72 0.7,3.295 1.1,4.952 l 4,16.015 15.7,12.297 c 3,-6.609 8.5,-19.844 12.7,-29.969 0.3,-0.609 0.5,-1.234 0.5,-1.955 0,-3.11 -4.1,-3.2 -5,-3.2 -1,0 -2,0 -2,-1.97 0,-1.03 1.2,-1.03 1.4,-1.03 3.7,0 7.5,0.2 11.1,0.2 h 5 c 1.5,0 3.3,-0.2 4.8,-0.2 0.6,0 1.8,0 1.8,1.97 0,1.03 -0.9,1.03 -2,1.03 -3.8,0.09 -5.2,0.92 -6.7,4.64 z"
           inkscape:connector-curvature="0"
           style="fill:#000000;stroke-width:0" /><path
           id="path383"
           d="m 1660.5,-91.723 h -1.9 c -0.9,-4.75 -1.2,-5.984 -1.8,-7.64 -0.5,-1.547 -0.8,-2.377 -6.8,-2.377 h -8.3 c 1.1,5.986 3.6,10.439 7.9,17.361 5.4,8.781 9.8,15.906 9.8,24.484 0,13.938 -13.2,25.313 -29.6,25.313 -16.9,0 -29.8,-11.469 -29.8,-25.313 0,-8.578 4.6,-15.906 9.6,-24.078 4.6,-7.328 7.1,-11.781 8.2,-17.767 h -8.4 c -5.9,0 -6.2,0.83 -6.7,2.267 -0.6,1.657 -0.8,3 -1.9,7.75 h -1.8 l 3,-15.077 h 15.6 c 2.2,0 2.3,0.11 2.3,1.66 0,7.324 -3.9,16.933 -5.6,21.37 -3.3,8.063 -6.4,15.922 -6.4,23.969 0,15.406 11,23.563 21.8,23.563 11.2,0 21.9,-8.469 21.9,-23.563 0,-7.953 -2.8,-15.078 -6.6,-24.484 -1.7,-4.235 -5.4,-13.625 -5.4,-20.855 0,-1.66 0.1,-1.66 2.3,-1.66 h 15.6 z"
           inkscape:connector-curvature="0"
           style="fill:#000000;stroke-width:0" /><path
           id="path385"
           d="m 830.77,-192.35 h 9.5 c 1.96,0 3,0 3,1.86 0,1.14 -0.63,1.14 -2.69,1.14 h -9.1 l 3.83,15.08 c 0.41,1.45 0.41,1.66 0.41,2.37 0,1.66 -1.34,2.58 -2.69,2.58 -0.81,0 -3.2,-0.29 -4.01,-3.61 l -4.04,-16.42 h -9.71 c -2.07,0 -3,0 -3,-1.97 0,-1.03 0.73,-1.03 2.68,-1.03 h 9.21 l -6.83,-27.28 c -0.81,-3.61 -1.13,-4.64 -1.13,-5.98 0,-4.86 3.41,-9.3 9.19,-9.3 10.44,0 16.02,15.08 16.02,15.8 0,0.62 -0.41,0.93 -1.03,0.93 -0.21,0 -0.63,0 -0.83,-0.4 -0.11,-0.11 -0.21,-0.22 -0.94,-1.86 -2.16,-5.17 -6.92,-12.41 -12.91,-12.41 -3.09,0 -3.31,2.58 -3.31,4.86 0,0.09 0,2.06 0.31,3.3 z"
           inkscape:connector-curvature="0"
           style="fill:#000000;stroke-width:0" /><path
           id="path387"
           d="m 949.75,-187.18 v 0.2 l -0.01,0.19 -0.01,0.19 -0.01,0.18 -0.02,0.17 -0.02,0.16 -0.03,0.16 -0.03,0.15 -0.03,0.14 -0.03,0.14 -0.04,0.13 -0.04,0.12 -0.04,0.12 -0.05,0.11 -0.05,0.1 -0.05,0.1 -0.05,0.09 -0.05,0.09 -0.06,0.07 -0.06,0.08 -0.06,0.06 -0.06,0.06 -0.06,0.06 -0.06,0.05 -0.07,0.04 -0.06,0.04 -0.07,0.03 -0.06,0.02 -0.07,0.02 -0.07,0.02 -0.07,0.01 h -0.06 c -0.41,0 -1.35,-0.42 -1.44,-2.8 -0.42,-7.12 -7.66,-11.36 -14.36,-11.36 -6,0 -11.16,3.2 -16.53,6.81 -5.58,3.74 -11.16,7.46 -17.88,7.46 -9.61,0 -17.25,-7.35 -17.25,-16.85 0,-2.28 0.83,-3.11 1.44,-3.11 1.03,0 1.45,1.97 1.45,2.39 0.52,8.68 8.99,11.77 14.36,11.77 5.99,0 11.16,-3.2 16.53,-6.81 5.58,-3.72 11.16,-7.44 17.88,-7.44 9.59,0 17.25,7.33 17.25,16.84 z"
           inkscape:connector-curvature="0"
           style="fill:#000000;stroke-width:0" /><path
           id="path389"
           d="m 949.75,-211.36 v 0.14 0.13 l -0.01,0.13 v 0.13 l -0.01,0.12 -0.01,0.12 -0.01,0.11 -0.01,0.12 -0.02,0.1 -0.01,0.11 -0.02,0.1 -0.02,0.1 -0.02,0.09 -0.02,0.09 -0.02,0.09 -0.02,0.08 -0.02,0.08 -0.03,0.08 -0.02,0.08 -0.03,0.07 -0.02,0.07 -0.03,0.06 -0.03,0.07 -0.03,0.06 -0.03,0.06 -0.02,0.05 -0.07,0.11 -0.06,0.09 -0.06,0.08 -0.06,0.08 -0.07,0.07 -0.06,0.06 -0.06,0.05 -0.07,0.04 -0.06,0.04 -0.05,0.03 -0.06,0.03 -0.05,0.02 -0.05,0.02 -0.05,0.02 -0.04,0.01 h -0.04 l -0.03,0.01 h -0.03 -0.02 c -0.41,0 -1.35,-0.52 -1.44,-2.78 -0.42,-7.13 -7.66,-11.36 -14.36,-11.36 -6,0 -11.16,3.19 -16.53,6.81 -5.58,3.72 -11.16,7.44 -17.88,7.44 -9.61,0 -17.25,-7.33 -17.25,-16.85 0,-2.26 0.83,-3.09 1.44,-3.09 1.03,0 1.45,1.97 1.45,2.38 0.52,8.67 8.99,11.78 14.36,11.78 5.99,0 11.16,-3.21 16.53,-6.83 5.58,-3.72 11.16,-7.44 17.88,-7.44 9.81,0 17.25,7.66 17.25,16.74 z"
           inkscape:connector-curvature="0"
           style="fill:#000000;stroke-width:0" /><path
           id="path391"
           d="m 1027.6,-200.72 v 0.6 0.63 0.65 0.68 0.69 0.72 l -0.1,1.48 v 1.55 l -0.1,1.6 -0.2,1.64 -0.2,1.68 -0.2,1.7 -0.3,1.71 -0.4,1.72 -0.4,1.71 -0.2,0.84 -0.3,0.85 -0.3,0.83 -0.3,0.83 -0.3,0.82 -0.3,0.8 -0.4,0.8 -0.4,0.78 c -3.8,7.23 -9.9,9.81 -15.3,9.81 v -1.64 c 4.2,0 9.7,-2.8 11.7,-11.26 1.3,-5.9 1.4,-12.82 1.4,-21.08 0,-6.72 0,-14.99 -1.2,-21.08 -2.2,-11.25 -8.3,-13.22 -11.9,-13.22 v 0 c -6.6,0 -10.54,5.69 -11.99,13.53 -1.14,6.1 -1.14,14.99 -1.14,20.77 0,7.95 0,14.56 1.34,20.87 1.97,8.78 7.79,11.47 11.79,11.47 v 1.64 c -5,0 -11.28,-2.26 -15.2,-9.7 -4.12,-7.75 -4.54,-17.36 -4.54,-25.42 0,-5.88 0.11,-14.88 3.31,-22.72 4.44,-10.64 12.43,-12.1 16.43,-12.1 4.7,0 12,1.97 16.2,11.79 3.1,7.12 3.5,15.5 3.5,23.03 z"
           inkscape:connector-curvature="0"
           style="fill:#000000;stroke-width:0" /><path
           id="path393"
           d="m 1051.8,-234.29 v 0.56 l -0.1,0.55 v 0.53 0.53 l -0.1,0.52 v 0.5 l -0.1,0.49 -0.1,0.48 -0.1,0.46 -0.1,0.45 -0.1,0.44 -0.2,0.42 -0.1,0.41 -0.2,0.39 -0.1,0.37 -0.2,0.36 -0.2,0.34 -0.2,0.32 -0.3,0.3 -0.2,0.29 -0.2,0.26 -0.3,0.25 -0.3,0.22 -0.3,0.2 -0.3,0.18 -0.3,0.16 -0.3,0.13 -0.3,0.11 -0.4,0.09 -0.3,0.07 -0.4,0.03 -0.4,0.02 c -3.3,0 -5,-2.69 -5,-4.96 0,-2.26 1.6,-5.06 5.1,-5.06 1.3,0 2.5,0.41 3.4,1.34 0.2,0.21 0.3,0.21 0.4,0.21 0.2,0 0.2,-1.44 0.2,-1.96 0,-3.42 -0.6,-10.12 -6.6,-16.84 -1.1,-1.25 -1.1,-1.45 -1.1,-1.66 0,-0.51 0.5,-1.03 1,-1.03 0.8,0 8.8,7.64 8.8,19.53 z"
           inkscape:connector-curvature="0"
           style="fill:#000000;stroke-width:0" /><path
           id="path395"
           d="m 1120.1,-217.86 h -1.9 c -1,-7.35 -1.9,-8.58 -2.3,-9.21 -0.5,-0.83 -7.9,-0.83 -9.4,-0.83 h -19.8 c 3.7,4.04 11,11.38 19.7,19.85 6.3,5.98 13.7,13.01 13.7,23.25 0,12.19 -9.7,19.2 -20.6,19.2 -11.3,0 -18.3,-10.01 -18.3,-19.31 0,-4.03 3,-4.55 4.3,-4.55 1,0 4.1,0.63 4.1,4.24 0,3.2 -2.7,4.14 -4.1,4.14 -0.7,0 -1.3,-0.11 -1.7,-0.32 2,8.79 8,13.13 14.3,13.13 9,0 14.8,-7.14 14.8,-16.53 0,-9 -5.2,-16.74 -11.1,-23.45 l -20.6,-23.25 v -2.38 h 36.4 z"
           inkscape:connector-curvature="0"
           style="fill:#000000;stroke-width:0" /><path
           id="path397"
           d="m 1136.2,-173.44 0.1,-0.04 0.1,-0.05 0.1,-0.05 0.2,-0.05 0.2,-0.06 0.2,-0.06 0.2,-0.07 0.2,-0.07 0.2,-0.07 0.3,-0.07 0.2,-0.07 0.3,-0.07 0.3,-0.08 0.3,-0.07 0.3,-0.08 0.3,-0.07 0.4,-0.07 0.3,-0.07 0.3,-0.07 0.4,-0.06 0.4,-0.07 0.3,-0.06 0.8,-0.1 0.8,-0.09 0.8,-0.07 0.8,-0.05 0.4,-0.01 h 0.4 c 9.6,0 14.9,5.15 17.9,8.15 0,0.83 0,1.35 -0.7,1.35 -0.1,0 -0.3,0 -1.1,-0.42 -3.6,-1.55 -7.8,-2.79 -13,-2.79 -3.1,0 -7.8,0.41 -12.8,2.69 -1.2,0.52 -1.4,0.52 -1.5,0.52 -0.5,0 -0.6,-0.11 -0.6,-2.17 v -29.96 c 0,-1.86 0,-2.39 1,-2.39 0.6,0 0.8,0.22 1.3,0.94 3.3,4.66 7.8,6.61 13,6.61 3.6,0 11.4,-2.27 11.4,-19.94 0,-3.31 0,-9.3 -3.1,-14.05 -2.6,-4.23 -6.7,-6.4 -11.1,-6.4 -6.8,0 -13.7,4.75 -15.6,12.7 0.4,-0.09 1.2,-0.31 1.7,-0.31 1.3,0 3.9,0.73 3.9,3.94 0,2.78 -2,3.92 -3.9,3.92 -2.4,0 -4,-1.45 -4,-4.35 0,-8.98 7.2,-18.39 18.1,-18.39 10.6,0 20.8,9.21 20.8,22.54 0,12.39 -8.1,22 -18.1,22 -5.3,0 -9.7,-1.97 -13.2,-5.69 z"
           inkscape:connector-curvature="0"
           style="fill:#000000;stroke-width:0" /></g>    </g>
  </g>
</svg>
