<svg version="1.1" viewBox="0 0 233.04 176.81" xmlns="http://www.w3.org/2000/svg">
 <g transform="translate(-10.806 -20.485)" fill="none">
  <g transform="matrix(-1 0 0 1 174.39 38.331)" stroke="#000">
   <g stroke-linejoin="round" stroke-width=".6">
    <path d="m144.57 158.29c-1.5889-0.75153-3.1292-6.1372-1.5243-9.3892 1.6049-3.252 3.9328-5.8539 6.9665-8.2584 1.9499-1.5454 5.0927-2.6493 6.9707-1.3268 0.63486-0.15871 2.356 5.2167 1.0213 8.2094-0.99617 2.2337-1.6622 3.3849-3.9843 6.1614-1.2616 1.5085-2.8237 2.9118-4.0548 3.7232-1.8071 1.1911-3.8062 1.6318-5.3951 0.88032z"/>
    <path d="m144.57 158.29-5.506-2.7922c-1.7098-3.2144 1.8525-10.999 3.4227-13.109 1.5703-2.1109 7.94-6.5958 9.3568-5.976l5.1394 2.9033"/>
    <path d="m146.91 156.3c2.0499 0.19287 4.0681-2.1438 6.0865-4.2011 2.0184-2.0573 3.3984-3.9146 3.7491-6.615 0.17059-1.3137 0.20838-3.1239-0.84718-3.9249-1.2503-0.94923-2.9382-0.93341-5.3906 0.92282-2.4389 1.846-3.5868 2.8568-5.2818 5.6328 0 0-1.5336 2.9215-1.2387 4.4243 0.30581 1.558 0.87286 3.5682 2.9227 3.7611z"/>
    <path d="m38.427 89.737c4.0518 23.767 14.213-1.9541 30.465 0.37147 2.1892-0.11191 9.7826 5.331 13.689 7.7507 3.9061 2.4197 11.622 7.3289 11.622 7.3289 1.0402-0.0174 2.4791-0.65492 3.1194-0.0503 0 0 14.054 7.7817 14.138 7.7985 2.2082 1.079 5.9489 0.52587 7.8824 1.2578l19.538 11.624c-7.8082-3.9088-20.64 6.3824-15.765 19.62l-16.704-12.796c-0.80202-0.79695-1.0681-3.6546-3.589-6.2388l-13.065-11.84c-0.25716-0.21803-0.26834-1.1069-0.03354-2.6666 0 0-7.7228-5.1756-11.706-7.6644s-10.621-9.8656-14.998-5.7904c-12.753 10.575-29.448 15.378-32.569-5.1606"/>
    <path d="m138.69 152.07-3.7883 0.41497c-3.4451 0.0957-4.8019-4.0044-3.8909-8.4526 0.91105-4.4482 2.802-6.2211 5.937-9.8949 1.3041-1.5282 6.9335-5.5211 10.499-2.7169 1.1478 0.90284 0.87209 4.2934 0.87209 4.2934l1.4937 1.1666"/>
    <path d="m133.32 152.18-8.0078-5.2673c-1.0845-2.7728-0.90563-5.0984-0.20125-7.8488 1.5981-3.4067 3.2036-6.8694 6.0208-9.2241 2.2585-1.8877 5.4652-3.0206 8.1339-3.438l7.8559 4.7789"/>
   </g>
   <g stroke-linecap="round" stroke-width=".6">
    <path d="m129.62 147.5-3.6803-2.029" stroke-linejoin="round"/>
    <path d="m125.74 143.45 3.7356 1.9567"/>
    <path d="m129.74 143.17-3.6803-2.029" stroke-linejoin="round"/>
    <path d="m126.67 138.94 3.7356 1.9567"/>
    <path d="m131.22 138.67-3.6803-2.029" stroke-linejoin="round"/>
    <path d="m128.61 134.52 3.7356 1.9567"/>
    <path d="m133.63 134.71-3.6803-2.029" stroke-linejoin="round"/>
    <g>
     <path d="m131.64 130.96 3.7356 1.9567"/>
     <path d="m133.8 129.73 3.7356 1.9567"/>
     <path d="m135.81 128.57 3.484 1.9567"/>
     <path d="m138.41 127.83 3.1654 1.7722"/>
    </g>
   </g>
   <g stroke-width=".6">
    <path d="m148.32 135.71c-2.9622-3.2626-5.2632-2.6986-7.1277-1.8784-2.3397 1.0293-3.9331 2.8503-5.568 4.9474-0.76535 0.98178-3.6857 5.4217-2.7672 8.4526 0.66412 2.1916 3.0535 4.2112 4.5491 4.9752"/>
    <path d="m138.69 152.07-4.935-3.0672" stroke-linecap="round"/>
    <path d="m149.07 136.29c-2.9998 0.62293-5.8351 2.5616-7.5175 0.80823-0.88509-0.92241-0.90277-2.1069 1.7863-2.6108 1.241-0.23252 2.3264-2e-3 4.7097 0.92563"/>
    <path d="m147.77 146.13 1.761 0.89725c0.41369 0.34381 0.13049 1.3835-0.32703 1.7023-0.92062 0.64132-0.96796 0.40047-1.6436 0.0587l-1.3081-0.62891" stroke-linecap="round"/>
   </g>
   <g stroke-width=".6">
    <path d="m148.34 149.13s-0.67976-0.52706-0.1915-1.4911c0.53045-1.0474 1.3836-0.61214 1.3836-0.61214"/>
    <path d="m146.25 148.16c-0.48911 1.184-1.5516 3.0171-0.54135 3.8048 1.2863 1.0029 3.4082-0.66602 4.5301-1.85 1.203-1.2695 2.3455-3.3239 1.7195-4.957-0.2457-0.64103-1.119-1.0595-1.8026-0.99615-1.0273 0.0951-1.6759 1.2225-2.388 1.9691-0.58298 0.61128-1.1953 1.2486-1.5178 2.0293z"/>
    <path d="m124.26 145.37c-0.67139 0.53117-2.1201-6.0271 1.1859-12.238 1.6963-2.2107 2.4632-4.5731 7.0679-6.3089 2.4612-1.448 4.5182-0.36976 6.7552-0.41592"/>
   </g>
   <g stroke-linecap="round">
    <path d="m123.12 145.44 1.1415-0.0719 0.69974 0.50366" stroke-width=".6"/>
    <path d="m138.88 125.82 0.0611 0.63874" stroke-width=".6"/>
    <g stroke-width=".9">
     <path d="m100.24 122.21c-0.49444-3.657 3.6952-9.0388 7.3625-9.6266"/>
     <path d="m97.993 120c-0.0584-4.1601 3.7959-8.4685 7.4631-9.0564"/>
     <path d="m95.746 118.05c0.31056-3.9924 3.125-7.63 6.4233-8.5532"/>
     <path d="m93.767 115.9c0.31056-3.9924 2.9908-7.1268 6.2891-8.0501"/>
     <path d="m91.433 114.33c0.31056-3.9924 2.4206-7.1939 5.7189-8.1172"/>
    </g>
    <g stroke-width=".3">
     <path d="m117.85 138.71c-0.21935-2.0559 0.36128-6.2779 2.0042-7.9692"/>
     <path d="m116.48 138.04c-0.21935-2.0559 0.36128-6.2779 2.0042-7.9692"/>
     <path d="m115.5 137.23c-0.21935-2.0559 0.36128-6.2779 2.0042-7.9692"/>
     <path d="m114.13 136.5c-0.21935-2.0559 0.36128-6.2779 2.0042-7.9692"/>
     <path d="m114.13 136.5c-0.21935-2.0559 0.36128-6.2779 2.0042-7.9692"/>
     <path d="m112.75 135.83c-0.21935-2.0559 0.36128-6.2779 2.0042-7.9692"/>
     <path d="m111.78 135.01c-0.21935-2.0559 0.36128-6.2779 2.0042-7.9692"/>
     <path d="m110.41 134.29c-0.21935-2.0559 0.36128-6.2779 2.0042-7.9692"/>
     <path d="m109.09 133.61c-0.21935-2.0559 0.36128-6.2779 2.0042-7.9692"/>
    </g>
    <path d="m89.725 111.9c0.18519-3.0635 1.6778-5.2996 4.4779-6.7084" stroke-width=".6"/>
    <path d="m144.59 154.54s3.9116-0.71346 5.6315-2.1219 3.4864-4.4291 3.8811-6.2068-0.0733-2.7601-0.43795-3.5791-1.1639-1.3377-1.1639-1.3377" stroke-width=".6"/>
    <g stroke-width=".3">
     <path d="m126.46 124.32c1.8865-1.4736 3.7161-2.1215 5.4888-1.9435"/>
     <path d="m124.92 123.56c1.8865-1.4736 3.7161-2.1215 5.4888-1.9435"/>
     <path d="m123.72 122.9c1.8865-1.4736 3.0007-2.0788 5.2966-2.1677"/>
     <path d="m122.77 122.05c1.8865-1.4736 3.7161-2.1215 5.4888-1.9435"/>
     <path d="m121.18 121.19c1.8865-1.4736 3.7161-2.1215 5.4888-1.9435"/>
     <path d="m119.65 120.43c1.8865-1.4736 3.7161-2.1215 5.4888-1.9435"/>
     <path d="m118.57 119.78c1.8865-1.4736 3.0007-2.0788 5.2966-2.1677"/>
     <path d="m117.44 119.07c1.8865-1.4736 3.6482-2.0384 5.3755-2.1398"/>
     <path d="m116.68 118.28c1.8865-1.4736 3.2027-1.9402 4.93-2.0416"/>
    </g>
   </g>
   <path d="m141.18 136.61c0.74461-0.42493 1.61-0.74125 2.5963-0.94897 2.7277-0.20972 2.8836 0.58068 4.291 0.88445" stroke-width=".6"/>
  </g>
  <g transform="matrix(-1 0 0 1 262.91 8.382)" stroke="#000">
   <path d="m152.74 75.939a50 50 0 0 1-50 50 50 50 0 0 1-50-50 50 50 0 0 1 50-50 50 50 0 0 1 50 50z" stroke-linecap="round" stroke-linejoin="round"/>
   <path d="m147.74 75.939a45 45 0 0 1-45 45 45 45 0 0 1-45-45 45 45 0 0 1 45-45 45 45 0 0 1 45 45z" stroke-linecap="round" stroke-linejoin="round"/>
   <g stroke-linecap="round" stroke-linejoin="round">
    <path d="m152.29 69.259h33.738"/>
    <path d="m152.29 82.62h33.738"/>
    <path d="m116.08 69.259h31.16"/>
    <path d="m116.08 82.62h3.3396m3.0744 0h1.0998m3.2126 0h20.434"/>
    <path d="m53.303 83.361h-33.739"/>
    <path d="m53.091 70h-33.527"/>
    <path d="m89.513 83.361h-31.16"/>
    <path d="m89.513 70h-31.16"/>
    <path d="m109.85 125.43-1.8e-4 13.636"/>
    <path d="m96.486 125.55-1.77e-4 13.52"/>
    <path d="m109.85 89.117v31.16"/>
    <path d="m96.486 89.117v0.70843m0 2.2019v28.25"/>
    <path d="m95.745 26.342v-13.739"/>
    <path d="m109.11 26.342v-13.739"/>
    <path d="m95.745 62.553v-31.067"/>
    <path d="m109.11 62.553v-31.16"/>
   </g>
   <g stroke-width="1px">
    <path transform="translate(5.588 -8.382)" d="m83.925 78.382v3.1408m0 1.7343v8.4856"/>
    <path transform="translate(5.588 -8.382)" d="m110.49 77.641v6.3907m0 2.7177v4.2523"/>
    <path transform="translate(5.588 -8.382)" d="m90.157 70.935h5.8814m1.8115 0h5.6678"/>
    <path transform="translate(5.588 -8.382)" d="m90.898 97.499h13.361"/>
   </g>
  </g>
  <g stroke="#000">
   <g>
    <g stroke-linejoin="round">
     <path d="m141.86 110.77 1.8914-3.155-1.3348-0.8766" stroke-width=".4"/>
     <path transform="matrix(-1 0 0 1 262.91 8.382)" d="m118.58 118.06c-0.9252-9.0872-3.2996-8.3887-4.4647-12.759 3.0546-3.7668 5.6062-3.5872 8.6876-2.3138 1.0461 3.7938 2.6468 3.3682 3.5786 11.241" stroke-linecap="round" stroke-width=".6"/>
     <path d="m142.73 109.32 1.9594 1.3641" stroke-width=".4"/>
    </g>
    <g stroke-linecap="round" stroke-linejoin="round">
     <path transform="matrix(-1 0 0 1 257.32 0)" d="m116.31 111.02c-1.6335-4.1515-2.5261-8.5088-2.6779-13.072-2.6178-0.54973-5.1233-0.26788-7.3161 1.6052 0.22256 5.1897 1.7788 9.0457 2.9083 13.329" stroke-width=".6"/>
     <g stroke-width=".4">
      <path d="m143.75 107.61 3.3177 2.4333-0.92348 1.2312"/>
      <path d="m147.07 110.04 1.1919-1.963 1.0805 0.92223"/>
      <path d="m143.15 104.57 3.427 2.3793-1.1646 1.8815"/>
      <path d="m146.58 106.95 1.1351-1.8117 1.7572 1.146-1.206 1.8008"/>
      <path d="m145.04 105.88 1.9038-3.247 1.6808 0.89494-0.91678 1.6044"/>
      <path d="m146.04 104.18-2.7388-1.7909"/>
      <path d="m144.37 103.09 1.7983-3.4967 1.9219 1.0312-1.1393 2.0106"/>
     </g>
    </g>
    <path d="m145.26 101.34-1.716-1.0762" stroke-width=".4"/>
    <g stroke-linecap="round">
     <path d="m146.16 99.594 0.95196-1.8156" stroke-width=".4"/>
     <path d="m143.56 100.13 1.202-2.3546" stroke-width=".4"/>
     <g stroke-linejoin="round">
      <g stroke-width=".4">
       <path d="m149.47 106.28 0.43029 0.2592"/>
       <path d="m148.63 103.53 1.7333 1.0499"/>
       <path d="m148.09 100.62 2.7046 1.4404"/>
       <path d="m149.44 101.35 1.0352-1.908"/>
      </g>
      <path d="m144.76 97.772c0.73477-2.9003 1.7222-5.0258 4.0415-7.006 2.3528-0.15498 3.5599 0.01563 4.6641 2.2969-0.98869 1.6007-2.2572 1.9104-2.8807 6.1557" stroke-width=".6"/>
     </g>
    </g>
    <g stroke-width=".6">
     <path d="m150.55 90.752c1.3051-2.5037 2.5296-3.482 5.0132-4.5125l0.83969 1.591c-2.3729 1.2344-2.5836 1.8096-3.9658 3.7142"/>
     <path d="m156.4 87.831 0.26831 0.53793c1.6562-0.74843 1.8762-0.29402 5.3885-1.7312l-1.9445-3.9333c-3.6068 1.5461-2.9171 2.0414-4.8835 2.961l0.33146 0.57452" stroke-linecap="round" stroke-linejoin="round"/>
     <path d="m160.92 84.343c5.0982-1.784 14.592-1.6253 19.717-0.41456l0.63572-1.5901c-5.5422-1.0727-15.672-1.4489-20.922 0.85215" stroke-linecap="round" stroke-linejoin="round"/>
     <path d="m161.32 85.157s4.439-0.91936 6.3784-0.04784c2.0133 0.90476 3.6246 2.9578 3.9727 5.2606 0.43183 2.8571-1.4433 4.4291-2.3998 7.1557-1.3415 3.8242-4.8248 1.717-6.7348 5.6372l-1.6038-0.60035c3.1313-5.0631 5.6636-2.4678 6.9375-6 0.6953-1.9279 2.3847-3.9424 2.0445-5.9634-0.25728-1.5286-1.3436-3.1954-2.6727-3.9931-1.4714-0.88306-5.4048-0.40244-5.4048-0.40244"/>
     <path d="m181.27 82.338 0.14349-0.3617c2.1964 0.7852 1.2201-0.41219 5.2062 0.76364l-1.3281 4.1094c-3.6647-1.4035-2.3274-1.7228-4.9043-2.3944l0.24702-0.52682" stroke-linejoin="round"/>
    </g>
   </g>
   <path d="m181.55 81.641" stroke-width="1px"/>
   <g stroke-width=".6">
    <g>
     <path d="m186.35 83.59s2.5216-1.184 3.6856-0.61577c1.0666 0.52074 1.7167 1.7643 1.5468 2.9389-0.17646 1.22-1.1851 2.6557-2.4086 2.8063-1.4786 0.18203-3.6464-2.5841-3.6464-2.5841"/>
     <path d="m187.83 85.052c0.24308-0.53445 1.1256-0.84577 1.6573-0.59662 0.54646 0.25609 0.87243 1.1539 0.61872 1.7015-0.24101 0.52017-1.0902 0.8317-1.6131 0.59662-0.55516-0.24959-0.91492-1.1474-0.66292-1.7015z"/>
     <path d="m162.54 103.16 0.36479 0.13544c-0.73637 2.2132 0.43912 1.2106-0.64812 5.2218l-4.1378-1.2368c1.322-3.6949 1.6709-2.365 2.2852-4.9561l0.53216 0.23528" stroke-linejoin="round"/>
     <path d="m161.4 108.26s1.2396 2.4948 0.69727 3.671c-0.49699 1.0778-1.7258 1.7553-2.9039 1.6115-1.2237-0.14939-2.6813-1.126-2.859-2.3458-0.21474-1.4742 2.5027-3.7028 2.5027-3.7028"/>
     <path d="m159.97 109.77c0.53971 0.23117 0.8705 1.1066 0.63319 1.6437-0.24391 0.552-1.1343 0.89777-1.6874 0.65626-0.52538-0.22944-0.85564-1.0715-0.63221-1.5995 0.23725-0.56055 1.1268-0.94011 1.6864-0.70044z"/>
     <path d="m136.66 91.002-0.35245-0.16491c0.91547-2.1453-0.33831-1.2426 1.0744-5.151l4.0224 1.5721c-1.6207 3.574-1.8593 2.2199-2.6841 4.7519l-0.51106-0.27815" stroke-linejoin="round"/>
     <path d="m138.21 86.011s-1.0308-2.5881-0.39373-3.7159c0.58374-1.0334 1.864-1.6078 3.0264-1.3678 1.2073 0.24928 2.5799 1.3422 2.6569 2.5725 0.0931 1.4868-2.7981 3.4849-2.7981 3.4849"/>
     <path d="m139.76 84.626c-0.51892-0.27467-0.77677-1.1743-0.4962-1.6901 0.28838-0.53013 1.2041-0.80168 1.7355-0.51561 0.50478 0.27177 0.76484 1.1381 0.49885 1.646-0.28244 0.5392-1.2002 0.84449-1.7382 0.55972z"/>
     <path d="m159.44 68.555-0.38758-0.03471c0.12825-2.329-0.74211-1.0525-0.74832-5.2084l4.3174 0.10475c-0.3035 3.9125-0.9899 2.7212-0.90098 5.3827l-0.57531-0.08701" stroke-linejoin="round"/>
     <path d="m159.19 63.333s-1.8522-2.0809-1.6384-3.3583c0.19597-1.1706 1.2033-2.1475 2.3777-2.3186 1.2199-0.17776 2.8831 0.38099 3.3754 1.5112 0.595 1.3658-1.4406 4.2307-1.4406 4.2307"/>
     <path d="m160.17 61.503c-0.58151-0.08106-1.1309-0.83866-1.0433-1.4192 0.0901-0.59672 0.85819-1.1645 1.4553-1.077 0.56723 0.08316 1.1074 0.8087 1.0307 1.3768-0.0814 0.60322-0.83988 1.2034-1.4427 1.1194z"/>
    </g>
    <g stroke-linecap="round">
     <path d="m138.21 91.732s-2.514 4.5225-2.3032 6.9557c0.1388 1.6018 1.0336 3.2358 2.2812 4.25 1.2888 1.0477 4.7789 1.4105 4.7789 1.4105" stroke-linejoin="round"/>
     <path d="m142.42 106.73s-4.0268-0.97324-5.6263-2.3292c-1.7201-1.4582-2.8429-3.2825-2.9261-5.536-0.10413-2.8211 2.7954-7.8678 2.7954-7.8678l1.5491 0.72991" stroke-linejoin="round"/>
     <path d="m161.14 68.712s0.66755 6.0685-0.73434 8.5693c-3.1368 5.5956-11.586 6.3237-15.5 11.406-2.371 3.079-4.7577 6.987-4.2812 10.844 0.17991 1.4563 2.5645 3.5782 2.5645 3.5782"/>
     <path d="m141.21 104.07s-2.3926-2.5171-2.6307-4.1689c-0.63843-4.4289 1.7105-8.8834 4.3857-12.47 3.7853-5.0753 12.143-5.6575 15.48-11.038 1.3507-2.1779 0.98808-7.8355 0.98808-7.8355"/>
    </g>
   </g>
  </g>
  <g stroke="#000" stroke-linecap="round" stroke-linejoin="round">
   <path d="m53.298 108.36c0.14372-1.0648 1.0688-1.7798 1.5603-2.6856 0.64127-0.94986 1.1085-2.0048 1.8239-2.9059 0.39614-0.79323 0.87863-1.5211 1.2878-2.314 0.81206-1.0632 1.3493-2.3151 2.1418-3.3991 0.64032-0.82222 1.183-1.7369 2.0151-2.3864 1.0785-0.98459 2.4466-1.7509 3.1211-3.0946 1.4089-2.6456 5.737-5.4964 5.972-5.9374"/>
   <path d="m59.277 83.355c0.79969 0.2263 1.6286-0.06383 2.4388-0.07809 0.7581-0.04239 1.4707 0.27939 2.2029 0.42801 0.56136 0.28262 1.199 0.37764 1.8164 0.54702 0.60066 0.24123 1.2659 0.10423 1.8527 0.38839 0.64501 0.3601 1.3015 0.7684 2.0507 0.86708 0.52093 0.11003 1.0568 0.37574 1.5816 0.134 0.16188-0.25437 0.19006-0.45496 0.36591-0.05535 0.12117 0.61757-0.37385 1.1466-0.35798 1.7605-0.15487 0.79451-0.72979 1.5366-0.49876 2.3806-0.06703 0.54474 0.23793 1.0907 0.03691 1.5981-0.13156 0.45938-0.23508 0.93048-0.35717 1.3946-0.32854 0.11838-0.19959 1.542-0.55923 1.1353"/>
   <path d="m11.49 111.19c0.8257 2.7027-0.81549 5.6304 0.50212 8.2345 1.662 0.93992 3.477-0.22497 5.1548-0.45629"/>
   <path d="m21.036 114.64c-3.3156 0.13613-0.81144 6.4764 1.6166 3.7971 1.1212-1.2512 0.67279-4.6902-1.6166-3.7971z"/>
   <path d="m25.456 113.93c0.39758 1.1016 0.0242 4.0353 0.45677 4.0342-0.07137-1.5557 1.7402-5.7817 3.1945-3.1629 0.14002 1.0318-0.03402 2.1078 0.3262 3.1061"/>
   <path d="m34.737 113.23c-2.4137-0.93479-3.4583 3.9669-1.1394 4.2815 1.8852-0.70754 2.9956-3.6927 1.57-5.3006-1.2554 3.57 1.8862 7.2088 0.26376 10.732-2.1327 2.2576-2.6291-2.6685-1.0619-3.621 0.91096-0.53609 2.0352-0.8725 3.1076-0.69974"/>
   <path d="m44.194 109.07c-1.2792 2.6435-0.18889 5.6022-0.55713 8.382 0.89294 2.3975 4.3895 1.4695 6.214 0.98713"/>
   <path d="m53.917 113.14c-2.8897 0.98073-0.91278 7.108 1.6795 4.0876 1.1928-1.3406 0.37309-5.8293-1.69-4.1437l1.4e-5 7e-5z"/>
   <path d="m63.551 112.78c-3.1634-0.66854-4.8697 4.4323-2.4387 6.1797 3.3311 1.5718 5.294-3.2322 3.0628-5.4677l-0.2969-0.37077z"/>
   <path d="m68.324 112.25c-0.39128 3.4344-0.1571 6.9004-0.44195 10.341 0.02852-2.7611 0.11784-5.5548 0.10949-8.2899 0.88595-3.2485 4.8749-1.1704 3.5936 1.5807-0.28982 1.3495-1.5766 2.8062-3.0843 2.2014"/>
  </g>
  <text x="9.7394562" y="120.41251" font-family="Sans" font-size="13.333px" style="line-height:1.25" xml:space="preserve"><tspan x="9.7394562" y="120.41251" fill="none" font-size="13.333px">Long Loop</tspan></text>
  <g stroke="#000" stroke-linecap="round" stroke-linejoin="round">
   <path d="m157.86 160.16c0.11982-2.6438-0.78393-7.2984 2.0402-8.3792 3.3122 0.87775 6.5944 2.5223 9.481 4.3578 0.1332 0.38427-1.2828-0.44393-0.73776-0.0445"/>
   <path d="m159.1 151.67c1.9435 2.6635 3.643 5.5018 5.6603 8.1057 1.79 4.1213 3.7392 8.1596 6.1064 11.989 0.28718 0.5367 0.55461 1.0846 0.78447 1.6485"/>
   <path d="m159.45 177.31c-4.1016-1.577-6.6388 4.5349-1.7723 5.1196 3.5523 1.1512 2.4584 7.2772-1.4115 6.5566l-0.17492-0.18572"/>
   <path d="m162.46 177.31c0.59354 3.0083 0.92479 8.419 1.1225 9.9997-0.39211-3.0657 3.9859-6.5948 4.1741-1.6549 0.1677 0.4281 0.10954 4.751 0.89065 2.6154"/>
   <path d="m173.59 181.73c-3.1019 1.7532-0.70514 10.002 2.4208 5.951 1.7179-1.7901-1.4879-7.6008-3.4814-4.7136"/>
   <path d="m179.25 181.55c-0.28437 1.8269 0.54526 8.3617 0.51985 3.2373 0.0188-2.4146 1.7237-4.8622 4.4299-4.1212"/>
   <path d="m188.8 173.89c-0.44448 4.2766-1.4867 9.5309 0.78241 13.294 0.94244 0.74912 4.3286 0.86232 2.9299-1.0964"/>
  </g>
  <text x="153.75117" y="188.40996" font-family="Sans" font-size="16px" letter-spacing=".09px" style="line-height:1.25" xml:space="preserve"><tspan x="153.75117" y="188.40996" fill="none" font-size="16px" letter-spacing=".09px">Short Loop</tspan></text>
  <g stroke="#000" stroke-linecap="round" stroke-linejoin="round">
   <path d="m188.45 184.14c-0.59506-0.73188 2.7073-0.23577 2.6349-1.9565-0.90157 0.0961-1.735 0.56867-2.6349 0.71903"/>
   <path d="m201.39 177.05c-1.2792 2.6435-0.18889 5.6022-0.55713 8.382 0.89294 2.3975 4.3895 1.4695 6.214 0.98713"/>
   <path d="m211.12 181.12c-2.8897 0.98073-0.91278 7.108 1.6795 4.0876 1.1928-1.3406 0.37309-5.8293-1.69-4.1437l2e-5 7e-5z"/>
   <path d="m220.75 180.77c-3.1634-0.66854-4.8697 4.4323-2.4387 6.1797 3.3311 1.5718 5.294-3.2322 3.0628-5.4677l-0.29689-0.37077z"/>
   <path d="m225.52 180.24c-0.39128 3.4344-0.15711 6.9004-0.44195 10.341 0.0285-2.7611 0.11784-5.5548 0.10948-8.2899 0.88596-3.2485 4.8749-1.1704 3.5936 1.5807-0.28982 1.3495-1.5766 2.8062-3.0844 2.2014"/>
  </g>
 </g>
</svg>
