<svg width="80%" height="80%" version="1.1" viewBox="0 0 154.36 108.88" xmlns="http://www.w3.org/2000/svg">
 <defs>
  <filter id="a" x="-.016935" y="-.02441" width="1.0339" height="1.0488" color-interpolation-filters="sRGB">
   <feGaussianBlur in="SourceGraphic" result="result1"/>
   <feTurbulence baseFrequency="0.050000000000000003" numOctaves="5" result="result0" type="fractalNoise"/>
   <feDisplacementMap in="result1" in2="result0" result="result2" scale="2" xChannelSelector="R" yChannelSelector="G"/>
   <feColorMatrix result="result3" values="1 0 0 0 0 0 1 0 0 0 0 0 1 0 0 0 0 0 10 0"/>
   <feBlend in="result2" in2="result3" mode="multiply" result="result5"/>
   <feGaussianBlur in="result3" result="result4" stdDeviation="1"/>
   <feComposite in="result4" in2="result5" k1="0.5" k2="0.15" k3="1.5" operator="arithmetic" result="result6"/>
   <feComposite in="result6" in2="result4" operator="in"/>
  </filter>
 </defs>
 <g transform="translate(-16.139 -120.35)" fill="none" filter="url(#a)" stroke="#000">
  <g>
   <path d="m85.501 147.3-64.095 27.23 20.97 38.185 22.949-11.293-2.0937-3.3108 4.1006-2.0369 2.3412 3.2079 1.98-0.97438-2.0506-2.9123 3.8091-1.878 2.0315 2.9252 1.424-0.70075-1.9402-2.7497 4.0337-2.2084 2.0154 2.936 1.576-0.87125-1.6898-2.6661 3.705-2.1659 2.0095 2.947 1.578-0.78395-1.7667-3.1007 3.4401-1.8437 2.1402 3.0497 1.5751-0.78252-2.1039-3.2857 3.5627-1.7783 2.3336 3.1799 1.5883-0.78906-2.1591-3.2717 3.1503-1.6017 2.3526 3.2123 1.7426-0.86571-2.2806-3.3603 3.5252-1.7552 2.318 3.4439 3.9792-1.9582z" stroke-width=".9"/>
   <path d="m36.868 170.59-11.734 5.2358 2.734 4.3538 7.4131-3.1434 2.9642 5.5212-7.0388 2.947 3.0115 5.7221 7.2597-3.3829 3.3395 5.9941-7.1529 2.9252 3.1051 5.731 15.097-6.8578-15.097 6.8583 3.4133 6.3016 14.846-7.2322" stroke-linecap="round" stroke-linejoin="round" stroke-width="2.3"/>
   <g stroke-width="1.3">
    <path d="m62.855 195.77 39.073-19.589 0.28276-4.8322-17.436-22.282-39.229 16.856 0.17211 4.6884z"/>
    <path d="m45.611 165.88 17.459 26.121 39.088-20.47"/>
    <path d="m62.853 195.76 0.19339-3.7941"/>
   </g>
  </g>
  <g stroke-width=".26458px">
   <path d="m160.69 153.2c4.0211 3.9097 1.066 0.89712 5.0827 4.811 1.9899 2.0397 2.9944 6.1511 0.39039 7.1915l-109.61 57.837c-4.4229 1.905-8.4481 1.9724-11.117-2.7127l-25.985-47.592c-1.6697-3.7465-0.06737-6.9923 2.7362-8.4702l103.33-41.173c1.6753-0.64955 4.811 0.33074 6.3333 1.8031 2.35 2.323 0.0602 0.10585 2.3934 2.3979"/>
   <path d="m158.69 160.62c6.5068-0.80446 6.1892 2.5832 6.6109 3.655-5.6573 0.7254-5.851-1.9781-6.778-3.5056l-0.16862-1.1942c1.2282-2.2408 3.4576-2.0691 5.983-1.1838 3.5752 1.8914 2.1575 3.5516 2.0102 5.2706l-1.027 0.62972"/>
   <path d="m167.78 163.45c0.12005 1.0186 0.48363 2.1939-0.30657 2.6268l-111.5 59.618c-3.1232 1.5196-6.6311 1.6275-10.279-1.9324l-26.041-49.2-0.98331-3.9618"/>
   <path d="m124.43 126.95c3.1878 3.2586 4.959 1.9218 6.5784 1.28-2.1754-1.9285-4.3616-2.4727-6.5787-1.2849l-0.081-1.7229c0.5829-1.8012 6.9723-2.3582 7.4286 2.272l-0.60388 0.76428"/>
   <path d="m20.625 170.77c1.8412-2.8982 4.3455-4.3892 8.5169-2.342-0.82222 4.9612-7.9163 3.9464-8.7829 2.4463l-0.66987-1.415c1.2062-5.1649 6.3605-6.9571 9.8721-1.862l-0.41517 0.88341"/>
   <path d="m58.428 218.18c-1.4157 6.6702-8.2609 4.9455-10.409 3.3568-0.40131-7.1662 5.5539-8.7693 10.386-3.3445-3.7192-13.051-15.493-1.6617-10.484 3.401"/>
   <path d="m154.58 147.65-1.409-1.2624"/>
  </g>
  <g stroke-width="1.3">
   <g stroke-linecap="round" stroke-linejoin="round">
    <ellipse transform="rotate(-20)" cx="-22.552" cy="164.42" rx="2.1767" ry="1.4739"/>
    <ellipse transform="rotate(-20)" cx="-15.087" cy="164.43" rx="2.1767" ry="1.4739"/>
    <ellipse transform="rotate(-20)" cx="-7.7414" cy="163.95" rx="2.1767" ry="1.4739"/>
    <ellipse transform="rotate(-20)" cx="-.65457" cy="163.67" rx="2.1767" ry="1.4739"/>
    <ellipse transform="rotate(-20)" cx="6.1919" cy="163.48" rx="2.1767" ry="1.4739"/>
    <ellipse transform="rotate(-20)" cx="13.265" cy="163.43" rx="2.1767" ry="1.4739"/>
    <ellipse transform="rotate(-20)" cx="26.299" cy="162.31" rx="1.8369" ry="1.361"/>
    <ellipse transform="rotate(-20)" cx="32.462" cy="162.1" rx="1.8369" ry="1.361"/>
    <ellipse transform="rotate(-20)" cx="38.641" cy="162.41" rx="1.8369" ry="1.361"/>
    <ellipse transform="rotate(-20)" cx="44.722" cy="162.17" rx="1.8369" ry="1.361"/>
    <ellipse transform="rotate(-20)" cx="50.758" cy="162" rx="1.8369" ry="1.361"/>
    <ellipse transform="rotate(-20)" cx="56.567" cy="161.71" rx="1.8369" ry="1.361"/>
    <ellipse transform="rotate(-20)" cx="67.852" cy="161.44" rx="1.8369" ry="1.361"/>
   </g>
   <g>
    <path d="m71.48 145.87 1.4278 2.132 4.364-1.8563-1.798-1.8994z"/>
    <path d="m111.02 130.08 1.6318 1.9453 3.4732-1.4326-1.6147-2.0156z"/>
    <path d="m147.61 169.58 2.1889 2.5159 3.9535-2.1768-2.4315-2.2582z"/>
   </g>
   <g stroke-linecap="round" stroke-linejoin="round">
    <ellipse cx="156.25" cy="167.3" rx="1.681" ry="1.7069" opacity=".88235"/>
    <ellipse cx="145.36" cy="173.09" rx="1.681" ry="1.7069" opacity=".88235"/>
    <ellipse cx="139.5" cy="175.98" rx="1.7442" ry="1.7069" opacity=".88235"/>
    <ellipse cx="133.64" cy="178.92" rx="1.681" ry="1.7069" opacity=".88235"/>
    <ellipse cx="121.66" cy="185.18" rx="2.3232" ry="2.0533" opacity=".88235"/>
    <ellipse cx="115.34" cy="188.57" rx="2.3232" ry="2.0533" opacity=".88235"/>
    <ellipse cx="109.08" cy="191.99" rx="2.3232" ry="2.0533" opacity=".88235"/>
    <ellipse cx="102.39" cy="195.46" rx="2.3232" ry="2.0533" opacity=".88235"/>
    <ellipse cx="95.352" cy="198.93" rx="2.3232" ry="2.0533" opacity=".88235"/>
    <ellipse cx="88.063" cy="201.98" rx="2.6999" ry="2.5742" opacity=".88235"/>
    <ellipse cx="81.022" cy="205.99" rx="2.6999" ry="2.5742" opacity=".88235"/>
    <ellipse cx="73.781" cy="209.81" rx="2.6999" ry="2.5742" opacity=".88235"/>
    <ellipse cx="66.147" cy="213.56" rx="2.6999" ry="2.5742" opacity=".88235"/>
   </g>
   <path d="m126.59 184.57-2.147-2.9354 4.2929-2.0375 2.4765 2.6802z"/>
  </g>
  <g stroke-width=".26458px">
   <path d="m126.68 152.72 11.001-5.103-8.6485-8.3514-10.497 4.5437z"/>
   <path d="m134.78 149.3 0.88003 1.1029"/>
   <path d="m133.73 149.82 1.043 1.2369"/>
   <path d="m132.59 150.26 0.91323 1.1614"/>
   <path d="m131.6 150.76 0.92157 1.2056"/>
   <path d="m130.52 151.32 0.87298 1.1297"/>
   <path d="m129.49 151.81 0.88133 1.2376"/>
   <path d="m128.39 152.22 0.96073 1.4337"/>
   <path d="m119.88 145.78-1.3976 0.95331"/>
   <path d="m120.68 146.75-1.3977 0.84259"/>
   <path d="m121.43 147.73-1.3728 0.73695"/>
   <path d="m122.22 148.51-1.4057 0.94232"/>
   <path d="m123.03 149.36-1.4405 0.95021"/>
   <path d="m123.83 150.26-1.4725 0.99232"/>
   <path d="m124.56 151.06-1.336 1.0606"/>
  </g>
  <g stroke-width=".26458px">
   <path d="m151.35 156.78c-0.16311 0.11515-1.9331 1.1996-1.9331 1.1996l-2.2909-2.5614 1.4014-1.076-0.85837-0.85428 0.19649-2.6931 8.212-3.6658 4.6569 4.5393-0.1662 3.036-7.8201 3.4354z"/>
   <path d="m148.01 150.89 5.0148 4.3005 7.6916-3.5522"/>
   <path d="m152.99 155.2-0.20199 2.9425"/>
   <path d="m152.22 151.3c-3e-3 -0.43826-0.0274-1.6327-0.0274-1.6327 1.7248-1.3304 3.3958-1.8219 4.8935 0.39404l0.0258 2.2323c-2.1289 1.4474-3.8721 1.5146-4.8946-0.9988"/>
   <path d="m152.18 149.69c1.046 2.895 4.7524 1.7297 4.9012 0.40083"/>
  </g>
  <g stroke-width=".26458px">
   <path d="m130.4 135.9c0.0612 0.063 0.89872 1.0555 0.89872 1.0555l8.2036-3.8338-0.10557-2.526s-3.7258-3.8895-3.8179-3.8648c-0.0921 0.0247-8.2123 3.4897-8.2123 3.4897l0.045 2.8122 0.71843 0.56539-1.4992 0.81809 1.9772 2.2199z"/>
   <path d="m127.42 130.26 4.2328 3.5006 7.8017-3.128"/>
   <path d="m131.68 133.78-0.3608 3.2196"/>
   <path d="m131.44 130.53c1.1399 2.0591 2.5784 2.3852 4.6653 0.8376l0.13374-1.715c-0.76565-1.95-3.8681-2.0318-4.8337-0.25952z"/>
   <path d="m131.41 129.42c0.22089 1.2512 2.6479 2.1401 4.8352 0.2856"/>
  </g>
  <g stroke-width=".26458px">
   <path d="m157.71 143.67c1.6881-2.9212 0.13615-3.9327-0.88532-4.6172l-11.618-9.1506-10.824 5.6704-0.0452 2.6405 0.60228 0.50437s-1.1978 0.59981-1.2563 1.5959c-0.0586 0.99612 0.68885 1.5174 1.7209 1.5902 1.0321 0.0729 2.5087-0.6421 2.5087-0.6421l5.7538 5.9501c-0.63996 0.38206-1.6551 0.57581-1.6092 1.7742 0.0389 1.0142 1.5195 1.3202 2.3368 1.3047 0.81735-0.0155 2.4395-0.29208 2.4395-0.29208z"/>
   <path d="m142.53 146.15-2.1233 1.4589"/>
   <path d="m141.46 144.88-2.1055 1.4424"/>
   <path d="m138.22 145.28 2.2806-1.4095"/>
   <path d="m139.5 142.91-2.3126 1.3162"/>
   <path d="m136.1 143.16 2.2559-1.4346"/>
   <path d="m150.1 141.19 1.8212-1.0337-0.3494-0.3848 0.81996-0.53565 1.8521 1.7162-0.75029 0.48151-0.64052-0.50158-1.7604 1.0099z"/>
   <path d="m141.89 133.51 0.8837 0.79216 1.6654-0.81203 0.60531 0.49571 0.84998-0.63674-1.9002-1.6951-0.8227 0.42135 0.62728 0.56144z"/>
  </g>
  <g stroke-width=".26458px">
   <path d="m117.56 178.1c0.75132-0.40425 7.4987-4.13 7.4987-4.13l0.80893-2.7882-4.6762-5.5359-8.6619 3.7698-0.36355 2.869 0.70814 1.3596-3.0561 1.6614 4.1266 4.3722z"/>
   <path d="m112.58 169.42s4.9407 6.028 5.141 6.0085c0.2003-0.0195 8.1894-4.1869 8.1894-4.1869"/>
   <path d="m117.74 175.64-0.7773 2.4581-4.6693-5.7879"/>
  </g>
 </g>
</svg>
