<svg version="1.1" viewBox="0 0 210 70" xmlns="http://www.w3.org/2000/svg">
 <g fill="none">
  <g stroke="#000">
   <path d="m160.46 11.366c2.0684 0.04955 4.0935-0.48439 6.1338-0.38585 2.0736-0.04187 3.7877 1.3481 5.871 1.1681 1.6398 0.24832 3.3676-0.31013 4.9283 0.18173 3.1988-0.11517 6.4144 0.04362 9.5886-0.45077 1.8246 0.51734 3.1903-1.6585 5.0028-0.67087 1.3637 0.01139 1.6652 1.8927 1.5022 3.0412 0.14196 1.8977 0.0238 3.8995-0.0173 5.8404-0.15406 2.1299 0.15598 4.26 0.4235 6.3494-8e-3 1.804 0.10061 3.602 0.0135 5.411-0.13772 1.0744 0.47132 2.5294-0.79586 3.0891-1.4926 0.90248-3.2989 0.70606-4.9011 1.1584-1.4552 0.0029-3.29 0.06532-4.8721-0.10918-2.054-0.10744-4.1513-0.33849-6.2293-0.42083-1.991-0.0011-4.0017 0.0064-5.9027 0.59863-1.6073 0.37343-3.2502 0.42426-4.8931 0.43678-1.7429-0.06059-3.5634 0.26236-5.187-0.46091-2.5765 0.19617-3.4242-2.8617-1.6332-4.4756 0.98621-1.4949 3.2694-1.7657 3.5306-3.8348 0.76198-2.3635-1.4912-3.8288-3.1281-5.001-1.9355-0.99784-1.844-3.2578-0.10283-4.2835 0.59578-1.932 1.7637-3.902 0.41029-5.8999 0.0643-0.43122 0.1708-0.85475 0.25687-1.2814z" stroke-width=".50891px"/>
   <path d="m174.64 43.079c1.3343-1.203 2.491-2.6019 3.3798-4.1386 0.79618-0.43448 1.3042-2.2995 2.0698-0.56479 1.5086 1.0654 2.4874 2.7527 3.2413 4.3356 0.0567 0.5396 2.0232 2.8289 0.64617 1.497" stroke-width=".5"/>
   <path d="m179.33 38.846c0.42005 1.6984 0.28235 3.3681 0.0437 5.0935 0.0872 1.9943 0.0444 3.9964 0.48918 5.9737-0.0249 0.16251 0.21705 1.5282-0.0571 0.77099" stroke-width=".5"/>
   <path d="m158.64 10.893c-0.27229 2.0705 1.6796 4.2414-1.0542 6.674-1.521 2.4707-0.0616 5.7868 2.359 7.0601 2.0652 1.6621 0.73128 4.6635-1.2506 5.7002-1.3062 1.6421-1.0131 4.475-3.1912 5.3855-2.1726 0.62716-4.5242 0.54761-6.6267-0.28587-2.3994-0.25458-4.7905 0.59453-7.1853 0.1442-3.2508-0.05224-6.4417 1.365-9.6975 0.58128-4.8336-0.57079-10.041 0.57547-14.861-0.01653-1.8625 0.38506-3.8625-1.7355-2.1587-3.59 3.3023-3.4945 0.0637-5.3248-1.2458-7.2582-3e-3 -2.8837 1.3498-3.0102 3.447-3.4448 1.5697-1.4352 1.6714-4.0382 0.31133-5.1236-1.9542-1.1531-3.0703-4.3733-1.3483-6.0803 2.5314 0.09694 5.1166-0.52352 7.4788-0.4422 3.6594 0.47018 7.3472 0.1769 11.023 0.14599 2.5983-0.24321 5.0051 1.1105 7.5947 0.77992 1.903-0.41336 3.8385-0.76082 5.7984-0.53135 2.4669 0.25066 4.9524 0.32614 7.4024-0.13026 1.0348-0.04729 2.327-0.20514 3.2041 0.43213z" stroke-width=".50891px"/>
   <path d="m112.62 11.172c-1.3157 1.5483 0.17792 3.3512 1.0498 4.6805 0.86496 1.065 2.0558 2.7355 0.50665 3.7904-1.4301 1.7149-2.2859 4.2196-1.7046 6.4022 2.0881 1.8316 2.1047 4.9094 0.23579 6.9101-0.99341 0.95762-0.4631 3.0404-2.3188 3.0933-3.5593 1.1158-7.0967-0.11246-10.657-0.30043-3.8634-0.02131-6.1683-0.69616-10.238-0.36255-2.8511-0.32993-5.9366-0.48423-9.1595-0.61646-4.5979 0.02914-9.0185 0.913-13.595 0.53531-5.6309-0.10918-11.5-0.18415-17.131-0.088343-5.2791-0.37938-10.359 0.26957-15.655-0.18165-4.2284-0.095711-8.4831-0.16314-12.655-0.90029-3.2304-0.80177-6.5959-0.10648-9.794-0.70732-5.4505 0.27171-2.7682-5.9504-3.2283-9.2861 0.82152-4.7847 0.2225-6.7498 0.70361-11.554 0.72209-5.0392 5.7404-3.123 9.1959-2.8834 3.8932 0.54905 7.8746 0.59392 11.715-0.24299 4.5241-0.12895 8.8943 1.2842 13.387 1.6754 6.7613 0.97724 13.651-2.1318 20.426-1.4314 4.8736-1.0853 9.8997-0.82415 14.763 0.1814 4.624-0.34816 9.1778 1.4644 13.76 0.17078 3.9849-0.25061 7.727 2.4822 11.822 1.2461 2.241 0.0384 6.7299-1.3703 8.5718-0.13066z" stroke-width=".50891px"/>
  </g>
  <text x="160.57077" y="55.273186" font-family="sans-serif" font-size="5.3294px" stroke-width=".307" style="font-variant-caps:normal;font-variant-east-asian:normal;font-variant-ligatures:normal;font-variant-numeric:normal;line-height:1.25" xml:space="preserve"><tspan x="160.57077" y="55.273186">Length of the </tspan><tspan x="160.57077" y="61.934875">signature as uint_32</tspan></text>
  <g stroke="#000" stroke-width=".5">
   <g transform="matrix(1.1621 0 0 1.1621 -20.165 -33.005)" stroke-linecap="round" stroke-linejoin="round">
    <path d="m156.4 73.481c-5e-3 0.86807 0.26286 1.7356 0.10775 2.5751 0.47848 0.04798 0.95411-0.0089 1.4281-0.03143"/>
    <path d="m159.13 75.268c1.4817-0.33134-0.75591-1.1492-0.46031 0.08577 0.1109 0.63795 0.70045 1.0272 1.2249 0.51521"/>
    <path d="m160.4 74.823c0.25046 0.62979 0.16353 1.8101 0.32806 0.43686 0.63556-1.5246 1.0936 0.32785 1.047 0.86624"/>
    <path d="m163.81 74.565c-1.769-0.26775-0.14119 3.0624 0.35747 0.95471 0.29479-0.51622-0.17659-1.9125-0.10659-0.54131 0.17152 0.79044 0.70948 3.154-0.515 2.9031-0.40637-0.25944-0.33313-0.99238 0.25591-0.85074"/>
    <path d="m165.45 71.709c0.40329 1.3671-0.0321 2.9709 0.6154 4.2138 0.33751 0.23507 0.6043-0.31151 0.87419-0.42134"/>
    <path d="m165.08 74.635c0.59705 0.05401 1.0478-0.14857 1.5998-0.1015"/>
    <path d="m167.53 71.878c0.55377 1.1725 0.19298 2.4985 0.37491 3.73-0.31354 0.48441 0.83914-2.3361 1.3522-0.89708 0.0573 0.38357 0.0212 0.79842-0.0132 1.1624"/>
    <path d="m172.55 74.097c-2.0175-0.08405 0.30705 3.2002 0.83573 0.36679-0.16287-0.20872-0.54016-0.55082-0.83573-0.36679z"/>
    <path d="m176.16 71.85c-1.5698-0.75928-1.0908 2.1401-1.3937 2.9994-0.0511 0.48783-0.0349 0.98677 5e-3 1.4719"/>
    <path d="m174.09 74.409c0.5222 0.0051 1.0396 0.15329 1.5608 0.07806"/>
    <path d="m156.31 80.654c-1.0496 0.26102 0.0823 0.52255 0.31134 0.90177 0.11024 0.36816-0.42148 0.70898-0.75607 0.5028"/>
    <path d="m157.4 80.646c0.0667 0.40415-0.0424 1.3983 0.0988 1.4984"/>
    <path d="m157.29 79.327c-0.77511 1.0679 1.0788-0.05793 0 0z"/>
    <path d="m159.66 80.873c-1.5929-0.13791-0.12662 2.4996 0.44414 0.7412 0.23482-0.7115-0.43081-1.3627-0.22674-0.24526-0.0293 0.76215 0.46825 2.5229-0.45303 2.6799-0.33026-0.32145-0.33745-1.0103 0.32058-0.77245"/>
    <path d="m161.14 80.623c0.20784 0.60107 0.11867 2.4013 0.34063 0.7881 0.71187-1.1865 1.0386-0.27191 1.0927 0.60084"/>
    <path d="m164.73 80.638c-1.1698-0.53064-1.5447 2.2636-0.0149 1.3032 0.91169-0.44285-0.31036-2.1186 0.2966-0.80372 7e-3 0.31837 0.089 0.61917 0.12298 0.9286"/>
    <path d="m166.02 78.391c0.1392 1.1418-0.36709 2.6018 0.25589 3.5508 0.16337 0.1413 0.44748-0.12399 0.53768-0.24199"/>
    <path d="m165.62 80.912c0.36454-0.21281 0.78484-0.31596 1.2011-0.28885"/>
    <path d="m167.65 80.74c-0.29821 1.3907 1.0968 1.0992 1.2083 0.05472 0.0887-1.064-0.1296 0.43809-0.0526 0.71807l0.0445 0.21053"/>
    <path d="m169.78 80.248c0.13705 0.69638 0.14102 2.8774 0.0295 1.0144 0.0483-0.49773 0.69667-1.1013 1.1233-0.77253"/>
    <path d="m171.61 81.153c1.0142 0.56254 1.3304-1.4014 0.15592-0.69469-0.5931 0.68995 0.0682 1.7971 0.9356 1.67 0.0268-0.0674 0.16502-0.04778 0.0311-0.0076"/>
    <path d="m175.83 80.589c-1.6771-0.48617-0.44086 2.4121 0.359 1.0066 0.37781-0.37586 0.0925-1.9471 0.23537-0.6322 0.0483 0.25726 0.076 0.60863 0.18008 0.82712"/>
    <path d="m178.31 80.441c-0.96574-0.49411-0.81954 1.0532 8e-3 1.0066 0.37851 0.58082-0.23228 0.70312-0.66264 0.71025"/>
    <path d="m182.22 80.277c-0.47398 0.76368 0.55159 2.3103 1.0023 1.0264 0.17714-0.43619 0.12861-2.0742 0.14466-0.66745-0.0406 0.29164 0.16304 0.92073 0.13143 1.0144"/>
    <path d="m184.1 80.105c0.0617 0.475 0.0617 1.1294 0.11653 1.5139"/>
    <path d="m183.66 78.826c-0.18372 0.24818 0.39482 0.59106 0.4754 0.26208 0.0806-0.32898-0.29168-0.51026-0.4754-0.26208z"/>
    <path d="m184.96 80.253c0.0472 0.70112 0.22724 2.233 0.23454 0.60085 0.35137-1.1888 1.4334-0.57923 1.0217 0.43701l8e-3 0.30431v0.09349l-8e-3 -0.01539"/>
    <path d="m187.16 77.936c0.0149 1.1683-0.41961 2.7457 0.31945 3.6833 0.21719 0.01126 0.47335-0.01622 0.62457-0.19515"/>
    <path d="m186.87 80.667c0.21647-0.17563 0.88523-0.18265 0.95968-0.18745"/>
    <path d="m189.25 81.83c0.44812-0.35001 1.2894-0.10289 1.6464-0.18717"/>
    <path d="m191.62 79.526c0.6788-0.45557 1.1241-0.11401 1.1403 0.31033 0.0143 0.37343-0.67919 0.27762-0.71168 0.46338-0.0325 0.18576 0.78842-0.03645 0.74688 0.76557-0.0415 0.80201-0.79073 0.57252-1.1235 0.31846"/>
    <path d="m193.66 79.426c0.9636-1.552 2.3063 0.21896 1.2564 1.2799-0.45422 0.3895-1.3865 1.2544-0.1843 0.73462 0.26897-0.14847 0.74068-0.13582 0.92552-0.048"/>
    <path d="m178.19 72.198c0.0924 0.31718 0.11498 0.64538 0.12554 0.97356 0.0162 0.32256 0.10402 0.63672 0.10733 0.95998 0.0311 0.26551 0.0889 0.52375 0.0827 0.79225-0.0359 0.24786 0.0399 0.48934 0.1811 0.6889 0.0795 0.25912 0.3691 0.40422 0.61069 0.25384 0.10177-0.03184 0.20492-0.05047 0.30684-0.08138"/>
    <path d="m177.8 74.338c0.22554 0.13344 0.48706 0.08872 0.73372 0.11195 0.18053 0.01664 0.46755 0.13873 0.58645 0.12152"/>
    <path d="m179.8 72.191c0.1836 0.56479 0.21401 1.1632 0.29384 1.7478 0.045 0.41656-1.6e-4 0.84715 0.11289 1.2524 0.063 0.08821 0.0412 0.40287 0.0983 0.12733 0.0518-0.22383 0.1684-0.37434 0.24084-0.58483 0.056-0.25921 0.25906-0.47672 0.54157-0.39603 0.34473 0.0138 0.38325 0.4256 0.41518 0.69168 0.0235 0.29461 0.0953 0.58222 0.11816 0.87514"/>
    <path d="m182.76 75.005c0.29457-0.04356 0.57869-0.26131 0.60001-0.57556 0.1231-0.30088-0.2243-0.4552-0.47304-0.43032-0.31144-0.01458-0.53941 0.30108-0.53501 0.59371-0.02 0.38132-0.0173 0.83531 0.30022 1.1023 0.12867 0.20758 0.39671 0.21841 0.61367 0.21356 0.18725-0.04922 0.36109-0.09829 0.54127-0.16365"/>
   </g>
  </g>
  <g transform="matrix(1.1621 0 0 1.1621 -19.997 -27.896)">
   <g stroke="#000" stroke-linecap="round" stroke-linejoin="round" stroke-width=".5">
    <path d="m118.73 68.443c0.38063 1.1628-0.0519 2.4505 0.30183 3.6331 0.0834 0.17237 0.096 0.36781 0.0712 0.55411"/>
    <path d="m118.84 68.537c0.63477-0.12648 1.5067 0.3073 1.2917 1.0655 0.13242 0.50401-1.269 0.48646-0.90035 0.59404 0.95955-0.14928 1.667 0.78366 1.5514 1.6879-0.26843 0.53483-1.0113 0.42953-1.4707 0.55632"/>
    <path d="m121.72 70.546c0.0441 0.53782 0.022 1.3297 4e-3 1.7114"/>
    <path d="m121.5 69.489c-0.60654 1.2348 1.1699 0.19906 0 0z"/>
    <path d="m122.44 70.748c0.12437 0.33051 0.22241 2.2992 0.21964 0.99862-0.25355-0.93127 1.2164-1.6411 1.0423-0.32449-0.0516 0.2745 0.0265 0.53722 0.0375 0.80629"/>
    <path d="m126.16 70.706c-1.1643-0.94925-1.6128 1.6381-0.24041 1.1645 0.39369-0.44023 0.18505-1.8193 0.24169-0.54082 0.0269 0.23022 0.17197 0.64156 0.19171 0.7765"/>
    <path d="m127.05 70.574c-0.0445 0.35476 0.0879 1.9207 0.1421 0.74956-0.058-0.70206 0.54021-0.86523 0.85808-0.81099"/>
    <path d="m128.8 70.47c-0.65381 0.98702 1.0529 2.2678 1.1798 0.70853 0.30193-0.51813 0.0993-1.4821 0.0125-0.35418-0.0698 0.96122 0.4347 2.0073-0.0503 2.9048-0.84876-0.04134-0.40398-1.0578 0.13078-1.2885"/>
    <path d="m133.92 69.985c-0.73333 0.02275-1.0436 1.2359-2e-3 0.98503 1.1728 0.20104-0.20763 1.6025-0.24832 0.88667"/>
    <path d="m135.17 70.098c0.1203 0.29586 0.12113 2.0344 0.22105 1.6219"/>
    <path d="m134.91 68.627c-0.77392 0.78921 1.0143 1.0117 0.57511 0.0048-0.17807-0.1272-0.38695-0.0263-0.57511-0.0048z"/>
    <path d="m137.48 70.192c-1.2082-0.68468-1.4031 2.1127 5e-3 1.4173 0.70271-0.17194 0.2943-2.4718 0.15938-1.0933 0.18235 0.8084 0.57003 2.4756-0.31559 2.7782-0.79469-0.26647-0.0416-1.2508 0.55635-1.0984"/>
    <path d="m139.1 69.904c0.0676 0.55522 0.0763 2.4648 0.47597 0.98854 0.15112-0.83174 1.1149-1.1473 0.9086-0.0322 0.0284 0.06323-0.0491 1.0806 0.0383 0.76919"/>
    <path d="m142.23 70.065c-0.91951-0.38039-1.4019 1.8855-0.23145 1.5169 0.64961-0.08886 0.57971-1.8781 0.27914-1.5956 0.0864 0.18245 0.24149 1.9365 0.51292 1.4554"/>
    <path d="m143.4 68.094c-0.20346 0.90548 0.19811 1.8765 0.10493 2.8169 3e-3 0.01883-0.0105 0.47147 8e-3 0.16735"/>
    <path d="m143.07 70.267c0.32754-0.08722 0.6485 0.09416 0.98068 0.06128"/>
    <path d="m144.67 69.73c-0.41883 0.7536 0.19973 2.6146 0.90532 1.1833 0.12504-0.34177 0.0682-1.5986 0.0822-0.49926 0.0285 0.11065 0.0754 1.5674 0.28998 0.81051"/>
    <path d="m146.43 69.919c0.0624 0.27516 0.0967 1.1854 0.18912 1.0777-0.15626-0.57904 0.26092-1.3628 0.8851-0.99284"/>
    <path d="m147.99 70.456c1.1121 0.57673 1.3015-1.8268 0.19854-0.66268-0.95876 0.58221-0.14915 1.5487 0.70206 1.4925v-0.02357"/>
   </g>
   <text x="118.64584" y="71.970711" font-family="sans-serif" font-size="4.2333px" stroke-width=".26458" style="line-height:1.25" xml:space="preserve"><tspan x="118.64584" y="71.970711" fill="none" stroke-width=".26458">Binary signature</tspan></text>
   <path d="m127.2 60.99c0.83154-0.9689 1.662-2.0159 2.6973-2.7466 0.37448-0.63028 1.164-1.8163 1.778-0.71809 0.5146 0.63023 1.0982 1.194 1.4797 1.9236 0.64734 0.70936 1.1834 1.5173 1.5197 2.4253-0.0898 0.07704 0.3674 0.35848 0.11994 0.20116" fill="none" stroke="#000" stroke-linecap="round" stroke-linejoin="round" stroke-width=".43026"/>
   <path d="m130.98 68.398c0.087-1.5111 0.12828-3.0548-0.29858-4.52-0.0115-1.1834 0.18233-2.3594 0.12814-3.5456 0.0193-0.62834 0.0559-1.2566 0.047-1.8854" fill="none" stroke="#000" stroke-linecap="round" stroke-linejoin="round" stroke-width=".43026"/>
  </g>
  <path d="m47.691 41.679c0.92944-0.78997 1.5887-1.8325 2.2201-2.8618 0.33532-0.46554 0.80704-0.89492 1.3983-0.96808 0.54887 0.34413 0.58231 1.0651 0.96859 1.5373 0.58869 0.97276 1.1088 2.0196 1.9614 2.7961" stroke="#000" stroke-linecap="round" stroke-linejoin="round" stroke-width=".5"/>
  <path d="m50.897 39.472c0.28768 1.4893 0.45849 3.1339 0.54674 4.9033 0.05968 0.48672-0.26938 4.0621-0.29473 4.4892" stroke="#000" stroke-linecap="round" stroke-linejoin="round" stroke-width=".5"/>
  <g transform="translate(3.8239 2.3107)">
   <g stroke="#000" stroke-linecap="round" stroke-linejoin="round" stroke-width=".5">
    <path d="m23.914 51.007c-0.08037-0.51105-0.19219-1.6522-0.13317-2.367-0.10458-1.4285 2.2941 0.09458 0.90003 0.80019-1.3949 0.50979 0.42795-0.56421 0.73949 0.32398 0.62658 0.85703-0.63017 1.6597-1.3196 1.4096"/>
    <path d="m26.555 49.707c-0.06445 0.49339-0.0061 0.98215 0 1.4736"/>
    <path d="m26.515 48.48c-0.986 1.1607 1.3241 0.25195 0 0z"/>
    <path d="m27.455 49.8c0.14447 0.87447 0.06331 2.2877 0.24008 0.52 0.77036-0.93778 0.79471 0.64742 0.83353 0.92019"/>
    <path d="m30.142 50.04c-1.5955-0.28746-0.03582 2.2039 0.23329 0.50662 0.2652-1.6523-0.28813 0.51294 0.26682 0.50682"/>
    <path d="m31.236 49.8c0.13846 0.85112-0.0037 2.1252 0.18656 0.5334 0.08277-0.35278 0.49428-0.39899 0.7868-0.29336"/>
    <path d="m32.963 50.074c-0.22278 1.4692 1.2815 1.0902 1.0468-0.13997-0.23422 0.77594 0.31797 2.2508-0.3601 2.9269-0.62683-0.18373-0.13223-1.1532 0.37344-1.0402"/>
    <path d="m38.637 48.1c-2.0907-0.79148-0.84622 1.5606-1.1735 2.6735 0.30394 0.34787 1.2005-0.08832 1.3601 0.07352"/>
    <path d="m37.803 49.414c0.45735 0.13826 0.88138 0.19967 1.3402 0.07349"/>
    <path d="m41.437 48.193c-1.1636-0.97956-1.9023 1.795-0.21348 1.1868 0.86656 0.61975 0.14485 1.8527-0.86669 1.4069"/>
    <path d="m42.251 50.84c0.03912-0.26734-0.57816-3.4491 0.99348-2.7935 0.57434 0.31741 0.87846 1.467 0.01339 1.5668-0.25743 0.04787-0.49194-0.15653-0.74008-0.07329"/>
    <path d="m46.498 48.08c-1.4766-0.29689-1.1314 1.7253 0.16675 1.6535 0.61005 2.1003-2.673 0.39497-0.72691-0.71333 0.45315 0.06647 1.5003-0.84557 0.56016-0.94018z"/>
    <path d="m47.605 48.947c0.29116-1.3128 2.0554-0.68038 1.1201 0.39342-0.13321 0.52442-1.6607 1.7846-0.26001 1.2469 0.34257-0.09903 0.62414 0.01537 0.95336 0.10662"/>
    <path d="m50.965 47.994c-1.4047 0.24531-1.1472 2.7161-0.21647 2.7367 1.1923 0.0264 0.67762-1.6234-0.2877-1.2429"/>
    <path d="m53.246 48.073c-1.8052 0.07697-0.91038 2.7183-0.16468 2.6312 0.68374-0.07979 1.1697-1.525-0.34606-1.1898"/>
    <path d="m55.886 49.387c-0.19555 0.45337 0.05686 2.332 0.10006 2.1402"/>
    <path d="m56.213 49.394c1.2596-1.1431 1.2986 1.852-1e-5 1.0736v-0.02016l-0.01998-0.08667"/>
    <path d="m57.766 49.354c-0.11826 0.75538-0.23898 1.6264 0.25324 0.46011 0.10897-0.31836 0.60097-0.62815 0.89345-0.34666"/>
    <path d="m60.033 49.28c-2.1192 1.1247 1.7711 2.0377 0.69787 0.27705-0.20111-0.17399-0.48255-0.13499-0.69787-0.27705z"/>
    <path d="m62.707 49.367c-1.8315-0.66358-0.80165 2.5977 0.23326 0.80678 0.01855-2.0059 0.23945 1.6153-0.20668 2.0601-0.70165 0.6683-0.85206-1.093 0.14678-0.95994"/>
    <path d="m64.081 49.327c-0.21056 0.88982-0.01848 1.694 0.2067 0.35346 0.25498-0.18816 0.63401-0.40602 0.94018-0.20671"/>
    <path d="m67.373 49.498c-2.2045-0.7568-0.73072 2.9891 0.27838 0.92086 0.11994-1.0074-0.3162-1.164 0.09507-0.04079 0.02378 0.11154 0.07094 0.28666 0.1999 0.3333"/>
    <path d="m68.587 49.412c0.08911 0.626 0.08418 2.4243 0.24665 0.76664 0.46896-1.3559 1.711 0.0359 1.4137 0.74009-0.1496-1.5016 1.8966-1.5499 1.4868 0.03336l0.02016 0.09346 0.01318-0.02016"/>
   </g>
   <text x="23.250298" y="51.208641" font-family="sans-serif" font-size="4.3392px" stroke-width=".26458" style="font-variant-caps:normal;font-variant-east-asian:normal;font-variant-ligatures:normal;font-variant-numeric:normal;line-height:1.25" xml:space="preserve"><tspan x="23.250298" y="51.208641" fill="none" font-family="sans-serif" font-size="4.3392px" stroke-width=".26458" style="font-variant-caps:normal;font-variant-east-asian:normal;font-variant-ligatures:normal;font-variant-numeric:normal">Binary ESP8266 program</tspan></text>
  </g>
  <g stroke-linecap="round">
   <path d="m14.519 27.485c0.1828-3.2296-1.0009-9.7607 1.647-11.794 4.1427-1.796 4.3231 9.3434 4.1952 11.307-0.33365 3.4138 3.4517-7.4652 3.6911-8.7773 0.21352-3.3109 5.1227-1.7103 4.2066 2.093 0.28407 1.7302-3.9011 7.7486-2.9951 8.136 2.6756-2.6815 5.0452-8.8292 7.4734-11.608 3.6539 0.31149-1.413 9.9856-1.1931 12.371 1.7666-0.44826 5.9947-10.088 8.2112-11.991-0.43011 1.2013-3.9787 9.2319-3.3594 11.996 2.8638-2.0574 5.0482-8.5151 7.9026-10.774 7.2902-6.1097-5.1894 9.1929-1.1514 10.01 2.104-2.6668 5.541-9.3042 8.8803-10.611-1.1798 1.9846-4.8169 9.046-2.9776 10.868 2.7379-2.1775 5.3447-10.22 8.6553-11.819-1.1108 1.0427-4.3037 16.694-0.4521 11.829 2.1826-2.6831 4.013-9.9865 6.9639-11.888-7.6082 12.464 1.1216 0.90454 2.6578 1.8473-0.73413 1.3849-3.6608 10.311-1.1702 10.371 1.2742-1.3133 6.5954-12.67 7.1911-12.84-1.3954 1.1289-5.0605 14.493-1.3779 12.097 3.7338-2.4199 6.0539-9.599 10.325-10.99-1.1622 1.6314-6.919 8.2639-6.3363 9.269 14.229-18.046 1.5965-0.82796 5.3582 0.47604 2.7208-1.988 5.9293-8.4999 9.2146-9.7061-0.90808 2.1858-4.1592 9.6402-2.1315 11.59 3.0448-2.1715 4.9108-9.5099 8.4068-11.203-5.9178 13.224-1.5779 4.2988 5.6052 0.79864-1.2627 2.1405-4.4331 8.5129-4.0699 10.79 2.5106-1.6497 6.5421-10.405 9.2094-11.524-1.189 1.1149-1.3203 11.858-0.0774 12.202" stroke="#fd0000" stroke-linejoin="round" stroke-opacity=".20061" stroke-width="12.01"/>
   <path d="m118.12 33.247c0.43558-1.6407 2.059-2.4885 2.225-4.2823 0.66258-2.3966-2.7532-1.5837-3.1524-4.0208 3.5878-1.8199 5.2812-6.4962 3.4307-8.3833-3.6829-4.0617-1.2025-3.6211 1.0062-3.5021 2.1826 0.2077 1.0845 3.0416 1.0586 4.4636 0.0524 1.3951-0.3045 2.746-0.96165 3.973-0.67133 1.2666-0.90587 2.8302-0.11034 4.1066 0.97121 2.1017 1.1031 4.4886 0.53091 6.7125-0.49774 2.0431 2.0647 1.4912 2.4112 0.07174 1.246-2.4211 0.48774-5.2183 1.0189-7.795 0.37237-2.1086 0.50065-4.2604 0.97806-6.3464 0.96527-1.4313 1.4758-2.9799 1.8428-4.6774 1.2355-1.1137 3.1628 1.5809 2.4022 2.964-0.52053 2.3807-1.0313 4.7628-1.2953 7.1881-0.22516 2.1429-0.74516 4.3183-0.13216 6.4488-0.0561 1.4058 0.72957 3.5913 2.4061 2.1772 1.3581-1.2101 1.3333-3.2567 1.3715-4.9441-0.11049-1.6102 0.17674-3.1934 0.38888-4.772 0.10493-2.4434-0.23781-5.0889 1.0659-7.2918 1.1117-1.326 3.3205-0.69248 2.9061 1.2034 0.43037 3.0813-1.0615 5.9654-1.3707 8.9701 0.31993 1.6973 0.0502 5.5369 0.74835 7.1433 1.3015 1.5522 3.4903-2.3471 3.566-3.9333 1.0014-3.7575-0.0471-7.6407 0.15412-11.459 0.22237-1.0733-0.23608-3.047 1.154-3.2908 1.3495 0.84959 2.1875 2.5117 2.336 4.0942 0.35862 2.4609-0.45438 4.8507-1.056 7.196-0.77088 2.118 0.24781 4.0824 0.84112 6.0528-0.0955 1.8139 2.4121 3.127 3.4011 1.2888 0.82526-1.3017 0.89965-2.8961 1.3822-4.333 0.52603-2.1058 0.70597-4.2759 0.49178-6.4408 0.23819-1.8064-2.802-5.8155-1.5706-7.4239 0.62779-1.374 2.7972 0.2573 3.0366 2.1468 0.83474 1.8757 1.0244 3.948 0.91875 5.974-2e-3 1.8797-0.69971 3.6849-0.57185 5.5647-0.47196 1.5169 1.0818 5.3496 3.094 4.6035 1.4124-0.92402 1.3491-3.9903 1.985-5.5828 1.136-2.06-0.95557-3.4709-1.5739-5.2035 0.0186-2.0354-0.58598-4.2339 0.43766-6.1305 0.2464-0.70728 0.36784-1.4494 0.49705-2.1846" stroke="#00e700" stroke-linejoin="round" stroke-opacity=".20798" stroke-width="5.1591"/>
   <path d="m161.62 33.538c1.5928-1.6562 4.2763-3.5125 4.0812-6.0375 0.53512-2.1582-0.61439-4.8351-2.6281-5.6075-4.1197-1.1855 1.7759-3.3688 0.59091-5.5745-0.53982-2.1012 0.93153-3.7344 2.6822-1.2637-0.53916 2.0954-2.5111 2.9619-1.0883 5.2895 0.47902 1.9308 3.0362 2.4729 2.4751 4.9054 0.23937 1.957-1.7616 3.2351-1.3243 5.234-0.31107 1.5763-0.88692 3.8787 1.9381 3.0882 2.2675-0.84305 0.98642-2.6637 1.3223-4.4394 0.47377-2.0097-0.14184-3.9975-0.14256-5.9998 0.694-2.2439-1.9153-3.5219-1.592-5.6251 0.3231-3.4557 5.5869-3.9514 5.5788-0.11137-0.0709 3.427-1.4147 6.7657-0.81364 10.218 0.36855 1.6122-0.7764 5.2066 1.9735 4.666 1.9867-0.8066 1.7025-3.2912 1.9958-5.0381 0.4779-4.0816-0.74719-8.3355 0.92428-12.251 1.7022-0.46521 3.2142 2.948 2.8727 4.7754-0.13844 1.7427-0.52991 4.0062-0.60639 4.7754-0.0381 2.4053-1.3495 5.9581 1.2695 7.4075 2.4642 2.4611 3.8827-2.3973 4.2608-4.42 0.0582-2.3352-0.68982-4.6183-0.46631-6.9713 6e-3 -1.7753-0.14605-5.0241 2.4288-4.8801 1.4637 1.3482 0.30576 4.267 0.44221 6.2339-0.22298 3.2232-0.2997 7.3258 2.7474 9.3162 1.5057-0.50547 0.31476-3.3588 0.32337-4.8032-0.11504-2.1995 0.85254-4.3422 0.32725-6.5518-0.5755-2.071 0.59953-3.8092-0.78557-5.7347" stroke="#0000e4" stroke-opacity=".15479" stroke-width="5.1591"/>
  </g>
 </g>
</svg>
